<svg xmlns="http://www.w3.org/2000/svg" width="807" height="135" viewBox="0 0 807 135">
  <title>auditing-8</title>
  <g>
    <circle cx="73" cy="38" r="17" fill="#fcebe8" stroke="#f63" stroke-miterlimit="10"/>
    <path d="M75.18,44H72.46V36.56c0-.15,0-.33,0-.54s0-.44,0-.67,0-.47,0-.7,0-.45,0-.64l-.15.16-.24.23-.27.26-.28.23-1.47,1.19-1.32-1.63L73,31.15h2.23Z" fill="#f63"/>
    <circle cx="266" cy="40" r="17" fill="#fcebe8" stroke="#f63" stroke-miterlimit="10"/>
    <path d="M270.34,46h-8.62V44.11l3-3.26,1-1.13a10.64,10.64,0,0,0,.8-1,4.62,4.62,0,0,0,.52-1,3.25,3.25,0,0,0,.18-1.1,1.31,1.31,0,0,0-.39-1,1.49,1.49,0,0,0-1.05-.36,2.75,2.75,0,0,0-1.33.35,6.62,6.62,0,0,0-1.35,1l-1.47-1.75c.26-.24.53-.47.82-.69a6,6,0,0,1,.95-.58,5.69,5.69,0,0,1,1.14-.41A6.07,6.07,0,0,1,266,33a5,5,0,0,1,1.66.25,3.53,3.53,0,0,1,1.25.73,3.14,3.14,0,0,1,.8,1.13,4,4,0,0,1,.27,1.51,4.13,4.13,0,0,1-.26,1.44,7.15,7.15,0,0,1-.72,1.36,13.62,13.62,0,0,1-1.06,1.32c-.4.43-.83.87-1.29,1.33l-1.55,1.55v.12h5.24Z" fill="#f63"/>
    <circle cx="462" cy="38" r="17" fill="#fcebe8" stroke="#f63" stroke-miterlimit="10"/>
    <path d="M465.84,34a3.21,3.21,0,0,1-.21,1.2,3.12,3.12,0,0,1-.59.94,3.44,3.44,0,0,1-.88.66,4.38,4.38,0,0,1-1.1.41v.06a4,4,0,0,1,2.36.94,2.67,2.67,0,0,1,.8,2,4,4,0,0,1-.3,1.56,3.41,3.41,0,0,1-.94,1.24,4.29,4.29,0,0,1-1.58.82,7.45,7.45,0,0,1-2.24.3,10.09,10.09,0,0,1-2-.18,7.24,7.24,0,0,1-1.71-.52V41.17a6.45,6.45,0,0,0,.84.37l.87.27c.3.07.59.12.87.16a7.8,7.8,0,0,0,.8.05,4.47,4.47,0,0,0,1.26-.14,2,2,0,0,0,.8-.39,1.51,1.51,0,0,0,.43-.61,2.45,2.45,0,0,0,.13-.78,1.56,1.56,0,0,0-.17-.72,1.37,1.37,0,0,0-.53-.54,2.91,2.91,0,0,0-.95-.35,7.35,7.35,0,0,0-1.45-.12h-.91V36.46h.89a5.13,5.13,0,0,0,1.35-.15,2.29,2.29,0,0,0,.86-.39,1.42,1.42,0,0,0,.45-.59,1.87,1.87,0,0,0,.13-.71,1.37,1.37,0,0,0-.43-1.07,1.94,1.94,0,0,0-1.35-.39,3.21,3.21,0,0,0-.78.09,3.59,3.59,0,0,0-.68.21,3.78,3.78,0,0,0-.57.28c-.17.1-.33.2-.47.3l-1.37-1.81a5.72,5.72,0,0,1,.8-.5,7.53,7.53,0,0,1,.95-.4,8,8,0,0,1,1.1-.27,8.26,8.26,0,0,1,1.25-.09,7.09,7.09,0,0,1,1.73.2,4.17,4.17,0,0,1,1.33.6A2.63,2.63,0,0,1,465.84,34Z" fill="#f63"/>
    <circle cx="655" cy="38" r="17" fill="#fcebe8" stroke="#f63" stroke-miterlimit="10"/>
    <path d="M658.54,41.34H657V44h-2.65V41.34H649V39.45l5.45-8.3H657v8.08h1.55Zm-4.2-2.11V37.05c0-.08,0-.19,0-.33s0-.31,0-.49,0-.37,0-.56,0-.38,0-.56,0-.32,0-.46,0-.22,0-.28h-.08l-.36.78c-.13.27-.28.55-.45.83l-2.14,3.25Z" fill="#f63"/>
    <polygon points="89.5 38.79 237.11 38.79 237.11 44.58 248.5 38 237.11 31.42 237.11 37.21 89.5 37.21 89.5 38.79" fill="#606467"/>
    <polygon points="282.5 38.79 433.11 38.79 433.11 44.58 444.5 38 433.11 31.42 433.11 37.21 282.5 37.21 282.5 38.79" fill="#606467"/>
    <polygon points="478.5 38.79 626.11 38.79 626.11 44.58 637.5 38 626.11 31.42 626.11 37.21 478.5 37.21 478.5 38.79" fill="#606467"/>
    <text transform="translate(51 71)" font-size="11" fill="#f63" font-family="Verdana-Bold, Verdana" font-weight="700">Request</text>
    <text transform="translate(24 100.5)" font-size="11" fill="#f63" font-family="Verdana-Bold, Verdana" font-weight="700">Starting location<tspan x="26.61" y="13.2">of crawl</tspan></text>
    <text transform="translate(622.2 100.5)" font-size="11" fill="#f63" font-family="Verdana-Bold, Verdana" font-weight="700">Request to<tspan x="0.6" y="13.2">be audited</tspan></text>
    <text transform="translate(244 73)" font-size="11" fill="#f63" font-family="Verdana-Bold, Verdana" font-weight="700">Request</text>
    <text transform="translate(440 71)" font-size="11" fill="#f63" font-family="Verdana-Bold, Verdana" font-weight="700">Request</text>
    <text transform="translate(633 71)" font-size="11" fill="#f63" font-family="Verdana-Bold, Verdana" font-weight="700">Request</text>
    <line x1="586.5" y1="84.5" x2="726.5" y2="84.5" fill="none" stroke="#ebf0f2" stroke-miterlimit="10"/>
    <line x1="3.5" y1="84.5" x2="143.5" y2="84.5" fill="none" stroke="#ebf0f2" stroke-miterlimit="10"/>
  </g>
</svg>
