<svg xmlns="http://www.w3.org/2000/svg" width="807" height="520" viewBox="0 0 807 520">
  <title>crawling-7</title>
  <g>
    <path d="M88.84,26.75a15,15,0,1,0,15,15A15,15,0,0,0,88.84,26.75ZM86,50.13V33.24l10.14,8.1Z" fill="#b8e8b5" stroke="#59b254" stroke-miterlimit="10"/>
    <polygon points="89.98 81.5 89.98 136.11 84.2 136.11 90.78 147.5 97.36 136.11 91.57 136.11 91.57 81.5 89.98 81.5" fill="#606467"/>
    <rect x="49.25" y="148.48" width="82.71" height="73.02" fill="#eee7f2" stroke="#ae75c3" stroke-miterlimit="10"/>
    <line x1="49.95" y1="171.5" x2="132.65" y2="171.5" fill="none" stroke="#ae75c3" stroke-miterlimit="10"/>
    <g>
      <polyline points="91.78 206 87.28 206 87.28 185 102.28 185 102.28 206" fill="none" stroke="#ae75c3" stroke-miterlimit="10"/>
      <polygon points="102.28 206 91.78 211 91.78 189.5 102.28 185 102.28 206" fill="none" stroke="#ae75c3" stroke-miterlimit="10"/>
      <polygon points="79.78 189.5 85.78 195.5 79.78 201.5 79.78 198.5 72.78 198.5 72.78 192.5 79.78 192.5 79.78 189.5" fill="none" stroke="#ae75c3" stroke-miterlimit="10"/>
    </g>
    <rect x="48.65" y="284.62" width="82.71" height="72.88" fill="#eee7f2" stroke="#ae75c3" stroke-miterlimit="10"/>
    <line x1="48.65" y1="316.5" x2="131.36" y2="316.5" fill="none" stroke="#ae75c3" stroke-miterlimit="10"/>
    <g>
      <path d="M93.4,331.81v-3.62H91.66a4.51,4.51,0,0,0-.29-.72l1.23-1.22L90,323.68l-1.21,1.22a6.66,6.66,0,0,0-.73-.31v-1.71H84.46v1.71a5.78,5.78,0,0,0-.72.31l-1.22-1.22L80,326.25l1.22,1.22a5.7,5.7,0,0,0-.29.72H79.15v3.62h1.76a5.42,5.42,0,0,0,.29.7L80,333.75l2.56,2.57,1.26-1.25c.22.1.45.2.68.28v1.77h3.63v-1.77a7.1,7.1,0,0,0,.69-.28L90,336.32l2.57-2.57-1.25-1.24a4.7,4.7,0,0,0,.29-.7Zm-2.3-.73-.08.27a4.58,4.58,0,0,1-.44,1l-.13.24,1.11,1.11L90,335.29l-1.12-1.13-.24.14a5,5,0,0,1-1,.42l-.27.08v1.59H85.2V334.8l-.27-.08a5,5,0,0,1-1-.42l-.24-.14-1.13,1.13L81,333.75l1.12-1.11L82,332.4a5.69,5.69,0,0,1-.44-1l-.07-.27H79.89v-2.16h1.55l.08-.27a4.79,4.79,0,0,1,.43-1.07l.14-.24L81,326.25l1.53-1.54,1.09,1.09.24-.13a4.65,4.65,0,0,1,1.08-.45l.27-.08v-1.53h2.16v1.53l.27.08a4.55,4.55,0,0,1,1.07.44l.25.14L90,324.71l1.53,1.54-1.09,1.09.13.24a4.81,4.81,0,0,1,.44,1.07l.07.27h1.56v2.16Z" fill="#ae75c3"/>
      <path d="M86.28,327.22A2.78,2.78,0,1,0,89.06,330,2.79,2.79,0,0,0,86.28,327.22Zm0,4.83a2.05,2.05,0,1,1,2-2.05A2.05,2.05,0,0,1,86.28,332.05Z" fill="#ae75c3"/>
    </g>
    <path d="M76.59,339.5a5,5,0,1,0-4.62,0c-3.29,1.18-5.69,4.81-5.69,9.1a11.26,11.26,0,0,0,.42,3l.11.36H81.75l.1-.36a10.89,10.89,0,0,0,.43-3C82.28,344.31,79.88,340.68,76.59,339.5Zm-6.31-4.4a4,4,0,1,1,4,4A4,4,0,0,1,70.28,335.1ZM81,351H67.57a10.3,10.3,0,0,1-.29-2.4c0-4.69,3.14-8.5,7-8.5s7,3.81,7,8.5A10.3,10.3,0,0,1,81,351Z" fill="#ae75c3"/>
    <polygon points="89.98 222.5 89.98 273.11 84.2 273.11 90.78 284.5 97.36 273.11 91.57 273.11 91.57 222.5 89.98 222.5" fill="#db1d1d"/>
    <polygon points="70.61 357.61 48.07 406.33 42.82 403.9 44 417 54.75 409.42 49.51 407 72.06 358.28 70.61 357.61" fill="#db1d1d"/>
    <polygon points="107.52 358.31 133.03 407.26 127.9 409.94 139 417 139.57 403.86 134.44 406.53 108.93 357.58 107.52 358.31" fill="#db1d1d"/>
    <rect x="2.5" y="417.62" width="84" height="72.88" fill="#eee7f2" stroke="#ae75c3" stroke-miterlimit="10"/>
    <line x1="2.5" y1="450.5" x2="86.5" y2="450.5" fill="none" stroke="#ae75c3" stroke-miterlimit="10"/>
    <rect x="26.75" y="459.5" width="34" height="7" fill="none" stroke="#d60000" stroke-miterlimit="10"/>
    <rect x="26.75" y="473.5" width="34" height="7" fill="none" stroke="#ae75c3" stroke-miterlimit="10"/>
    <polygon points="72.25 459.35 71.9 459 68.25 462.65 64.6 459 64.25 459.35 67.9 463 64.25 466.65 64.6 467 68.25 463.35 71.9 467 72.25 466.65 68.6 463 72.25 459.35" fill="#d60000"/>
    <rect x="97.6" y="417.33" width="84" height="73.17" fill="#eee7f2" stroke="#ae75c3" stroke-miterlimit="10"/>
    <line x1="98.73" y1="450.5" x2="181.6" y2="450.5" fill="none" stroke="#ae75c3" stroke-miterlimit="10"/>
    <rect x="121.78" y="473" width="34" height="7" fill="none" stroke="#d60000" stroke-miterlimit="10"/>
    <rect x="121.78" y="459" width="34" height="7" fill="none" stroke="#ae75c3" stroke-miterlimit="10"/>
    <polygon points="167.28 480.15 166.93 480.5 163.28 476.85 159.63 480.5 159.28 480.15 162.93 476.5 159.28 472.85 159.63 472.5 163.28 476.15 166.93 472.5 167.28 472.85 163.63 476.5 167.28 480.15" fill="#d60000"/>
    <polygon points="131.5 171.04 350.99 171.04 350.99 176.83 362.39 170.25 350.99 163.67 350.99 169.46 131.5 169.46 131.5 171.04" fill="#606467"/>
    <polygon points="132.11 202.29 351.61 202.29 351.61 208.08 363 201.5 351.61 194.92 351.61 200.71 132.11 200.71 132.11 202.29" fill="#72c4dc"/>
    <polygon points="430.85 195.28 705.02 248.12 703.93 253.8 716.36 249.5 706.42 240.89 705.33 246.56 431.15 193.72 430.85 195.28" fill="#72c4dc"/>
    <polygon points="431.2 208.23 706.95 322.86 704.73 328.2 717.78 326.5 709.78 316.05 707.56 321.39 431.81 206.77 431.2 208.23" fill="#72c4dc"/>
    <polygon points="431 185.29 703.67 186.25 703.65 192.04 715.07 185.5 703.7 178.88 703.68 184.67 431 183.71 431 185.29" fill="#606467"/>
    <polygon points="431.65 174.28 705.33 121.44 706.42 127.12 716.36 118.5 703.93 114.2 705.02 119.88 431.35 172.72 431.65 174.28" fill="#606467"/>
    <polygon points="431.25 161.25 703.21 70.85 705.04 76.33 713.77 66.5 700.89 63.85 702.71 69.34 430.75 159.75 431.25 161.25" fill="#606467"/>
    <g>
      <path d="M100.66,350c9.07-6,10.62-15.16,10.62-21.55-3,1.4-8.58-2.35-10.62-4.44-1.94,2-7.59,5.84-10.62,4.44C90,334.83,91.58,344,100.66,350Z" fill="#eee7f2" stroke="#ae75c3" stroke-miterlimit="10"/>
      <polyline points="94.78 335.71 99.06 340 106.56 332.5" fill="#eee7f2" stroke="#ae75c3" stroke-miterlimit="10"/>
    </g>
    <rect x="363.5" y="148.62" width="84" height="72.88" fill="#eee7f2" stroke="#ae75c3" stroke-miterlimit="10"/>
    <line x1="363.5" y1="180.5" x2="447.5" y2="180.5" fill="none" stroke="#ae75c3" stroke-miterlimit="10"/>
    <g>
      <path d="M414.4,200.81v-3.62h-1.74a4.51,4.51,0,0,0-.29-.72l1.23-1.22L411,192.68l-1.21,1.22a6.66,6.66,0,0,0-.73-.31v-1.71h-3.63v1.71a5.78,5.78,0,0,0-.72.31l-1.22-1.22L401,195.25l1.22,1.22a5.7,5.7,0,0,0-.29.72h-1.74v3.62h1.76a5.42,5.42,0,0,0,.29.7L401,202.75l2.56,2.57,1.26-1.25c.22.1.45.2.68.28v1.77h3.63v-1.77a7.1,7.1,0,0,0,.69-.28l1.25,1.25,2.57-2.57-1.25-1.24a4.7,4.7,0,0,0,.29-.7Zm-2.3-.73-.08.27a4.58,4.58,0,0,1-.44,1.05l-.13.24,1.11,1.11L411,204.29l-1.12-1.13-.24.14a5,5,0,0,1-1,.42l-.27.08v1.59H406.2V203.8l-.27-.08a5,5,0,0,1-1-.42l-.24-.14-1.13,1.13L402,202.75l1.12-1.11-.14-.24a5.69,5.69,0,0,1-.44-1.05l-.07-.27h-1.57v-2.16h1.55l.08-.27a4.79,4.79,0,0,1,.43-1.07l.14-.24-1.1-1.09,1.53-1.54,1.09,1.09.24-.13a4.65,4.65,0,0,1,1.08-.45l.27-.08v-1.53h2.16v1.53l.27.08a4.55,4.55,0,0,1,1.07.44l.25.14,1.08-1.09,1.53,1.54-1.09,1.09.13.24a4.81,4.81,0,0,1,.44,1.07l.07.27h1.56v2.16Z" fill="#ae75c3"/>
      <path d="M407.28,196.22a2.78,2.78,0,1,0,2.78,2.78A2.79,2.79,0,0,0,407.28,196.22Zm0,4.83a2.05,2.05,0,1,1,2.05-2.05A2.05,2.05,0,0,1,407.28,201.05Z" fill="#ae75c3"/>
    </g>
    <path d="M397.59,203.5a5,5,0,1,0-4.62,0c-3.29,1.18-5.69,4.81-5.69,9.1a11.26,11.26,0,0,0,.42,3l.11.36h14.94l.1-.36a10.89,10.89,0,0,0,.43-3C403.28,208.31,400.88,204.68,397.59,203.5Zm-6.31-4.4a4,4,0,1,1,4,4A4,4,0,0,1,391.28,199.1ZM402,215H388.57a10.3,10.3,0,0,1-.29-2.4c0-4.69,3.14-8.5,7-8.5s7,3.81,7,8.5A10.3,10.3,0,0,1,402,215Z" fill="#ae75c3"/>
    <path d="M760.37,22.9l-.71.71a10,10,0,0,1,0,14.09c-3.5,3.33-10,4.13-14.12,0a10,10,0,0,1,0-14.1,10.55,10.55,0,0,1,6.92-2.9l-3,3,.71.71,4.3-4.3-4.2-4.2-.71.7,3.07,3.07a11.6,11.6,0,0,0-7.78,3.19,11,11,0,0,0,0,15.52,10.56,10.56,0,0,0,7.57,3.08,11.7,11.7,0,0,0,7.94-3.07,11,11,0,0,0,0-15.53Z" fill="#ae75c3"/>
    <polygon points="758.92 29.92 754.33 29.92 756.63 25.89 754.89 24.9 752.61 28.9 750.32 24.9 748.58 25.89 750.88 29.92 746.29 29.92 746.29 31.92 750.88 31.92 748.58 35.94 750.32 36.94 752.61 32.93 754.89 36.94 756.63 35.94 754.33 31.92 758.92 31.92 758.92 29.92" fill="#ae75c3"/>
    <polygon points="763.28 120.59 741.28 120.59 741.28 108.96 741.28 105.5 763.28 105.5 763.28 120.59" fill="none" stroke="#ae75c3" stroke-miterlimit="10"/>
    <polyline points="763.28 105.81 751.96 113.04 741.28 105.81" fill="none" stroke="#ae75c3" stroke-miterlimit="10"/>
    <path d="M758.52,172a6.73,6.73,0,0,0-10.19,8.73l-7.05,7,1.31,1.32,7-7a6.73,6.73,0,0,0,8.9-10.07Zm-.93,8.61a5.4,5.4,0,1,1,0-7.63A5.39,5.39,0,0,1,757.59,180.56Z" fill="#ae75c3"/>
    <g>
      <path d="M745.37,235.41a3.44,3.44,0,1,0-3.18,0,6.49,6.49,0,0,0-3.91,6.25,7.81,7.81,0,0,0,.29,2.09l.07.25h10.27l.08-.25a7.81,7.81,0,0,0,.29-2.09A6.49,6.49,0,0,0,745.37,235.41Zm-4.34-3a2.75,2.75,0,1,1,2.75,2.75A2.75,2.75,0,0,1,741,232.38Zm7.36,10.93h-9.22a6.59,6.59,0,0,1-.2-1.65c0-3.22,2.15-5.84,4.81-5.84s4.81,2.62,4.81,5.84A7.09,7.09,0,0,1,748.39,243.31Z" fill="#60bcd8"/>
      <path d="M761.37,235.41a3.44,3.44,0,1,0-3.18,0,6.49,6.49,0,0,0-3.91,6.25,7.81,7.81,0,0,0,.29,2.09l.07.25h10.27l.08-.25a7.81,7.81,0,0,0,.29-2.09A6.49,6.49,0,0,0,761.37,235.41Zm-4.34-3a2.75,2.75,0,1,1,2.75,2.75A2.75,2.75,0,0,1,757,232.38Zm7.36,10.93h-9.22a6.59,6.59,0,0,1-.2-1.65c0-3.22,2.15-5.84,4.81-5.84s4.81,2.62,4.81,5.84A7.09,7.09,0,0,1,764.39,243.31Z" fill="#60bcd8"/>
      <path d="M753.37,237.41a3.44,3.44,0,1,0-3.18,0,6.49,6.49,0,0,0-3.91,6.25,7.81,7.81,0,0,0,.29,2.09l.07.25h10.27l.08-.25a7.81,7.81,0,0,0,.29-2.09A6.49,6.49,0,0,0,753.37,237.41Zm-4.34-3a2.75,2.75,0,1,1,2.75,2.75A2.75,2.75,0,0,1,749,234.38Zm7.36,10.93h-9.22a6.59,6.59,0,0,1-.2-1.65c0-3.22,2.15-5.84,4.81-5.84s4.81,2.62,4.81,5.84A7.09,7.09,0,0,1,756.39,245.31Z" fill="#60bcd8"/>
      <path d="M756.39,245.31h-9.22a6.59,6.59,0,0,1-.2-1.65c0-3.22,2.15-5.84,4.81-5.84s4.81,2.62,4.81,5.84A7.09,7.09,0,0,1,756.39,245.31Z" fill="#fff"/>
    </g>
    <g>
      <path d="M759.28,316v-4.83H757a8,8,0,0,0-.39-1l1.64-1.63-3.43-3.42-1.62,1.62a6.71,6.71,0,0,0-1-.4v-2.29h-4.84v2.29a6.82,6.82,0,0,0-1,.4l-1.62-1.62-3.42,3.42,1.63,1.63a10.09,10.09,0,0,0-.38,1h-2.32V316h2.34a7.61,7.61,0,0,0,.39.93l-1.66,1.66,3.42,3.42,1.68-1.67a6.66,6.66,0,0,0,.91.37v2.37h4.84v-2.37a7.22,7.22,0,0,0,.91-.37l1.67,1.67,3.43-3.42L756.54,317a7.61,7.61,0,0,0,.39-.93Zm-3.07-1-.1.35a6.92,6.92,0,0,1-.59,1.4l-.18.32,1.48,1.49-2,2-1.49-1.5-.32.18a6.55,6.55,0,0,1-1.39.57l-.36.1v2.13h-2.88V320l-.36-.1a6.55,6.55,0,0,1-1.39-.57l-.32-.18-1.5,1.5-2-2,1.49-1.49-.18-.32a6.39,6.39,0,0,1-.59-1.4l-.1-.35h-2.09v-2.89h2.07l.1-.36a6.83,6.83,0,0,1,.58-1.42l.18-.32-1.46-1.46,2-2,1.45,1.45.32-.18a6.09,6.09,0,0,1,1.44-.6l.36-.1v-2h2.88v2l.36.1a6.63,6.63,0,0,1,1.43.59l.32.19,1.45-1.45,2,2-1.45,1.46.18.32a6.8,6.8,0,0,1,.57,1.42l.1.36h2.08v2.89Z" fill="#60bcd8"/>
      <path d="M749.78,309.92a3.71,3.71,0,1,0,3.71,3.71A3.71,3.71,0,0,0,749.78,309.92Zm0,6.44a2.73,2.73,0,1,1,2.73-2.73A2.73,2.73,0,0,1,749.78,316.36Z" fill="#60bcd8"/>
    </g>
    <g>
      <path d="M770.4,305.1V302H769a3.56,3.56,0,0,0-.17-.41l1-1-2.18-2.18-1,1c-.13-.07-.27-.12-.41-.18v-1.37h-3.09v1.37c-.14.06-.28.11-.41.18l-1-1-2.18,2.18,1,1c-.06.14-.12.27-.17.41H759v3.08h1.41c0,.14.1.27.16.4l-1,1,2.18,2.18,1-1a3,3,0,0,0,.38.15v1.43h3.09v-1.43a2.5,2.5,0,0,0,.38-.15l1,1,2.18-2.18-1-1c.06-.13.11-.26.16-.4Zm-2-.82-.09.3a3.66,3.66,0,0,1-.33.79l-.15.27.85.85-1,1-.86-.85-.27.15a4.12,4.12,0,0,1-.78.32l-.3.08v1.22H764v-1.22l-.3-.08a4,4,0,0,1-.79-.32l-.27-.15-.86.85-1-1,.85-.85-.16-.27a3.89,3.89,0,0,1-.33-.79l-.08-.3h-1.2v-1.44H761l.08-.3a3.62,3.62,0,0,1,.33-.81l.15-.27-.83-.83,1-1,.83.83.27-.15a3.46,3.46,0,0,1,.82-.34l.3-.09V298.7h1.44v1.16l.29.09a3.46,3.46,0,0,1,.82.34l.27.15.83-.83,1,1-.84.83.15.27a4.05,4.05,0,0,1,.33.81l.08.3h1.19v1.44Z" fill="#60bcd8"/>
      <path d="M764.72,301.27a2.3,2.3,0,1,0,2.29,2.29A2.3,2.3,0,0,0,764.72,301.27Zm1.47,2.29a1.48,1.48,0,1,1-1.47-1.47A1.47,1.47,0,0,1,766.19,303.56Z" fill="#60bcd8"/>
    </g>
    <text transform="translate(7.27 248)" font-size="11" fill="#d60000" font-family="DroidSans-Bold, Droid Sans" font-weight="700">Submit bogus<tspan x="6.25" y="13.2">credentials</tspan></text>
    <text transform="translate(732.49 54)" font-size="11" fill="#ae75c3" font-family="DroidSans-Bold, Droid Sans" font-weight="700">Change<tspan x="-5.46" y="13.2">password</tspan></text>
    <text transform="translate(734.46 203)" font-size="11" fill="#ae75c3" font-family="DroidSans-Bold, Droid Sans" font-weight="700">Search</text>
    <text transform="translate(75.64 69)" font-size="11" fill="#59b254" font-family="DroidSans-Bold, Droid Sans" font-weight="700">Start</text>
    <text transform="translate(58.28 165)" font-size="11" fill="#ae75c3" font-family="DroidSans-Bold, Droid Sans" font-weight="700">Login</text>
    <text transform="translate(58.28 298)" font-size="11" fill="#ae75c3" font-family="DroidSans-Bold, Droid Sans" font-weight="700">Account<tspan x="0" y="11.2">recovery</tspan></text>
    <text transform="translate(12.25 430)" font-size="11" fill="#ae75c3" font-family="DroidSans-Bold, Droid Sans" font-weight="700">Fo<tspan x="12.63" y="0" letter-spacing="-0.01em">r</tspan><tspan x="17.29" y="0">got</tspan><tspan x="0" y="13.2">username</tspan></text>
    <text transform="translate(106.28 430)" font-size="11" fill="#ae75c3" font-family="DroidSans-Bold, Droid Sans" font-weight="700">Fo<tspan x="12.63" y="0" letter-spacing="-0.01em">r</tspan><tspan x="17.29" y="0">got</tspan><tspan x="0" y="13.2">password</tspan></text>
    <text transform="translate(370.78 159.86)" font-size="11" fill="#ae75c3" font-family="DroidSans-Bold, Droid Sans" font-weight="700">My <tspan x="0" y="13.2">account</tspan></text>
    <text transform="translate(744.96 134.36)" font-size="11" fill="#ae75c3" font-family="DroidSans-Bold, Droid Sans" font-weight="700">My <tspan x="-17.71" y="13.2">messages</tspan></text>
    <text transform="translate(731.93 261.36)" font-size="11" fill="#60bcd8" font-family="DroidSans-Bold, Droid Sans" font-weight="700">Manage <tspan x="6.7" y="13.2">users</tspan></text>
    <text transform="translate(743.77 336.61)" font-size="11" fill="#60bcd8" font-family="DroidSans-Bold, Droid Sans" font-weight="700">App <tspan x="-10.99" y="13.2">se</tspan><tspan x="0.69" y="13.2" letter-spacing="0.01em">t</tspan><tspan x="5.35" y="13.2">tings</tspan></text>
    <text transform="translate(208.86 143.86)" font-size="11" fill="#4c5054" font-family="DroidSans-Bold, Droid Sans" font-weight="700">Submit user <tspan x="2.16" y="13.2">credentials</tspan></text>
    <text transform="translate(203.73 219.36)" font-size="11" fill="#60bcd8" font-family="DroidSans-Bold, Droid Sans" font-weight="700">Submit admin <tspan x="7.29" y="13.2">credentials</tspan></text>
  </g>
</svg>
