<svg xmlns="http://www.w3.org/2000/svg" width="807" height="258" viewBox="0 0 807 258">
  <title>crawling-2</title>
  <g>
    <polygon points="87 52.29 352.61 52.29 352.61 58.08 364 51.5 352.61 44.92 352.61 50.71 87 50.71 87 52.29" fill="#606467"/>
    <polygon points="87 200.29 352.61 200.29 352.61 206.08 364 199.5 352.61 192.92 352.61 198.71 87 198.71 87 200.29" fill="#606467"/>
    <polygon points="348.72 71.94 359.75 81.79 364 69 348.72 71.94" fill="#4c5054"/>
    <polyline points="87 69 223.48 69 358.62 180" fill="none" stroke="#4c5054" stroke-miterlimit="10" stroke-width="1.5"/>
    <polyline points="87 184 223.48 184 358.62 73" fill="none" stroke="#4c5054" stroke-miterlimit="10" stroke-width="1.5"/>
    <polygon points="359.75 170.65 348.72 180.5 363.05 184.29 359.75 170.65" fill="#4c5054"/>
    <rect x="363.5" y="22" width="84" height="78" fill="#eee7f2" stroke="#ae75c3" stroke-miterlimit="10"/>
    <line x1="363.5" y1="46.2" x2="447.5" y2="46.2" fill="none" stroke="#ae75c3" stroke-miterlimit="10"/>
    <line x1="383.65" y1="52" x2="437.59" y2="52" fill="none" stroke="#ae75c3" stroke-miterlimit="10"/>
    <line x1="371.59" y1="56" x2="437.59" y2="56" fill="none" stroke="#ae75c3" stroke-miterlimit="10"/>
    <line x1="371.59" y1="60" x2="437.59" y2="60" fill="none" stroke="#ae75c3" stroke-miterlimit="10"/>
    <line x1="371.59" y1="64" x2="437.59" y2="64" fill="none" stroke="#ae75c3" stroke-miterlimit="10"/>
    <line x1="425.53" y1="80" x2="371.59" y2="80" fill="none" stroke="#ae75c3" stroke-miterlimit="10"/>
    <line x1="437.59" y1="76" x2="371.59" y2="76" fill="none" stroke="#ae75c3" stroke-miterlimit="10"/>
    <line x1="437.59" y1="72" x2="371.59" y2="72" fill="none" stroke="#ae75c3" stroke-miterlimit="10"/>
    <line x1="437.59" y1="68" x2="371.59" y2="68" fill="none" stroke="#ae75c3" stroke-miterlimit="10"/>
    <rect x="363.5" y="158" width="84" height="79" fill="#eee7f2" stroke="#ae75c3" stroke-miterlimit="10"/>
    <line x1="363.5" y1="182.2" x2="447.5" y2="182.2" fill="none" stroke="#ae75c3" stroke-miterlimit="10"/>
    <polygon points="392.09 216 386.09 210 392.09 204 392.09 207 399.09 207 399.09 213 392.09 213 392.09 216" fill="none" stroke="#ae75c3" stroke-miterlimit="10"/>
    <g>
      <polygon points="403.59 205.25 412.71 201.5 421.71 204.75 421.71 215.25 412.59 219.5 403.59 215.75 403.59 205.25" fill="none" stroke="#ae75c3" stroke-miterlimit="10"/>
      <polyline points="421.65 204.81 412.78 208.56 412.65 219.5" fill="none" stroke="#ae75c3" stroke-miterlimit="10"/>
      <line x1="403.65" y1="205.31" x2="412.78" y2="208.56" fill="none" stroke="#ae75c3" stroke-miterlimit="10"/>
    </g>
    <line x1="436.95" y1="91" x2="371.59" y2="91" fill="none" stroke="#ae75c3" stroke-miterlimit="10"/>
    <line x1="392.98" y1="87" x2="374.03" y2="87" fill="none" stroke="#ae75c3" stroke-miterlimit="10"/>
    <line x1="437.59" y1="95" x2="371.59" y2="95" fill="none" stroke="#ae75c3" stroke-miterlimit="10"/>
    <rect x="3" y="21.5" width="84" height="79.13" fill="#eee7f2" stroke="#ae75c3" stroke-miterlimit="10"/>
    <line x1="3" y1="45.64" x2="87" y2="45.64" fill="none" stroke="#ae75c3" stroke-miterlimit="10"/>
    <rect x="3" y="157.5" width="84" height="79.13" fill="#eee7f2" stroke="#ae75c3" stroke-miterlimit="10"/>
    <line x1="3" y1="181.64" x2="87" y2="181.64" fill="none" stroke="#ae75c3" stroke-miterlimit="10"/>
    <path d="M51.36,58.5V58a5.5,5.5,0,0,0-5.5-5.5h0a5.5,5.5,0,0,0-5.5,5.5v.5" fill="none" stroke="#ae75c3" stroke-miterlimit="10"/>
    <path d="M42.19,58.5v-.33a3.67,3.67,0,0,1,3.67-3.67h0a3.66,3.66,0,0,1,3.66,3.67v.33" fill="none" stroke="#ae75c3" stroke-miterlimit="10"/>
    <polygon points="36.6 59 39.38 78.69 52.08 78.69 54.85 59 36.6 59" fill="none" stroke="#ae75c3" stroke-miterlimit="10"/>
    <path d="M50.36,194.5V194a5.5,5.5,0,0,0-5.5-5.5h0a5.5,5.5,0,0,0-5.5,5.5v.5" fill="none" stroke="#ae75c3" stroke-miterlimit="10"/>
    <path d="M41.19,194.5v-.33a3.67,3.67,0,0,1,3.67-3.67h0a3.66,3.66,0,0,1,3.66,3.67v.33" fill="none" stroke="#ae75c3" stroke-miterlimit="10"/>
    <polygon points="35.6 195 38.38 214.69 51.08 214.69 53.85 195 35.6 195" fill="none" stroke="#ae75c3" stroke-miterlimit="10"/>
    <g>
      <polygon points="40.85 65.88 45.42 64 49.92 65.63 49.92 70.88 45.35 73 40.85 71.13 40.85 65.88" fill="none" stroke="#ae75c3" stroke-miterlimit="10" stroke-width="0.75"/>
      <polyline points="49.89 65.66 45.45 67.53 45.39 73" fill="none" stroke="#ae75c3" stroke-miterlimit="10" stroke-width="0.75"/>
      <line x1="40.89" y1="65.91" x2="45.45" y2="67.53" fill="none" stroke="#ae75c3" stroke-miterlimit="10" stroke-width="0.75"/>
    </g>
    <polygon points="44.85 199.54 46.32 202.5 49.59 202.98 47.22 205.29 47.78 208.54 44.85 207 41.93 208.54 42.49 205.29 40.12 202.98 43.39 202.5 44.85 199.54" fill="none" stroke="#ae75c3" stroke-miterlimit="10"/>
    <text transform="translate(102.59 45)" font-size="12" fill="#4c5054" font-family="Courier, Courier">GET /3948758234</text>
    <text transform="translate(102.59 88)" font-size="12" fill="#4c5054" font-family="Courier, Courier">GET /0185259376</text>
    <text transform="translate(102.59 177)" font-size="12" fill="#4c5054" font-family="Courier, Courier">GET /4629384627</text>
    <text transform="translate(102.59 214)" font-size="12" fill="#4c5054" font-family="Courier, Courier">GET /6534972634</text>
    <text transform="translate(373.09 37.5)" font-size="11" fill="#ae75c3" font-family="DroidSans-Bold, Droid Sans" font-weight="700">T &amp; Cs</text>
    <text transform="translate(371.09 173.5)" font-size="11" fill="#ae75c3" font-family="DroidSans-Bold, Droid Sans" font-weight="700">Returns</text>
    <text transform="translate(11.36 37)" font-size="11" fill="#ae75c3" font-family="DroidSans-Bold, Droid Sans" font-weight="700">Buy</text>
    <text transform="translate(13.36 173)" font-size="11" fill="#ae75c3" font-family="DroidSans-Bold, Droid Sans" font-weight="700">Buy</text>
    <text transform="translate(28.36 92)" font-size="12" fill="#ae75c3" font-family="DroidSans-Bold, Droid Sans" font-weight="700">Item 1</text>
    <text transform="translate(26.36 229)" font-size="12" fill="#ae75c3" font-family="DroidSans-Bold, Droid Sans" font-weight="700">Item 2</text>
  </g>
</svg>
