<svg xmlns="http://www.w3.org/2000/svg" width="807" height="420" viewBox="0 0 807 420">
  <title>crawling-8</title>
  <g>
    <path d="M17.7,179.75a15,15,0,1,0,15,15A15,15,0,0,0,17.7,179.75Zm-2.84,23.38V186.24L25,194.34Z" fill="#b8e8b5" stroke="#59b254" stroke-miterlimit="10"/>
    <rect x="229.82" y="42" width="84" height="70" fill="#eee7f2" stroke="#ae75c3" stroke-miterlimit="10"/>
    <line x1="229.82" y1="66.7" x2="313.82" y2="66.7" fill="none" stroke="#ae75c3" stroke-miterlimit="10"/>
    <g>
      <path d="M264.28,78.38c-4.13,0-7.48,2.7-7.48,6a5,5,0,0,0,.85,2.78h0l.25.24c-.09.52-.35,1.08-.58,1.91-.12.39-.24.83-.37,1.34l1.33-.38a12.73,12.73,0,0,1,2.36-.59l.16,0a9,9,0,0,0,3.48.69c4.12,0,7.47-2.71,7.47-6S268.4,78.38,264.28,78.38Z" fill="#eee7f2" stroke="#ae75c3" stroke-miterlimit="10"/>
      <path d="M279.35,86.7c4.11,0,7.45,2.71,7.45,6a5.09,5.09,0,0,1-.84,2.79h0l-.26.23c.09.53.35,1.08.59,1.91q.16.59.36,1.35l-1.32-.39A12.39,12.39,0,0,0,283,98l-.16,0a8.94,8.94,0,0,1-3.46.69c-4.11,0-7.45-2.71-7.45-6S275.24,86.7,279.35,86.7Z" fill="#eee7f2" stroke="#ae75c3" stroke-miterlimit="10"/>
    </g>
    <rect x="229.82" y="127.54" width="84" height="70" fill="#eee7f2" stroke="#ae75c3" stroke-miterlimit="10"/>
    <line x1="229.82" y1="151.65" x2="313.82" y2="151.65" fill="none" stroke="#ae75c3" stroke-miterlimit="10"/>
    <rect x="229.82" y="212.53" width="84" height="70.97" fill="#eee7f2" stroke="#ae75c3" stroke-miterlimit="10"/>
    <line x1="229.82" y1="236.6" x2="313.82" y2="236.6" fill="none" stroke="#ae75c3" stroke-miterlimit="10"/>
    <g>
      <circle cx="273.15" cy="249.54" r="2.54" fill="#eee7f2" stroke="#ae75c3" stroke-miterlimit="10"/>
      <path d="M266.76,256.17l7.63-1.1s-3.54,12.06-3.78,12.85a2.48,2.48,0,0,0,0,2c.27.31.82.17,1.85-1.1l1.58-1.92,1.55,2.21s-2.13,3.34-2.71,4.07a4.52,4.52,0,0,1-4.07,1.35c-2.16-.2-2.7-3.13-2.74-4.09s2.51-10.47,2.79-11.4-.07-1.83-1-1.8l-1.14,0Z" fill="#eee7f2" stroke="#ae75c3" stroke-miterlimit="10"/>
    </g>
    <rect x="229.82" y="299.48" width="84" height="70.02" fill="#eee7f2" stroke="#ae75c3" stroke-miterlimit="10"/>
    <line x1="229.82" y1="323.55" x2="313.82" y2="323.55" fill="none" stroke="#ae75c3" stroke-miterlimit="10"/>
    <g>
      <polyline points="275 355 270.5 355 270.5 334 285.5 334 285.5 355" fill="none" stroke="#ae75c3" stroke-miterlimit="10"/>
      <polygon points="285.5 355 275 360 275 338.5 285.5 334 285.5 355" fill="none" stroke="#ae75c3" stroke-miterlimit="10"/>
      <polygon points="263 338.5 269 344.5 263 350.5 263 347.5 256 347.5 256 341.5 263 341.5 263 338.5" fill="none" stroke="#ae75c3" stroke-miterlimit="10"/>
    </g>
    <rect x="493.25" y="297.62" width="84" height="71.88" fill="#eee7f2" stroke="#ae75c3" stroke-miterlimit="10"/>
    <line x1="493.25" y1="320.5" x2="577.25" y2="320.5" fill="none" stroke="#ae75c3" stroke-miterlimit="10"/>
    <g>
      <path d="M548.63,342.81v-3.62h-1.75a4.48,4.48,0,0,0-.28-.72l1.22-1.22-2.57-2.57L544,335.9a5.92,5.92,0,0,0-.73-.31v-1.71h-3.62v1.71a5.92,5.92,0,0,0-.73.31l-1.21-1.22-2.57,2.57,1.22,1.22a5.66,5.66,0,0,0-.28.72h-1.74v3.62h1.75a5.46,5.46,0,0,0,.3.7l-1.25,1.24,2.57,2.57,1.25-1.25a7.1,7.1,0,0,0,.69.28v1.77h3.62v-1.77a7.1,7.1,0,0,0,.69-.28l1.25,1.25,2.57-2.57-1.24-1.24c.11-.23.2-.46.29-.7Zm-2.31-.73-.07.27a5.69,5.69,0,0,1-.44,1l-.14.24,1.12,1.11-1.54,1.54-1.12-1.13-.24.14a5,5,0,0,1-1,.42l-.27.08v1.59h-2.16V345.8l-.27-.08a5,5,0,0,1-1-.42l-.24-.14-1.12,1.13-1.54-1.54,1.12-1.11-.13-.24a5.11,5.11,0,0,1-.45-1l-.07-.27h-1.57v-2.16h1.56l.07-.27a5.32,5.32,0,0,1,.43-1.07l.14-.24-1.1-1.09,1.54-1.54,1.08,1.09.24-.13a4.65,4.65,0,0,1,1.08-.45l.27-.08v-1.53h2.16v1.53l.27.08a4.38,4.38,0,0,1,1.07.44l.25.14,1.08-1.09,1.54,1.54-1.1,1.09.14.24a5.32,5.32,0,0,1,.43,1.07l.07.27h1.56v2.16Z" fill="#ae75c3"/>
      <path d="M541.5,338.22a2.78,2.78,0,1,0,2.78,2.78A2.79,2.79,0,0,0,541.5,338.22Zm0,4.83a2.05,2.05,0,1,1,2-2.05A2.05,2.05,0,0,1,541.5,343.05Z" fill="#ae75c3"/>
    </g>
    <polygon points="39.44 205.16 220.93 85.44 224.11 90.26 230 78.5 216.87 79.28 220.05 84.11 38.56 203.84 39.44 205.16" fill="#606467"/>
    <polygon points="39.16 205.28 219.01 167.61 220.2 173.27 230 164.5 217.5 160.4 218.69 166.06 38.84 203.72 39.16 205.28" fill="#606467"/>
    <polygon points="38.81 205.27 218.74 248.6 217.38 254.23 230 250.5 220.46 241.44 219.11 247.06 39.19 203.73 38.81 205.27" fill="#606467"/>
    <polygon points="38.55 205.15 219.19 330.65 215.89 335.4 229 336.5 223.4 324.6 220.1 329.35 39.45 203.85 38.55 205.15" fill="#606467"/>
    <polygon points="313 334.29 476.11 334.29 476.11 340.08 487.5 333.5 476.11 326.92 476.11 332.71 313 332.71 313 334.29" fill="#606467"/>
    <g>
      <path d="M282.38,169.83h-5.14l-3.46,2.8.32-2.8h-1.93a1.18,1.18,0,0,1-1.18-1.18v-6a1.18,1.18,0,0,1,1.18-1.18h10.21a1.18,1.18,0,0,1,1.18,1.18v6A1.18,1.18,0,0,1,282.38,169.83Z" fill="#eee7f2" stroke="#ae75c3" stroke-miterlimit="10"/>
      <path d="M264.81,177.5a5,5,0,1,0-4.62,0c-3.29,1.18-5.69,4.81-5.69,9.1a10.89,10.89,0,0,0,.43,3l.1.36H270l.1-.36a10.89,10.89,0,0,0,.43-3C270.5,182.31,268.1,178.68,264.81,177.5Zm-6.31-4.4a4,4,0,1,1,4,4A4,4,0,0,1,258.5,173.1ZM269.21,189H255.79a10.3,10.3,0,0,1-.29-2.4c0-4.69,3.14-8.5,7-8.5s7,3.81,7,8.5A10.3,10.3,0,0,1,269.21,189Z" fill="#ae75c3"/>
    </g>
    <path d="M529.81,348.5a5,5,0,1,0-4.62,0c-3.29,1.18-5.69,4.81-5.69,9.1a10.89,10.89,0,0,0,.43,3l.1.36H535l.1-.36a10.89,10.89,0,0,0,.43-3C535.5,353.31,533.1,349.68,529.81,348.5Zm-6.31-4.4a4,4,0,1,1,4,4A4,4,0,0,1,523.5,344.1ZM534.21,360H520.79a10.3,10.3,0,0,1-.29-2.4c0-4.69,3.14-8.5,7-8.5s7,3.81,7,8.5A10.3,10.3,0,0,1,534.21,360Z" fill="#ae75c3"/>
    <polygon points="313.1 89.29 479.31 67.68 480.05 73.41 490.5 65.42 478.36 60.37 479.1 66.1 312.9 87.71 313.1 89.29" fill="#606467"/>
    <polygon points="312.92 89.29 479.09 106.57 478.49 112.33 490.5 106.96 479.85 99.24 479.25 104.99 313.08 87.71 312.92 89.29" fill="#606467"/>
    <polygon points="313.1 169.29 479.31 147.68 480.05 153.41 490.5 145.42 478.36 140.37 479.1 146.1 312.9 167.71 313.1 169.29" fill="#606467"/>
    <polygon points="312.92 169.29 479.09 186.57 478.49 192.32 490.5 186.96 479.85 179.24 479.25 184.99 313.08 167.71 312.92 169.29" fill="#606467"/>
    <polygon points="586.75 333.25 767.44 393.64 765.61 399.13 778.5 396.5 769.78 386.65 767.95 392.14 587.25 331.75 586.75 333.25" fill="#606467"/>
    <polygon points="587 333.29 766.69 333.29 766.69 339.08 778.08 332.5 766.69 325.92 766.69 331.71 587 331.71 587 333.29" fill="#606467"/>
    <polygon points="587.26 333.25 768.01 270.01 769.92 275.47 778.5 265.5 765.58 263.05 767.49 268.51 586.74 331.75 587.26 333.25" fill="#606467"/>
    <path d="M114.31,100.5a5,5,0,1,0-4.62,0c-3.29,1.18-5.69,4.81-5.69,9.1a10.89,10.89,0,0,0,.43,3l.1.36h14.94l.1-.36a10.89,10.89,0,0,0,.43-3C120,105.31,117.6,101.68,114.31,100.5ZM108,96.1a4,4,0,1,1,4,4A4,4,0,0,1,108,96.1ZM118.71,112H105.29a10.3,10.3,0,0,1-.29-2.4c0-4.69,3.14-8.5,7-8.5s7,3.81,7,8.5A10.3,10.3,0,0,1,118.71,112Z" fill="#4c5054"/>
    <path d="M405.31,40.5a5,5,0,1,0-4.62,0c-3.29,1.18-5.69,4.81-5.69,9.1a10.89,10.89,0,0,0,.43,3l.1.36h14.94l.1-.36a10.89,10.89,0,0,0,.43-3C411,45.31,408.6,41.68,405.31,40.5ZM399,36.1a4,4,0,1,1,4,4A4,4,0,0,1,399,36.1ZM409.71,52H396.29a10.3,10.3,0,0,1-.29-2.4c0-4.69,3.14-8.5,7-8.5s7,3.81,7,8.5A10.3,10.3,0,0,1,409.71,52Z" fill="#4c5054"/>
    <path d="M405.31,299.5a5,5,0,1,0-4.62,0c-3.29,1.18-5.69,4.81-5.69,9.1a10.89,10.89,0,0,0,.43,3l.1.36h14.94l.1-.36a10.89,10.89,0,0,0,.43-3C411,304.31,408.6,300.68,405.31,299.5ZM399,295.1a4,4,0,1,1,4,4A4,4,0,0,1,399,295.1ZM409.71,311H396.29a10.3,10.3,0,0,1-.29-2.4c0-4.69,3.14-8.5,7-8.5s7,3.81,7,8.5A10.3,10.3,0,0,1,409.71,311Z" fill="#4c5054"/>
    <path d="M684.31,260.5a5,5,0,1,0-4.62,0c-3.29,1.18-5.69,4.81-5.69,9.1a10.89,10.89,0,0,0,.43,3l.1.36h14.94l.1-.36a10.89,10.89,0,0,0,.43-3C690,265.31,687.6,261.68,684.31,260.5ZM678,256.1a4,4,0,1,1,4,4A4,4,0,0,1,678,256.1ZM688.71,272H675.29a10.3,10.3,0,0,1-.29-2.4c0-4.69,3.14-8.5,7-8.5s7,3.81,7,8.5A10.3,10.3,0,0,1,688.71,272Z" fill="#4c5054"/>
    <path d="M795.14,269.47v-1.3a6.26,6.26,0,0,1,.19-1.62,5.4,5.4,0,0,1,.56-1.39,6.26,6.26,0,0,1,1-1.28,14.74,14.74,0,0,1,1.44-1.3c.5-.38.91-.73,1.25-1a5.66,5.66,0,0,0,.83-.91,3.28,3.28,0,0,0,.46-.94,4.34,4.34,0,0,0,.14-1.14,2.19,2.19,0,0,0-.68-1.65,2.86,2.86,0,0,0-2.07-.65,7.72,7.72,0,0,0-2.61.51,29.9,29.9,0,0,0-2.89,1.24l-1.79-3.88c.5-.29,1-.57,1.64-.84s1.21-.49,1.85-.7a14.46,14.46,0,0,1,1.94-.48,10.75,10.75,0,0,1,1.93-.18,11.55,11.55,0,0,1,3.24.43,7,7,0,0,1,2.44,1.26,5.58,5.58,0,0,1,1.54,2,6.4,6.4,0,0,1,.54,2.69,7.44,7.44,0,0,1-.25,2,5.92,5.92,0,0,1-.73,1.62,8,8,0,0,1-1.21,1.44c-.49.46-1,.95-1.7,1.47-.49.38-.89.72-1.2,1a4.71,4.71,0,0,0-.73.81,2.28,2.28,0,0,0-.36.8,4,4,0,0,0-.1,1v1.05Zm-.58,6a3.62,3.62,0,0,1,.24-1.4,2.34,2.34,0,0,1,.66-.92,2.46,2.46,0,0,1,1-.51,4.39,4.39,0,0,1,1.22-.16,4.08,4.08,0,0,1,1.17.16,2.49,2.49,0,0,1,1,.51,2.34,2.34,0,0,1,.66.92,3.44,3.44,0,0,1,.25,1.4,3.29,3.29,0,0,1-.25,1.35,2.53,2.53,0,0,1-1.64,1.47,4.08,4.08,0,0,1-1.17.16,4.39,4.39,0,0,1-1.22-.16,2.52,2.52,0,0,1-1.65-1.47A3.46,3.46,0,0,1,794.56,275.49Z" fill="#ae75c3"/>
    <path d="M795.14,334.47v-1.3a6.26,6.26,0,0,1,.19-1.62,5.4,5.4,0,0,1,.56-1.39,6.26,6.26,0,0,1,1-1.28,14.74,14.74,0,0,1,1.44-1.3c.5-.38.91-.73,1.25-1a5.66,5.66,0,0,0,.83-.91,3.28,3.28,0,0,0,.46-.94,4.34,4.34,0,0,0,.14-1.14,2.19,2.19,0,0,0-.68-1.65,2.86,2.86,0,0,0-2.07-.65,7.72,7.72,0,0,0-2.61.51,29.9,29.9,0,0,0-2.89,1.24l-1.79-3.88c.5-.29,1-.57,1.64-.84s1.21-.49,1.85-.7a14.46,14.46,0,0,1,1.94-.48,10.75,10.75,0,0,1,1.93-.18,11.55,11.55,0,0,1,3.24.43,7,7,0,0,1,2.44,1.26,5.58,5.58,0,0,1,1.54,2,6.4,6.4,0,0,1,.54,2.69,7.44,7.44,0,0,1-.25,2,5.92,5.92,0,0,1-.73,1.62,8,8,0,0,1-1.21,1.44c-.49.46-1,.95-1.7,1.47-.49.38-.89.72-1.2,1a4.71,4.71,0,0,0-.73.81,2.28,2.28,0,0,0-.36.8,4,4,0,0,0-.1,1v1.05Zm-.58,6a3.62,3.62,0,0,1,.24-1.4,2.34,2.34,0,0,1,.66-.92,2.46,2.46,0,0,1,1-.51,4.39,4.39,0,0,1,1.22-.16,4.08,4.08,0,0,1,1.17.16,2.49,2.49,0,0,1,1,.51,2.34,2.34,0,0,1,.66.92,3.44,3.44,0,0,1,.25,1.4,3.29,3.29,0,0,1-.25,1.35,2.53,2.53,0,0,1-1.64,1.47,4.08,4.08,0,0,1-1.17.16,4.39,4.39,0,0,1-1.22-.16,2.52,2.52,0,0,1-1.65-1.47A3.46,3.46,0,0,1,794.56,340.49Z" fill="#ae75c3"/>
    <path d="M795.14,394.47v-1.3a6.26,6.26,0,0,1,.19-1.62,5.4,5.4,0,0,1,.56-1.39,6.26,6.26,0,0,1,1-1.28,14.74,14.74,0,0,1,1.44-1.3c.5-.38.91-.73,1.25-1a5.66,5.66,0,0,0,.83-.91,3.28,3.28,0,0,0,.46-.94,4.34,4.34,0,0,0,.14-1.14,2.19,2.19,0,0,0-.68-1.65,2.86,2.86,0,0,0-2.07-.65,7.72,7.72,0,0,0-2.61.51,29.9,29.9,0,0,0-2.89,1.24l-1.79-3.88c.5-.29,1-.57,1.64-.84s1.21-.49,1.85-.7a14.46,14.46,0,0,1,1.94-.48,10.75,10.75,0,0,1,1.93-.18,11.55,11.55,0,0,1,3.24.43,7,7,0,0,1,2.44,1.26,5.58,5.58,0,0,1,1.54,2,6.4,6.4,0,0,1,.54,2.69,7.44,7.44,0,0,1-.25,2,5.92,5.92,0,0,1-.73,1.62,8,8,0,0,1-1.21,1.44c-.49.46-1,.95-1.7,1.47-.49.38-.89.72-1.2,1a4.71,4.71,0,0,0-.73.81,2.28,2.28,0,0,0-.36.8,4,4,0,0,0-.1,1v1.05Zm-.58,6a3.62,3.62,0,0,1,.24-1.4,2.34,2.34,0,0,1,.66-.92,2.46,2.46,0,0,1,1-.51,4.39,4.39,0,0,1,1.22-.16,4.08,4.08,0,0,1,1.17.16,2.49,2.49,0,0,1,1,.51,2.34,2.34,0,0,1,.66.92,3.44,3.44,0,0,1,.25,1.4,3.29,3.29,0,0,1-.25,1.35,2.53,2.53,0,0,1-1.64,1.47,4.08,4.08,0,0,1-1.17.16,4.39,4.39,0,0,1-1.22-.16,2.52,2.52,0,0,1-1.65-1.47A3.46,3.46,0,0,1,794.56,400.49Z" fill="#ae75c3"/>
    <path d="M501.14,65.47v-1.3a6.26,6.26,0,0,1,.19-1.62,5.4,5.4,0,0,1,.56-1.39,6.26,6.26,0,0,1,1-1.28,14.74,14.74,0,0,1,1.44-1.3c.5-.38.91-.73,1.25-1a5.66,5.66,0,0,0,.83-.91,3.28,3.28,0,0,0,.46-.94,4.34,4.34,0,0,0,.14-1.14,2.19,2.19,0,0,0-.68-1.65,2.86,2.86,0,0,0-2.07-.65,7.72,7.72,0,0,0-2.61.51A29.9,29.9,0,0,0,498.73,54l-1.79-3.88c.5-.29,1.05-.57,1.64-.84s1.21-.49,1.85-.7a14.46,14.46,0,0,1,1.94-.48,10.75,10.75,0,0,1,1.93-.18,11.55,11.55,0,0,1,3.24.43A7,7,0,0,1,510,49.62a5.58,5.58,0,0,1,1.54,2,6.4,6.4,0,0,1,.54,2.69,7.44,7.44,0,0,1-.25,2,5.92,5.92,0,0,1-.73,1.62,8,8,0,0,1-1.21,1.44c-.49.46-1.05.95-1.7,1.47-.49.38-.89.72-1.2,1a4.71,4.71,0,0,0-.73.81,2.28,2.28,0,0,0-.36.8,4,4,0,0,0-.1,1v1Zm-.58,6a3.62,3.62,0,0,1,.24-1.4,2.34,2.34,0,0,1,.66-.92,2.46,2.46,0,0,1,1-.51,4.39,4.39,0,0,1,1.22-.16,4.08,4.08,0,0,1,1.17.16,2.49,2.49,0,0,1,1,.51,2.34,2.34,0,0,1,.66.92,3.44,3.44,0,0,1,.25,1.4,3.29,3.29,0,0,1-.25,1.35,2.53,2.53,0,0,1-1.64,1.47,4.08,4.08,0,0,1-1.17.16,4.39,4.39,0,0,1-1.22-.16,2.52,2.52,0,0,1-1.65-1.47A3.46,3.46,0,0,1,500.56,71.49Z" fill="#ae75c3"/>
    <path d="M501.14,109.47v-1.3a6.26,6.26,0,0,1,.19-1.62,5.4,5.4,0,0,1,.56-1.39,6.26,6.26,0,0,1,1-1.28,14.74,14.74,0,0,1,1.44-1.3c.5-.38.91-.73,1.25-1a5.66,5.66,0,0,0,.83-.91,3.28,3.28,0,0,0,.46-.94,4.34,4.34,0,0,0,.14-1.14,2.19,2.19,0,0,0-.68-1.65,2.86,2.86,0,0,0-2.07-.65,7.72,7.72,0,0,0-2.61.51A29.9,29.9,0,0,0,498.73,98l-1.79-3.88c.5-.29,1.05-.57,1.64-.84s1.21-.49,1.85-.7a14.46,14.46,0,0,1,1.94-.48,10.75,10.75,0,0,1,1.93-.18,11.55,11.55,0,0,1,3.24.43A7,7,0,0,1,510,93.62a5.58,5.58,0,0,1,1.54,2,6.4,6.4,0,0,1,.54,2.69,7.44,7.44,0,0,1-.25,2,5.92,5.92,0,0,1-.73,1.62,8,8,0,0,1-1.21,1.44c-.49.46-1.05,1-1.7,1.47-.49.38-.89.72-1.2,1a4.71,4.71,0,0,0-.73.81,2.28,2.28,0,0,0-.36.8,4,4,0,0,0-.1,1v1Zm-.58,6a3.62,3.62,0,0,1,.24-1.4,2.34,2.34,0,0,1,.66-.92,2.46,2.46,0,0,1,1-.51,4.39,4.39,0,0,1,1.22-.16,4.08,4.08,0,0,1,1.17.16,2.49,2.49,0,0,1,1,.51,2.34,2.34,0,0,1,.66.92,3.44,3.44,0,0,1,.25,1.4,3.29,3.29,0,0,1-.25,1.35,2.53,2.53,0,0,1-1.64,1.47,4.08,4.08,0,0,1-1.17.16,4.39,4.39,0,0,1-1.22-.16,2.52,2.52,0,0,1-1.65-1.47A3.46,3.46,0,0,1,500.56,115.49Z" fill="#ae75c3"/>
    <path d="M501.14,150.47v-1.3a6.26,6.26,0,0,1,.19-1.62,5.4,5.4,0,0,1,.56-1.39,6.26,6.26,0,0,1,1-1.28,14.74,14.74,0,0,1,1.44-1.3c.5-.38.91-.73,1.25-1a5.66,5.66,0,0,0,.83-.91,3.28,3.28,0,0,0,.46-.94,4.34,4.34,0,0,0,.14-1.14,2.19,2.19,0,0,0-.68-1.65,2.86,2.86,0,0,0-2.07-.65,7.72,7.72,0,0,0-2.61.51,29.9,29.9,0,0,0-2.89,1.24l-1.79-3.88c.5-.29,1.05-.57,1.64-.84s1.21-.49,1.85-.7a14.46,14.46,0,0,1,1.94-.48,10.75,10.75,0,0,1,1.93-.18,11.55,11.55,0,0,1,3.24.43,7,7,0,0,1,2.44,1.26,5.58,5.58,0,0,1,1.54,2,6.4,6.4,0,0,1,.54,2.69,7.44,7.44,0,0,1-.25,2,5.92,5.92,0,0,1-.73,1.62,8,8,0,0,1-1.21,1.44c-.49.46-1.05,1-1.7,1.47-.49.38-.89.72-1.2,1a4.71,4.71,0,0,0-.73.81,2.28,2.28,0,0,0-.36.8,4,4,0,0,0-.1,1v1.05Zm-.58,6a3.62,3.62,0,0,1,.24-1.4,2.34,2.34,0,0,1,.66-.92,2.46,2.46,0,0,1,1-.51,4.39,4.39,0,0,1,1.22-.16,4.08,4.08,0,0,1,1.17.16,2.49,2.49,0,0,1,1,.51,2.34,2.34,0,0,1,.66.92,3.44,3.44,0,0,1,.25,1.4,3.29,3.29,0,0,1-.25,1.35,2.53,2.53,0,0,1-1.64,1.47,4.08,4.08,0,0,1-1.17.16,4.39,4.39,0,0,1-1.22-.16,2.52,2.52,0,0,1-1.65-1.47A3.46,3.46,0,0,1,500.56,156.49Z" fill="#ae75c3"/>
    <path d="M501.14,194.47v-1.3a6.26,6.26,0,0,1,.19-1.62,5.4,5.4,0,0,1,.56-1.39,6.26,6.26,0,0,1,1-1.28,14.74,14.74,0,0,1,1.44-1.3c.5-.38.91-.73,1.25-1a5.66,5.66,0,0,0,.83-.91,3.28,3.28,0,0,0,.46-.94,4.34,4.34,0,0,0,.14-1.14,2.19,2.19,0,0,0-.68-1.65,2.86,2.86,0,0,0-2.07-.65,7.72,7.72,0,0,0-2.61.51,29.9,29.9,0,0,0-2.89,1.24l-1.79-3.88c.5-.29,1.05-.57,1.64-.84s1.21-.49,1.85-.7a14.46,14.46,0,0,1,1.94-.48,10.75,10.75,0,0,1,1.93-.18,11.55,11.55,0,0,1,3.24.43,7,7,0,0,1,2.44,1.26,5.58,5.58,0,0,1,1.54,2,6.4,6.4,0,0,1,.54,2.69,7.44,7.44,0,0,1-.25,2,5.92,5.92,0,0,1-.73,1.62,8,8,0,0,1-1.21,1.44c-.49.46-1.05,1-1.7,1.47-.49.38-.89.72-1.2,1a4.71,4.71,0,0,0-.73.81,2.28,2.28,0,0,0-.36.8,4,4,0,0,0-.1,1v1.05Zm-.58,6a3.62,3.62,0,0,1,.24-1.4,2.34,2.34,0,0,1,.66-.92,2.46,2.46,0,0,1,1-.51,4.39,4.39,0,0,1,1.22-.16,4.08,4.08,0,0,1,1.17.16,2.49,2.49,0,0,1,1,.51,2.34,2.34,0,0,1,.66.92,3.44,3.44,0,0,1,.25,1.4,3.29,3.29,0,0,1-.25,1.35,2.53,2.53,0,0,1-1.64,1.47,4.08,4.08,0,0,1-1.17.16,4.39,4.39,0,0,1-1.22-.16,2.52,2.52,0,0,1-1.65-1.47A3.46,3.46,0,0,1,500.56,200.49Z" fill="#ae75c3"/>
    <text transform="translate(3 225)" font-size="11" fill="#59b254" font-family="DroidSans-Bold, Droid Sans" font-weight="700">Start</text>
    <text transform="translate(240.46 59)" font-size="11" fill="#ae75c3" font-family="DroidSans-Bold, Droid Sans" font-weight="700">Blog</text>
    <text transform="translate(240.76 144)" font-size="11" fill="#ae75c3" font-family="DroidSans-Bold, Droid Sans" font-weight="700">Feedback</text>
    <text transform="translate(240.54 228)" font-size="11" fill="#ae75c3" font-family="DroidSans-Bold, Droid Sans" font-weight="700">About us</text>
    <text transform="translate(239 316)" font-size="11" fill="#ae75c3" font-family="DroidSans-Bold, Droid Sans" font-weight="700">Login</text>
    <text transform="translate(502 313)" font-size="11" fill="#ae75c3" font-family="DroidSans-Bold, Droid Sans" font-weight="700">Account</text>
    <text transform="translate(81.7 126.5)" font-size="11" fill="#4c5054" font-family="DroidSans-Bold, Droid Sans" font-weight="700">Anonymous</text>
    <text transform="translate(371.7 64.5)" font-size="11" fill="#4c5054" font-family="DroidSans-Bold, Droid Sans" font-weight="700">Anonymous</text>
    <text transform="translate(385.77 325.5)" font-size="11" fill="#4c5054" font-family="DroidSans-Bold, Droid Sans" font-weight="700">Admin</text>
    <text transform="translate(670.83 287.5)" font-size="11" fill="#4c5054" font-family="DroidSans-Bold, Droid Sans" font-weight="700">User</text>
  </g>
</svg>
