<svg xmlns="http://www.w3.org/2000/svg" width="807" height="430" viewBox="0 0 807 430">
  <title>crawling-5</title>
  <g>
    <path d="M43.84,21.75a15,15,0,1,0,15,15A15,15,0,0,0,43.84,21.75ZM41,45.13V28.24l10.14,8.1Z" fill="#b8e8b5" stroke="#59b254" stroke-miterlimit="10"/>
    <rect x="2.5" y="104.34" width="84" height="79.84" fill="#eee7f2" stroke="#ae75c3" stroke-miterlimit="10"/>
    <line x1="2.5" y1="134.75" x2="86.5" y2="134.75" fill="none" stroke="#ae75c3" stroke-miterlimit="10"/>
    <g>
      <polygon points="10.27 146.75 19.39 143 28.39 146.25 28.39 156.75 19.27 161 10.27 157.25 10.27 146.75" fill="none" stroke="#ae75c3" stroke-miterlimit="10"/>
      <polyline points="28.33 146.31 19.46 150.06 19.33 161" fill="none" stroke="#ae75c3" stroke-miterlimit="10"/>
      <line x1="10.33" y1="146.81" x2="19.46" y2="150.06" fill="none" stroke="#ae75c3" stroke-miterlimit="10"/>
    </g>
    <line x1="37.77" y1="142.5" x2="57.77" y2="142.5" fill="none" stroke="#ae75c3" stroke-miterlimit="10"/>
    <line x1="42.27" y1="148" x2="74.27" y2="148" fill="none" stroke="#ae75c3" stroke-miterlimit="10"/>
    <line x1="37.27" y1="154" x2="74.27" y2="154" fill="none" stroke="#ae75c3" stroke-miterlimit="10"/>
    <line x1="37.27" y1="160" x2="74.27" y2="160" fill="none" stroke="#ae75c3" stroke-miterlimit="10"/>
    <line x1="37.27" y1="166" x2="74.27" y2="166" fill="none" stroke="#ae75c3" stroke-miterlimit="10"/>
    <line x1="37.27" y1="172" x2="74.27" y2="172" fill="none" stroke="#ae75c3" stroke-miterlimit="10"/>
    <line x1="67.27" y1="178" x2="74.27" y2="178" fill="none" stroke="#ae75c3" stroke-miterlimit="10"/>
    <line x1="60.27" y1="178" x2="64.27" y2="178" fill="none" stroke="#ae75c3" stroke-miterlimit="10"/>
    <line x1="10.27" y1="165" x2="28.27" y2="165" fill="none" stroke="#ae75c3" stroke-miterlimit="10"/>
    <rect x="2.5" y="217.08" width="84" height="79.84" fill="#eee7f2" stroke="#ae75c3" stroke-miterlimit="10"/>
    <line x1="2.5" y1="247.49" x2="86.5" y2="247.49" fill="none" stroke="#ae75c3" stroke-miterlimit="10"/>
    <g>
      <polyline points="25.27 260.32 29.97 258.75 33.11 276.78 51.92 276 54.27 266.59 30.36 262.67" fill="none" stroke="#ae75c3" stroke-miterlimit="10"/>
      <circle cx="36.63" cy="281.87" r="1.96" fill="none" stroke="#ae75c3" stroke-miterlimit="10"/>
      <circle cx="48.39" cy="281.87" r="1.96" fill="none" stroke="#ae75c3" stroke-miterlimit="10"/>
      <polyline points="53.09 279.13 33.5 279.13 33.11 276.78" fill="none" stroke="#ae75c3" stroke-miterlimit="10"/>
    </g>
    <rect x="2.5" y="330.43" width="82.96" height="79.13" fill="#eee7f2" stroke="#ae75c3" stroke-miterlimit="10"/>
    <line x1="2.5" y1="362.58" x2="85.46" y2="362.58" fill="none" stroke="#ae75c3" stroke-miterlimit="10"/>
    <rect x="9.02" y="374.5" width="66" height="7" fill="none" stroke="#ae75c3" stroke-miterlimit="10"/>
    <rect x="8.77" y="391.5" width="66" height="7" fill="none" stroke="#ae75c3" stroke-miterlimit="10"/>
    <line x1="8.27" y1="370.5" x2="34.27" y2="370.5" fill="none" stroke="#ae75c3" stroke-miterlimit="10"/>
    <line x1="8.27" y1="387.5" x2="38.77" y2="387.5" fill="none" stroke="#ae75c3" stroke-miterlimit="10"/>
    <polygon points="44.1 185 44.1 211.3 41.21 211.3 44.5 217 47.79 211.3 44.9 211.3 44.9 185 44.1 185" fill="#606467"/>
    <polygon points="44.1 72 44.1 98.3 41.21 98.3 44.5 104 47.79 98.3 44.9 98.3 44.9 72 44.1 72" fill="#606467"/>
    <polygon points="44.1 298 44.1 324.3 41.21 324.3 44.5 330 47.79 324.3 44.9 324.3 44.9 298 44.1 298" fill="#606467"/>
    <rect x="96.27" y="28" width="309.5" height="20" fill="#fcebe8" stroke="#f63" stroke-miterlimit="10"/>
    <rect x="95.27" y="360" width="335.5" height="20" fill="#fcebe8" stroke="#f63" stroke-miterlimit="10"/>
    <text transform="translate(30.64 67)" font-size="11" fill="#59b254" font-family="DroidSans-Bold, Droid Sans" font-weight="700">Start</text>
    <text transform="translate(9.27 125)" font-size="11" fill="#ae75c3" font-family="DroidSans-Bold, Droid Sans" font-weight="700">View item</text>
    <text transform="translate(9.04 343)" font-size="11" fill="#ae75c3" font-family="DroidSans-Bold, Droid Sans" font-weight="700">Enter name <tspan x="0.13" y="13.2">and address</tspan></text>
    <text transform="translate(8.77 228.36)" font-size="11" fill="#ae75c3" font-family="DroidSans-Bold, Droid Sans" font-weight="700">Shopping <tspan x="0" y="13.2">cart</tspan></text>
    <text transform="translate(101.27 42)" font-size="12" fill="#f63" font-family="Courier, Courier">Set-Cookie: sessid=2983hfg3j98yg23oirfji2</text>
    <text transform="translate(99.27 374)" font-size="12" fill="#f63" font-family="Courier, Courier">Set-Cookie: CheckoutSession=echdh23uhfuh08506</text>
    <text transform="translate(101.27 86)" font-size="12" fill="#4c5054" font-family="Courier, Courier">GET /catalog/item/591</text>
    <text transform="translate(101.27 204)" font-size="12" fill="#4c5054" font-family="Courier, Courier">POST /addtocart/item/591?csrf=2983gh4fjnviurvh9384jf</text>
    <text transform="translate(101.27 317)" font-size="12" fill="#4c5054" font-family="Courier, Courier">GET /checkout?csrf=2398fhh2983d2893hfg9ih</text>
  </g>
</svg>
