<svg xmlns="http://www.w3.org/2000/svg" width="807" height="345" viewBox="0 0 807 345">
  <title>crawling-1</title>
  <g>
    <path d="M16.94,143.25a15,15,0,1,0,15,15A15,15,0,0,0,16.94,143.25ZM14.1,166.63V149.74l10.13,8.1Z" fill="#b8e8b5" stroke="#59b254" stroke-miterlimit="10"/>
    <rect x="363.5" y="20" width="84" height="63.52" fill="#eee7f2" stroke="#ae75c3" stroke-miterlimit="10"/>
    <line x1="363.5" y1="44.2" x2="447.5" y2="44.2" fill="none" stroke="#ae75c3" stroke-miterlimit="10"/>
    <path d="M396.52,50.88c-4.13,0-7.48,2.7-7.48,6a5,5,0,0,0,.85,2.78h0l.25.24c-.09.52-.35,1.08-.58,1.91-.12.39-.24.83-.37,1.34l1.33-.38a12.73,12.73,0,0,1,2.36-.59l.16,0a9,9,0,0,0,3.48.69c4.12,0,7.47-2.71,7.47-6S400.64,50.88,396.52,50.88Z" fill="#eee7f2" stroke="#ae75c3" stroke-miterlimit="10"/>
    <path d="M411.59,59.2c4.11,0,7.45,2.71,7.45,6A5.09,5.09,0,0,1,418.2,68h0l-.26.23c.09.53.35,1.08.59,1.91q.17.59.36,1.35l-1.32-.39a12.39,12.39,0,0,0-2.36-.58l-.16,0a8.9,8.9,0,0,1-3.46.69c-4.11,0-7.45-2.71-7.45-6S407.48,59.2,411.59,59.2Z" fill="#eee7f2" stroke="#ae75c3" stroke-miterlimit="10"/>
    <rect x="363.5" y="100.08" width="84" height="63.52" fill="#eee7f2" stroke="#ae75c3" stroke-miterlimit="10"/>
    <line x1="363.5" y1="124.15" x2="447.5" y2="124.15" fill="none" stroke="#ae75c3" stroke-miterlimit="10"/>
    <path d="M416.62,138.33h-5.13l-3.47,2.8.32-2.8h-1.93a1.18,1.18,0,0,1-1.18-1.18v-6a1.18,1.18,0,0,1,1.18-1.18h10.21a1.18,1.18,0,0,1,1.18,1.18v6A1.18,1.18,0,0,1,416.62,138.33Z" fill="#eee7f2" stroke="#ae75c3" stroke-miterlimit="10"/>
    <rect x="363.5" y="180.03" width="84" height="63.52" fill="#eee7f2" stroke="#ae75c3" stroke-miterlimit="10"/>
    <line x1="363.5" y1="204.1" x2="447.5" y2="204.1" fill="none" stroke="#ae75c3" stroke-miterlimit="10"/>
    <circle cx="407.44" cy="215.59" r="1.87" fill="#eee7f2" stroke="#ae75c3" stroke-miterlimit="10"/>
    <path d="M402.73,220.48l5.62-.81-2.78,9.48a1.81,1.81,0,0,0,0,1.45c.2.23.6.13,1.37-.81l1.16-1.42,1.14,1.63s-1.57,2.47-2,3a3.34,3.34,0,0,1-3,1c-1.6-.15-2-2.31-2-3s1.85-7.73,2-8.41,0-1.35-.76-1.33l-.83,0Z" fill="#eee7f2" stroke="#ae75c3" stroke-miterlimit="10"/>
    <rect x="363.5" y="260.74" width="84" height="63.52" fill="#eee7f2" stroke="#ae75c3" stroke-miterlimit="10"/>
    <line x1="363.5" y1="284.81" x2="447.5" y2="284.81" fill="none" stroke="#ae75c3" stroke-miterlimit="10"/>
    <polyline points="409.24 312.26 404.74 312.26 404.74 291.26 419.74 291.26 419.74 312.26" fill="none" stroke="#ae75c3" stroke-miterlimit="10"/>
    <polygon points="419.74 312.26 409.24 317.26 409.24 295.76 419.74 291.26 419.74 312.26" fill="none" stroke="#ae75c3" stroke-miterlimit="10"/>
    <polygon points="397.24 295.76 403.24 301.76 397.24 307.76 397.24 304.76 390.24 304.76 390.24 298.76 397.24 298.76 397.24 295.76" fill="none" stroke="#ae75c3" stroke-miterlimit="10"/>
    <polygon points="37.51 167.75 353.77 55.56 355.7 61.01 364.24 51 351.31 48.61 353.24 54.06 36.98 166.25 37.51 167.75" fill="#606467"/>
    <polygon points="37.33 167.79 353 133.03 353.64 138.78 364.24 131 352.2 125.71 352.83 131.46 37.15 166.21 37.33 167.79" fill="#606467"/>
    <polygon points="37.13 167.78 352.85 213.16 352.03 218.89 364.24 214 353.9 205.87 353.08 211.59 37.35 166.21 37.13 167.78" fill="#606467"/>
    <polygon points="36.95 167.74 352.33 289.63 350.24 295.03 363.24 293 354.99 282.76 352.9 288.15 37.53 166.26 36.95 167.74" fill="#606467"/>
    <polygon points="448 293.79 711.61 293.79 711.61 299.58 723 293 711.61 286.42 711.61 292.21 448 292.21 448 293.79" fill="#606467"/>
    <path d="M399.05,146a5,5,0,1,0-4.62,0c-3.29,1.18-5.69,4.81-5.69,9.1a10.89,10.89,0,0,0,.43,3l.1.36h14.94l.1-.36a10.89,10.89,0,0,0,.43-3C404.74,150.81,402.34,147.18,399.05,146Zm-6.31-4.4a4,4,0,1,1,4,4A4,4,0,0,1,392.74,141.6Zm10.71,15.9H390a10.3,10.3,0,0,1-.29-2.4c0-4.69,3.14-8.5,7-8.5s7,3.81,7,8.5A10.3,10.3,0,0,1,403.45,157.5Z" fill="#ae75c3"/>
    <rect x="722.06" y="260.74" width="84" height="63.52" fill="#eee7f2" stroke="#ae75c3" stroke-miterlimit="10"/>
    <line x1="722.06" y1="284.81" x2="806.06" y2="284.81" fill="none" stroke="#ae75c3" stroke-miterlimit="10"/>
    <g>
      <path d="M783.87,300.5v-3.62h-1.75a4.48,4.48,0,0,0-.28-.72l1.22-1.22-2.56-2.57-1.22,1.22a5,5,0,0,0-.72-.3v-1.72h-3.63v1.72a4.66,4.66,0,0,0-.73.3L773,292.37l-2.57,2.57,1.23,1.22a4.51,4.51,0,0,0-.29.72h-1.74v3.62h1.76a4.3,4.3,0,0,0,.29.7l-1.25,1.25L773,305l1.25-1.25a7.1,7.1,0,0,0,.69.28v1.78h3.63V304c.23-.08.46-.18.68-.28L780.5,305l2.56-2.56-1.24-1.25a6.07,6.07,0,0,0,.29-.7Zm-2.31-.73-.07.27a5.69,5.69,0,0,1-.44,1l-.14.24,1.12,1.12L780.5,304l-1.13-1.13-.24.14a5,5,0,0,1-1,.42l-.27.08v1.59h-2.16v-1.59l-.27-.08a5,5,0,0,1-1-.42l-.24-.14L773,304l-1.53-1.53,1.11-1.12-.13-.24a4.58,4.58,0,0,1-.44-1l-.08-.27h-1.57v-2.16h1.56l.07-.27a5.32,5.32,0,0,1,.43-1.07l.14-.24-1.09-1.09,1.53-1.53,1.08,1.08.24-.13a5.13,5.13,0,0,1,1.08-.45l.27-.08V292.3h2.16v1.53l.27.08a4.62,4.62,0,0,1,1.08.44l.24.14,1.09-1.08,1.53,1.53-1.1,1.09.14.24a5.32,5.32,0,0,1,.43,1.07l.07.27h1.56v2.16Z" fill="#ae75c3"/>
      <path d="M776.74,295.91a2.78,2.78,0,1,0,2.78,2.78A2.79,2.79,0,0,0,776.74,295.91Zm0,4.83a2.05,2.05,0,1,1,2-2.05A2.05,2.05,0,0,1,776.74,300.74Z" fill="#ae75c3"/>
      <path d="M765.05,306.19a5,5,0,1,0-4.62,0c-3.29,1.18-5.69,4.81-5.69,9.1a10.89,10.89,0,0,0,.43,3l.1.36h14.94l.1-.36a10.89,10.89,0,0,0,.43-3C770.74,311,768.34,307.37,765.05,306.19Zm-6.31-4.4a4,4,0,1,1,4,4A4,4,0,0,1,758.74,301.79Zm10.71,15.9H756a10.3,10.3,0,0,1-.29-2.4c0-4.69,3.14-8.5,7-8.5s7,3.81,7,8.5A10.3,10.3,0,0,1,769.45,317.69Z" fill="#ae75c3"/>
    </g>
    <text transform="translate(2.74 188.5)" font-size="11" fill="#59b254" font-family="DroidSans-Bold, Droid Sans" font-weight="700">Start</text>
    <text transform="translate(375.2 36.5)" font-size="11" fill="#ae75c3" font-family="DroidSans-Bold, Droid Sans" font-weight="700">Blog</text>
    <text transform="translate(375.5 117.5)" font-size="11" fill="#ae75c3" font-family="DroidSans-Bold, Droid Sans" font-weight="700">Feedback</text>
    <text transform="translate(374.28 196.5)" font-size="11" fill="#ae75c3" font-family="DroidSans-Bold, Droid Sans" font-weight="700">About us</text>
    <text transform="translate(374.74 276.5)" font-size="11" fill="#ae75c3" font-family="DroidSans-Bold, Droid Sans" font-weight="700">Login</text>
    <text transform="translate(735.74 276.5)" font-size="11" fill="#ae75c3" font-family="DroidSans-Bold, Droid Sans" font-weight="700">Account</text>
  </g>
</svg>
