<svg xmlns="http://www.w3.org/2000/svg" width="807" height="420" viewBox="0 0 807 420">
  <title>crawling-9</title>
  <g>
    <rect x="6" y="19.5" width="282.18" height="381.5" fill="none" stroke="#dce3e5" stroke-miterlimit="10"/>
    <rect x="305.32" y="19.5" width="282.18" height="381.5" fill="none" stroke="#dce3e5" stroke-miterlimit="10"/>
    <path d="M592,25c18,0-11,73.53,17,73.53-28,0,0,75.47-17,75.47" fill="none" stroke="#0071bc" stroke-miterlimit="10" stroke-width="2"/>
    <path d="M592,193c18,0-5,37,17,36.52C587,230,609,267,592,267" fill="none" stroke="#60bcd8" stroke-miterlimit="10" stroke-width="2"/>
    <path d="M592,277c18,0-6,56.26,17,56.26-23,0,0,57.74-17,57.74" fill="none" stroke="#0071bc" stroke-miterlimit="10" stroke-width="2"/>
    <text transform="translate(16 31.67)" font-size="12" fill="#0071bc" font-family="Courier, Courier">...<tspan x="0" y="14.4">&lt;title&gt;My Account&lt;/title&gt;</tspan><tspan x="0" y="28.8">...</tspan><tspan x="0" y="43.2">&lt;a href=”mydetails”&gt;My details&lt;/a&gt;</tspan><tspan x="0" y="57.6">&lt;a href=”orders”&gt;Orders&lt;/a&gt;</tspan><tspan x="0" y="72">&lt;a href=”messages”&gt;Messages&lt;/a&gt;</tspan><tspan x="0" y="86.4">&lt;a href=”logout”&gt;Logout&lt;/a&gt;</tspan><tspan x="0" y="100.8">...</tspan><tspan x="0" y="115.2">Welcome, Mr Macdonald!</tspan><tspan x="0" y="129.6">...</tspan><tspan x="0" y="144">&lt;h2&gt;Popular products&lt;/h2&gt;</tspan><tspan fill="#60bcd8"><tspan x="0" y="158.4" xml:space="preserve">Poodle customization:  </tspan><tspan x="0" y="172.8">&lt;a href=”product/2084”&gt;Ribbon&lt;/a&gt;</tspan><tspan x="0" y="187.2">Feline de-icer:</tspan><tspan x="0" y="201.6">&lt;a href=”product/5418”&gt;Kit-E-Thaw&lt;/a&gt;</tspan><tspan x="0" y="216">Pig hygiene solutions:</tspan><tspan x="0" y="230.4">&lt;a href=”product/738”&gt;Shovel&lt;/a&gt;</tspan></tspan><tspan x="0" y="244.8">...</tspan><tspan x="0" y="259.2">...</tspan><tspan x="0" y="273.6">&lt;section id=”footer”&gt;</tspan><tspan x="0" y="288">&lt;h2&gt;Categories&lt;/h2&gt;</tspan><tspan x="0" y="302.4">&lt;a href=”chickens”&gt;Chickens&lt;/a&gt;</tspan><tspan x="0" y="316.8">&lt;a href=”frogs”&gt;Frogs&lt;/a&gt;</tspan><tspan x="0" y="331.2">&lt;a href=”reptiles”&gt;Reptiles&lt;/a&gt;</tspan><tspan x="0" y="345.6">&lt;/section&gt;</tspan><tspan x="0" y="360">...</tspan></text>
    <text transform="translate(313 31.67)" font-size="12" fill="#0071bc" font-family="Courier, Courier">...<tspan x="0" y="14.4">&lt;title&gt;My Account&lt;/title&gt;</tspan><tspan x="0" y="28.8">...</tspan><tspan x="0" y="43.2">&lt;a href=”mydetails”&gt;My details&lt;/a&gt;</tspan><tspan x="0" y="57.6">&lt;a href=”orders”&gt;Orders&lt;/a&gt;</tspan><tspan x="0" y="72">&lt;a href=”messages”&gt;Messages&lt;/a&gt;</tspan><tspan x="0" y="86.4">&lt;a href=”logout”&gt;Logout&lt;/a&gt;</tspan><tspan x="0" y="100.8">...</tspan><tspan x="0" y="115.2">Welcome, Mr Macdonald!</tspan><tspan x="0" y="129.6">...</tspan><tspan x="0" y="144">&lt;h2&gt;Popular products&lt;/h2&gt;</tspan><tspan fill="#60bcd8"><tspan x="0" y="158.4">Snake polish:</tspan><tspan x="0" y="172.8">&lt;a href=”product/8521”&gt;Scale Shine&lt;/a&gt;</tspan><tspan x="0" y="187.2">Vermin control:</tspan><tspan x="0" y="201.6">&lt;a href=”recruiters”&gt;Rat pellets&lt;/a&gt;</tspan><tspan x="0" y="216">Snail seasoning:</tspan><tspan x="0" y="230.4">&lt;a href=”product/6541”&gt;Garlic salt&lt;/a&gt;</tspan></tspan><tspan x="0" y="244.8">...</tspan><tspan x="0" y="259.2">...</tspan><tspan x="0" y="273.6">&lt;section id=”footer”&gt;</tspan><tspan x="0" y="288">&lt;h2&gt;Categories&lt;/h2&gt;</tspan><tspan x="0" y="302.4">&lt;a href=”chickens”&gt;Chickens&lt;/a&gt;</tspan><tspan x="0" y="316.8">&lt;a href=”frogs”&gt;Frogs&lt;/a&gt;</tspan><tspan x="0" y="331.2">&lt;a href=”reptiles”&gt;Reptiles&lt;/a&gt;</tspan><tspan x="0" y="345.6">&lt;/section&gt;</tspan><tspan x="0" y="360">...</tspan></text>
    <text transform="translate(616 96)" font-size="11" fill="#0071bc" font-family="DroidSans-Bold, Droid Sans" font-weight="700">Core content<tspan x="0" y="13.2">and links</tspan></text>
    <text transform="translate(616 330)" font-size="11" fill="#0071bc" font-family="DroidSans-Bold, Droid Sans" font-weight="700">Core content<tspan x="0" y="13.2">and links</tspan></text>
    <text transform="translate(616 226)" font-size="11" fill="#60bcd8" font-family="DroidSans-Bold, Droid Sans" font-weight="700"><tspan letter-spacing="-0.03em">V</tspan><tspan x="6.38" y="0">ariable content</tspan><tspan x="0" y="13.2">and links</tspan></text>
  </g>
</svg>
