<svg xmlns="http://www.w3.org/2000/svg" width="807" height="340" viewBox="0 0 807 340">
  <title>crawling-4</title>
  <g>
    <path d="M731.64,251.47v-1.3a6.26,6.26,0,0,1,.19-1.62,5.4,5.4,0,0,1,.56-1.39,6.26,6.26,0,0,1,1-1.28,14.74,14.74,0,0,1,1.44-1.3c.5-.38.91-.73,1.25-1a5.66,5.66,0,0,0,.83-.91,3.28,3.28,0,0,0,.46-.94,4.34,4.34,0,0,0,.14-1.14,2.19,2.19,0,0,0-.68-1.65,2.86,2.86,0,0,0-2.07-.65,7.72,7.72,0,0,0-2.61.51,29.9,29.9,0,0,0-2.89,1.24l-1.79-3.88c.5-.29,1-.57,1.64-.84s1.21-.49,1.85-.7a14.46,14.46,0,0,1,1.94-.48,10.75,10.75,0,0,1,1.93-.18,11.55,11.55,0,0,1,3.24.43,7,7,0,0,1,2.44,1.26,5.58,5.58,0,0,1,1.54,2,6.4,6.4,0,0,1,.54,2.69,7.44,7.44,0,0,1-.25,2,5.92,5.92,0,0,1-.73,1.62,8,8,0,0,1-1.21,1.44c-.49.46-1,1-1.7,1.47-.49.38-.89.72-1.2,1a4.71,4.71,0,0,0-.73.81,2.28,2.28,0,0,0-.36.8,4,4,0,0,0-.1,1v1.05Zm-.58,6a3.62,3.62,0,0,1,.24-1.4,2.34,2.34,0,0,1,.66-.92,2.46,2.46,0,0,1,1-.51,4.39,4.39,0,0,1,1.22-.16,4.08,4.08,0,0,1,1.17.16,2.49,2.49,0,0,1,1,.51,2.34,2.34,0,0,1,.66.92,3.44,3.44,0,0,1,.25,1.4,3.29,3.29,0,0,1-.25,1.35,2.53,2.53,0,0,1-1.64,1.47,4.08,4.08,0,0,1-1.17.16,4.39,4.39,0,0,1-1.22-.16,2.52,2.52,0,0,1-1.65-1.47A3.46,3.46,0,0,1,731.06,257.49Z" fill="#ae75c3"/>
    <path d="M731.64,312.47v-1.3a6.26,6.26,0,0,1,.19-1.62,5.4,5.4,0,0,1,.56-1.39,6.26,6.26,0,0,1,1-1.28,14.74,14.74,0,0,1,1.44-1.3c.5-.38.91-.73,1.25-1a5.66,5.66,0,0,0,.83-.91,3.28,3.28,0,0,0,.46-.94,4.34,4.34,0,0,0,.14-1.14,2.19,2.19,0,0,0-.68-1.65,2.86,2.86,0,0,0-2.07-.65,7.72,7.72,0,0,0-2.61.51,29.9,29.9,0,0,0-2.89,1.24l-1.79-3.88c.5-.29,1-.57,1.64-.84s1.21-.49,1.85-.7a14.46,14.46,0,0,1,1.94-.48,10.75,10.75,0,0,1,1.93-.18,11.55,11.55,0,0,1,3.24.43,7,7,0,0,1,2.44,1.26,5.58,5.58,0,0,1,1.54,2,6.4,6.4,0,0,1,.54,2.69,7.44,7.44,0,0,1-.25,2,5.92,5.92,0,0,1-.73,1.62,8,8,0,0,1-1.21,1.44c-.49.46-1,.95-1.7,1.47-.49.38-.89.72-1.2,1a4.71,4.71,0,0,0-.73.81,2.28,2.28,0,0,0-.36.8,4,4,0,0,0-.1,1v1.05Zm-.58,6a3.62,3.62,0,0,1,.24-1.4,2.34,2.34,0,0,1,.66-.92,2.46,2.46,0,0,1,1-.51,4.39,4.39,0,0,1,1.22-.16,4.08,4.08,0,0,1,1.17.16,2.49,2.49,0,0,1,1,.51,2.34,2.34,0,0,1,.66.92,3.44,3.44,0,0,1,.25,1.4,3.29,3.29,0,0,1-.25,1.35,2.53,2.53,0,0,1-1.64,1.47,4.08,4.08,0,0,1-1.17.16,4.39,4.39,0,0,1-1.22-.16,2.52,2.52,0,0,1-1.65-1.47A3.46,3.46,0,0,1,731.06,318.49Z" fill="#ae75c3"/>
    <rect x="366" y="31.37" width="84" height="79.84" fill="#eee7f2" stroke="#ae75c3" stroke-miterlimit="10"/>
    <line x1="366" y1="61.62" x2="450" y2="61.62" fill="none" stroke="#ae75c3" stroke-miterlimit="10"/>
    <g>
      <circle cx="410.11" cy="74.46" r="2.75" fill="#eee7f2" stroke="#ae75c3" stroke-miterlimit="10"/>
      <path d="M403.2,81.64l8.26-1.19s-3.83,13-4.09,13.91a2.7,2.7,0,0,0,0,2.12c.29.33.89.18,2-1.19s1.71-2.08,1.71-2.08l1.68,2.39s-2.31,3.62-2.94,4.4a4.9,4.9,0,0,1-4.4,1.47c-2.34-.23-2.92-3.39-3-4.44s2.71-11.32,3-12.33-.07-2-1.12-1.94l-1.22,0Z" fill="#eee7f2" stroke="#ae75c3" stroke-miterlimit="10"/>
    </g>
    <rect x="693.32" y="21.37" width="84" height="79.84" fill="#eee7f2" stroke="#ae75c3" stroke-miterlimit="10"/>
    <line x1="693.32" y1="51.62" x2="777.32" y2="51.62" fill="none" stroke="#ae75c3" stroke-miterlimit="10"/>
    <g>
      <line x1="706.5" y1="90.5" x2="755.5" y2="90.5" fill="none" stroke="#ae75c3" stroke-miterlimit="10"/>
      <rect x="711.5" y="66.5" width="11" height="24" fill="none" stroke="#ae75c3" stroke-miterlimit="10"/>
      <rect x="725" y="59.5" width="12" height="31" fill="none" stroke="#ae75c3" stroke-miterlimit="10"/>
      <polygon points="750.5 90.5 739.5 90.5 739.5 68.5 750.5 74.5 750.5 90.5" fill="none" stroke="#ae75c3" stroke-miterlimit="10"/>
      <rect x="713.5" y="72.5" width="7" height="2" fill="none" stroke="#ae75c3" stroke-miterlimit="10"/>
      <rect x="713.5" y="68.5" width="7" height="2" fill="none" stroke="#ae75c3" stroke-miterlimit="10"/>
      <rect x="713.5" y="80.5" width="7" height="2" fill="none" stroke="#ae75c3" stroke-miterlimit="10"/>
      <rect x="713.5" y="76.5" width="7" height="2" fill="none" stroke="#ae75c3" stroke-miterlimit="10"/>
      <rect x="713.5" y="84.5" width="7" height="2" fill="none" stroke="#ae75c3" stroke-miterlimit="10"/>
      <rect x="727.75" y="72.5" width="2" height="2" fill="none" stroke="#ae75c3" stroke-miterlimit="10"/>
      <rect x="727.75" y="68.5" width="2" height="2" fill="none" stroke="#ae75c3" stroke-miterlimit="10"/>
      <rect x="727.75" y="80.5" width="2" height="2" fill="none" stroke="#ae75c3" stroke-miterlimit="10"/>
      <rect x="727.75" y="76.5" width="2" height="2" fill="none" stroke="#ae75c3" stroke-miterlimit="10"/>
      <rect x="727.75" y="84.5" width="2" height="2" fill="none" stroke="#ae75c3" stroke-miterlimit="10"/>
      <rect x="732.5" y="72.5" width="2" height="2" fill="none" stroke="#ae75c3" stroke-miterlimit="10"/>
      <rect x="732.5" y="68.5" width="2" height="2" fill="none" stroke="#ae75c3" stroke-miterlimit="10"/>
      <rect x="732.5" y="80.5" width="2" height="2" fill="none" stroke="#ae75c3" stroke-miterlimit="10"/>
      <rect x="732.5" y="76.5" width="2" height="2" fill="none" stroke="#ae75c3" stroke-miterlimit="10"/>
      <rect x="732.5" y="84.5" width="2" height="2" fill="none" stroke="#ae75c3" stroke-miterlimit="10"/>
      <rect x="741.5" y="80.5" width="7" height="2" fill="none" stroke="#ae75c3" stroke-miterlimit="10"/>
      <rect x="741.5" y="76.5" width="7" height="2" fill="none" stroke="#ae75c3" stroke-miterlimit="10"/>
      <rect x="741.5" y="84.5" width="7" height="2" fill="none" stroke="#ae75c3" stroke-miterlimit="10"/>
    </g>
    <g>
      <path d="M792.45,152.67a1.88,1.88,0,1,0-1.88,1.87A1.88,1.88,0,0,0,792.45,152.67Zm-3,0a1.16,1.16,0,1,1,1.15,1.15A1.15,1.15,0,0,1,789.42,152.67Z" fill="#f63"/>
      <path d="M797.73,150.79a1.88,1.88,0,1,0,1.88,1.88A1.88,1.88,0,0,0,797.73,150.79Zm0,3a1.15,1.15,0,1,1,1.16-1.15A1.16,1.16,0,0,1,797.73,153.82Z" fill="#f63"/>
      <path d="M807,149.53h-3v-2.7h-9.76v-1.11l1.48-1.59h-1.48V143h-.78l.78-.84v-1.8h-.56V142l-1.63,1.6h1.63v1.21h.72l-.72.75v1.32h-9.43v2.7h-3v9h3v3.05H804v-3.05h3Zm-25,8.25v-7.53h2.25v7.53Zm21.28,3.06H785V147.55h18.31v13.29Zm3-3.06H804v-7.53h2.25Z" fill="#f63"/>
      <rect x="790.57" y="157.73" width="7.16" height="0.72" fill="#f63"/>
    </g>
    <polygon points="46.27 165.13 55.66 154.85 60.02 167.45 46.27 165.13" fill="#f63"/>
    <g>
      <path d="M732.45,219.67a1.88,1.88,0,1,0-1.88,1.87A1.88,1.88,0,0,0,732.45,219.67Zm-3,0a1.16,1.16,0,1,1,1.15,1.15A1.15,1.15,0,0,1,729.42,219.67Z" fill="#f63"/>
      <path d="M737.73,217.79a1.88,1.88,0,1,0,1.88,1.88A1.88,1.88,0,0,0,737.73,217.79Zm0,3a1.15,1.15,0,1,1,1.16-1.15A1.16,1.16,0,0,1,737.73,220.82Z" fill="#f63"/>
      <path d="M747,216.53h-3v-2.7h-9.76v-1.11l1.48-1.59h-1.48V210h-.78l.78-.84v-1.8h-.56V209l-1.63,1.6h1.63v1.21h.72l-.72.75v1.32h-9.43v2.7h-3v9h3v3.05H744v-3.05h3Zm-25,8.25v-7.53h2.25v7.53Zm21.28,3.06H725V214.55h18.31v13.29Zm3-3.06H744v-7.53h2.25Z" fill="#f63"/>
      <rect x="730.57" y="224.73" width="7.16" height="0.72" fill="#f63"/>
    </g>
    <g>
      <path d="M506.45,162.67a1.88,1.88,0,1,0-1.88,1.87A1.88,1.88,0,0,0,506.45,162.67Zm-3,0a1.16,1.16,0,1,1,1.15,1.15A1.15,1.15,0,0,1,503.42,162.67Z" fill="#f63"/>
      <path d="M511.73,160.79a1.88,1.88,0,1,0,1.88,1.88A1.88,1.88,0,0,0,511.73,160.79Zm0,3a1.15,1.15,0,1,1,1.16-1.15A1.16,1.16,0,0,1,511.73,163.82Z" fill="#f63"/>
      <path d="M521,159.53h-3v-2.7h-9.76v-1.11l1.48-1.59h-1.48V153h-.78l.78-.84v-1.8h-.56V152l-1.63,1.6h1.63v1.21h.72l-.72.75v1.32h-9.43v2.7h-3v9h3v3.05H518v-3.05h3Zm-25,8.25v-7.53h2.25v7.53Zm21.28,3.06H499V157.55h18.31v13.29Zm3-3.06H518v-7.53h2.25Z" fill="#f63"/>
      <rect x="504.57" y="167.73" width="7.16" height="0.72" fill="#f63"/>
    </g>
    <path d="M529,169.43C541,176,550,187,565,189c3,0,5,2,7,3,22,4,42-1,62-8,6-2,11-5,17-8a255.71,255.71,0,0,1,24-11c18-9,39-3,57,4,15,5,34,10,48,0" fill="none" stroke="#f63" stroke-miterlimit="10" stroke-width="2" stroke-dasharray="6"/>
    <path d="M347,158.52C374,176,402,197,437,190c19-5,33-17,50.55-22.73" fill="none" stroke="#f63" stroke-miterlimit="10" stroke-width="2" stroke-dasharray="6"/>
    <path d="M56,162c12-4,26-4,38,2,38,17,83,23,121-2,13-9,23-20,37-25,19-6,41-5,59,3.63" fill="none" stroke="#f63" stroke-miterlimit="10" stroke-width="2" stroke-dasharray="6"/>
    <path d="M17.34,154.75a15,15,0,1,0,15,15A15,15,0,0,0,17.34,154.75ZM14.5,178.13V161.24l10.14,8.1Z" fill="#b8e8b5" stroke="#59b254" stroke-miterlimit="10"/>
    <rect x="693.32" y="112.37" width="84" height="79.84" fill="#eee7f2" stroke="#ae75c3" stroke-miterlimit="10"/>
    <line x1="693.32" y1="142.62" x2="777.32" y2="142.62" fill="none" stroke="#ae75c3" stroke-miterlimit="10"/>
    <path d="M738.31,168.5a5,5,0,1,0-4.62,0c-3.29,1.18-5.69,4.81-5.69,9.1a10.89,10.89,0,0,0,.43,3l.1.36h14.94l.1-.36a10.89,10.89,0,0,0,.43-3C744,173.31,741.6,169.68,738.31,168.5ZM732,164.1a4,4,0,1,1,4,4A4,4,0,0,1,732,164.1ZM742.71,180H729.29a10.3,10.3,0,0,1-.29-2.4c0-4.69,3.14-8.5,7-8.5s7,3.81,7,8.5A10.3,10.3,0,0,1,742.71,180Z" fill="#ae75c3"/>
    <g>
      <path d="M199.45,262.67a1.88,1.88,0,1,0-1.88,1.87A1.88,1.88,0,0,0,199.45,262.67Zm-3,0a1.16,1.16,0,1,1,1.15,1.15A1.15,1.15,0,0,1,196.42,262.67Z" fill="#f63"/>
      <path d="M204.73,260.79a1.88,1.88,0,1,0,1.88,1.88A1.88,1.88,0,0,0,204.73,260.79Zm0,3a1.15,1.15,0,1,1,1.16-1.15A1.16,1.16,0,0,1,204.73,263.82Z" fill="#f63"/>
      <path d="M214,259.53h-3v-2.7h-9.76v-1.11l1.48-1.59h-1.48V253h-.78l.78-.84v-1.8h-.56V252l-1.63,1.6h1.63v1.21h.72l-.72.75v1.32h-9.43v2.7h-3v9h3v3.05H211v-3.05h3Zm-25,8.25v-7.53h2.25v7.53Zm21.28,3.06H192V257.55h18.31v13.29Zm3-3.06H211v-7.53h2.25Z" fill="#f63"/>
      <rect x="197.57" y="267.73" width="7.16" height="0.72" fill="#f63"/>
    </g>
    <rect x="366" y="225.34" width="84" height="79.84" fill="#eee7f2" stroke="#ae75c3" stroke-miterlimit="10"/>
    <line x1="366" y1="255.75" x2="450" y2="255.75" fill="none" stroke="#ae75c3" stroke-miterlimit="10"/>
    <g>
      <polygon points="381 280.75 390.13 277 399.13 280.25 399.13 290.75 390 295 381 291.25 381 280.75" fill="none" stroke="#ae75c3" stroke-miterlimit="10"/>
      <polyline points="399.06 280.31 390.19 284.06 390.06 295" fill="none" stroke="#ae75c3" stroke-miterlimit="10"/>
      <line x1="381.06" y1="280.81" x2="390.19" y2="284.06" fill="none" stroke="#ae75c3" stroke-miterlimit="10"/>
    </g>
    <g>
      <polygon points="399 265.75 408.13 262 417.13 265.25 417.13 275.75 408 280 399 276.25 399 265.75" fill="none" stroke="#ae75c3" stroke-miterlimit="10"/>
      <polyline points="417.06 265.31 408.19 269.06 408.06 280" fill="none" stroke="#ae75c3" stroke-miterlimit="10"/>
      <line x1="399.06" y1="265.81" x2="408.19" y2="269.06" fill="none" stroke="#ae75c3" stroke-miterlimit="10"/>
    </g>
    <g>
      <polygon points="416 280.75 425.13 277 434.13 280.25 434.13 290.75 425 295 416 291.25 416 280.75" fill="none" stroke="#ae75c3" stroke-miterlimit="10"/>
      <polyline points="434.06 280.31 425.19 284.06 425.06 295" fill="none" stroke="#ae75c3" stroke-miterlimit="10"/>
      <line x1="416.06" y1="280.81" x2="425.19" y2="284.06" fill="none" stroke="#ae75c3" stroke-miterlimit="10"/>
    </g>
    <text transform="translate(3.5 200)" font-size="11" fill="#59b254" font-family="DroidSans-Bold, Droid Sans" font-weight="700">Start</text>
    <text transform="translate(375.04 52)" font-size="11" fill="#ae75c3" font-family="DroidSans-Bold, Droid Sans" font-weight="700">About us</text>
    <text transform="translate(697.5 131)" font-size="11" fill="#ae75c3" font-family="DroidSans-Bold, Droid Sans" font-weight="700">Contact</text>
    <text transform="translate(697.5 41)" font-size="11" fill="#ae75c3" font-family="DroidSans-Bold, Droid Sans" font-weight="700">Company</text>
    <text transform="translate(373 237.86)" font-size="11" fill="#ae75c3" font-family="DroidSans-Bold, Droid Sans" font-weight="700">Our<tspan x="0" y="11.2">products</tspan></text>
    <polygon points="45.7 156.27 353.69 75.17 355.16 80.76 364.5 71.5 351.81 68.04 353.28 73.63 45.3 154.73 45.7 156.27" fill="#606467"/>
    <polygon points="45.33 212.25 354.16 267.2 353.15 272.9 365.52 268.42 355.45 259.95 354.44 265.64 45.61 210.69 45.33 212.25" fill="#ff774a"/>
    <polygon points="45.34 207.3 354.17 262.25 353.16 267.94 365.53 263.46 355.46 254.99 354.45 260.69 45.62 205.74 45.34 207.3" fill="#606467"/>
    <polygon points="449.55 75.29 666.94 62.55 667.28 68.32 678.26 61.09 666.51 55.19 666.85 60.96 449.45 73.71 449.55 75.29" fill="#606467"/>
    <polygon points="449.25 75.25 666.81 148.12 664.97 153.6 677.86 150.98 669.15 141.13 667.31 146.61 449.75 73.75 449.25 75.25" fill="#606467"/>
    <g>
      <path d="M326.45,149.67a1.88,1.88,0,1,0-1.88,1.87A1.88,1.88,0,0,0,326.45,149.67Zm-3,0a1.16,1.16,0,1,1,1.15,1.15A1.15,1.15,0,0,1,323.42,149.67Z" fill="#f63"/>
      <path d="M331.73,147.79a1.88,1.88,0,1,0,1.88,1.88A1.88,1.88,0,0,0,331.73,147.79Zm0,3a1.15,1.15,0,1,1,1.16-1.15A1.16,1.16,0,0,1,331.73,150.82Z" fill="#f63"/>
      <path d="M341,146.53h-3v-2.7h-9.76v-1.11l1.48-1.59h-1.48V140h-.78l.78-.84v-1.8h-.56V139l-1.63,1.6h1.63v1.21h.72l-.72.75v1.32h-9.43v2.7h-3v9h3v3.05H338v-3.05h3Zm-25,8.25v-7.53h2.25v7.53Zm21.28,3.06H319V144.55h18.31v13.29Zm3-3.06H338v-7.53h2.25Z" fill="#f63"/>
      <rect x="324.57" y="154.73" width="7.16" height="0.72" fill="#f63"/>
    </g>
    <polygon points="450.57 261.29 695.22 239.31 695.74 245.07 706.5 237.5 694.57 231.97 695.08 237.73 450.43 259.71 450.57 261.29" fill="#ff774a"/>
    <polygon points="450.57 267.29 695.23 244.35 695.77 250.11 706.5 242.5 694.54 237.01 695.08 242.77 450.43 265.71 450.57 267.29" fill="#606467"/>
    <polygon points="450.38 267.28 695.12 304.57 694.25 310.29 706.5 305.5 696.23 297.28 695.36 303 450.62 265.72 450.38 267.28" fill="#606467"/>
  </g>
</svg>
