<svg xmlns="http://www.w3.org/2000/svg" width="807" height="523" viewBox="0 0 807 523">
  <title>crawling-10</title>
  <g>
    <rect x="5" y="195.5" width="84" height="85.18" fill="#eee7f2" stroke="#ae75c3" stroke-miterlimit="10"/>
    <line x1="5" y1="231.25" x2="89" y2="231.25" fill="none" stroke="#ae75c3" stroke-miterlimit="10"/>
    <g>
      <polygon points="13.34 243.25 22.46 239.5 31.46 242.75 31.46 253.25 22.34 257.5 13.34 253.75 13.34 243.25" fill="none" stroke="#ae75c3" stroke-miterlimit="10"/>
      <polyline points="31.4 242.81 22.53 246.56 22.4 257.5" fill="none" stroke="#ae75c3" stroke-miterlimit="10"/>
      <line x1="13.4" y1="243.31" x2="22.53" y2="246.56" fill="none" stroke="#ae75c3" stroke-miterlimit="10"/>
    </g>
    <line x1="40.84" y1="239" x2="60.84" y2="239" fill="none" stroke="#ae75c3" stroke-miterlimit="10"/>
    <line x1="45.34" y1="244.5" x2="77.34" y2="244.5" fill="none" stroke="#ae75c3" stroke-miterlimit="10"/>
    <line x1="40.34" y1="250.5" x2="77.34" y2="250.5" fill="none" stroke="#ae75c3" stroke-miterlimit="10"/>
    <line x1="40.34" y1="256.5" x2="77.34" y2="256.5" fill="none" stroke="#ae75c3" stroke-miterlimit="10"/>
    <line x1="40.34" y1="262.5" x2="77.34" y2="262.5" fill="none" stroke="#ae75c3" stroke-miterlimit="10"/>
    <line x1="40.34" y1="268.5" x2="77.34" y2="268.5" fill="none" stroke="#ae75c3" stroke-miterlimit="10"/>
    <line x1="70.34" y1="274.5" x2="77.34" y2="274.5" fill="none" stroke="#ae75c3" stroke-miterlimit="10"/>
    <line x1="63.34" y1="274.5" x2="67.34" y2="274.5" fill="none" stroke="#ae75c3" stroke-miterlimit="10"/>
    <line x1="13.34" y1="261.5" x2="31.34" y2="261.5" fill="none" stroke="#ae75c3" stroke-miterlimit="10"/>
    <rect x="177.33" y="294.84" width="84" height="79.84" fill="#eee7f2" stroke="#ae75c3" stroke-miterlimit="10"/>
    <line x1="261.33" y1="325.25" x2="177.33" y2="325.25" fill="none" stroke="#ae75c3" stroke-miterlimit="10"/>
    <g>
      <polyline points="201.67 339.82 206.37 338.25 209.51 356.28 228.32 355.5 230.67 346.09 206.76 342.17" fill="none" stroke="#ae75c3" stroke-miterlimit="10"/>
      <circle cx="213.03" cy="361.37" r="1.96" fill="none" stroke="#ae75c3" stroke-miterlimit="10"/>
      <circle cx="224.79" cy="361.37" r="1.96" fill="none" stroke="#ae75c3" stroke-miterlimit="10"/>
      <polyline points="229.49 358.63 209.9 358.63 209.51 356.28" fill="none" stroke="#ae75c3" stroke-miterlimit="10"/>
    </g>
    <rect x="176.81" y="423.12" width="84" height="79.13" fill="#eee7f2" stroke="#ae75c3" stroke-miterlimit="10"/>
    <line x1="176.81" y1="455.27" x2="260.81" y2="455.27" fill="none" stroke="#ae75c3" stroke-miterlimit="10"/>
    <rect x="185.42" y="467" width="66" height="7" fill="none" stroke="#ae75c3" stroke-miterlimit="10"/>
    <rect x="185.17" y="484" width="66" height="7" fill="none" stroke="#ae75c3" stroke-miterlimit="10"/>
    <line x1="184.67" y1="463" x2="210.67" y2="463" fill="none" stroke="#ae75c3" stroke-miterlimit="10"/>
    <line x1="184.67" y1="480" x2="215.17" y2="480" fill="none" stroke="#ae75c3" stroke-miterlimit="10"/>
    <rect x="353" y="196.5" width="84" height="85.18" fill="#eee7f2" stroke="#ae75c3" stroke-miterlimit="10"/>
    <line x1="353" y1="232.25" x2="437" y2="232.25" fill="none" stroke="#ae75c3" stroke-miterlimit="10"/>
    <line x1="389.42" y1="240" x2="409.42" y2="240" fill="none" stroke="#ae75c3" stroke-miterlimit="10"/>
    <line x1="393.92" y1="245.5" x2="425.92" y2="245.5" fill="none" stroke="#ae75c3" stroke-miterlimit="10"/>
    <line x1="388.92" y1="251.5" x2="425.92" y2="251.5" fill="none" stroke="#ae75c3" stroke-miterlimit="10"/>
    <line x1="388.92" y1="257.5" x2="425.92" y2="257.5" fill="none" stroke="#ae75c3" stroke-miterlimit="10"/>
    <line x1="388.92" y1="263.5" x2="425.92" y2="263.5" fill="none" stroke="#ae75c3" stroke-miterlimit="10"/>
    <line x1="388.92" y1="269.5" x2="425.92" y2="269.5" fill="none" stroke="#ae75c3" stroke-miterlimit="10"/>
    <line x1="418.92" y1="275.5" x2="425.92" y2="275.5" fill="none" stroke="#ae75c3" stroke-miterlimit="10"/>
    <line x1="411.92" y1="275.5" x2="415.92" y2="275.5" fill="none" stroke="#ae75c3" stroke-miterlimit="10"/>
    <line x1="361.92" y1="262.5" x2="379.92" y2="262.5" fill="none" stroke="#ae75c3" stroke-miterlimit="10"/>
    <polygon points="370.92 241.54 373.52 246.81 379.33 247.65 375.13 251.75 376.12 257.54 370.92 254.81 365.72 257.54 366.71 251.75 362.51 247.65 368.32 246.81 370.92 241.54" fill="none" stroke="#ae75c3" stroke-miterlimit="10"/>
    <path d="M394.21,282.5v50.62s0,.07,0,.09H271.39v-5.79L260,334l11.39,6.58v-5.79H395.78s0-.07,0-.1V282.5Z" fill="#606467"/>
    <polygon points="217.63 375.5 217.63 411.86 211.84 411.86 218.42 423.25 225 411.86 219.21 411.86 219.21 375.5 217.63 375.5" fill="#606467"/>
    <path d="M43.21,280.5v54.19s0,.09,0,.11H166.61v5.78L178,334l-11.39-6.57v5.78H44.8s0-.06,0-.09V280.5Z" fill="#606467"/>
    <path d="M205,164H43.74c-.25,0-.65-.11-.53.28v18.45H37.42l5.29,9.16L44,194.17l1.29-2.24,5.29-9.16H44.79V165.84c-.09-.3.23-.2.42-.22H205Z" fill="#606467"/>
    <path d="M228.67,165.62h162.9c.88,0,1.8,0,2.64,0v19.13h-5.79l5.2,9,1.38,2.4,1.38-2.4,5.2-9h-5.79V164.07c-1.06-.07-2.24,0-3.35,0H228.67Z" fill="#606467"/>
    <circle cx="218.67" cy="162.5" r="13.5" fill="#edd6d6" stroke="#b50000" stroke-miterlimit="10"/>
    <path d="M216.76,164.82V164a4,4,0,0,1,.13-1.08,3.41,3.41,0,0,1,.37-.93,5,5,0,0,1,.65-.86,12.45,12.45,0,0,1,1-.86c.33-.26.61-.49.83-.69a3.84,3.84,0,0,0,.56-.6,2,2,0,0,0,.3-.63,2.88,2.88,0,0,0,.09-.76,1.45,1.45,0,0,0-.45-1.1,1.91,1.91,0,0,0-1.37-.44,5.25,5.25,0,0,0-1.74.34,18.53,18.53,0,0,0-1.93.84l-1.2-2.59a12.05,12.05,0,0,1,2.33-1,9.72,9.72,0,0,1,1.29-.32,7.2,7.2,0,0,1,1.29-.12,7.58,7.58,0,0,1,2.16.29,4.58,4.58,0,0,1,1.63.84,3.7,3.7,0,0,1,1,1.33,4.29,4.29,0,0,1,.36,1.8,4.75,4.75,0,0,1-.16,1.31,4.07,4.07,0,0,1-.49,1.08,5,5,0,0,1-.81,1c-.32.31-.7.64-1.13,1s-.6.48-.8.67a3.81,3.81,0,0,0-.49.55,1.48,1.48,0,0,0-.24.53,3.13,3.13,0,0,0-.06.65v.71Zm-.38,4a2.59,2.59,0,0,1,.15-.93,1.65,1.65,0,0,1,.44-.61,1.7,1.7,0,0,1,.67-.34,3,3,0,0,1,.81-.11,2.88,2.88,0,0,1,.78.11,1.69,1.69,0,0,1,.65.34,1.57,1.57,0,0,1,.45.61,2.58,2.58,0,0,1,.16.93,2.43,2.43,0,0,1-.16.91,1.77,1.77,0,0,1-.45.62,1.88,1.88,0,0,1-.65.36,2.88,2.88,0,0,1-.78.11,3,3,0,0,1-.81-.11,1.67,1.67,0,0,1-1.11-1A2.44,2.44,0,0,1,216.38,168.82Z" fill="#b50000"/>
    <text transform="translate(187.27 435.5)" font-size="11" fill="#ae75c3" font-family="DroidSans-Bold, Droid Sans" font-weight="700">Enter name <tspan x="0.13" y="13.2">and address</tspan></text>
    <text transform="translate(183 305.86)" font-size="11" fill="#ae75c3" font-family="DroidSans-Bold, Droid Sans" font-weight="700">Shopping <tspan x="0" y="13.2">cart</tspan></text>
    <text transform="translate(8.17 210.5)" font-size="11" fill="#ae75c3" font-family="DroidSans-Bold, Droid Sans" font-weight="700">Item details<tspan x="0" y="13.2">(version A)</tspan></text>
    <text transform="translate(358.75 211.5)" font-size="11" fill="#ae75c3" font-family="DroidSans-Bold, Droid Sans" font-weight="700">Item details<tspan x="0" y="13.2">(version B)</tspan></text>
    <text transform="translate(223 123)" font-size="11" fill="#4c5054" font-family="DroidSans-Bold, Droid Sans" font-weight="700">View item</text>
    <text transform="translate(223 399)" font-size="11" fill="#4c5054" font-family="DroidSans-Bold, Droid Sans" font-weight="700">Checkout</text>
    <text transform="translate(302.74 326.86)" font-size="11" fill="#4c5054" font-family="DroidSans-Bold, Droid Sans" font-weight="700">Add to cart</text>
    <text transform="translate(72.74 325.86)" font-size="11" fill="#4c5054" font-family="DroidSans-Bold, Droid Sans" font-weight="700">Add to cart</text>
    <polygon points="217.63 100.5 217.63 136.86 211.84 136.86 218.42 148.25 225 136.86 219.21 136.86 219.21 100.5 217.63 100.5" fill="#606467"/>
    <rect x="176.81" y="22.12" width="84" height="79.13" fill="#eee7f2" stroke="#ae75c3" stroke-miterlimit="10"/>
    <line x1="176.81" y1="48.27" x2="260.81" y2="48.27" fill="none" stroke="#ae75c3" stroke-miterlimit="10"/>
    <rect x="185.42" y="53" width="25.25" height="16.96" fill="none" stroke="#ae75c3" stroke-miterlimit="10"/>
    <rect x="185.42" y="74.54" width="25.25" height="16.96" fill="none" stroke="#ae75c3" stroke-miterlimit="10"/>
    <polyline points="185.42 101.5 185.42 96 210.67 96 210.67 101.5" fill="none" stroke="#ae75c3" stroke-miterlimit="10"/>
    <line x1="215.17" y1="55" x2="242.17" y2="55" fill="none" stroke="#ae75c3" stroke-miterlimit="10"/>
    <line x1="215.17" y1="59" x2="254.17" y2="59" fill="none" stroke="#ae75c3" stroke-miterlimit="10"/>
    <line x1="215.17" y1="63" x2="254.17" y2="63" fill="none" stroke="#ae75c3" stroke-miterlimit="10"/>
    <line x1="243.17" y1="73" x2="254.17" y2="73" fill="none" stroke="#ae75c3" stroke-miterlimit="10"/>
    <line x1="215.17" y1="77" x2="233.17" y2="77" fill="none" stroke="#ae75c3" stroke-miterlimit="10"/>
    <line x1="215.17" y1="81" x2="254.17" y2="81" fill="none" stroke="#ae75c3" stroke-miterlimit="10"/>
    <line x1="215.17" y1="85" x2="254.17" y2="85" fill="none" stroke="#ae75c3" stroke-miterlimit="10"/>
    <line x1="243.17" y1="95" x2="254.17" y2="95" fill="none" stroke="#ae75c3" stroke-miterlimit="10"/>
    <line x1="215.67" y1="98" x2="233.67" y2="98" fill="none" stroke="#ae75c3" stroke-miterlimit="10"/>
    <text transform="translate(186.46 39.5)" font-size="11" fill="#ae75c3" font-family="DroidSans-Bold, Droid Sans" font-weight="700">Store</text>
  </g>
</svg>
