<svg xmlns="http://www.w3.org/2000/svg" width="807" height="473" viewBox="0 0 807 473">
  <title>collaborator-3</title>
  <g>
    <rect x="42.75" y="411" width="253.25" height="40" fill="#fcebe8" stroke="#f63" stroke-miterlimit="10" stroke-width="0.5"/>
    <polygon points="-0.25 217.54 354.61 217.54 354.61 223.33 366 216.75 354.61 210.17 354.61 215.96 -0.25 215.96 -0.25 217.54" fill="#1d81c4"/>
    <polygon points="436.8 271.54 793.61 271.54 793.61 277.33 805 270.75 793.61 264.17 793.61 269.96 436.8 269.96 436.8 271.54" fill="#1d81c4"/>
    <polygon points="365 376.96 13.14 376.96 13.14 371.17 1.75 377.75 13.14 384.33 13.14 378.54 365 378.54 365 376.96" fill="#1d81c4"/>
    <polygon points="805 323.21 449.39 323.21 449.39 317.42 438 324 449.39 330.58 449.39 324.79 805 324.79 805 323.21" fill="#1d81c4"/>
    <path d="M0,393v39.59c0,.09,0,.25.1.2h29.8v5.79L41.25,432l-11.39-6.58v5.79H1.62c-.11,0-.07-.09-.08-.17V393Z" fill="#ff774a"/>
    <g>
      <g>
        <polygon points="60.52 81.05 35.39 76.17 35.39 37.96 60.52 33.04 60.52 81.05" fill="#404041"/>
        <polygon points="61.69 81.05 86.85 76.17 86.85 37.96 61.69 33.04 61.69 81.05" fill="#f63"/>
        <path d="M73.61,38.84c.86.19,1.28.27,2.15.42v6.59c-2.53,2.48-3.78,3.82-6.3,6.72l6.3.26v6.52l8.6-.26A105.09,105.09,0,0,0,75.76,69v5.15c-.87.19-1.29.27-2.15.42v-6c2.52-3.2,3.77-4.73,6.26-7.51-2.53.15-3.77.19-6.3.34V54.7L65,54.51a109.32,109.32,0,0,1,8.6-9.65V42.12C73.61,40.82,73.61,40.17,73.61,38.84Z" fill="#fff"/>
      </g>
      <g>
        <path d="M1.16,119.82c-.95,0-1.36-.41-1.36-1.36V96.72c0-1,.41-1.35,1.36-1.35H8.35c2.38,0,5.05,2.12,5.05,6a6.49,6.49,0,0,1-2.12,4.87c1.94,1.58,2.93,3,2.93,6.35,0,4.8-3.45,7.22-6.34,7.22Zm1.32-14.88H8.13c1.46,0,2.6-1.29,2.6-3.56S9.74,98,8.13,98H2.48Zm0,12.2H8.13c1.57,0,3.51-1.28,3.51-4.54a4.72,4.72,0,0,0-1.06-3.52,2.88,2.88,0,0,0-2.45-1.47H2.48Z" fill="#f63"/>
        <path d="M30.67,112.74a7.32,7.32,0,0,1-14.63,0V96.83a1.48,1.48,0,0,1,1.36-1.57,1.47,1.47,0,0,1,1.32,1.57v16a4.94,4.94,0,0,0,1.9,3.52,3.67,3.67,0,0,0,2.72.88,3.71,3.71,0,0,0,2.74-.88A4.87,4.87,0,0,0,28,112.85v-16a1.45,1.45,0,0,1,1.32-1.57,1.5,1.5,0,0,1,1.36,1.57Z" fill="#f63"/>
        <path d="M41.26,95.37c4.29,0,6.93,2.75,6.93,7.22,0,2.49-.48,4.36-1.69,5.61a5.85,5.85,0,0,1-3.41,1.72l4.29,7.73a1.38,1.38,0,0,1-.84,2.17c-.59,0-1.07,0-1.47-.74l-5-9H35.87v8.43c0,1-.37,1.36-1.32,1.36s-1.36-.41-1.36-1.36V96.72c0-1,.41-1.35,1.36-1.35ZM35.87,98v9.31h6.2a2.36,2.36,0,0,0,2.41-1.1,5.2,5.2,0,0,0,1-3.66C45.51,99.33,43.57,98,42,98Z" fill="#f63"/>
        <path d="M58.82,95.37c4.28,0,6.92,2.75,6.92,7.22,0,3.48-.91,5.46-3.19,6.71a6.61,6.61,0,0,1-3.62.73h-5.5v8.43c0,1-.37,1.36-1.32,1.36s-1.36-.41-1.36-1.36V96.72c0-1,.4-1.35,1.36-1.35ZM53.43,98v9.31h6.19a2.37,2.37,0,0,0,2.42-1.1,5.2,5.2,0,0,0,1-3.66c0-3.26-2-4.55-3.52-4.55Z" fill="#f63"/>
        <path d="M78.2,108.67A6.07,6.07,0,0,1,81.1,114c0,2.67-2.79,5.93-7.62,5.93a16.89,16.89,0,0,1-3.93-.62c-2.56-.73-3-.55-3-2,0-.44.33-1.13,1.62-1.13.66,0,2.49,1.1,5.2,1.1,3.12,0,5-1.87,5-3.7A3.26,3.26,0,0,0,76.81,111l-7.37-5a5.69,5.69,0,0,1-2.75-4.65c0-3.71,2.94-6.31,7.15-6.31a5.07,5.07,0,0,1,1.5.15c3.12.84,5,1.28,5,2.71a1.28,1.28,0,0,1-1.46,1.28c-.85,0-2.39-1.46-4.91-1.46-3,0-4.55,1.68-4.55,3.41a3.39,3.39,0,0,0,1.5,2.6Z" fill="#404042"/>
        <path d="M97.48,112.74a7.31,7.31,0,0,1-14.62,0V96.83a1.35,1.35,0,1,1,2.67,0v16a5,5,0,0,0,1.91,3.52,3.66,3.66,0,0,0,2.71.88,3.73,3.73,0,0,0,2.75-.88,4.91,4.91,0,0,0,1.91-3.52v-16a1.45,1.45,0,0,1,1.32-1.57,1.49,1.49,0,0,1,1.35,1.57Z" fill="#404042"/>
        <path d="M100,96.72c0-1,.4-1.35,1.36-1.35s1.32.4,1.32,1.35v21.74c0,1-.37,1.36-1.32,1.36s-1.36-.41-1.36-1.36Z" fill="#404042"/>
        <path d="M112.44,98v20.42c0,1-.41,1.36-1.36,1.36s-1.32-.41-1.32-1.36V98h-4.58a1.17,1.17,0,0,1-1.28-1.32,1.19,1.19,0,0,1,1.28-1.35H117a1.19,1.19,0,0,1,1.28,1.35A1.17,1.17,0,0,1,117,98Z" fill="#404042"/>
        <path d="M122.18,117.14h8.07a1.17,1.17,0,0,1,1.28,1.32,1.2,1.2,0,0,1-1.28,1.36h-9.38c-1,0-1.36-.41-1.36-1.36V96.72c0-1,.4-1.35,1.36-1.35h9.38a1.19,1.19,0,0,1,1.28,1.35A1.17,1.17,0,0,1,130.25,98h-8.07v7.12h5.72c.81,0,1.25.47,1.25,1.35s-.44,1.32-1.25,1.32h-5.72Z" fill="#404042"/>
      </g>
    </g>
    <text transform="translate(-0.25 188.45)" font-size="14" fill="#0071bc" font-family="Courier, Courier">?param=http://f268dgd9fje...<tspan x="0" y="16.8">...few9.burpcollaborator.net/</tspan></text>
    <text transform="translate(436.75 243.45)" font-size="14" fill="#0071bc" font-family="Courier, Courier">GET http://f268dgd9fje...<tspan x="0" y="16.8">...few9.burpcollaborator.net/</tspan></text>
    <text transform="translate(594.62 312.45)" font-size="14" fill="#0071bc" font-family="Courier, Courier">cr4393h3ipr3hi30f3jif3op</text>
    <text transform="translate(164.62 366.45)" font-size="14" fill="#0071bc" font-family="Courier, Courier">cr4393h3ipr3hi30f3jif3op</text>
    <text transform="translate(58.74 434.52)" font-size="13" fill="#4c5054" font-family="Verdana, Verdana"><tspan letter-spacing="-0.02em">R</tspan><tspan x="8.72" y="0">eport ou</tspan><tspan x="63.81" y="0" letter-spacing="-0.02em">t</tspan><tspan x="68.68" y="0">-o</tspan><tspan x="82.48" y="0" letter-spacing="-0.02em">f</tspan><tspan x="86.73" y="0">-band resource load</tspan></text>
    <g>
      <path d="M634.44,120.53c-.57,0-.82-.24-.82-.81V106.65c0-.57.25-.82.82-.82h4.32c1.43,0,3,1.28,3,3.62a3.92,3.92,0,0,1-1.28,2.93,4.14,4.14,0,0,1,1.77,3.81,4,4,0,0,1-3.82,4.34Zm.79-8.94h3.4c.88,0,1.56-.78,1.56-2.14s-.59-2-1.56-2h-3.4Zm0,7.34h3.4c1,0,2.11-.78,2.11-2.74a2.81,2.81,0,0,0-.64-2.11,1.71,1.71,0,0,0-1.47-.89h-3.4Z" fill="#ea5c2c"/>
      <path d="M652.18,116.28a4.4,4.4,0,0,1-8.79,0v-9.57a.81.81,0,1,1,1.61,0v9.64a3,3,0,0,0,1.14,2.11,2.19,2.19,0,0,0,1.63.53,2.25,2.25,0,0,0,1.66-.53,2.92,2.92,0,0,0,1.14-2.11v-9.64a.87.87,0,0,1,.8-.94.9.9,0,0,1,.81.94Z" fill="#ea5c2c"/>
      <path d="M658.55,105.83c2.58,0,4.17,1.66,4.17,4.35a4.65,4.65,0,0,1-1,3.37,3.45,3.45,0,0,1-2.05,1l2.58,4.65a.82.82,0,0,1-.51,1.3c-.35,0-.63,0-.88-.44l-3-5.44h-2.51v5.07c0,.57-.22.81-.79.81s-.82-.24-.82-.81V106.65c0-.57.24-.82.82-.82Zm-3.24,1.61V113H659a1.43,1.43,0,0,0,1.45-.66,3.14,3.14,0,0,0,.62-2.2c0-2-1.17-2.74-2.12-2.74Z" fill="#ea5c2c"/>
      <path d="M669.11,105.83c2.58,0,4.16,1.66,4.16,4.35,0,2.09-.55,3.28-1.91,4a4,4,0,0,1-2.19.44h-3.3v5.07c0,.57-.22.81-.8.81s-.81-.24-.81-.81V106.65c0-.57.24-.82.81-.82Zm-3.24,1.61V113h3.72a1.44,1.44,0,0,0,1.46-.66,3.18,3.18,0,0,0,.61-2.2c0-2-1.16-2.74-2.11-2.74Z" fill="#ea5c2c"/>
      <path d="M680.24,118.93a.7.7,0,0,1,.77.79.72.72,0,0,1-.77.81h-2.65a4,4,0,0,1-3.81-4.34v-6a4,4,0,0,1,3.81-4.35h2.65a.72.72,0,0,1,.77.82.69.69,0,0,1-.77.79H678a2.27,2.27,0,0,0-1.48.38,3,3,0,0,0-1.12,2.29v6.17a2.89,2.89,0,0,0,1.12,2.27,2.3,2.3,0,0,0,1.48.38Z" fill="#404042"/>
      <path d="M690.59,116.19a4.47,4.47,0,0,1-8.94,0v-6.08a4.47,4.47,0,0,1,8.94,0Zm-7.33.09a2.68,2.68,0,0,0,.57,1.61,2.45,2.45,0,0,0,2.29,1.1,2.24,2.24,0,0,0,1.72-.53,2.94,2.94,0,0,0,1.15-2.18V110a2.84,2.84,0,0,0-.58-1.54,2.45,2.45,0,0,0-2.29-1.1,2.22,2.22,0,0,0-1.72.52,2.94,2.94,0,0,0-1.14,2.12Z" fill="#404042"/>
      <path d="M693.72,118.93H699a.7.7,0,0,1,.77.79.71.71,0,0,1-.77.81h-6.06c-.57,0-.81-.24-.81-.81V106.65c0-.57.24-.82.81-.82s.79.25.79.82Z" fill="#404042"/>
      <path d="M702,118.93h5.27a.7.7,0,0,1,.77.79.72.72,0,0,1-.77.81h-6.06c-.58,0-.82-.24-.82-.81V106.65c0-.57.24-.82.82-.82s.79.25.79.82Z" fill="#404042"/>
      <path d="M710.16,117.12l-.92,2.91c-.09.26-.29.5-.51.5-.75,0-1.08-.3-1.08-.66a.9.9,0,0,1,.05-.37l4.14-12.9c.18-.55.35-.77.88-.77s.71.22.88.77l4.15,12.9a1.11,1.11,0,0,1,0,.37c0,.36-.33.66-1.08.66-.22,0-.42-.24-.51-.5l-.92-2.91Zm.58-1.61h4l-2-6.06Z" fill="#404042"/>
      <path d="M719.55,120.53c-.57,0-.81-.24-.81-.81V106.65c0-.57.24-.82.81-.82h4.32a3.31,3.31,0,0,1,3,3.62,3.92,3.92,0,0,1-1.28,2.93,4.13,4.13,0,0,1,1.76,3.81,4,4,0,0,1-3.81,4.34Zm.8-8.94h3.39c.88,0,1.57-.78,1.57-2.14s-.6-2-1.57-2h-3.39Zm0,7.34h3.39c1,0,2.12-.78,2.12-2.74a2.85,2.85,0,0,0-.64-2.11,1.74,1.74,0,0,0-1.48-.89h-3.39Z" fill="#404042"/>
      <path d="M737.45,116.19a4.48,4.48,0,0,1-9,0v-6.08a4.48,4.48,0,0,1,9,0Zm-7.34.09a2.75,2.75,0,0,0,.57,1.61A2.45,2.45,0,0,0,733,119a2.21,2.21,0,0,0,1.71-.53,2.9,2.9,0,0,0,1.15-2.18V110a2.91,2.91,0,0,0-.57-1.54,2.45,2.45,0,0,0-2.29-1.1,2.21,2.21,0,0,0-1.72.52,3,3,0,0,0-1.15,2.12Z" fill="#404042"/>
      <path d="M743.82,105.83c2.58,0,4.16,1.66,4.16,4.35a4.65,4.65,0,0,1-1,3.37,3.48,3.48,0,0,1-2.05,1l2.58,4.65a.85.85,0,0,1,.15.58.83.83,0,0,1-.66.72c-.35,0-.64,0-.88-.44l-3-5.44h-2.51v5.07c0,.57-.22.81-.8.81s-.81-.24-.81-.81V106.65c0-.57.24-.82.81-.82Zm-3.24,1.61V113h3.72a1.44,1.44,0,0,0,1.46-.66,3.18,3.18,0,0,0,.61-2.2c0-2-1.16-2.74-2.11-2.74Z" fill="#404042"/>
      <path d="M751,117.12l-.92,2.91c-.09.26-.29.5-.51.5-.75,0-1.08-.3-1.08-.66a1.11,1.11,0,0,1,0-.37l4.15-12.9c.17-.55.35-.77.88-.77s.7.22.88.77l4.14,12.9a.9.9,0,0,1,0,.37c0,.36-.33.66-1.08.66-.22,0-.42-.24-.51-.5l-.92-2.91Zm.58-1.61h4l-2-6.06Z" fill="#404042"/>
      <path d="M763.45,107.44v12.28c0,.57-.24.81-.81.81s-.79-.24-.79-.81V107.44h-2.76a.7.7,0,0,1-.77-.79.72.72,0,0,1,.77-.82h7.12a.72.72,0,0,1,.77.82.7.7,0,0,1-.77.79Z" fill="#404042"/>
      <path d="M776.22,116.19a4.48,4.48,0,0,1-9,0v-6.08a4.48,4.48,0,0,1,9,0Zm-7.34.09a2.68,2.68,0,0,0,.57,1.61,2.45,2.45,0,0,0,2.29,1.1,2.23,2.23,0,0,0,1.72-.53,2.9,2.9,0,0,0,1.15-2.18V110a2.84,2.84,0,0,0-.58-1.54,2.45,2.45,0,0,0-2.29-1.1,2.22,2.22,0,0,0-1.72.52,2.94,2.94,0,0,0-1.14,2.12Z" fill="#404042"/>
      <path d="M782.58,105.83c2.58,0,4.17,1.66,4.17,4.35a4.69,4.69,0,0,1-1,3.37,3.51,3.51,0,0,1-2,1l2.58,4.65a.91.91,0,0,1,.15.58.84.84,0,0,1-.66.72c-.35,0-.64,0-.88-.44l-3-5.44h-2.52v5.07c0,.57-.22.81-.79.81s-.81-.24-.81-.81V106.65c0-.57.24-.82.81-.82Zm-3.24,1.61V113h3.73a1.42,1.42,0,0,0,1.45-.66,3.14,3.14,0,0,0,.62-2.2c0-2-1.17-2.74-2.11-2.74Z" fill="#404042"/>
    </g>
    <g>
      <path d="M676.47,64.4a4.59,4.59,0,0,1-.25,1.51,2.87,2.87,0,0,1-.69,1.08,2.82,2.82,0,0,1-1.1.65,4.47,4.47,0,0,1-1.47.2h-1.8l.06-6.82h2a4.06,4.06,0,0,1,1.35.23,2.67,2.67,0,0,1,1.68,1.7A4.29,4.29,0,0,1,676.47,64.4Zm-1.47,0a3.56,3.56,0,0,0-.1-1,2,2,0,0,0-.33-.69,1.23,1.23,0,0,0-.53-.4,1.81,1.81,0,0,0-.72-.14h-.67l0,4.45h.53a1.67,1.67,0,0,0,1.38-.55A2.57,2.57,0,0,0,675,64.42Z" fill="#4c5054"/>
      <path d="M683.62,67.94l-1.84,0-2.64-5.19h0c0,.24,0,.48,0,.72s0,.41,0,.64v.6l0,3.21h-1.3l.06-6.83,1.83,0,2.63,5.13h0l0-.7c0-.1,0-.2,0-.3s0-.21,0-.32v-.56l0-3.23h1.3Z" fill="#4c5054"/>
      <path d="M689.09,66.09a2,2,0,0,1-.16.82,1.76,1.76,0,0,1-.46.62,2.09,2.09,0,0,1-.74.39,3.42,3.42,0,0,1-1,.14,4.34,4.34,0,0,1-1-.12,3.45,3.45,0,0,1-.85-.31V66.29l.45.21c.16.06.31.13.47.18a3.62,3.62,0,0,0,.47.13,2.42,2.42,0,0,0,.47,0,1.28,1.28,0,0,0,.41,0,.59.59,0,0,0,.27-.15.69.69,0,0,0,.16-.22.93.93,0,0,0,0-.29.71.71,0,0,0-.08-.34,1,1,0,0,0-.23-.28,1.66,1.66,0,0,0-.35-.25c-.14-.09-.29-.17-.46-.26l-.48-.28a2.66,2.66,0,0,1-.5-.4,2.39,2.39,0,0,1-.39-.57A1.94,1.94,0,0,1,685,63a2.1,2.1,0,0,1,.16-.82,1.68,1.68,0,0,1,.44-.61,1.86,1.86,0,0,1,.68-.37,2.77,2.77,0,0,1,.89-.13l.49,0a3.78,3.78,0,0,1,.46.1,4.26,4.26,0,0,1,.47.15l.48.21-.48,1.12-.39-.17a1.74,1.74,0,0,0-.36-.13,1.32,1.32,0,0,0-.33-.08,1.87,1.87,0,0,0-.34,0,.76.76,0,0,0-.56.19.69.69,0,0,0-.19.51.62.62,0,0,0,0,.31.72.72,0,0,0,.19.25,1.57,1.57,0,0,0,.33.24l.49.28c.23.13.44.25.64.39a2.63,2.63,0,0,1,.5.43,1.64,1.64,0,0,1,.32.54A1.69,1.69,0,0,1,689.09,66.09Z" fill="#4c5054"/>
    </g>
    <g>
      <path d="M677.21,94.17A2.18,2.18,0,0,1,677,95a1.65,1.65,0,0,1-.46.62,2.09,2.09,0,0,1-.74.39,3.11,3.11,0,0,1-1,.13,4.35,4.35,0,0,1-1-.11,3.45,3.45,0,0,1-.85-.31l0-1.35a4.71,4.71,0,0,0,.45.22l.46.18a4.12,4.12,0,0,0,.47.13,2.5,2.5,0,0,0,.47,0,1.64,1.64,0,0,0,.41,0,.7.7,0,0,0,.27-.15.57.57,0,0,0,.16-.22.94.94,0,0,0,0-.3.66.66,0,0,0-.08-.34,1.09,1.09,0,0,0-.22-.27,2.8,2.8,0,0,0-.36-.26l-.46-.26-.48-.27a3,3,0,0,1-.5-.4,2.1,2.1,0,0,1-.38-.57,1.81,1.81,0,0,1-.16-.8,2.3,2.3,0,0,1,.16-.82,1.8,1.8,0,0,1,.44-.61,1.86,1.86,0,0,1,.68-.37,2.84,2.84,0,0,1,.9-.13,3.88,3.88,0,0,1,.48,0,2.63,2.63,0,0,1,.47.1l.46.15.48.21-.48,1.12-.39-.18-.35-.12a1.51,1.51,0,0,0-.34-.08,1.84,1.84,0,0,0-.33,0,.71.71,0,0,0-.56.19.68.68,0,0,0-.2.51,1,1,0,0,0,0,.31.72.72,0,0,0,.19.25,1.57,1.57,0,0,0,.33.24l.49.28c.23.12.44.25.64.38a2.67,2.67,0,0,1,.5.44,1.82,1.82,0,0,1,.33.53A2.16,2.16,0,0,1,677.21,94.17Z" fill="#4c5054"/>
      <path d="M681.2,96.1l-1.45-5.37h0c0,.28,0,.56,0,.83,0,.11,0,.23,0,.35s0,.25,0,.36,0,.24,0,.34v.3l0,3.17h-1.29l.06-6.82h2l1.43,5.24h0l1.61-5.21,2,0-.06,6.82h-1.35l0-3.23v-.28c0-.1,0-.21,0-.32s0-.23,0-.35,0-.24,0-.35c0-.26,0-.53,0-.81h0l-1.67,5.33Z" fill="#4c5054"/>
      <path d="M689.68,96.17h-1.45l0-5.62-1.71,0v-1.2l4.86,0v1.2h-1.71Z" fill="#4c5054"/>
      <path d="M696.9,91.53a2.72,2.72,0,0,1-.14.86,1.82,1.82,0,0,1-.45.72,2.13,2.13,0,0,1-.82.49,3.82,3.82,0,0,1-1.26.18h-.33l0,2.42h-1.45l.06-6.82h1.9a4.1,4.1,0,0,1,1.13.16,2.07,2.07,0,0,1,.79.43,1.65,1.65,0,0,1,.45.67A2.28,2.28,0,0,1,696.9,91.53Zm-3,1.06h.29a1.44,1.44,0,0,0,.92-.23,1.15,1.15,0,0,0,0-1.54,1.33,1.33,0,0,0-.87-.25h-.37Z" fill="#4c5054"/>
    </g>
    <path d="M719.15,42.8a21.91,21.91,0,1,1,0,43.81" fill="#f63" stroke="#f63" stroke-miterlimit="10" stroke-width="2"/>
    <polygon points="729.56 62.21 725.88 62.21 729.56 58.25 729.56 51.35 728.01 51.35 728.01 57.72 721.84 63.77 728.01 63.77 728.01 68.75 731.47 68.68 728.01 72.32 728.01 79.29 729.56 79.29 729.56 72.86 735.16 66.87 729.56 66.87 729.56 62.21" fill="#fff"/>
    <line x1="690.19" y1="64.7" x2="718.84" y2="64.7" fill="none" stroke="#4c5054" stroke-miterlimit="10" stroke-width="2"/>
    <path d="M718.84,86.61a21.91,21.91,0,1,1,0-43.81Z" fill="none" stroke="#4c5054" stroke-miterlimit="10" stroke-width="2"/>
    <path d="M719.53,86.61c-6.6,0-11.95-9.81-11.95-21.9s5.35-21.91,11.95-21.91" fill="none" stroke="#4c5054" stroke-miterlimit="10" stroke-width="2"/>
    <path d="M718.84,55.06c-5.85,0-19.09-.35-23.07-13.89" fill="none" stroke="#4c5054" stroke-miterlimit="10" stroke-width="2"/>
    <path d="M718.84,73.83c-5.85,0-19.09.35-23.07,13.89" fill="none" stroke="#4c5054" stroke-miterlimit="10" stroke-width="2"/>
    <g>
      <path d="M681.52,39.67h-1.44v-3h-2.32v3h-1.45V32.84h1.45v2.68h2.32V32.84h1.44Z" fill="#4c5054"/>
      <path d="M685.73,39.67h-1.44V34.05h-1.71V32.84h4.86v1.21h-1.71Z" fill="#4c5054"/>
      <path d="M691.07,39.67h-1.44V34.05h-1.71V32.84h4.86v1.21h-1.71Z" fill="#4c5054"/>
      <path d="M698.26,35a2.71,2.71,0,0,1-.13.86,1.79,1.79,0,0,1-.45.73,2.27,2.27,0,0,1-.82.49,3.46,3.46,0,0,1-1.25.19h-.33v2.43h-1.45V32.84h1.9a3.77,3.77,0,0,1,1.13.15,2.12,2.12,0,0,1,.79.42,1.64,1.64,0,0,1,.46.67A2.48,2.48,0,0,1,698.26,35Zm-3,1.09h.28a1.52,1.52,0,0,0,.93-.25,1,1,0,0,0,.31-.79,1,1,0,0,0-.28-.75,1.33,1.33,0,0,0-.87-.24h-.37Z" fill="#4c5054"/>
    </g>
    <g>
      <rect x="363.05" y="32.27" width="38.84" height="82.55" fill="#159c80" stroke="#159c80" stroke-miterlimit="10" stroke-width="0.5"/>
      <line x1="363.06" y1="59.28" x2="401.9" y2="59.3" fill="none" stroke="#fff" stroke-miterlimit="10" stroke-width="0.5"/>
      <line x1="363.06" y1="67.67" x2="401.9" y2="67.69" fill="none" stroke="#fff" stroke-miterlimit="10" stroke-width="0.5"/>
      <line x1="363.06" y1="50.64" x2="401.91" y2="50.66" fill="none" stroke="#fff" stroke-miterlimit="10" stroke-width="0.5"/>
      <line x1="363.04" y1="93.69" x2="401.88" y2="93.72" fill="none" stroke="#fff" stroke-miterlimit="10" stroke-width="0.5"/>
      <line x1="363.04" y1="101.94" x2="401.88" y2="101.96" fill="none" stroke="#fff" stroke-miterlimit="10" stroke-width="0.5"/>
      <line x1="363.05" y1="76.39" x2="401.89" y2="76.41" fill="none" stroke="#fff" stroke-miterlimit="10" stroke-width="0.5"/>
      <line x1="363.05" y1="85.2" x2="401.89" y2="85.22" fill="none" stroke="#fff" stroke-miterlimit="10" stroke-width="0.5"/>
      <circle cx="367.19" cy="98.13" r="1.18" fill="#fff"/>
      <circle cx="371.54" cy="98.13" r="1.18" fill="#fff"/>
      <circle cx="375.9" cy="98.13" r="1.18" fill="#fff"/>
      <circle cx="380.25" cy="98.14" r="1.18" fill="#fff"/>
      <circle cx="384.6" cy="98.14" r="1.18" fill="#fff"/>
      <circle cx="388.95" cy="98.14" r="1.18" fill="#fff"/>
      <circle cx="393.3" cy="98.14" r="1.18" fill="#fff"/>
      <circle cx="397.65" cy="98.15" r="1.18" fill="#fff"/>
      <circle cx="367.2" cy="89.43" r="1.18" fill="#fff"/>
      <circle cx="371.55" cy="89.43" r="1.18" fill="#fff"/>
      <circle cx="375.9" cy="89.43" r="1.18" fill="#fff"/>
      <circle cx="380.25" cy="89.43" r="1.18" fill="#fff"/>
      <circle cx="384.6" cy="89.44" r="1.18" fill="#fff"/>
      <circle cx="388.96" cy="89.44" r="1.18" fill="#fff"/>
      <circle cx="393.31" cy="89.44" r="1.18" fill="#fff"/>
      <circle cx="397.66" cy="89.44" r="1.18" fill="#fff"/>
      <circle cx="367.2" cy="80.72" r="1.18" fill="#fff"/>
      <circle cx="371.55" cy="80.73" r="1.18" fill="#fff"/>
      <circle cx="375.91" cy="80.73" r="1.18" fill="#fff"/>
      <circle cx="380.26" cy="80.73" r="1.18" fill="#fff"/>
      <circle cx="384.61" cy="80.73" r="1.18" fill="#fff"/>
      <circle cx="388.96" cy="80.74" r="1.18" fill="#fff"/>
      <circle cx="393.31" cy="80.74" r="1.18" fill="#fff"/>
      <circle cx="397.66" cy="80.74" r="1.18" fill="#fff"/>
      <circle cx="367.21" cy="72.02" r="1.18" fill="#fff"/>
      <circle cx="371.56" cy="72.02" r="1.18" fill="#fff"/>
      <circle cx="375.91" cy="72.02" r="1.18" fill="#fff"/>
      <circle cx="380.26" cy="72.03" r="1.18" fill="#fff"/>
      <circle cx="384.61" cy="72.03" r="1.18" fill="#fff"/>
      <circle cx="388.97" cy="72.03" r="1.18" fill="#fff"/>
      <circle cx="393.32" cy="72.03" r="1.18" fill="#fff"/>
      <circle cx="397.67" cy="72.04" r="1.18" fill="#fff"/>
      <circle cx="367.21" cy="63.32" r="1.18" fill="#fff"/>
      <circle cx="371.56" cy="63.32" r="1.18" fill="#fff"/>
      <circle cx="375.92" cy="63.32" r="1.18" fill="#fff"/>
      <circle cx="380.27" cy="63.32" r="1.18" fill="#fff"/>
      <circle cx="384.62" cy="63.33" r="1.18" fill="#fff"/>
      <circle cx="388.97" cy="63.33" r="1.18" fill="#fff"/>
      <circle cx="393.32" cy="63.33" r="1.18" fill="#fff"/>
      <circle cx="397.67" cy="63.33" r="1.18" fill="#fff"/>
      <circle cx="367.22" cy="54.61" r="1.18" fill="#fff"/>
      <circle cx="371.57" cy="54.62" r="1.18" fill="#fff"/>
      <circle cx="375.92" cy="54.62" r="1.18" fill="#fff"/>
      <circle cx="380.27" cy="54.62" r="1.18" fill="#fff"/>
      <circle cx="384.62" cy="54.62" r="1.18" fill="#fff"/>
      <circle cx="388.97" cy="54.63" r="1.18" fill="#fff"/>
      <circle cx="393.33" cy="54.63" r="1.18" fill="#fff"/>
      <circle cx="397.68" cy="54.63" r="1.18" fill="#fff"/>
      <circle cx="367.22" cy="45.91" r="1.18" fill="#fff"/>
      <circle cx="371.57" cy="45.91" r="1.18" fill="#fff"/>
      <circle cx="375.92" cy="45.92" r="1.18" fill="#fff"/>
      <circle cx="380.28" cy="45.92" r="1.18" fill="#fff"/>
      <circle cx="384.63" cy="45.92" r="1.18" fill="#fff"/>
      <circle cx="388.98" cy="45.92" r="1.18" fill="#fff"/>
      <circle cx="393.33" cy="45.92" r="1.18" fill="#fff"/>
      <circle cx="397.68" cy="45.93" r="1.18" fill="#fff"/>
      <line x1="363.07" y1="41.1" x2="401.91" y2="41.12" fill="none" stroke="#fff" stroke-miterlimit="10" stroke-width="0.5"/>
      <rect x="405.75" y="32.29" width="38.84" height="82.55" fill="#159c80" stroke="#159c80" stroke-miterlimit="10" stroke-width="0.5"/>
      <line x1="405.76" y1="59.3" x2="444.6" y2="59.33" fill="none" stroke="#fff" stroke-miterlimit="10" stroke-width="0.5"/>
      <line x1="405.76" y1="67.69" x2="444.6" y2="67.71" fill="none" stroke="#fff" stroke-miterlimit="10" stroke-width="0.5"/>
      <line x1="405.77" y1="50.66" x2="444.61" y2="50.68" fill="none" stroke="#fff" stroke-miterlimit="10" stroke-width="0.5"/>
      <line x1="405.74" y1="93.72" x2="444.58" y2="93.74" fill="none" stroke="#fff" stroke-miterlimit="10" stroke-width="0.5"/>
      <line x1="405.74" y1="101.96" x2="444.58" y2="101.98" fill="none" stroke="#fff" stroke-miterlimit="10" stroke-width="0.5"/>
      <line x1="405.75" y1="76.41" x2="444.59" y2="76.44" fill="none" stroke="#fff" stroke-miterlimit="10" stroke-width="0.5"/>
      <line x1="405.75" y1="85.22" x2="444.59" y2="85.24" fill="none" stroke="#fff" stroke-miterlimit="10" stroke-width="0.5"/>
      <circle cx="409.89" cy="98.15" r="1.18" fill="#fff"/>
      <circle cx="414.25" cy="98.16" r="1.18" fill="#fff"/>
      <circle cx="418.6" cy="98.16" r="1.18" fill="#fff"/>
      <circle cx="422.95" cy="98.16" r="1.18" fill="#fff"/>
      <circle cx="427.3" cy="98.16" r="1.18" fill="#fff"/>
      <circle cx="431.65" cy="98.17" r="1.18" fill="#fff"/>
      <circle cx="436" cy="98.17" r="1.18" fill="#fff"/>
      <circle cx="440.36" cy="98.17" r="1.18" fill="#fff"/>
      <circle cx="409.9" cy="89.45" r="1.18" fill="#fff"/>
      <circle cx="414.25" cy="89.45" r="1.18" fill="#fff"/>
      <circle cx="418.6" cy="89.46" r="1.18" fill="#fff"/>
      <circle cx="422.95" cy="89.46" r="1.18" fill="#fff"/>
      <circle cx="427.31" cy="89.46" r="1.18" fill="#fff"/>
      <circle cx="431.66" cy="89.46" r="1.18" fill="#fff"/>
      <circle cx="436.01" cy="89.46" r="1.18" fill="#fff"/>
      <circle cx="440.36" cy="89.47" r="1.18" fill="#fff"/>
      <circle cx="409.9" cy="80.75" r="1.18" fill="#fff"/>
      <circle cx="414.26" cy="80.75" r="1.18" fill="#fff"/>
      <circle cx="418.61" cy="80.75" r="1.18" fill="#fff"/>
      <circle cx="422.96" cy="80.75" r="1.18" fill="#fff"/>
      <circle cx="427.31" cy="80.76" r="1.18" fill="#fff"/>
      <circle cx="431.66" cy="80.76" r="1.18" fill="#fff"/>
      <circle cx="436.01" cy="80.76" r="1.18" fill="#fff"/>
      <circle cx="440.37" cy="80.76" r="1.18" fill="#fff"/>
      <circle cx="409.91" cy="72.04" r="1.18" fill="#fff"/>
      <circle cx="414.26" cy="72.05" r="1.18" fill="#fff"/>
      <circle cx="418.61" cy="72.05" r="1.18" fill="#fff"/>
      <circle cx="422.96" cy="72.05" r="1.18" fill="#fff"/>
      <circle cx="427.32" cy="72.05" r="1.18" fill="#fff"/>
      <circle cx="431.67" cy="72.06" r="1.18" fill="#fff"/>
      <circle cx="436.02" cy="72.06" r="1.18" fill="#fff"/>
      <circle cx="440.37" cy="72.06" r="1.18" fill="#fff"/>
      <circle cx="409.91" cy="63.34" r="1.18" fill="#fff"/>
      <circle cx="414.27" cy="63.34" r="1.18" fill="#fff"/>
      <circle cx="418.62" cy="63.35" r="1.18" fill="#fff"/>
      <circle cx="422.97" cy="63.35" r="1.18" fill="#fff"/>
      <circle cx="427.32" cy="63.35" r="1.18" fill="#fff"/>
      <circle cx="431.67" cy="63.35" r="1.18" fill="#fff"/>
      <circle cx="436.02" cy="63.36" r="1.18" fill="#fff"/>
      <circle cx="440.38" cy="63.36" r="1.18" fill="#fff"/>
      <circle cx="409.92" cy="54.64" r="1.18" fill="#fff"/>
      <circle cx="414.27" cy="54.64" r="1.18" fill="#fff"/>
      <circle cx="418.62" cy="54.64" r="1.18" fill="#fff"/>
      <circle cx="422.97" cy="54.64" r="1.18" fill="#fff"/>
      <circle cx="427.33" cy="54.65" r="1.18" fill="#fff"/>
      <circle cx="431.68" cy="54.65" r="1.18" fill="#fff"/>
      <circle cx="436.03" cy="54.65" r="1.18" fill="#fff"/>
      <circle cx="440.38" cy="54.65" r="1.18" fill="#fff"/>
      <circle cx="409.92" cy="45.93" r="1.18" fill="#fff"/>
      <circle cx="414.28" cy="45.94" r="1.18" fill="#fff"/>
      <circle cx="418.63" cy="45.94" r="1.18" fill="#fff"/>
      <circle cx="422.98" cy="45.94" r="1.18" fill="#fff"/>
      <circle cx="427.33" cy="45.94" r="1.18" fill="#fff"/>
      <circle cx="431.68" cy="45.95" r="1.18" fill="#fff"/>
      <circle cx="436.03" cy="45.95" r="1.18" fill="#fff"/>
      <circle cx="440.38" cy="45.95" r="1.18" fill="#fff"/>
      <line x1="405.77" y1="41.13" x2="444.61" y2="41.15" fill="none" stroke="#fff" stroke-miterlimit="10" stroke-width="0.5"/>
      <circle cx="449.93" cy="41.19" r="26.68" fill="#479aad"/>
      <path d="M450.09,13.25a27.8,27.8,0,1,0,0,55.59h0a27.8,27.8,0,1,0,0-55.59Zm20,10.54a14.23,14.23,0,0,1-3.82,3.69,20.44,20.44,0,0,1-3.5,1.89,37,37,0,0,0-4.29-8.74,35.91,35.91,0,0,0-4.73-5.76,26.27,26.27,0,0,1,15,7.49C469.24,22.83,469.69,23.3,470.11,23.79ZM451.49,67.45l-.75,0v-17a34,34,0,0,1,10.76,1.79,36,36,0,0,1-4.14,8.44A33,33,0,0,1,451.49,67.45ZM438.63,52.23a33,33,0,0,1,10.76-1.78v17c-.25,0-.5,0-.74,0A35.6,35.6,0,0,1,438.63,52.23Zm10-37.58.74,0v17a33.67,33.67,0,0,1-10.75-1.79,35.77,35.77,0,0,1,4.13-8.43A32.61,32.61,0,0,1,448.67,14.65Zm12.85,15.21a34,34,0,0,1-10.76,1.79v-17l.75,0A35.62,35.62,0,0,1,461.52,29.86ZM450.76,33a34.69,34.69,0,0,0,11.18-1.83,35.44,35.44,0,0,1,1.4,9.19H450.76Zm-1.36,0v7.36H436.82a35.09,35.09,0,0,1,1.41-9.19A34.59,34.59,0,0,0,449.4,33Zm-13.94,7.35H423.65a26.18,26.18,0,0,1,5.52-15.48A18,18,0,0,0,437,30.68,36.39,36.39,0,0,0,435.46,40.36Zm0,1.36A36,36,0,0,0,437,51.4a18,18,0,0,0-7.8,5.8,26.19,26.19,0,0,1-5.5-15.49Zm1.36,0H449.4v7.36a34.38,34.38,0,0,0-11.17,1.82A34.61,34.61,0,0,1,436.82,41.72Zm13.93,7.37V41.73h12.57a35,35,0,0,1-1.4,9.19A34.69,34.69,0,0,0,450.75,49.09Zm13.95-7.35h11.81A26.28,26.28,0,0,1,471,57.23a17.9,17.9,0,0,0-7.79-5.81A36.39,36.39,0,0,0,464.7,41.74Zm0-1.37a36.41,36.41,0,0,0-1.49-9.68,18,18,0,0,0,7.8-5.8,26.21,26.21,0,0,1,5.5,15.49Zm-33.31-18a26.31,26.31,0,0,1,15-7.48,36.37,36.37,0,0,0-4.73,5.76,37,37,0,0,0-4.3,8.74,20,20,0,0,1-3.49-1.9,14.07,14.07,0,0,1-3.82-3.69C430.49,23.28,430.93,22.8,431.39,22.34Zm-1.34,36a16.42,16.42,0,0,1,7.32-5.57,37.43,37.43,0,0,0,4.29,8.74,36.9,36.9,0,0,0,4.72,5.76,26.28,26.28,0,0,1-15-7.5C430.91,59.27,430.47,58.79,430.05,58.3Zm38.71,1.45a26.25,26.25,0,0,1-15,7.48,37.47,37.47,0,0,0,9-14.49,20.35,20.35,0,0,1,3.49,1.89,14.37,14.37,0,0,1,3.82,3.7C469.67,58.81,469.22,59.29,468.76,59.75Z" fill="#fff"/>
    </g>
    <g>
      <path d="M634.44,120.53c-.57,0-.82-.24-.82-.81V106.65c0-.57.25-.82.82-.82h4.32c1.43,0,3,1.28,3,3.62a3.92,3.92,0,0,1-1.28,2.93,4.14,4.14,0,0,1,1.77,3.81,4,4,0,0,1-3.82,4.34Zm.79-8.94h3.4c.88,0,1.56-.78,1.56-2.14s-.59-2-1.56-2h-3.4Zm0,7.34h3.4c1,0,2.11-.78,2.11-2.74a2.81,2.81,0,0,0-.64-2.11,1.71,1.71,0,0,0-1.47-.89h-3.4Z" fill="#ea5c2c"/>
      <path d="M652.18,116.28a4.4,4.4,0,0,1-8.79,0v-9.57a.81.81,0,1,1,1.61,0v9.64a3,3,0,0,0,1.14,2.11,2.19,2.19,0,0,0,1.63.53,2.25,2.25,0,0,0,1.66-.53,2.92,2.92,0,0,0,1.14-2.11v-9.64a.87.87,0,0,1,.8-.94.9.9,0,0,1,.81.94Z" fill="#ea5c2c"/>
      <path d="M658.55,105.83c2.58,0,4.17,1.66,4.17,4.35a4.65,4.65,0,0,1-1,3.37,3.45,3.45,0,0,1-2.05,1l2.58,4.65a.82.82,0,0,1-.51,1.3c-.35,0-.63,0-.88-.44l-3-5.44h-2.51v5.07c0,.57-.22.81-.79.81s-.82-.24-.82-.81V106.65c0-.57.24-.82.82-.82Zm-3.24,1.61V113H659a1.43,1.43,0,0,0,1.45-.66,3.14,3.14,0,0,0,.62-2.2c0-2-1.17-2.74-2.12-2.74Z" fill="#ea5c2c"/>
      <path d="M669.11,105.83c2.58,0,4.16,1.66,4.16,4.35,0,2.09-.55,3.28-1.91,4a4,4,0,0,1-2.19.44h-3.3v5.07c0,.57-.22.81-.8.81s-.81-.24-.81-.81V106.65c0-.57.24-.82.81-.82Zm-3.24,1.61V113h3.72a1.44,1.44,0,0,0,1.46-.66,3.18,3.18,0,0,0,.61-2.2c0-2-1.16-2.74-2.11-2.74Z" fill="#ea5c2c"/>
      <path d="M680.24,118.93a.7.7,0,0,1,.77.79.72.72,0,0,1-.77.81h-2.65a4,4,0,0,1-3.81-4.34v-6a4,4,0,0,1,3.81-4.35h2.65a.72.72,0,0,1,.77.82.69.69,0,0,1-.77.79H678a2.27,2.27,0,0,0-1.48.38,3,3,0,0,0-1.12,2.29v6.17a2.89,2.89,0,0,0,1.12,2.27,2.3,2.3,0,0,0,1.48.38Z" fill="#404042"/>
      <path d="M690.59,116.19a4.47,4.47,0,0,1-8.94,0v-6.08a4.47,4.47,0,0,1,8.94,0Zm-7.33.09a2.68,2.68,0,0,0,.57,1.61,2.45,2.45,0,0,0,2.29,1.1,2.24,2.24,0,0,0,1.72-.53,2.94,2.94,0,0,0,1.15-2.18V110a2.84,2.84,0,0,0-.58-1.54,2.45,2.45,0,0,0-2.29-1.1,2.22,2.22,0,0,0-1.72.52,2.94,2.94,0,0,0-1.14,2.12Z" fill="#404042"/>
      <path d="M693.72,118.93H699a.7.7,0,0,1,.77.79.71.71,0,0,1-.77.81h-6.06c-.57,0-.81-.24-.81-.81V106.65c0-.57.24-.82.81-.82s.79.25.79.82Z" fill="#404042"/>
      <path d="M702,118.93h5.27a.7.7,0,0,1,.77.79.72.72,0,0,1-.77.81h-6.06c-.58,0-.82-.24-.82-.81V106.65c0-.57.24-.82.82-.82s.79.25.79.82Z" fill="#404042"/>
      <path d="M710.16,117.12l-.92,2.91c-.09.26-.29.5-.51.5-.75,0-1.08-.3-1.08-.66a.9.9,0,0,1,.05-.37l4.14-12.9c.18-.55.35-.77.88-.77s.71.22.88.77l4.15,12.9a1.11,1.11,0,0,1,0,.37c0,.36-.33.66-1.08.66-.22,0-.42-.24-.51-.5l-.92-2.91Zm.58-1.61h4l-2-6.06Z" fill="#404042"/>
      <path d="M719.55,120.53c-.57,0-.81-.24-.81-.81V106.65c0-.57.24-.82.81-.82h4.32a3.31,3.31,0,0,1,3,3.62,3.92,3.92,0,0,1-1.28,2.93,4.13,4.13,0,0,1,1.76,3.81,4,4,0,0,1-3.81,4.34Zm.8-8.94h3.39c.88,0,1.57-.78,1.57-2.14s-.6-2-1.57-2h-3.39Zm0,7.34h3.39c1,0,2.12-.78,2.12-2.74a2.85,2.85,0,0,0-.64-2.11,1.74,1.74,0,0,0-1.48-.89h-3.39Z" fill="#404042"/>
      <path d="M737.45,116.19a4.48,4.48,0,0,1-9,0v-6.08a4.48,4.48,0,0,1,9,0Zm-7.34.09a2.75,2.75,0,0,0,.57,1.61A2.45,2.45,0,0,0,733,119a2.21,2.21,0,0,0,1.71-.53,2.9,2.9,0,0,0,1.15-2.18V110a2.91,2.91,0,0,0-.57-1.54,2.45,2.45,0,0,0-2.29-1.1,2.21,2.21,0,0,0-1.72.52,3,3,0,0,0-1.15,2.12Z" fill="#404042"/>
      <path d="M743.82,105.83c2.58,0,4.16,1.66,4.16,4.35a4.65,4.65,0,0,1-1,3.37,3.48,3.48,0,0,1-2.05,1l2.58,4.65a.85.85,0,0,1,.15.58.83.83,0,0,1-.66.72c-.35,0-.64,0-.88-.44l-3-5.44h-2.51v5.07c0,.57-.22.81-.8.81s-.81-.24-.81-.81V106.65c0-.57.24-.82.81-.82Zm-3.24,1.61V113h3.72a1.44,1.44,0,0,0,1.46-.66,3.18,3.18,0,0,0,.61-2.2c0-2-1.16-2.74-2.11-2.74Z" fill="#404042"/>
      <path d="M751,117.12l-.92,2.91c-.09.26-.29.5-.51.5-.75,0-1.08-.3-1.08-.66a1.11,1.11,0,0,1,0-.37l4.15-12.9c.17-.55.35-.77.88-.77s.7.22.88.77l4.14,12.9a.9.9,0,0,1,0,.37c0,.36-.33.66-1.08.66-.22,0-.42-.24-.51-.5l-.92-2.91Zm.58-1.61h4l-2-6.06Z" fill="#404042"/>
      <path d="M763.45,107.44v12.28c0,.57-.24.81-.81.81s-.79-.24-.79-.81V107.44h-2.76a.7.7,0,0,1-.77-.79.72.72,0,0,1,.77-.82h7.12a.72.72,0,0,1,.77.82.7.7,0,0,1-.77.79Z" fill="#404042"/>
      <path d="M776.22,116.19a4.48,4.48,0,0,1-9,0v-6.08a4.48,4.48,0,0,1,9,0Zm-7.34.09a2.68,2.68,0,0,0,.57,1.61,2.45,2.45,0,0,0,2.29,1.1,2.23,2.23,0,0,0,1.72-.53,2.9,2.9,0,0,0,1.15-2.18V110a2.84,2.84,0,0,0-.58-1.54,2.45,2.45,0,0,0-2.29-1.1,2.22,2.22,0,0,0-1.72.52,2.94,2.94,0,0,0-1.14,2.12Z" fill="#404042"/>
      <path d="M782.58,105.83c2.58,0,4.17,1.66,4.17,4.35a4.69,4.69,0,0,1-1,3.37,3.51,3.51,0,0,1-2,1l2.58,4.65a.91.91,0,0,1,.15.58.84.84,0,0,1-.66.72c-.35,0-.64,0-.88-.44l-3-5.44h-2.52v5.07c0,.57-.22.81-.79.81s-.81-.24-.81-.81V106.65c0-.57.24-.82.81-.82Zm-3.24,1.61V113h3.73a1.42,1.42,0,0,0,1.45-.66,3.14,3.14,0,0,0,.62-2.2c0-2-1.17-2.74-2.11-2.74Z" fill="#404042"/>
    </g>
    <g>
      <path d="M676.47,64.4a4.59,4.59,0,0,1-.25,1.51,2.87,2.87,0,0,1-.69,1.08,2.82,2.82,0,0,1-1.1.65,4.47,4.47,0,0,1-1.47.2h-1.8l.06-6.82h2a4.06,4.06,0,0,1,1.35.23,2.67,2.67,0,0,1,1.68,1.7A4.29,4.29,0,0,1,676.47,64.4Zm-1.47,0a3.56,3.56,0,0,0-.1-1,2,2,0,0,0-.33-.69,1.23,1.23,0,0,0-.53-.4,1.81,1.81,0,0,0-.72-.14h-.67l0,4.45h.53a1.67,1.67,0,0,0,1.38-.55A2.57,2.57,0,0,0,675,64.42Z" fill="#4c5054"/>
      <path d="M683.62,67.94l-1.84,0-2.64-5.19h0c0,.24,0,.48,0,.72s0,.41,0,.64v.6l0,3.21h-1.3l.06-6.83,1.83,0,2.63,5.13h0l0-.7c0-.1,0-.2,0-.3s0-.21,0-.32v-.56l0-3.23h1.3Z" fill="#4c5054"/>
      <path d="M689.09,66.09a2,2,0,0,1-.16.82,1.76,1.76,0,0,1-.46.62,2.09,2.09,0,0,1-.74.39,3.42,3.42,0,0,1-1,.14,4.34,4.34,0,0,1-1-.12,3.45,3.45,0,0,1-.85-.31V66.29l.45.21c.16.06.31.13.47.18a3.62,3.62,0,0,0,.47.13,2.42,2.42,0,0,0,.47,0,1.28,1.28,0,0,0,.41,0,.59.59,0,0,0,.27-.15.69.69,0,0,0,.16-.22.93.93,0,0,0,0-.29.71.71,0,0,0-.08-.34,1,1,0,0,0-.23-.28,1.66,1.66,0,0,0-.35-.25c-.14-.09-.29-.17-.46-.26l-.48-.28a2.66,2.66,0,0,1-.5-.4,2.39,2.39,0,0,1-.39-.57A1.94,1.94,0,0,1,685,63a2.1,2.1,0,0,1,.16-.82,1.68,1.68,0,0,1,.44-.61,1.86,1.86,0,0,1,.68-.37,2.77,2.77,0,0,1,.89-.13l.49,0a3.78,3.78,0,0,1,.46.1,4.26,4.26,0,0,1,.47.15l.48.21-.48,1.12-.39-.17a1.74,1.74,0,0,0-.36-.13,1.32,1.32,0,0,0-.33-.08,1.87,1.87,0,0,0-.34,0,.76.76,0,0,0-.56.19.69.69,0,0,0-.19.51.62.62,0,0,0,0,.31.72.72,0,0,0,.19.25,1.57,1.57,0,0,0,.33.24l.49.28c.23.13.44.25.64.39a2.63,2.63,0,0,1,.5.43,1.64,1.64,0,0,1,.32.54A1.69,1.69,0,0,1,689.09,66.09Z" fill="#4c5054"/>
    </g>
    <g>
      <path d="M677.21,94.17A2.18,2.18,0,0,1,677,95a1.65,1.65,0,0,1-.46.62,2.09,2.09,0,0,1-.74.39,3.11,3.11,0,0,1-1,.13,4.35,4.35,0,0,1-1-.11,3.45,3.45,0,0,1-.85-.31l0-1.35a4.71,4.71,0,0,0,.45.22l.46.18a4.12,4.12,0,0,0,.47.13,2.5,2.5,0,0,0,.47,0,1.64,1.64,0,0,0,.41,0,.7.7,0,0,0,.27-.15.57.57,0,0,0,.16-.22.94.94,0,0,0,0-.3.66.66,0,0,0-.08-.34,1.09,1.09,0,0,0-.22-.27,2.8,2.8,0,0,0-.36-.26l-.46-.26-.48-.27a3,3,0,0,1-.5-.4,2.1,2.1,0,0,1-.38-.57,1.81,1.81,0,0,1-.16-.8,2.3,2.3,0,0,1,.16-.82,1.8,1.8,0,0,1,.44-.61,1.86,1.86,0,0,1,.68-.37,2.84,2.84,0,0,1,.9-.13,3.88,3.88,0,0,1,.48,0,2.63,2.63,0,0,1,.47.1l.46.15.48.21-.48,1.12-.39-.18-.35-.12a1.51,1.51,0,0,0-.34-.08,1.84,1.84,0,0,0-.33,0,.71.71,0,0,0-.56.19.68.68,0,0,0-.2.51,1,1,0,0,0,0,.31.72.72,0,0,0,.19.25,1.57,1.57,0,0,0,.33.24l.49.28c.23.12.44.25.64.38a2.67,2.67,0,0,1,.5.44,1.82,1.82,0,0,1,.33.53A2.16,2.16,0,0,1,677.21,94.17Z" fill="#4c5054"/>
      <path d="M681.2,96.1l-1.45-5.37h0c0,.28,0,.56,0,.83,0,.11,0,.23,0,.35s0,.25,0,.36,0,.24,0,.34v.3l0,3.17h-1.29l.06-6.82h2l1.43,5.24h0l1.61-5.21,2,0-.06,6.82h-1.35l0-3.23v-.28c0-.1,0-.21,0-.32s0-.23,0-.35,0-.24,0-.35c0-.26,0-.53,0-.81h0l-1.67,5.33Z" fill="#4c5054"/>
      <path d="M689.68,96.17h-1.45l0-5.62-1.71,0v-1.2l4.86,0v1.2h-1.71Z" fill="#4c5054"/>
      <path d="M696.9,91.53a2.72,2.72,0,0,1-.14.86,1.82,1.82,0,0,1-.45.72,2.13,2.13,0,0,1-.82.49,3.82,3.82,0,0,1-1.26.18h-.33l0,2.42h-1.45l.06-6.82h1.9a4.1,4.1,0,0,1,1.13.16,2.07,2.07,0,0,1,.79.43,1.65,1.65,0,0,1,.45.67A2.28,2.28,0,0,1,696.9,91.53Zm-3,1.06h.29a1.44,1.44,0,0,0,.92-.23,1.15,1.15,0,0,0,0-1.54,1.33,1.33,0,0,0-.87-.25h-.37Z" fill="#4c5054"/>
    </g>
    <path d="M719.15,42.8a21.91,21.91,0,1,1,0,43.81" fill="#f63" stroke="#f63" stroke-miterlimit="10" stroke-width="2"/>
    <polygon points="729.56 62.21 725.88 62.21 729.56 58.25 729.56 51.35 728.01 51.35 728.01 57.72 721.84 63.77 728.01 63.77 728.01 68.75 731.47 68.68 728.01 72.32 728.01 79.29 729.56 79.29 729.56 72.86 735.16 66.87 729.56 66.87 729.56 62.21" fill="#fff"/>
    <line x1="690.19" y1="64.7" x2="718.84" y2="64.7" fill="none" stroke="#4c5054" stroke-miterlimit="10" stroke-width="2"/>
    <path d="M718.84,86.61a21.91,21.91,0,1,1,0-43.81Z" fill="none" stroke="#4c5054" stroke-miterlimit="10" stroke-width="2"/>
    <path d="M719.53,86.61c-6.6,0-11.95-9.81-11.95-21.9s5.35-21.91,11.95-21.91" fill="none" stroke="#4c5054" stroke-miterlimit="10" stroke-width="2"/>
    <path d="M718.84,55.06c-5.85,0-19.09-.35-23.07-13.89" fill="none" stroke="#4c5054" stroke-miterlimit="10" stroke-width="2"/>
    <path d="M718.84,73.83c-5.85,0-19.09.35-23.07,13.89" fill="none" stroke="#4c5054" stroke-miterlimit="10" stroke-width="2"/>
    <g>
      <path d="M681.52,39.67h-1.44v-3h-2.32v3h-1.45V32.84h1.45v2.68h2.32V32.84h1.44Z" fill="#4c5054"/>
      <path d="M685.73,39.67h-1.44V34.05h-1.71V32.84h4.86v1.21h-1.71Z" fill="#4c5054"/>
      <path d="M691.07,39.67h-1.44V34.05h-1.71V32.84h4.86v1.21h-1.71Z" fill="#4c5054"/>
      <path d="M698.26,35a2.71,2.71,0,0,1-.13.86,1.79,1.79,0,0,1-.45.73,2.27,2.27,0,0,1-.82.49,3.46,3.46,0,0,1-1.25.19h-.33v2.43h-1.45V32.84h1.9a3.77,3.77,0,0,1,1.13.15,2.12,2.12,0,0,1,.79.42,1.64,1.64,0,0,1,.46.67A2.48,2.48,0,0,1,698.26,35Zm-3,1.09h.28a1.52,1.52,0,0,0,.93-.25,1,1,0,0,0,.31-.79,1,1,0,0,0-.28-.75,1.33,1.33,0,0,0-.87-.24h-.37Z" fill="#4c5054"/>
    </g>
    <g>
      <rect x="363.05" y="32.27" width="38.84" height="82.55" fill="#159c80" stroke="#159c80" stroke-miterlimit="10" stroke-width="0.5"/>
      <line x1="363.06" y1="59.28" x2="401.9" y2="59.3" fill="none" stroke="#fff" stroke-miterlimit="10" stroke-width="0.5"/>
      <line x1="363.06" y1="67.67" x2="401.9" y2="67.69" fill="none" stroke="#fff" stroke-miterlimit="10" stroke-width="0.5"/>
      <line x1="363.06" y1="50.64" x2="401.91" y2="50.66" fill="none" stroke="#fff" stroke-miterlimit="10" stroke-width="0.5"/>
      <line x1="363.04" y1="93.69" x2="401.88" y2="93.72" fill="none" stroke="#fff" stroke-miterlimit="10" stroke-width="0.5"/>
      <line x1="363.04" y1="101.94" x2="401.88" y2="101.96" fill="none" stroke="#fff" stroke-miterlimit="10" stroke-width="0.5"/>
      <line x1="363.05" y1="76.39" x2="401.89" y2="76.41" fill="none" stroke="#fff" stroke-miterlimit="10" stroke-width="0.5"/>
      <line x1="363.05" y1="85.2" x2="401.89" y2="85.22" fill="none" stroke="#fff" stroke-miterlimit="10" stroke-width="0.5"/>
      <circle cx="367.19" cy="98.13" r="1.18" fill="#fff"/>
      <circle cx="371.54" cy="98.13" r="1.18" fill="#fff"/>
      <circle cx="375.9" cy="98.13" r="1.18" fill="#fff"/>
      <circle cx="380.25" cy="98.14" r="1.18" fill="#fff"/>
      <circle cx="384.6" cy="98.14" r="1.18" fill="#fff"/>
      <circle cx="388.95" cy="98.14" r="1.18" fill="#fff"/>
      <circle cx="393.3" cy="98.14" r="1.18" fill="#fff"/>
      <circle cx="397.65" cy="98.15" r="1.18" fill="#fff"/>
      <circle cx="367.2" cy="89.43" r="1.18" fill="#fff"/>
      <circle cx="371.55" cy="89.43" r="1.18" fill="#fff"/>
      <circle cx="375.9" cy="89.43" r="1.18" fill="#fff"/>
      <circle cx="380.25" cy="89.43" r="1.18" fill="#fff"/>
      <circle cx="384.6" cy="89.44" r="1.18" fill="#fff"/>
      <circle cx="388.96" cy="89.44" r="1.18" fill="#fff"/>
      <circle cx="393.31" cy="89.44" r="1.18" fill="#fff"/>
      <circle cx="397.66" cy="89.44" r="1.18" fill="#fff"/>
      <circle cx="367.2" cy="80.72" r="1.18" fill="#fff"/>
      <circle cx="371.55" cy="80.73" r="1.18" fill="#fff"/>
      <circle cx="375.91" cy="80.73" r="1.18" fill="#fff"/>
      <circle cx="380.26" cy="80.73" r="1.18" fill="#fff"/>
      <circle cx="384.61" cy="80.73" r="1.18" fill="#fff"/>
      <circle cx="388.96" cy="80.74" r="1.18" fill="#fff"/>
      <circle cx="393.31" cy="80.74" r="1.18" fill="#fff"/>
      <circle cx="397.66" cy="80.74" r="1.18" fill="#fff"/>
      <circle cx="367.21" cy="72.02" r="1.18" fill="#fff"/>
      <circle cx="371.56" cy="72.02" r="1.18" fill="#fff"/>
      <circle cx="375.91" cy="72.02" r="1.18" fill="#fff"/>
      <circle cx="380.26" cy="72.03" r="1.18" fill="#fff"/>
      <circle cx="384.61" cy="72.03" r="1.18" fill="#fff"/>
      <circle cx="388.97" cy="72.03" r="1.18" fill="#fff"/>
      <circle cx="393.32" cy="72.03" r="1.18" fill="#fff"/>
      <circle cx="397.67" cy="72.04" r="1.18" fill="#fff"/>
      <circle cx="367.21" cy="63.32" r="1.18" fill="#fff"/>
      <circle cx="371.56" cy="63.32" r="1.18" fill="#fff"/>
      <circle cx="375.92" cy="63.32" r="1.18" fill="#fff"/>
      <circle cx="380.27" cy="63.32" r="1.18" fill="#fff"/>
      <circle cx="384.62" cy="63.33" r="1.18" fill="#fff"/>
      <circle cx="388.97" cy="63.33" r="1.18" fill="#fff"/>
      <circle cx="393.32" cy="63.33" r="1.18" fill="#fff"/>
      <circle cx="397.67" cy="63.33" r="1.18" fill="#fff"/>
      <circle cx="367.22" cy="54.61" r="1.18" fill="#fff"/>
      <circle cx="371.57" cy="54.62" r="1.18" fill="#fff"/>
      <circle cx="375.92" cy="54.62" r="1.18" fill="#fff"/>
      <circle cx="380.27" cy="54.62" r="1.18" fill="#fff"/>
      <circle cx="384.62" cy="54.62" r="1.18" fill="#fff"/>
      <circle cx="388.97" cy="54.63" r="1.18" fill="#fff"/>
      <circle cx="393.33" cy="54.63" r="1.18" fill="#fff"/>
      <circle cx="397.68" cy="54.63" r="1.18" fill="#fff"/>
      <circle cx="367.22" cy="45.91" r="1.18" fill="#fff"/>
      <circle cx="371.57" cy="45.91" r="1.18" fill="#fff"/>
      <circle cx="375.92" cy="45.92" r="1.18" fill="#fff"/>
      <circle cx="380.28" cy="45.92" r="1.18" fill="#fff"/>
      <circle cx="384.63" cy="45.92" r="1.18" fill="#fff"/>
      <circle cx="388.98" cy="45.92" r="1.18" fill="#fff"/>
      <circle cx="393.33" cy="45.92" r="1.18" fill="#fff"/>
      <circle cx="397.68" cy="45.93" r="1.18" fill="#fff"/>
      <line x1="363.07" y1="41.1" x2="401.91" y2="41.12" fill="none" stroke="#fff" stroke-miterlimit="10" stroke-width="0.5"/>
      <rect x="405.75" y="32.29" width="38.84" height="82.55" fill="#159c80" stroke="#159c80" stroke-miterlimit="10" stroke-width="0.5"/>
      <line x1="405.76" y1="59.3" x2="444.6" y2="59.33" fill="none" stroke="#fff" stroke-miterlimit="10" stroke-width="0.5"/>
      <line x1="405.76" y1="67.69" x2="444.6" y2="67.71" fill="none" stroke="#fff" stroke-miterlimit="10" stroke-width="0.5"/>
      <line x1="405.77" y1="50.66" x2="444.61" y2="50.68" fill="none" stroke="#fff" stroke-miterlimit="10" stroke-width="0.5"/>
      <line x1="405.74" y1="93.72" x2="444.58" y2="93.74" fill="none" stroke="#fff" stroke-miterlimit="10" stroke-width="0.5"/>
      <line x1="405.74" y1="101.96" x2="444.58" y2="101.98" fill="none" stroke="#fff" stroke-miterlimit="10" stroke-width="0.5"/>
      <line x1="405.75" y1="76.41" x2="444.59" y2="76.44" fill="none" stroke="#fff" stroke-miterlimit="10" stroke-width="0.5"/>
      <line x1="405.75" y1="85.22" x2="444.59" y2="85.24" fill="none" stroke="#fff" stroke-miterlimit="10" stroke-width="0.5"/>
      <circle cx="409.89" cy="98.15" r="1.18" fill="#fff"/>
      <circle cx="414.25" cy="98.16" r="1.18" fill="#fff"/>
      <circle cx="418.6" cy="98.16" r="1.18" fill="#fff"/>
      <circle cx="422.95" cy="98.16" r="1.18" fill="#fff"/>
      <circle cx="427.3" cy="98.16" r="1.18" fill="#fff"/>
      <circle cx="431.65" cy="98.17" r="1.18" fill="#fff"/>
      <circle cx="436" cy="98.17" r="1.18" fill="#fff"/>
      <circle cx="440.36" cy="98.17" r="1.18" fill="#fff"/>
      <circle cx="409.9" cy="89.45" r="1.18" fill="#fff"/>
      <circle cx="414.25" cy="89.45" r="1.18" fill="#fff"/>
      <circle cx="418.6" cy="89.46" r="1.18" fill="#fff"/>
      <circle cx="422.95" cy="89.46" r="1.18" fill="#fff"/>
      <circle cx="427.31" cy="89.46" r="1.18" fill="#fff"/>
      <circle cx="431.66" cy="89.46" r="1.18" fill="#fff"/>
      <circle cx="436.01" cy="89.46" r="1.18" fill="#fff"/>
      <circle cx="440.36" cy="89.47" r="1.18" fill="#fff"/>
      <circle cx="409.9" cy="80.75" r="1.18" fill="#fff"/>
      <circle cx="414.26" cy="80.75" r="1.18" fill="#fff"/>
      <circle cx="418.61" cy="80.75" r="1.18" fill="#fff"/>
      <circle cx="422.96" cy="80.75" r="1.18" fill="#fff"/>
      <circle cx="427.31" cy="80.76" r="1.18" fill="#fff"/>
      <circle cx="431.66" cy="80.76" r="1.18" fill="#fff"/>
      <circle cx="436.01" cy="80.76" r="1.18" fill="#fff"/>
      <circle cx="440.37" cy="80.76" r="1.18" fill="#fff"/>
      <circle cx="409.91" cy="72.04" r="1.18" fill="#fff"/>
      <circle cx="414.26" cy="72.05" r="1.18" fill="#fff"/>
      <circle cx="418.61" cy="72.05" r="1.18" fill="#fff"/>
      <circle cx="422.96" cy="72.05" r="1.18" fill="#fff"/>
      <circle cx="427.32" cy="72.05" r="1.18" fill="#fff"/>
      <circle cx="431.67" cy="72.06" r="1.18" fill="#fff"/>
      <circle cx="436.02" cy="72.06" r="1.18" fill="#fff"/>
      <circle cx="440.37" cy="72.06" r="1.18" fill="#fff"/>
      <circle cx="409.91" cy="63.34" r="1.18" fill="#fff"/>
      <circle cx="414.27" cy="63.34" r="1.18" fill="#fff"/>
      <circle cx="418.62" cy="63.35" r="1.18" fill="#fff"/>
      <circle cx="422.97" cy="63.35" r="1.18" fill="#fff"/>
      <circle cx="427.32" cy="63.35" r="1.18" fill="#fff"/>
      <circle cx="431.67" cy="63.35" r="1.18" fill="#fff"/>
      <circle cx="436.02" cy="63.36" r="1.18" fill="#fff"/>
      <circle cx="440.38" cy="63.36" r="1.18" fill="#fff"/>
      <circle cx="409.92" cy="54.64" r="1.18" fill="#fff"/>
      <circle cx="414.27" cy="54.64" r="1.18" fill="#fff"/>
      <circle cx="418.62" cy="54.64" r="1.18" fill="#fff"/>
      <circle cx="422.97" cy="54.64" r="1.18" fill="#fff"/>
      <circle cx="427.33" cy="54.65" r="1.18" fill="#fff"/>
      <circle cx="431.68" cy="54.65" r="1.18" fill="#fff"/>
      <circle cx="436.03" cy="54.65" r="1.18" fill="#fff"/>
      <circle cx="440.38" cy="54.65" r="1.18" fill="#fff"/>
      <circle cx="409.92" cy="45.93" r="1.18" fill="#fff"/>
      <circle cx="414.28" cy="45.94" r="1.18" fill="#fff"/>
      <circle cx="418.63" cy="45.94" r="1.18" fill="#fff"/>
      <circle cx="422.98" cy="45.94" r="1.18" fill="#fff"/>
      <circle cx="427.33" cy="45.94" r="1.18" fill="#fff"/>
      <circle cx="431.68" cy="45.95" r="1.18" fill="#fff"/>
      <circle cx="436.03" cy="45.95" r="1.18" fill="#fff"/>
      <circle cx="440.38" cy="45.95" r="1.18" fill="#fff"/>
      <line x1="405.77" y1="41.13" x2="444.61" y2="41.15" fill="none" stroke="#fff" stroke-miterlimit="10" stroke-width="0.5"/>
      <circle cx="449.93" cy="41.19" r="26.68" fill="#479aad"/>
      <path d="M450.09,13.25a27.8,27.8,0,1,0,0,55.59h0a27.8,27.8,0,1,0,0-55.59Zm20,10.54a14.23,14.23,0,0,1-3.82,3.69,20.44,20.44,0,0,1-3.5,1.89,37,37,0,0,0-4.29-8.74,35.91,35.91,0,0,0-4.73-5.76,26.27,26.27,0,0,1,15,7.49C469.24,22.83,469.69,23.3,470.11,23.79ZM451.49,67.45l-.75,0v-17a34,34,0,0,1,10.76,1.79,36,36,0,0,1-4.14,8.44A33,33,0,0,1,451.49,67.45ZM438.63,52.23a33,33,0,0,1,10.76-1.78v17c-.25,0-.5,0-.74,0A35.6,35.6,0,0,1,438.63,52.23Zm10-37.58.74,0v17a33.67,33.67,0,0,1-10.75-1.79,35.77,35.77,0,0,1,4.13-8.43A32.61,32.61,0,0,1,448.67,14.65Zm12.85,15.21a34,34,0,0,1-10.76,1.79v-17l.75,0A35.62,35.62,0,0,1,461.52,29.86ZM450.76,33a34.69,34.69,0,0,0,11.18-1.83,35.44,35.44,0,0,1,1.4,9.19H450.76Zm-1.36,0v7.36H436.82a35.09,35.09,0,0,1,1.41-9.19A34.59,34.59,0,0,0,449.4,33Zm-13.94,7.35H423.65a26.18,26.18,0,0,1,5.52-15.48A18,18,0,0,0,437,30.68,36.39,36.39,0,0,0,435.46,40.36Zm0,1.36A36,36,0,0,0,437,51.4a18,18,0,0,0-7.8,5.8,26.19,26.19,0,0,1-5.5-15.49Zm1.36,0H449.4v7.36a34.38,34.38,0,0,0-11.17,1.82A34.61,34.61,0,0,1,436.82,41.72Zm13.93,7.37V41.73h12.57a35,35,0,0,1-1.4,9.19A34.69,34.69,0,0,0,450.75,49.09Zm13.95-7.35h11.81A26.28,26.28,0,0,1,471,57.23a17.9,17.9,0,0,0-7.79-5.81A36.39,36.39,0,0,0,464.7,41.74Zm0-1.37a36.41,36.41,0,0,0-1.49-9.68,18,18,0,0,0,7.8-5.8,26.21,26.21,0,0,1,5.5,15.49Zm-33.31-18a26.31,26.31,0,0,1,15-7.48,36.37,36.37,0,0,0-4.73,5.76,37,37,0,0,0-4.3,8.74,20,20,0,0,1-3.49-1.9,14.07,14.07,0,0,1-3.82-3.69C430.49,23.28,430.93,22.8,431.39,22.34Zm-1.34,36a16.42,16.42,0,0,1,7.32-5.57,37.43,37.43,0,0,0,4.29,8.74,36.9,36.9,0,0,0,4.72,5.76,26.28,26.28,0,0,1-15-7.5C430.91,59.27,430.47,58.79,430.05,58.3Zm38.71,1.45a26.25,26.25,0,0,1-15,7.48,37.47,37.47,0,0,0,9-14.49,20.35,20.35,0,0,1,3.49,1.89,14.37,14.37,0,0,1,3.82,3.7C469.67,58.81,469.22,59.29,468.76,59.75Z" fill="#fff"/>
    </g>
    <text transform="translate(362.85 132.2)" font-size="13" fill="#159c80" font-family="Verdana-Bold, Verdana" font-weight="700">Application</text>
  </g>
</svg>
