<svg xmlns="http://www.w3.org/2000/svg" width="807" height="492" viewBox="0 0 807 492">
  <title>collaborator-4</title>
  <g>
    <rect x="42.85" y="431.5" width="169" height="40" fill="#fcebe8" stroke="#f63" stroke-miterlimit="10" stroke-width="0.5"/>
    <polygon points="0.85 263.92 354.61 263.92 354.61 269.7 366 263.13 354.61 256.55 354.61 262.33 0.85 262.33 0.85 263.92" fill="#1d81c4"/>
    <polygon points="0.85 347.92 794.94 347.92 794.94 353.7 806.34 347.13 794.94 340.55 794.94 346.33 0.85 346.33 0.85 347.92" fill="#1d81c4"/>
    <polygon points="438 302.92 794.59 302.92 794.59 308.7 805.98 302.13 794.59 295.55 794.59 301.33 438 301.33 438 302.92" fill="#1d81c4"/>
    <path d="M1.05,415.38V455c0,.09,0,.25.11.21H31V461l11.4-6.57L31,447.8v5.78H2.72c-.12,0-.07-.09-.08-.16v-38Z" fill="#ff774a"/>
    <g>
      <g>
        <polygon points="61.61 81.68 36.49 76.8 36.49 38.59 61.61 33.67 61.61 81.68" fill="#404041"/>
        <polygon points="62.78 81.68 87.94 76.8 87.94 38.59 62.78 33.67 62.78 81.68" fill="#f63"/>
        <path d="M74.7,39.46c.87.19,1.29.27,2.15.42v6.6c-2.52,2.48-3.77,3.81-6.3,6.71,2.53.12,3.78.15,6.3.27V60c3.47-.12,5.21-.15,8.6-.27a108,108,0,0,0-8.6,9.92v5.14c-.86.19-1.28.27-2.15.42v-6C77.23,66,78.47,64.48,81,61.69c-2.52.16-3.77.2-6.3.35V55.33l-8.6-.19a109.5,109.5,0,0,1,8.6-9.65V42.74C74.7,41.45,74.7,40.8,74.7,39.46Z" fill="#fff"/>
      </g>
      <g>
        <path d="M2.26,120.44c-1,0-1.36-.4-1.36-1.35V97.35C.9,96.4,1.3,96,2.26,96H9.44c2.38,0,5.06,2.13,5.06,6a6.51,6.51,0,0,1-2.13,4.88c2,1.58,2.94,3,2.94,6.34,0,4.8-3.45,7.22-6.35,7.22Zm1.32-14.88H9.22c1.47,0,2.6-1.28,2.6-3.56s-1-3.33-2.6-3.33H3.58Zm0,12.21H9.22c1.58,0,3.52-1.29,3.52-4.55a4.74,4.74,0,0,0-1.06-3.52,2.91,2.91,0,0,0-2.46-1.46H3.58Z" fill="#f63"/>
        <path d="M31.76,113.37a7.31,7.31,0,0,1-14.62,0V97.46a1.48,1.48,0,0,1,1.35-1.58,1.48,1.48,0,0,1,1.32,1.58v16A5,5,0,0,0,21.72,117a3.7,3.7,0,0,0,2.71.88,3.78,3.78,0,0,0,2.75-.88,4.92,4.92,0,0,0,1.91-3.52v-16a1.45,1.45,0,0,1,1.32-1.58,1.5,1.5,0,0,1,1.35,1.58Z" fill="#f63"/>
        <path d="M42.35,96c4.29,0,6.93,2.75,6.93,7.22,0,2.5-.47,4.37-1.68,5.61a5.9,5.9,0,0,1-3.41,1.73l4.29,7.73a1.39,1.39,0,0,1,.25,1,1.41,1.41,0,0,1-1.1,1.21c-.58,0-1.06,0-1.46-.73l-5-9H37v8.43c0,1-.37,1.35-1.32,1.35s-1.36-.4-1.36-1.35V97.35c0-.95.4-1.36,1.36-1.36ZM37,98.67V108h6.19a2.37,2.37,0,0,0,2.42-1.1,5.24,5.24,0,0,0,1-3.67c0-3.26-2-4.54-3.52-4.54Z" fill="#f63"/>
        <path d="M59.91,96c4.29,0,6.93,2.75,6.93,7.22,0,3.49-.92,5.47-3.19,6.71a6.55,6.55,0,0,1-3.63.74h-5.5v8.43c0,1-.36,1.35-1.32,1.35s-1.35-.4-1.35-1.35V97.35c0-.95.4-1.36,1.35-1.36Zm-5.39,2.68V108h6.2a2.39,2.39,0,0,0,2.42-1.1,5.28,5.28,0,0,0,1-3.67c0-3.26-1.94-4.54-3.52-4.54Z" fill="#f63"/>
        <path d="M79.3,109.3a6.08,6.08,0,0,1,2.9,5.35c0,2.68-2.79,5.94-7.63,5.94a16.82,16.82,0,0,1-3.92-.62c-2.57-.74-3-.55-3-2,0-.44.33-1.14,1.61-1.14.66,0,2.5,1.1,5.21,1.1,3.11,0,5-1.87,5-3.7a3.3,3.3,0,0,0-1.61-2.57l-7.37-4.94A5.72,5.72,0,0,1,67.79,102c0-3.7,2.93-6.3,7.15-6.3a5.49,5.49,0,0,1,1.5.14c3.12.85,5,1.29,5,2.72a1.29,1.29,0,0,1-1.47,1.28c-.84,0-2.38-1.47-4.91-1.47-3,0-4.54,1.69-4.54,3.41a3.34,3.34,0,0,0,1.5,2.6Z" fill="#404042"/>
        <path d="M98.58,113.37a7.32,7.32,0,0,1-14.63,0V97.46a1.36,1.36,0,1,1,2.68,0v16A5,5,0,0,0,88.54,117a3.67,3.67,0,0,0,2.71.88A3.79,3.79,0,0,0,94,117a4.91,4.91,0,0,0,1.9-3.52v-16a1.46,1.46,0,0,1,1.32-1.58,1.5,1.5,0,0,1,1.36,1.58Z" fill="#404042"/>
        <path d="M101.11,97.35c0-.95.4-1.36,1.35-1.36s1.32.41,1.32,1.36v21.74c0,1-.36,1.35-1.32,1.35s-1.35-.4-1.35-1.35Z" fill="#404042"/>
        <path d="M113.53,98.67v20.42c0,1-.4,1.35-1.35,1.35s-1.32-.4-1.32-1.35V98.67h-4.59A1.17,1.17,0,0,1,105,97.35,1.2,1.2,0,0,1,106.27,96h11.84a1.2,1.2,0,0,1,1.29,1.36,1.17,1.17,0,0,1-1.29,1.32Z" fill="#404042"/>
        <path d="M123.28,117.77h8.06a1.17,1.17,0,0,1,1.29,1.32,1.2,1.2,0,0,1-1.29,1.35H122c-.95,0-1.36-.4-1.36-1.35V97.35c0-.95.41-1.36,1.36-1.36h9.38a1.2,1.2,0,0,1,1.29,1.36,1.17,1.17,0,0,1-1.29,1.32h-8.06v7.11H129c.8,0,1.24.48,1.24,1.36s-.44,1.32-1.24,1.32h-5.72Z" fill="#404042"/>
      </g>
    </g>
    <text transform="translate(2.35 184.82)" font-size="14" fill="#0071bc" font-family="Courier, Courier">?param=...select <tspan x="0" y="16.8">extractvalue(xmltype(’&lt;?xml </tspan><tspan x="0" y="33.6">version=</tspan><tspan x="67.21" y="33.6" font-family="AndaleMono, Andale Mono">”</tspan><tspan x="75.61" y="33.6">1.0</tspan><tspan x="100.82" y="33.6" font-family="AndaleMono, Andale Mono">”</tspan><tspan x="109.22" y="33.6">?&gt;&lt;!DOCTYPE root [ &lt;!ENTITY % </tspan><tspan x="0" y="50.4">remote SYSTEM </tspan><tspan x="117.62" y="50.4" font-family="AndaleMono, Andale Mono">“</tspan><tspan x="126.02" y="50.4" fill="#f63">http://f268dgd9fje...</tspan><tspan fill="#f63"><tspan x="0" y="67.2">...few9.burpcollaborator.net/</tspan><tspan x="243.64" y="67.2" fill="#0071bc" font-family="AndaleMono, Andale Mono">”</tspan><tspan x="252.04" y="67.2" fill="#0071bc">&gt;...</tspan></tspan></text>
    <text transform="translate(437.85 274.82)" font-size="14" fill="#0071bc" font-family="Courier, Courier">GET http://f268dgd9fje...<tspan x="0" y="16.8">...few9.burpcollaborator.net/</tspan></text>
    <text transform="translate(56.83 455.77)" font-size="13" fill="#4c5054" font-family="Verdana, Verdana"><tspan letter-spacing="-0.02em">R</tspan><tspan x="8.72" y="0">eport SQL injection</tspan></text>
    <g>
      <path d="M652.44,121.16c-.57,0-.82-.24-.82-.82V107.27c0-.57.25-.81.82-.81h4.32a3.31,3.31,0,0,1,3,3.61,3.89,3.89,0,0,1-1.28,2.93,4.16,4.16,0,0,1,1.77,3.82,4,4,0,0,1-3.82,4.34Zm.79-9h3.4c.88,0,1.56-.77,1.56-2.14s-.59-2-1.56-2h-3.4Zm0,7.34h3.4c1,0,2.11-.77,2.11-2.73a2.83,2.83,0,0,0-.64-2.12,1.72,1.72,0,0,0-1.47-.88h-3.4Z" fill="#ea5c2c"/>
      <path d="M670.18,116.91a4.4,4.4,0,0,1-8.79,0v-9.57a.82.82,0,1,1,1.61,0V117a3,3,0,0,0,1.14,2.12,2.24,2.24,0,0,0,1.63.53,2.29,2.29,0,0,0,1.66-.53,2.94,2.94,0,0,0,1.14-2.12v-9.63a.88.88,0,0,1,.8-1,.91.91,0,0,1,.81,1Z" fill="#ea5c2c"/>
      <path d="M676.55,106.46c2.58,0,4.17,1.65,4.17,4.34a4.63,4.63,0,0,1-1,3.37,3.52,3.52,0,0,1-2.05,1l2.58,4.65a.81.81,0,0,1,.16.57.85.85,0,0,1-.67.73c-.35,0-.63,0-.88-.44l-3-5.45h-2.51v5.07c0,.58-.22.82-.79.82s-.82-.24-.82-.82V107.27c0-.57.24-.81.82-.81Zm-3.24,1.61v5.6H677a1.42,1.42,0,0,0,1.45-.67,3.12,3.12,0,0,0,.62-2.2c0-2-1.17-2.73-2.12-2.73Z" fill="#ea5c2c"/>
      <path d="M687.11,106.46c2.58,0,4.16,1.65,4.16,4.34,0,2.09-.55,3.28-1.91,4a4,4,0,0,1-2.19.44h-3.3v5.07c0,.58-.22.82-.8.82s-.81-.24-.81-.82V107.27c0-.57.24-.81.81-.81Zm-3.24,1.61v5.6h3.72a1.43,1.43,0,0,0,1.46-.67,3.16,3.16,0,0,0,.61-2.2c0-2-1.16-2.73-2.11-2.73Z" fill="#ea5c2c"/>
      <path d="M698.24,119.55a.7.7,0,0,1,.77.79.72.72,0,0,1-.77.82h-2.65a4,4,0,0,1-3.81-4.34v-6a4,4,0,0,1,3.81-4.34h2.65a.71.71,0,0,1,.77.81.7.7,0,0,1-.77.8H696a2.32,2.32,0,0,0-1.48.37,3,3,0,0,0-1.12,2.29v6.18a2.92,2.92,0,0,0,1.12,2.27,2.35,2.35,0,0,0,1.48.37Z" fill="#404042"/>
      <path d="M708.59,116.82a4.47,4.47,0,0,1-8.94,0v-6.09a4.47,4.47,0,0,1,8.94,0Zm-7.33.09a2.65,2.65,0,0,0,.57,1.6,2.46,2.46,0,0,0,2.29,1.11,2.24,2.24,0,0,0,1.72-.53,2.94,2.94,0,0,0,1.15-2.18v-6.26a2.85,2.85,0,0,0-.58-1.55,2.47,2.47,0,0,0-2.29-1.1,2.24,2.24,0,0,0-1.72.53,2.93,2.93,0,0,0-1.14,2.12Z" fill="#404042"/>
      <path d="M711.72,119.55H717a.7.7,0,0,1,.77.79.72.72,0,0,1-.77.82h-6.06c-.57,0-.81-.24-.81-.82V107.27c0-.57.24-.81.81-.81s.79.24.79.81Z" fill="#404042"/>
      <path d="M720,119.55h5.27a.7.7,0,0,1,.77.79.72.72,0,0,1-.77.82h-6.06c-.58,0-.82-.24-.82-.82V107.27c0-.57.24-.81.82-.81s.79.24.79.81Z" fill="#404042"/>
      <path d="M728.16,117.74l-.92,2.91c-.09.27-.29.51-.51.51-.75,0-1.08-.31-1.08-.66a1,1,0,0,1,.05-.38l4.14-12.89c.18-.55.35-.77.88-.77s.71.22.88.77l4.15,12.89a1.17,1.17,0,0,1,0,.38c0,.35-.33.66-1.08.66-.22,0-.42-.24-.51-.51l-.92-2.91Zm.58-1.61h4l-2-6.06Z" fill="#404042"/>
      <path d="M737.55,121.16c-.57,0-.81-.24-.81-.82V107.27c0-.57.24-.81.81-.81h4.32a3.31,3.31,0,0,1,3,3.61,3.89,3.89,0,0,1-1.28,2.93,4.15,4.15,0,0,1,1.76,3.82,4,4,0,0,1-3.81,4.34Zm.8-9h3.39c.88,0,1.57-.77,1.57-2.14s-.6-2-1.57-2h-3.39Zm0,7.34h3.39c1,0,2.12-.77,2.12-2.73a2.87,2.87,0,0,0-.64-2.12,1.75,1.75,0,0,0-1.48-.88h-3.39Z" fill="#404042"/>
      <path d="M755.45,116.82a4.48,4.48,0,0,1-9,0v-6.09a4.48,4.48,0,0,1,9,0Zm-7.34.09a2.72,2.72,0,0,0,.57,1.6,2.46,2.46,0,0,0,2.3,1.11,2.21,2.21,0,0,0,1.71-.53,2.9,2.9,0,0,0,1.15-2.18v-6.26a2.92,2.92,0,0,0-.57-1.55A2.47,2.47,0,0,0,751,108a2.23,2.23,0,0,0-1.72.53,2.94,2.94,0,0,0-1.15,2.12Z" fill="#404042"/>
      <path d="M761.82,106.46c2.58,0,4.16,1.65,4.16,4.34a4.63,4.63,0,0,1-1,3.37,3.55,3.55,0,0,1-2.05,1l2.58,4.65a.82.82,0,0,1,.15.57.84.84,0,0,1-.66.73c-.35,0-.64,0-.88-.44l-3-5.45h-2.51v5.07c0,.58-.22.82-.8.82s-.81-.24-.81-.82V107.27c0-.57.24-.81.81-.81Zm-3.24,1.61v5.6h3.72a1.43,1.43,0,0,0,1.46-.67,3.16,3.16,0,0,0,.61-2.2c0-2-1.16-2.73-2.11-2.73Z" fill="#404042"/>
      <path d="M769,117.74l-.92,2.91c-.09.27-.29.51-.51.51-.75,0-1.08-.31-1.08-.66a1.17,1.17,0,0,1,0-.38l4.15-12.89c.17-.55.35-.77.88-.77s.7.22.88.77l4.14,12.89a1,1,0,0,1,0,.38c0,.35-.33.66-1.08.66-.22,0-.42-.24-.51-.51l-.92-2.91Zm.58-1.61h4l-2-6.06Z" fill="#404042"/>
      <path d="M781.45,108.07v12.27c0,.58-.24.82-.81.82s-.79-.24-.79-.82V108.07h-2.76a.71.71,0,0,1-.77-.8.72.72,0,0,1,.77-.81h7.12a.72.72,0,0,1,.77.81.71.71,0,0,1-.77.8Z" fill="#404042"/>
      <path d="M794.22,116.82a4.48,4.48,0,0,1-9,0v-6.09a4.48,4.48,0,0,1,9,0Zm-7.34.09a2.65,2.65,0,0,0,.57,1.6,2.46,2.46,0,0,0,2.29,1.11,2.23,2.23,0,0,0,1.72-.53,2.9,2.9,0,0,0,1.15-2.18v-6.26a2.85,2.85,0,0,0-.58-1.55,2.47,2.47,0,0,0-2.29-1.1,2.24,2.24,0,0,0-1.72.53,2.93,2.93,0,0,0-1.14,2.12Z" fill="#404042"/>
      <path d="M800.58,106.46c2.58,0,4.17,1.65,4.17,4.34a4.68,4.68,0,0,1-1,3.37,3.58,3.58,0,0,1-2,1l2.58,4.65a.88.88,0,0,1,.15.57.86.86,0,0,1-.66.73c-.35,0-.64,0-.88-.44l-3-5.45h-2.52v5.07c0,.58-.22.82-.79.82s-.81-.24-.81-.82V107.27c0-.57.24-.81.81-.81Zm-3.24,1.61v5.6h3.73a1.41,1.41,0,0,0,1.45-.67,3.12,3.12,0,0,0,.62-2.2c0-2-1.17-2.73-2.11-2.73Z" fill="#404042"/>
    </g>
    <g>
      <path d="M694.47,65a4.54,4.54,0,0,1-.25,1.51,2.83,2.83,0,0,1-.69,1.09,2.93,2.93,0,0,1-1.1.64,4.46,4.46,0,0,1-1.47.21l-1.8,0,.06-6.82,2,0a4.06,4.06,0,0,1,1.35.22,3,3,0,0,1,1,.65,2.79,2.79,0,0,1,.65,1A4.29,4.29,0,0,1,694.47,65Zm-1.47,0a3.68,3.68,0,0,0-.1-1,2.05,2.05,0,0,0-.33-.68A1.33,1.33,0,0,0,692,63a2,2,0,0,0-.72-.14h-.67l0,4.44h.53a1.7,1.7,0,0,0,1.38-.55A2.57,2.57,0,0,0,693,65.05Z" fill="#4c5054"/>
      <path d="M701.62,68.56l-1.84,0-2.64-5.18h0c0,.24,0,.48,0,.71l0,.64v.6l0,3.21h-1.3l.06-6.82h1.83l2.63,5.14h0l0-.7c0-.1,0-.2,0-.31s0-.21,0-.31V65l0-3.23h1.3Z" fill="#4c5054"/>
      <path d="M707.09,66.71a1.94,1.94,0,0,1-.16.82,1.71,1.71,0,0,1-.46.63,2.09,2.09,0,0,1-.74.39,3.44,3.44,0,0,1-1,.13,4.33,4.33,0,0,1-1-.11,3.47,3.47,0,0,1-.85-.32V66.91l.45.21.47.19.47.13a3.56,3.56,0,0,0,.47,0,1.64,1.64,0,0,0,.41,0,.87.87,0,0,0,.27-.15.63.63,0,0,0,.16-.23.88.88,0,0,0,0-.29.74.74,0,0,0-.08-.34,1,1,0,0,0-.23-.28,2.12,2.12,0,0,0-.35-.25l-.46-.26-.48-.27a2.66,2.66,0,0,1-.5-.4,2.26,2.26,0,0,1-.39-.58,1.94,1.94,0,0,1-.15-.8,2.14,2.14,0,0,1,.16-.82,1.56,1.56,0,0,1,.44-.6,1.88,1.88,0,0,1,.68-.38,3.09,3.09,0,0,1,.89-.12,2.63,2.63,0,0,1,.49,0,3.73,3.73,0,0,1,.46.09,4.34,4.34,0,0,1,.47.16l.48.21-.48,1.12-.39-.18-.36-.13-.33-.08a1.87,1.87,0,0,0-.34,0,.76.76,0,0,0-.56.19.69.69,0,0,0-.19.52.6.6,0,0,0,0,.3.64.64,0,0,0,.19.25,1.57,1.57,0,0,0,.33.24,4,4,0,0,0,.49.28c.23.13.44.26.64.39a3,3,0,0,1,.5.43A1.64,1.64,0,0,1,707,66,1.69,1.69,0,0,1,707.09,66.71Z" fill="#4c5054"/>
    </g>
    <g>
      <path d="M695.21,94.79a2.1,2.1,0,0,1-.17.82,1.58,1.58,0,0,1-.46.62,2,2,0,0,1-.74.4,3.41,3.41,0,0,1-1,.13,4.35,4.35,0,0,1-1-.11,3.47,3.47,0,0,1-.85-.32l0-1.34.45.21a3.66,3.66,0,0,0,.46.18,2.75,2.75,0,0,0,.47.13,1.88,1.88,0,0,0,.47,0,1.05,1.05,0,0,0,.41,0,.69.69,0,0,0,.27-.14.6.6,0,0,0,.16-.23.93.93,0,0,0,0-.29.63.63,0,0,0-.08-.34,1.13,1.13,0,0,0-.22-.28,2.8,2.8,0,0,0-.36-.25l-.46-.26-.48-.28a3,3,0,0,1-.5-.39,2,2,0,0,1-.38-.58,1.78,1.78,0,0,1-.16-.8,2.35,2.35,0,0,1,.16-.82,1.67,1.67,0,0,1,.44-.6,1.88,1.88,0,0,1,.68-.38,2.84,2.84,0,0,1,.9-.12,3.87,3.87,0,0,1,.48,0l.47.1a3.16,3.16,0,0,1,.46.16l.48.2-.48,1.13-.39-.18-.35-.13-.34-.08a1.84,1.84,0,0,0-.33,0,.75.75,0,0,0-.56.19.69.69,0,0,0-.2.51,1,1,0,0,0,0,.31.72.72,0,0,0,.19.25,1.57,1.57,0,0,0,.33.24,5,5,0,0,0,.49.28c.23.13.44.26.64.39a2.63,2.63,0,0,1,.5.43,1.87,1.87,0,0,1,.33.54A2.1,2.1,0,0,1,695.21,94.79Z" fill="#4c5054"/>
      <path d="M699.2,96.72l-1.45-5.37h0c0,.29,0,.57,0,.83s0,.24,0,.36,0,.24,0,.36,0,.23,0,.34v.29l0,3.18h-1.29l.06-6.83,2,0,1.43,5.23h0l1.61-5.2h2l-.06,6.83h-1.35l0-3.23v-.28c0-.1,0-.21,0-.33s0-.23,0-.35,0-.23,0-.34c0-.26,0-.54,0-.82h0l-1.67,5.33Z" fill="#4c5054"/>
      <path d="M707.68,96.79h-1.45l0-5.62h-1.71V89.94l4.86,0v1.21l-1.71,0Z" fill="#4c5054"/>
      <path d="M714.9,92.16a2.77,2.77,0,0,1-.14.86,1.82,1.82,0,0,1-.45.72,2.27,2.27,0,0,1-.82.49,3.59,3.59,0,0,1-1.26.17h-.33l0,2.43h-1.45l.06-6.83,1.9,0a3.46,3.46,0,0,1,1.13.16,2.2,2.2,0,0,1,.79.42,1.8,1.8,0,0,1,.45.67A2.36,2.36,0,0,1,714.9,92.16Zm-3,1.06h.29a1.51,1.51,0,0,0,.92-.24,1,1,0,0,0,.32-.78,1,1,0,0,0-.27-.76,1.39,1.39,0,0,0-.87-.25h-.37Z" fill="#4c5054"/>
    </g>
    <path d="M737.15,43.42a21.91,21.91,0,0,1,0,43.82" fill="#f63" stroke="#f63" stroke-miterlimit="10" stroke-width="2"/>
    <polygon points="747.56 62.84 743.88 62.84 747.56 58.88 747.56 51.97 746.01 51.97 746.01 58.34 739.84 64.39 746.01 64.39 746.01 69.37 749.47 69.31 746.01 72.95 746.01 79.91 747.56 79.91 747.56 73.48 753.16 67.5 747.56 67.5 747.56 62.84" fill="#fff"/>
    <line x1="708.19" y1="65.32" x2="736.84" y2="65.32" fill="none" stroke="#4c5054" stroke-miterlimit="10" stroke-width="2"/>
    <path d="M736.84,87.24a21.91,21.91,0,0,1,0-43.82Z" fill="none" stroke="#4c5054" stroke-miterlimit="10" stroke-width="2"/>
    <path d="M737.53,87.24c-6.6,0-11.95-9.81-11.95-21.91s5.35-21.91,11.95-21.91" fill="none" stroke="#4c5054" stroke-miterlimit="10" stroke-width="2"/>
    <path d="M736.84,55.68c-5.85,0-19.09-.35-23.07-13.89" fill="none" stroke="#4c5054" stroke-miterlimit="10" stroke-width="2"/>
    <path d="M736.84,74.45c-5.85,0-19.09.35-23.07,13.89" fill="none" stroke="#4c5054" stroke-miterlimit="10" stroke-width="2"/>
    <g>
      <path d="M699.52,40.29h-1.44V37.35h-2.32v2.94h-1.45V33.47h1.45v2.67h2.32V33.47h1.44Z" fill="#4c5054"/>
      <path d="M703.73,40.29h-1.44V34.67h-1.71v-1.2h4.86v1.2h-1.71Z" fill="#4c5054"/>
      <path d="M709.07,40.29h-1.44V34.67h-1.71v-1.2h4.86v1.2h-1.71Z" fill="#4c5054"/>
      <path d="M716.26,35.6a2.76,2.76,0,0,1-.13.86,1.82,1.82,0,0,1-.45.72,2.15,2.15,0,0,1-.82.5,3.69,3.69,0,0,1-1.25.19h-.33v2.42h-1.45V33.47h1.9a3.77,3.77,0,0,1,1.13.15,1.87,1.87,0,0,1,.79.42,1.61,1.61,0,0,1,.46.66A2.54,2.54,0,0,1,716.26,35.6Zm-3,1.08h.28a1.52,1.52,0,0,0,.93-.24,1.15,1.15,0,0,0,0-1.54,1.33,1.33,0,0,0-.87-.24h-.37Z" fill="#4c5054"/>
    </g>
    <g>
      <rect x="363.05" y="32.89" width="38.84" height="82.55" fill="#159c80" stroke="#159c80" stroke-miterlimit="10" stroke-width="0.5"/>
      <line x1="363.06" y1="59.91" x2="401.9" y2="59.93" fill="none" stroke="#fff" stroke-miterlimit="10" stroke-width="0.5"/>
      <line x1="363.06" y1="68.29" x2="401.9" y2="68.31" fill="none" stroke="#fff" stroke-miterlimit="10" stroke-width="0.5"/>
      <line x1="363.06" y1="51.26" x2="401.91" y2="51.29" fill="none" stroke="#fff" stroke-miterlimit="10" stroke-width="0.5"/>
      <line x1="363.04" y1="94.32" x2="401.88" y2="94.34" fill="none" stroke="#fff" stroke-miterlimit="10" stroke-width="0.5"/>
      <line x1="363.04" y1="102.56" x2="401.88" y2="102.58" fill="none" stroke="#fff" stroke-miterlimit="10" stroke-width="0.5"/>
      <line x1="363.05" y1="77.02" x2="401.89" y2="77.04" fill="none" stroke="#fff" stroke-miterlimit="10" stroke-width="0.5"/>
      <line x1="363.05" y1="85.82" x2="401.89" y2="85.84" fill="none" stroke="#fff" stroke-miterlimit="10" stroke-width="0.5"/>
      <circle cx="367.19" cy="98.75" r="1.18" fill="#fff"/>
      <circle cx="371.54" cy="98.76" r="1.18" fill="#fff"/>
      <circle cx="375.9" cy="98.76" r="1.18" fill="#fff"/>
      <circle cx="380.25" cy="98.76" r="1.18" fill="#fff"/>
      <circle cx="384.6" cy="98.76" r="1.18" fill="#fff"/>
      <circle cx="388.95" cy="98.77" r="1.18" fill="#fff"/>
      <circle cx="393.3" cy="98.77" r="1.18" fill="#fff"/>
      <circle cx="397.65" cy="98.77" r="1.18" fill="#fff"/>
      <circle cx="367.2" cy="90.05" r="1.18" fill="#fff"/>
      <circle cx="371.55" cy="90.05" r="1.18" fill="#fff"/>
      <circle cx="375.9" cy="90.06" r="1.18" fill="#fff"/>
      <circle cx="380.25" cy="90.06" r="1.18" fill="#fff"/>
      <circle cx="384.6" cy="90.06" r="1.18" fill="#fff"/>
      <circle cx="388.96" cy="90.06" r="1.18" fill="#fff"/>
      <circle cx="393.31" cy="90.07" r="1.18" fill="#fff"/>
      <circle cx="397.66" cy="90.07" r="1.18" fill="#fff"/>
      <circle cx="367.2" cy="81.35" r="1.18" fill="#fff"/>
      <circle cx="371.55" cy="81.35" r="1.18" fill="#fff"/>
      <circle cx="375.91" cy="81.35" r="1.18" fill="#fff"/>
      <circle cx="380.26" cy="81.36" r="1.18" fill="#fff"/>
      <circle cx="384.61" cy="81.36" r="1.18" fill="#fff"/>
      <circle cx="388.96" cy="81.36" r="1.18" fill="#fff"/>
      <circle cx="393.31" cy="81.36" r="1.18" fill="#fff"/>
      <circle cx="397.66" cy="81.37" r="1.18" fill="#fff"/>
      <circle cx="367.21" cy="72.65" r="1.18" fill="#fff"/>
      <circle cx="371.56" cy="72.65" r="1.18" fill="#fff"/>
      <circle cx="375.91" cy="72.65" r="1.18" fill="#fff"/>
      <circle cx="380.26" cy="72.65" r="1.18" fill="#fff"/>
      <circle cx="384.61" cy="72.65" r="1.18" fill="#fff"/>
      <circle cx="388.97" cy="72.66" r="1.18" fill="#fff"/>
      <circle cx="393.32" cy="72.66" r="1.18" fill="#fff"/>
      <circle cx="397.67" cy="72.66" r="1.18" fill="#fff"/>
      <circle cx="367.21" cy="63.94" r="1.18" fill="#fff"/>
      <circle cx="371.56" cy="63.94" r="1.18" fill="#fff"/>
      <circle cx="375.92" cy="63.95" r="1.18" fill="#fff"/>
      <circle cx="380.27" cy="63.95" r="1.18" fill="#fff"/>
      <circle cx="384.62" cy="63.95" r="1.18" fill="#fff"/>
      <circle cx="388.97" cy="63.95" r="1.18" fill="#fff"/>
      <circle cx="393.32" cy="63.96" r="1.18" fill="#fff"/>
      <circle cx="397.67" cy="63.96" r="1.18" fill="#fff"/>
      <circle cx="367.22" cy="55.24" r="1.18" fill="#fff"/>
      <circle cx="371.57" cy="55.24" r="1.18" fill="#fff"/>
      <circle cx="375.92" cy="55.24" r="1.18" fill="#fff"/>
      <circle cx="380.27" cy="55.25" r="1.18" fill="#fff"/>
      <circle cx="384.62" cy="55.25" r="1.18" fill="#fff"/>
      <circle cx="388.97" cy="55.25" r="1.18" fill="#fff"/>
      <circle cx="393.33" cy="55.25" r="1.18" fill="#fff"/>
      <circle cx="397.68" cy="55.26" r="1.18" fill="#fff"/>
      <circle cx="367.22" cy="46.54" r="1.18" fill="#fff"/>
      <circle cx="371.57" cy="46.54" r="1.18" fill="#fff"/>
      <circle cx="375.92" cy="46.54" r="1.18" fill="#fff"/>
      <circle cx="380.28" cy="46.54" r="1.18" fill="#fff"/>
      <circle cx="384.63" cy="46.55" r="1.18" fill="#fff"/>
      <circle cx="388.98" cy="46.55" r="1.18" fill="#fff"/>
      <circle cx="393.33" cy="46.55" r="1.18" fill="#fff"/>
      <circle cx="397.68" cy="46.55" r="1.18" fill="#fff"/>
      <line x1="363.07" y1="41.73" x2="401.91" y2="41.75" fill="none" stroke="#fff" stroke-miterlimit="10" stroke-width="0.5"/>
      <rect x="405.75" y="32.91" width="38.84" height="82.55" fill="#159c80" stroke="#159c80" stroke-miterlimit="10" stroke-width="0.5"/>
      <line x1="405.76" y1="59.93" x2="444.6" y2="59.95" fill="none" stroke="#fff" stroke-miterlimit="10" stroke-width="0.5"/>
      <line x1="405.76" y1="68.31" x2="444.6" y2="68.34" fill="none" stroke="#fff" stroke-miterlimit="10" stroke-width="0.5"/>
      <line x1="405.77" y1="51.29" x2="444.61" y2="51.31" fill="none" stroke="#fff" stroke-miterlimit="10" stroke-width="0.5"/>
      <line x1="405.74" y1="94.34" x2="444.58" y2="94.37" fill="none" stroke="#fff" stroke-miterlimit="10" stroke-width="0.5"/>
      <line x1="405.74" y1="102.58" x2="444.58" y2="102.61" fill="none" stroke="#fff" stroke-miterlimit="10" stroke-width="0.5"/>
      <line x1="405.75" y1="77.04" x2="444.59" y2="77.06" fill="none" stroke="#fff" stroke-miterlimit="10" stroke-width="0.5"/>
      <line x1="405.75" y1="85.85" x2="444.59" y2="85.87" fill="none" stroke="#fff" stroke-miterlimit="10" stroke-width="0.5"/>
      <circle cx="409.89" cy="98.78" r="1.18" fill="#fff"/>
      <circle cx="414.25" cy="98.78" r="1.18" fill="#fff"/>
      <circle cx="418.6" cy="98.78" r="1.18" fill="#fff"/>
      <circle cx="422.95" cy="98.79" r="1.18" fill="#fff"/>
      <circle cx="427.3" cy="98.79" r="1.18" fill="#fff"/>
      <circle cx="431.65" cy="98.79" r="1.18" fill="#fff"/>
      <circle cx="436" cy="98.79" r="1.18" fill="#fff"/>
      <circle cx="440.36" cy="98.8" r="1.18" fill="#fff"/>
      <circle cx="409.9" cy="90.08" r="1.18" fill="#fff"/>
      <circle cx="414.25" cy="90.08" r="1.18" fill="#fff"/>
      <circle cx="418.6" cy="90.08" r="1.18" fill="#fff"/>
      <circle cx="422.95" cy="90.08" r="1.18" fill="#fff"/>
      <circle cx="427.31" cy="90.09" r="1.18" fill="#fff"/>
      <circle cx="431.66" cy="90.09" r="1.18" fill="#fff"/>
      <circle cx="436.01" cy="90.09" r="1.18" fill="#fff"/>
      <circle cx="440.36" cy="90.09" r="1.18" fill="#fff"/>
      <circle cx="409.9" cy="81.37" r="1.18" fill="#fff"/>
      <circle cx="414.26" cy="81.37" r="1.18" fill="#fff"/>
      <circle cx="418.61" cy="81.38" r="1.18" fill="#fff"/>
      <circle cx="422.96" cy="81.38" r="1.18" fill="#fff"/>
      <circle cx="427.31" cy="81.38" r="1.18" fill="#fff"/>
      <circle cx="431.66" cy="81.38" r="1.18" fill="#fff"/>
      <circle cx="436.01" cy="81.39" r="1.18" fill="#fff"/>
      <circle cx="440.37" cy="81.39" r="1.18" fill="#fff"/>
      <circle cx="409.91" cy="72.67" r="1.18" fill="#fff"/>
      <circle cx="414.26" cy="72.67" r="1.18" fill="#fff"/>
      <circle cx="418.61" cy="72.67" r="1.18" fill="#fff"/>
      <circle cx="422.96" cy="72.68" r="1.18" fill="#fff"/>
      <circle cx="427.32" cy="72.68" r="1.18" fill="#fff"/>
      <circle cx="431.67" cy="72.68" r="1.18" fill="#fff"/>
      <circle cx="436.02" cy="72.68" r="1.18" fill="#fff"/>
      <circle cx="440.37" cy="72.69" r="1.18" fill="#fff"/>
      <circle cx="409.91" cy="63.97" r="1.18" fill="#fff"/>
      <circle cx="414.27" cy="63.97" r="1.18" fill="#fff"/>
      <circle cx="418.62" cy="63.97" r="1.18" fill="#fff"/>
      <circle cx="422.97" cy="63.97" r="1.18" fill="#fff"/>
      <circle cx="427.32" cy="63.98" r="1.18" fill="#fff"/>
      <circle cx="431.67" cy="63.98" r="1.18" fill="#fff"/>
      <circle cx="436.02" cy="63.98" r="1.18" fill="#fff"/>
      <circle cx="440.38" cy="63.98" r="1.18" fill="#fff"/>
      <circle cx="409.92" cy="55.26" r="1.18" fill="#fff"/>
      <circle cx="414.27" cy="55.26" r="1.18" fill="#fff"/>
      <circle cx="418.62" cy="55.27" r="1.18" fill="#fff"/>
      <circle cx="422.97" cy="55.27" r="1.18" fill="#fff"/>
      <circle cx="427.33" cy="55.27" r="1.18" fill="#fff"/>
      <circle cx="431.68" cy="55.27" r="1.18" fill="#fff"/>
      <circle cx="436.03" cy="55.28" r="1.18" fill="#fff"/>
      <circle cx="440.38" cy="55.28" r="1.18" fill="#fff"/>
      <circle cx="409.92" cy="46.56" r="1.18" fill="#fff"/>
      <circle cx="414.28" cy="46.56" r="1.18" fill="#fff"/>
      <circle cx="418.63" cy="46.56" r="1.18" fill="#fff"/>
      <circle cx="422.98" cy="46.57" r="1.18" fill="#fff"/>
      <circle cx="427.33" cy="46.57" r="1.18" fill="#fff"/>
      <circle cx="431.68" cy="46.57" r="1.18" fill="#fff"/>
      <circle cx="436.03" cy="46.57" r="1.18" fill="#fff"/>
      <circle cx="440.38" cy="46.58" r="1.18" fill="#fff"/>
      <line x1="405.77" y1="41.75" x2="444.61" y2="41.77" fill="none" stroke="#fff" stroke-miterlimit="10" stroke-width="0.5"/>
      <circle cx="449.93" cy="41.82" r="26.68" fill="#479aad"/>
      <path d="M450.09,13.88a27.8,27.8,0,1,0,0,55.59h0a27.8,27.8,0,1,0,0-55.59Zm20,10.54a14.24,14.24,0,0,1-3.82,3.68,19.77,19.77,0,0,1-3.5,1.89,37.43,37.43,0,0,0-4.29-8.74,36.85,36.85,0,0,0-4.73-5.76,26.22,26.22,0,0,1,15,7.5C469.24,23.45,469.69,23.93,470.11,24.42ZM451.49,68.07l-.75,0v-17a34.08,34.08,0,0,1,10.76,1.8,35.76,35.76,0,0,1-4.14,8.43A33,33,0,0,1,451.49,68.07ZM438.63,52.86a33,33,0,0,1,10.76-1.79v17l-.74,0A35.6,35.6,0,0,1,438.63,52.86Zm10-37.59.74,0v17a34,34,0,0,1-10.75-1.79A36.05,36.05,0,0,1,442.78,22,32.61,32.61,0,0,1,448.67,15.27Zm12.85,15.22a34,34,0,0,1-10.76,1.78v-17l.75,0A35.62,35.62,0,0,1,461.52,30.49Zm-10.76,3.14a34.71,34.71,0,0,0,11.18-1.82,35.44,35.44,0,0,1,1.4,9.19H450.76Zm-1.36,0V41H436.82a35,35,0,0,1,1.41-9.18A34.9,34.9,0,0,0,449.4,33.63ZM435.46,41H423.65a26.21,26.21,0,0,1,5.52-15.49A17.83,17.83,0,0,0,437,31.3,36.39,36.39,0,0,0,435.46,41Zm0,1.36A36.08,36.08,0,0,0,437,52a17.88,17.88,0,0,0-7.8,5.8,26.21,26.21,0,0,1-5.5-15.49Zm1.36,0H449.4v7.36a34.62,34.62,0,0,0-11.17,1.83A34.62,34.62,0,0,1,436.82,42.34Zm13.93,7.37V42.35h12.57a35.1,35.1,0,0,1-1.4,9.19A34.66,34.66,0,0,0,450.75,49.71Zm13.95-7.35h11.81A26.25,26.25,0,0,1,471,57.85,18.05,18.05,0,0,0,463.2,52,36.39,36.39,0,0,0,464.7,42.36Zm0-1.36a36.41,36.41,0,0,0-1.49-9.68,18,18,0,0,0,7.8-5.8A26.19,26.19,0,0,1,476.51,41ZM431.39,23a26.25,26.25,0,0,1,15-7.48,36.2,36.2,0,0,0-4.73,5.75,37.42,37.42,0,0,0-4.3,8.74,20.67,20.67,0,0,1-3.49-1.89,14.06,14.06,0,0,1-3.82-3.7C430.49,23.9,430.93,23.43,431.39,23Zm-1.34,36a16.48,16.48,0,0,1,7.32-5.58,37,37,0,0,0,4.29,8.74,36.42,36.42,0,0,0,4.72,5.76,26.33,26.33,0,0,1-15-7.49C430.91,59.89,430.47,59.42,430.05,58.93Zm38.71,1.45a26.25,26.25,0,0,1-15,7.48,38,38,0,0,0,4.73-5.76,37.41,37.41,0,0,0,4.3-8.74,20.4,20.4,0,0,1,3.49,1.9A14.23,14.23,0,0,1,470.09,59C469.67,59.44,469.22,59.92,468.76,60.38Z" fill="#fff"/>
    </g>
    <text transform="translate(362.85 132.82)" font-size="13" fill="#159c80" font-family="Verdana-Bold, Verdana" font-weight="700">Application</text>
    <rect x="247" y="333" width="310" height="26" fill="#fff" stroke="#0071bc" stroke-miterlimit="10"/>
    <polygon points="806.5 397.71 12.4 397.71 12.4 391.92 1.01 398.5 12.4 405.08 12.4 399.29 806.5 399.29 806.5 397.71" fill="#1d81c4"/>
    <text transform="translate(261.43 349.01)" font-size="12" fill="#0071bc" font-family="Verdana, Verdana">Did <tspan x="24.23" y="0" letter-spacing="-0.01em">y</tspan><tspan x="31.23" y="0">ou recei</tspan><tspan x="79.29" y="0" letter-spacing="-0.01em">v</tspan><tspan x="86.29" y="0">e an inte</tspan><tspan x="139.44" y="0" letter-spacing="-0.02em">r</tspan><tspan x="144.35" y="0">action for </tspan><tspan x="205.76" y="0" letter-spacing="-0.01em">m</tspan><tspan x="217.32" y="0">y p</tspan><tspan x="236.12" y="0" letter-spacing="-0.01em">a</tspan><tspan x="243.23" y="0">yload?</tspan></text>
    <rect x="379.5" y="386" width="44" height="26" fill="#fff" stroke="#0071bc" stroke-miterlimit="10"/>
    <text transform="translate(390.91 401.01)" font-size="12" fill="#0071bc" font-family="Verdana, Verdana"><tspan letter-spacing="-0.06em">Y</tspan><tspan x="6.62" y="0">es</tspan></text>
  </g>
</svg>
