<svg xmlns="http://www.w3.org/2000/svg" width="807" height="473" viewBox="0 0 807 473">
  <title>collaborator-2</title>
  <g>
    <rect x="41.63" y="412.13" width="254.38" height="40" fill="#fcebe8" stroke="#f63" stroke-miterlimit="10" stroke-width="0.5"/>
    <g>
      <path d="M634.69,120.91c-.57,0-.81-.24-.81-.82V107c0-.57.24-.81.81-.81H639a3.31,3.31,0,0,1,3,3.61,3.89,3.89,0,0,1-1.28,2.93,4.16,4.16,0,0,1,1.77,3.82,4,4,0,0,1-3.82,4.34Zm.79-9h3.4c.88,0,1.56-.77,1.56-2.14s-.59-2-1.56-2h-3.4Zm0,7.34h3.4c1,0,2.11-.77,2.11-2.73a2.83,2.83,0,0,0-.64-2.12,1.72,1.72,0,0,0-1.47-.88h-3.4Z" fill="#ea5c2c"/>
      <path d="M652.43,116.66a4.4,4.4,0,0,1-8.79,0v-9.57a.82.82,0,1,1,1.61,0v9.63a3,3,0,0,0,1.14,2.12,2.24,2.24,0,0,0,1.63.53,2.29,2.29,0,0,0,1.66-.53,2.94,2.94,0,0,0,1.14-2.12v-9.63a.88.88,0,0,1,.8-1,.91.91,0,0,1,.81,1Z" fill="#ea5c2c"/>
      <path d="M658.8,106.21c2.58,0,4.17,1.65,4.17,4.34a4.63,4.63,0,0,1-1,3.37,3.52,3.52,0,0,1-2.05,1l2.58,4.65a.81.81,0,0,1,.16.57.85.85,0,0,1-.67.73c-.35,0-.63,0-.88-.44l-3-5.45h-2.51v5.07c0,.58-.22.82-.79.82s-.82-.24-.82-.82V107c0-.57.24-.81.82-.81Zm-3.24,1.61v5.6h3.73a1.42,1.42,0,0,0,1.45-.67,3.12,3.12,0,0,0,.62-2.2c0-2-1.17-2.73-2.12-2.73Z" fill="#ea5c2c"/>
      <path d="M669.36,106.21c2.58,0,4.16,1.65,4.16,4.34,0,2.09-.55,3.28-1.91,4a4,4,0,0,1-2.19.44h-3.3v5.07c0,.58-.22.82-.8.82s-.81-.24-.81-.82V107c0-.57.24-.81.81-.81Zm-3.24,1.61v5.6h3.72a1.43,1.43,0,0,0,1.46-.67,3.16,3.16,0,0,0,.61-2.2c0-2-1.16-2.73-2.11-2.73Z" fill="#ea5c2c"/>
      <path d="M680.49,119.3a.7.7,0,0,1,.77.79.72.72,0,0,1-.77.82h-2.65a4,4,0,0,1-3.81-4.34v-6a4,4,0,0,1,3.81-4.34h2.65a.71.71,0,0,1,.77.81.7.7,0,0,1-.77.8h-2.25a2.32,2.32,0,0,0-1.48.37,3,3,0,0,0-1.12,2.29v6.18a2.92,2.92,0,0,0,1.12,2.27,2.35,2.35,0,0,0,1.48.37Z" fill="#404042"/>
      <path d="M690.84,116.57a4.47,4.47,0,0,1-8.94,0v-6.09a4.47,4.47,0,0,1,8.94,0Zm-7.33.09a2.65,2.65,0,0,0,.57,1.6,2.46,2.46,0,0,0,2.29,1.11,2.24,2.24,0,0,0,1.72-.53,2.94,2.94,0,0,0,1.15-2.18V110.4a2.85,2.85,0,0,0-.58-1.55,2.47,2.47,0,0,0-2.29-1.1,2.24,2.24,0,0,0-1.72.53,2.93,2.93,0,0,0-1.14,2.12Z" fill="#404042"/>
      <path d="M694,119.3h5.27a.7.7,0,0,1,.77.79.72.72,0,0,1-.77.82h-6.06c-.57,0-.81-.24-.81-.82V107c0-.57.24-.81.81-.81s.79.24.79.81Z" fill="#404042"/>
      <path d="M702.26,119.3h5.27a.7.7,0,0,1,.77.79.72.72,0,0,1-.77.82h-6.06c-.58,0-.82-.24-.82-.82V107c0-.57.24-.81.82-.81s.79.24.79.81Z" fill="#404042"/>
      <path d="M710.41,117.49l-.92,2.91c-.09.27-.29.51-.51.51-.75,0-1.08-.31-1.08-.66a1,1,0,0,1,.05-.38L712.09,107c.18-.55.35-.77.88-.77s.71.22.88.77L718,119.87a1.17,1.17,0,0,1,0,.38c0,.35-.33.66-1.08.66-.22,0-.42-.24-.51-.51l-.92-2.91Zm.58-1.61h4l-2-6.06Z" fill="#404042"/>
      <path d="M719.8,120.91c-.57,0-.81-.24-.81-.82V107c0-.57.24-.81.81-.81h4.32a3.31,3.31,0,0,1,3,3.61,3.89,3.89,0,0,1-1.28,2.93,4.15,4.15,0,0,1,1.76,3.82,4,4,0,0,1-3.81,4.34Zm.8-9H724c.88,0,1.57-.77,1.57-2.14s-.6-2-1.57-2H720.6Zm0,7.34H724c1,0,2.12-.77,2.12-2.73a2.87,2.87,0,0,0-.64-2.12,1.75,1.75,0,0,0-1.48-.88H720.6Z" fill="#404042"/>
      <path d="M737.7,116.57a4.48,4.48,0,0,1-9,0v-6.09a4.48,4.48,0,0,1,9,0Zm-7.34.09a2.72,2.72,0,0,0,.57,1.6,2.46,2.46,0,0,0,2.3,1.11,2.21,2.21,0,0,0,1.71-.53,2.9,2.9,0,0,0,1.15-2.18V110.4a2.92,2.92,0,0,0-.57-1.55,2.47,2.47,0,0,0-2.29-1.1,2.23,2.23,0,0,0-1.72.53,2.94,2.94,0,0,0-1.15,2.12Z" fill="#404042"/>
      <path d="M744.07,106.21c2.58,0,4.16,1.65,4.16,4.34a4.63,4.63,0,0,1-1,3.37,3.55,3.55,0,0,1-2.05,1l2.58,4.65a.82.82,0,0,1,.15.57.84.84,0,0,1-.66.73c-.35,0-.64,0-.88-.44l-3-5.45h-2.51v5.07c0,.58-.22.82-.8.82s-.81-.24-.81-.82V107c0-.57.24-.81.81-.81Zm-3.24,1.61v5.6h3.72a1.43,1.43,0,0,0,1.46-.67,3.16,3.16,0,0,0,.61-2.2c0-2-1.16-2.73-2.11-2.73Z" fill="#404042"/>
      <path d="M751.25,117.49l-.92,2.91c-.09.27-.29.51-.51.51-.75,0-1.08-.31-1.08-.66a1.17,1.17,0,0,1,0-.38L752.93,107c.17-.55.35-.77.88-.77s.7.22.88.77l4.14,12.89a1,1,0,0,1,0,.38c0,.35-.33.66-1.08.66-.22,0-.42-.24-.51-.51l-.92-2.91Zm.58-1.61h4l-2-6.06Z" fill="#404042"/>
      <path d="M763.7,107.82v12.27c0,.58-.24.82-.81.82s-.79-.24-.79-.82V107.82h-2.76a.71.71,0,0,1-.77-.8.72.72,0,0,1,.77-.81h7.12a.72.72,0,0,1,.77.81.71.71,0,0,1-.77.8Z" fill="#404042"/>
      <path d="M776.47,116.57a4.48,4.48,0,0,1-9,0v-6.09a4.48,4.48,0,0,1,9,0Zm-7.34.09a2.65,2.65,0,0,0,.57,1.6,2.46,2.46,0,0,0,2.29,1.11,2.23,2.23,0,0,0,1.72-.53,2.9,2.9,0,0,0,1.15-2.18V110.4a2.85,2.85,0,0,0-.58-1.55,2.47,2.47,0,0,0-2.29-1.1,2.24,2.24,0,0,0-1.72.53,2.93,2.93,0,0,0-1.14,2.12Z" fill="#404042"/>
      <path d="M782.83,106.21c2.58,0,4.17,1.65,4.17,4.34a4.68,4.68,0,0,1-1,3.37,3.58,3.58,0,0,1-2,1l2.58,4.65a.88.88,0,0,1,.15.57.86.86,0,0,1-.66.73c-.35,0-.64,0-.88-.44l-3-5.45h-2.52v5.07c0,.58-.22.82-.79.82s-.81-.24-.81-.82V107c0-.57.24-.81.81-.81Zm-3.24,1.61v5.6h3.73a1.41,1.41,0,0,0,1.45-.67,3.12,3.12,0,0,0,.62-2.2c0-2-1.17-2.73-2.11-2.73Z" fill="#404042"/>
    </g>
    <g>
      <path d="M678.72,64.77a4.54,4.54,0,0,1-.25,1.51,2.83,2.83,0,0,1-.69,1.09,2.93,2.93,0,0,1-1.1.64,4.46,4.46,0,0,1-1.47.21l-1.8,0,.06-6.82,2,0a4.06,4.06,0,0,1,1.35.22,3,3,0,0,1,1,.65,2.79,2.79,0,0,1,.65,1A4.29,4.29,0,0,1,678.72,64.77Zm-1.47,0a3.68,3.68,0,0,0-.1-1,2.05,2.05,0,0,0-.33-.68,1.33,1.33,0,0,0-.53-.41,2,2,0,0,0-.72-.14h-.67l0,4.44h.53a1.7,1.7,0,0,0,1.38-.55A2.57,2.57,0,0,0,677.25,64.8Z" fill="#4c5054"/>
      <path d="M685.87,68.31l-1.84,0-2.64-5.18h0c0,.24,0,.48,0,.71l0,.64v.6l0,3.21h-1.3l.06-6.82H682l2.63,5.14h0l0-.7c0-.1,0-.2,0-.31s0-.21,0-.31v-.56l0-3.23h1.3Z" fill="#4c5054"/>
      <path d="M691.34,66.46a1.94,1.94,0,0,1-.16.82,1.71,1.71,0,0,1-.46.63,2.09,2.09,0,0,1-.74.39,3.44,3.44,0,0,1-1,.13,4.33,4.33,0,0,1-1-.11,3.47,3.47,0,0,1-.85-.32V66.66l.45.21.47.19.47.13a3.56,3.56,0,0,0,.47,0,1.64,1.64,0,0,0,.41,0,.87.87,0,0,0,.27-.15.63.63,0,0,0,.16-.23.88.88,0,0,0,0-.29.74.74,0,0,0-.08-.34,1,1,0,0,0-.23-.28,2.12,2.12,0,0,0-.35-.25l-.46-.26-.48-.27a2.66,2.66,0,0,1-.5-.4,2.26,2.26,0,0,1-.39-.58,1.94,1.94,0,0,1-.15-.8,2.14,2.14,0,0,1,.16-.82,1.56,1.56,0,0,1,.44-.6,1.88,1.88,0,0,1,.68-.38,3.09,3.09,0,0,1,.89-.12,2.63,2.63,0,0,1,.49,0,3.73,3.73,0,0,1,.46.09,4.34,4.34,0,0,1,.47.16l.48.21L690.88,63l-.39-.18-.36-.13-.33-.08a1.87,1.87,0,0,0-.34,0,.76.76,0,0,0-.56.19.69.69,0,0,0-.19.52.6.6,0,0,0,0,.3.64.64,0,0,0,.19.25,1.57,1.57,0,0,0,.33.24,4,4,0,0,0,.49.28c.23.13.44.26.64.39a3,3,0,0,1,.5.43,1.64,1.64,0,0,1,.32.54A1.69,1.69,0,0,1,691.34,66.46Z" fill="#4c5054"/>
    </g>
    <g>
      <path d="M677.46,94.54a2.1,2.1,0,0,1-.17.82,1.58,1.58,0,0,1-.46.62,2,2,0,0,1-.74.4,3.41,3.41,0,0,1-1,.13,4.35,4.35,0,0,1-1-.11,3.47,3.47,0,0,1-.85-.32l0-1.34.45.21a3.66,3.66,0,0,0,.46.18,2.75,2.75,0,0,0,.47.13,1.88,1.88,0,0,0,.47,0,1.05,1.05,0,0,0,.41,0,.69.69,0,0,0,.27-.14.6.6,0,0,0,.16-.23.93.93,0,0,0,0-.29.63.63,0,0,0-.08-.34,1.13,1.13,0,0,0-.22-.28,2.8,2.8,0,0,0-.36-.25l-.46-.26-.48-.28a3,3,0,0,1-.5-.39,2,2,0,0,1-.38-.58,1.78,1.78,0,0,1-.16-.8,2.35,2.35,0,0,1,.16-.82A1.67,1.67,0,0,1,674,90a1.88,1.88,0,0,1,.68-.38,2.84,2.84,0,0,1,.9-.12,3.87,3.87,0,0,1,.48,0l.47.1a3.16,3.16,0,0,1,.46.16l.48.2L677,91.12l-.39-.18-.35-.13-.34-.08a1.84,1.84,0,0,0-.33,0,.75.75,0,0,0-.56.19.69.69,0,0,0-.2.51,1,1,0,0,0,0,.31.72.72,0,0,0,.19.25,1.57,1.57,0,0,0,.33.24,5,5,0,0,0,.49.28c.23.13.44.26.64.39a2.63,2.63,0,0,1,.5.43,1.87,1.87,0,0,1,.33.54A2.1,2.1,0,0,1,677.46,94.54Z" fill="#4c5054"/>
      <path d="M681.45,96.47,680,91.1h0c0,.29,0,.57,0,.83s0,.24,0,.36,0,.24,0,.36,0,.23,0,.34v.29l0,3.18h-1.29l.06-6.83,2,0,1.43,5.23h0l1.61-5.2h2l-.06,6.83h-1.35l0-3.23V93c0-.1,0-.21,0-.33s0-.23,0-.35,0-.23,0-.34c0-.26,0-.54,0-.82h0l-1.67,5.33Z" fill="#4c5054"/>
      <path d="M689.93,96.54h-1.45l0-5.62h-1.71V89.69l4.86,0v1.21l-1.71,0Z" fill="#4c5054"/>
      <path d="M697.15,91.91a2.77,2.77,0,0,1-.14.86,1.82,1.82,0,0,1-.45.72,2.27,2.27,0,0,1-.82.49,3.59,3.59,0,0,1-1.26.17h-.33l0,2.43h-1.45l.06-6.83,1.9,0a3.46,3.46,0,0,1,1.13.16,2.2,2.2,0,0,1,.79.42A1.8,1.8,0,0,1,697,91,2.36,2.36,0,0,1,697.15,91.91Zm-3,1.06h.29a1.51,1.51,0,0,0,.92-.24,1,1,0,0,0,.32-.78,1,1,0,0,0-.27-.76,1.39,1.39,0,0,0-.87-.25h-.37Z" fill="#4c5054"/>
    </g>
    <path d="M719.4,43.17a21.91,21.91,0,0,1,0,43.82" fill="#f63" stroke="#f63" stroke-miterlimit="10" stroke-width="2"/>
    <polygon points="731.81 62.59 728.13 62.59 731.81 58.63 731.81 51.72 730.26 51.72 730.26 58.09 724.09 64.14 730.26 64.14 730.26 69.12 733.72 69.06 730.26 72.7 730.26 79.66 731.81 79.66 731.81 73.23 737.41 67.25 731.81 67.25 731.81 62.59" fill="#fff"/>
    <line x1="692.44" y1="65.07" x2="721.09" y2="65.07" fill="none" stroke="#4c5054" stroke-miterlimit="10" stroke-width="2"/>
    <path d="M719.09,87a21.91,21.91,0,0,1,0-43.82Z" fill="none" stroke="#4c5054" stroke-miterlimit="10" stroke-width="2"/>
    <path d="M719.78,87c-6.6,0-11.95-9.81-11.95-21.91s5.35-21.91,11.95-21.91" fill="none" stroke="#4c5054" stroke-miterlimit="10" stroke-width="2"/>
    <path d="M721.09,55.43c-5.85,0-19.09-.35-23.07-13.89" fill="none" stroke="#4c5054" stroke-miterlimit="10" stroke-width="2"/>
    <path d="M719.09,74.2c-5.85,0-19.09.35-23.07,13.89" fill="none" stroke="#4c5054" stroke-miterlimit="10" stroke-width="2"/>
    <g>
      <path d="M683.77,40h-1.44V37.1H680V40h-1.45V33.22H680v2.67h2.32V33.22h1.44Z" fill="#4c5054"/>
      <path d="M688,40h-1.44V34.42h-1.71v-1.2h4.86v1.2H688Z" fill="#4c5054"/>
      <path d="M693.32,40h-1.44V34.42h-1.71v-1.2H695v1.2h-1.71Z" fill="#4c5054"/>
      <path d="M700.51,35.35a2.76,2.76,0,0,1-.13.86,1.82,1.82,0,0,1-.45.72,2.15,2.15,0,0,1-.82.5,3.69,3.69,0,0,1-1.25.19h-.33V40h-1.45V33.22H698a3.77,3.77,0,0,1,1.13.15,1.87,1.87,0,0,1,.79.42,1.61,1.61,0,0,1,.46.66A2.54,2.54,0,0,1,700.51,35.35Zm-3,1.08h.28a1.52,1.52,0,0,0,.93-.24,1.15,1.15,0,0,0,0-1.54,1.33,1.33,0,0,0-.87-.24h-.37Z" fill="#4c5054"/>
    </g>
    <g>
      <g>
        <polygon points="61.39 81.43 36.27 76.55 36.27 38.34 61.39 33.42 61.39 81.43" fill="#404041"/>
        <polygon points="62.56 81.43 87.72 76.55 87.72 38.34 62.56 33.42 62.56 81.43" fill="#f63"/>
        <path d="M74.48,39.21c.87.19,1.28.27,2.15.42v6.6c-2.53,2.48-3.77,3.81-6.3,6.71,2.53.12,3.77.15,6.3.27v6.52c3.47-.12,5.21-.15,8.6-.27a108,108,0,0,0-8.6,9.92v5.14c-.87.19-1.28.27-2.15.42V69c2.53-3.21,3.77-4.73,6.26-7.52-2.52.16-3.77.2-6.3.35V55.08l-8.6-.19a109.5,109.5,0,0,1,8.6-9.65V42.49C74.48,41.2,74.48,40.55,74.48,39.21Z" fill="#fff"/>
      </g>
      <g>
        <path d="M2,120.19c-1,0-1.36-.4-1.36-1.35V97.1c0-.95.4-1.36,1.36-1.36H9.22c2.38,0,5.06,2.13,5.06,6a6.51,6.51,0,0,1-2.13,4.88c1.95,1.58,2.94,3,2.94,6.34,0,4.8-3.45,7.22-6.35,7.22Zm1.32-14.88H9c1.47,0,2.6-1.28,2.6-3.56s-1-3.33-2.6-3.33H3.36Zm0,12.21H9c1.58,0,3.52-1.29,3.52-4.55a4.74,4.74,0,0,0-1.06-3.52A2.91,2.91,0,0,0,9,108H3.36Z" fill="#f63"/>
        <path d="M31.54,113.12a7.31,7.31,0,0,1-14.62,0V97.21a1.48,1.48,0,0,1,1.35-1.58,1.48,1.48,0,0,1,1.32,1.58v16a5,5,0,0,0,1.91,3.52,3.67,3.67,0,0,0,2.71.88,3.78,3.78,0,0,0,2.75-.88,4.92,4.92,0,0,0,1.91-3.52v-16a1.45,1.45,0,0,1,1.32-1.58,1.5,1.5,0,0,1,1.35,1.58Z" fill="#f63"/>
        <path d="M42.13,95.74c4.29,0,6.93,2.75,6.93,7.22,0,2.5-.48,4.37-1.68,5.61A5.9,5.9,0,0,1,44,110.3L48.25,118a1.32,1.32,0,0,1,.26,1,1.41,1.41,0,0,1-1.1,1.21c-.58,0-1.06,0-1.46-.73l-5-9H36.75v8.43c0,1-.37,1.35-1.32,1.35s-1.36-.4-1.36-1.35V97.1c0-.95.4-1.36,1.36-1.36Zm-5.38,2.68v9.31h6.19a2.37,2.37,0,0,0,2.42-1.1,5.24,5.24,0,0,0,1-3.67c0-3.26-2-4.54-3.52-4.54Z" fill="#f63"/>
        <path d="M59.69,95.74c4.29,0,6.93,2.75,6.93,7.22,0,3.49-.92,5.47-3.19,6.71a6.55,6.55,0,0,1-3.63.74H54.3v8.43c0,1-.36,1.35-1.32,1.35s-1.35-.4-1.35-1.35V97.1c0-.95.4-1.36,1.35-1.36ZM54.3,98.42v9.31h6.2a2.39,2.39,0,0,0,2.42-1.1,5.28,5.28,0,0,0,1-3.67c0-3.26-1.94-4.54-3.52-4.54Z" fill="#f63"/>
        <path d="M79.08,109.05A6.07,6.07,0,0,1,82,114.4c0,2.68-2.78,5.94-7.62,5.94a16.82,16.82,0,0,1-3.92-.62c-2.57-.74-3-.55-3-2,0-.44.33-1.14,1.61-1.14.66,0,2.49,1.1,5.21,1.1,3.11,0,5-1.87,5-3.7a3.3,3.3,0,0,0-1.61-2.57l-7.37-4.94a5.72,5.72,0,0,1-2.75-4.66c0-3.7,2.93-6.3,7.15-6.3a5.49,5.49,0,0,1,1.5.14c3.12.85,5,1.29,5,2.72a1.29,1.29,0,0,1-1.47,1.28c-.84,0-2.38-1.47-4.91-1.47-3,0-4.54,1.69-4.54,3.41a3.34,3.34,0,0,0,1.5,2.6Z" fill="#404042"/>
        <path d="M98.36,113.12a7.32,7.32,0,0,1-14.63,0V97.21a1.36,1.36,0,1,1,2.68,0v16a5,5,0,0,0,1.9,3.52,3.71,3.71,0,0,0,2.72.88,3.79,3.79,0,0,0,2.75-.88,4.91,4.91,0,0,0,1.9-3.52v-16A1.46,1.46,0,0,1,97,95.63a1.5,1.5,0,0,1,1.36,1.58Z" fill="#404042"/>
        <path d="M100.89,97.1c0-.95.4-1.36,1.35-1.36s1.32.41,1.32,1.36v21.74c0,1-.37,1.35-1.32,1.35s-1.35-.4-1.35-1.35Z" fill="#404042"/>
        <path d="M113.31,98.42v20.42c0,1-.4,1.35-1.36,1.35s-1.32-.4-1.32-1.35V98.42h-4.58a1.17,1.17,0,0,1-1.28-1.32,1.2,1.2,0,0,1,1.28-1.36h11.84a1.2,1.2,0,0,1,1.29,1.36,1.17,1.17,0,0,1-1.29,1.32Z" fill="#404042"/>
        <path d="M123.06,117.52h8.06a1.17,1.17,0,0,1,1.29,1.32,1.2,1.2,0,0,1-1.29,1.35h-9.38c-.95,0-1.36-.4-1.36-1.35V97.1c0-.95.41-1.36,1.36-1.36h9.38a1.2,1.2,0,0,1,1.29,1.36,1.17,1.17,0,0,1-1.29,1.32h-8.06v7.11h5.72c.8,0,1.24.48,1.24,1.36s-.44,1.32-1.24,1.32h-5.72Z" fill="#404042"/>
      </g>
    </g>
    <polygon points="0.88 216.67 353.61 216.67 353.61 222.45 365 215.88 353.61 209.3 353.61 215.08 0.88 215.08 0.88 216.67" fill="#1d81c4"/>
    <polygon points="0.88 321.67 794.05 321.67 794.05 327.45 805.44 320.88 794.05 314.3 794.05 320.08 0.88 320.08 0.88 321.67" fill="#1d81c4"/>
    <g>
      <rect x="362.3" y="32.64" width="38.84" height="82.55" fill="#159c80" stroke="#159c80" stroke-miterlimit="10" stroke-width="0.5"/>
      <line x1="362.31" y1="59.66" x2="401.15" y2="59.68" fill="none" stroke="#fff" stroke-miterlimit="10" stroke-width="0.5"/>
      <line x1="362.31" y1="68.04" x2="401.15" y2="68.06" fill="none" stroke="#fff" stroke-miterlimit="10" stroke-width="0.5"/>
      <line x1="362.31" y1="51.01" x2="401.16" y2="51.04" fill="none" stroke="#fff" stroke-miterlimit="10" stroke-width="0.5"/>
      <line x1="362.29" y1="94.07" x2="401.13" y2="94.09" fill="none" stroke="#fff" stroke-miterlimit="10" stroke-width="0.5"/>
      <line x1="362.29" y1="102.31" x2="401.13" y2="102.33" fill="none" stroke="#fff" stroke-miterlimit="10" stroke-width="0.5"/>
      <line x1="362.3" y1="76.77" x2="401.14" y2="76.79" fill="none" stroke="#fff" stroke-miterlimit="10" stroke-width="0.5"/>
      <line x1="362.3" y1="85.57" x2="401.14" y2="85.59" fill="none" stroke="#fff" stroke-miterlimit="10" stroke-width="0.5"/>
      <circle cx="366.44" cy="98.5" r="1.18" fill="#fff"/>
      <circle cx="370.79" cy="98.51" r="1.18" fill="#fff"/>
      <circle cx="375.15" cy="98.51" r="1.18" fill="#fff"/>
      <circle cx="379.5" cy="98.51" r="1.18" fill="#fff"/>
      <circle cx="383.85" cy="98.51" r="1.18" fill="#fff"/>
      <circle cx="388.2" cy="98.52" r="1.18" fill="#fff"/>
      <circle cx="392.55" cy="98.52" r="1.18" fill="#fff"/>
      <circle cx="396.9" cy="98.52" r="1.18" fill="#fff"/>
      <circle cx="366.45" cy="89.8" r="1.18" fill="#fff"/>
      <circle cx="370.8" cy="89.8" r="1.18" fill="#fff"/>
      <circle cx="375.15" cy="89.81" r="1.18" fill="#fff"/>
      <circle cx="379.5" cy="89.81" r="1.18" fill="#fff"/>
      <circle cx="383.85" cy="89.81" r="1.18" fill="#fff"/>
      <circle cx="388.21" cy="89.81" r="1.18" fill="#fff"/>
      <circle cx="392.56" cy="89.82" r="1.18" fill="#fff"/>
      <circle cx="396.91" cy="89.82" r="1.18" fill="#fff"/>
      <circle cx="366.45" cy="81.1" r="1.18" fill="#fff"/>
      <circle cx="370.8" cy="81.1" r="1.18" fill="#fff"/>
      <circle cx="375.16" cy="81.1" r="1.18" fill="#fff"/>
      <circle cx="379.51" cy="81.11" r="1.18" fill="#fff"/>
      <circle cx="383.86" cy="81.11" r="1.18" fill="#fff"/>
      <circle cx="388.21" cy="81.11" r="1.18" fill="#fff"/>
      <circle cx="392.56" cy="81.11" r="1.18" fill="#fff"/>
      <circle cx="396.91" cy="81.12" r="1.18" fill="#fff"/>
      <circle cx="366.46" cy="72.4" r="1.18" fill="#fff"/>
      <circle cx="370.81" cy="72.4" r="1.18" fill="#fff"/>
      <circle cx="375.16" cy="72.4" r="1.18" fill="#fff"/>
      <circle cx="379.51" cy="72.4" r="1.18" fill="#fff"/>
      <circle cx="383.86" cy="72.4" r="1.18" fill="#fff"/>
      <circle cx="388.22" cy="72.41" r="1.18" fill="#fff"/>
      <circle cx="392.57" cy="72.41" r="1.18" fill="#fff"/>
      <circle cx="396.92" cy="72.41" r="1.18" fill="#fff"/>
      <circle cx="366.46" cy="63.69" r="1.18" fill="#fff"/>
      <circle cx="370.81" cy="63.69" r="1.18" fill="#fff"/>
      <circle cx="375.17" cy="63.7" r="1.18" fill="#fff"/>
      <circle cx="379.52" cy="63.7" r="1.18" fill="#fff"/>
      <circle cx="383.87" cy="63.7" r="1.18" fill="#fff"/>
      <circle cx="388.22" cy="63.7" r="1.18" fill="#fff"/>
      <circle cx="392.57" cy="63.71" r="1.18" fill="#fff"/>
      <circle cx="396.92" cy="63.71" r="1.18" fill="#fff"/>
      <circle cx="366.47" cy="54.99" r="1.18" fill="#fff"/>
      <circle cx="370.82" cy="54.99" r="1.18" fill="#fff"/>
      <circle cx="375.17" cy="54.99" r="1.18" fill="#fff"/>
      <circle cx="379.52" cy="55" r="1.18" fill="#fff"/>
      <circle cx="383.87" cy="55" r="1.18" fill="#fff"/>
      <circle cx="388.22" cy="55" r="1.18" fill="#fff"/>
      <circle cx="392.58" cy="55" r="1.18" fill="#fff"/>
      <circle cx="396.93" cy="55.01" r="1.18" fill="#fff"/>
      <circle cx="366.47" cy="46.29" r="1.18" fill="#fff"/>
      <circle cx="370.82" cy="46.29" r="1.18" fill="#fff"/>
      <circle cx="375.17" cy="46.29" r="1.18" fill="#fff"/>
      <circle cx="379.53" cy="46.29" r="1.18" fill="#fff"/>
      <circle cx="383.88" cy="46.3" r="1.18" fill="#fff"/>
      <circle cx="388.23" cy="46.3" r="1.18" fill="#fff"/>
      <circle cx="392.58" cy="46.3" r="1.18" fill="#fff"/>
      <circle cx="396.93" cy="46.3" r="1.18" fill="#fff"/>
      <line x1="362.32" y1="41.48" x2="401.16" y2="41.5" fill="none" stroke="#fff" stroke-miterlimit="10" stroke-width="0.5"/>
      <rect x="405" y="32.66" width="38.84" height="82.55" fill="#159c80" stroke="#159c80" stroke-miterlimit="10" stroke-width="0.5"/>
      <line x1="405.01" y1="59.68" x2="443.85" y2="59.7" fill="none" stroke="#fff" stroke-miterlimit="10" stroke-width="0.5"/>
      <line x1="405.01" y1="68.06" x2="443.85" y2="68.09" fill="none" stroke="#fff" stroke-miterlimit="10" stroke-width="0.5"/>
      <line x1="405.02" y1="51.04" x2="443.86" y2="51.06" fill="none" stroke="#fff" stroke-miterlimit="10" stroke-width="0.5"/>
      <line x1="404.99" y1="94.09" x2="443.83" y2="94.12" fill="none" stroke="#fff" stroke-miterlimit="10" stroke-width="0.5"/>
      <line x1="404.99" y1="102.33" x2="443.83" y2="102.36" fill="none" stroke="#fff" stroke-miterlimit="10" stroke-width="0.5"/>
      <line x1="405" y1="76.79" x2="443.84" y2="76.81" fill="none" stroke="#fff" stroke-miterlimit="10" stroke-width="0.5"/>
      <line x1="405" y1="85.6" x2="443.84" y2="85.62" fill="none" stroke="#fff" stroke-miterlimit="10" stroke-width="0.5"/>
      <circle cx="409.14" cy="98.53" r="1.18" fill="#fff"/>
      <circle cx="413.5" cy="98.53" r="1.18" fill="#fff"/>
      <circle cx="417.85" cy="98.53" r="1.18" fill="#fff"/>
      <circle cx="422.2" cy="98.54" r="1.18" fill="#fff"/>
      <circle cx="426.55" cy="98.54" r="1.18" fill="#fff"/>
      <circle cx="430.9" cy="98.54" r="1.18" fill="#fff"/>
      <circle cx="435.25" cy="98.54" r="1.18" fill="#fff"/>
      <circle cx="439.61" cy="98.55" r="1.18" fill="#fff"/>
      <circle cx="409.15" cy="89.83" r="1.18" fill="#fff"/>
      <circle cx="413.5" cy="89.83" r="1.18" fill="#fff"/>
      <circle cx="417.85" cy="89.83" r="1.18" fill="#fff"/>
      <circle cx="422.2" cy="89.83" r="1.18" fill="#fff"/>
      <circle cx="426.56" cy="89.84" r="1.18" fill="#fff"/>
      <circle cx="430.91" cy="89.84" r="1.18" fill="#fff"/>
      <circle cx="435.26" cy="89.84" r="1.18" fill="#fff"/>
      <circle cx="439.61" cy="89.84" r="1.18" fill="#fff"/>
      <circle cx="409.15" cy="81.12" r="1.18" fill="#fff"/>
      <circle cx="413.51" cy="81.12" r="1.18" fill="#fff"/>
      <circle cx="417.86" cy="81.13" r="1.18" fill="#fff"/>
      <circle cx="422.21" cy="81.13" r="1.18" fill="#fff"/>
      <circle cx="426.56" cy="81.13" r="1.18" fill="#fff"/>
      <circle cx="430.91" cy="81.13" r="1.18" fill="#fff"/>
      <circle cx="435.26" cy="81.14" r="1.18" fill="#fff"/>
      <circle cx="439.62" cy="81.14" r="1.18" fill="#fff"/>
      <circle cx="409.16" cy="72.42" r="1.18" fill="#fff"/>
      <circle cx="413.51" cy="72.42" r="1.18" fill="#fff"/>
      <circle cx="417.86" cy="72.42" r="1.18" fill="#fff"/>
      <circle cx="422.21" cy="72.43" r="1.18" fill="#fff"/>
      <circle cx="426.57" cy="72.43" r="1.18" fill="#fff"/>
      <circle cx="430.92" cy="72.43" r="1.18" fill="#fff"/>
      <circle cx="435.27" cy="72.43" r="1.18" fill="#fff"/>
      <circle cx="439.62" cy="72.44" r="1.18" fill="#fff"/>
      <circle cx="409.16" cy="63.72" r="1.18" fill="#fff"/>
      <circle cx="413.52" cy="63.72" r="1.18" fill="#fff"/>
      <circle cx="417.87" cy="63.72" r="1.18" fill="#fff"/>
      <circle cx="422.22" cy="63.72" r="1.18" fill="#fff"/>
      <circle cx="426.57" cy="63.73" r="1.18" fill="#fff"/>
      <circle cx="430.92" cy="63.73" r="1.18" fill="#fff"/>
      <circle cx="435.27" cy="63.73" r="1.18" fill="#fff"/>
      <circle cx="439.63" cy="63.73" r="1.18" fill="#fff"/>
      <circle cx="409.17" cy="55.01" r="1.18" fill="#fff"/>
      <circle cx="413.52" cy="55.01" r="1.18" fill="#fff"/>
      <circle cx="417.87" cy="55.02" r="1.18" fill="#fff"/>
      <circle cx="422.22" cy="55.02" r="1.18" fill="#fff"/>
      <circle cx="426.58" cy="55.02" r="1.18" fill="#fff"/>
      <circle cx="430.93" cy="55.02" r="1.18" fill="#fff"/>
      <circle cx="435.28" cy="55.03" r="1.18" fill="#fff"/>
      <circle cx="439.63" cy="55.03" r="1.18" fill="#fff"/>
      <circle cx="409.17" cy="46.31" r="1.18" fill="#fff"/>
      <circle cx="413.53" cy="46.31" r="1.18" fill="#fff"/>
      <circle cx="417.88" cy="46.31" r="1.18" fill="#fff"/>
      <circle cx="422.23" cy="46.32" r="1.18" fill="#fff"/>
      <circle cx="426.58" cy="46.32" r="1.18" fill="#fff"/>
      <circle cx="430.93" cy="46.32" r="1.18" fill="#fff"/>
      <circle cx="435.28" cy="46.32" r="1.18" fill="#fff"/>
      <circle cx="439.63" cy="46.33" r="1.18" fill="#fff"/>
      <line x1="405.02" y1="41.5" x2="443.86" y2="41.52" fill="none" stroke="#fff" stroke-miterlimit="10" stroke-width="0.5"/>
      <circle cx="449.18" cy="41.57" r="26.68" fill="#479aad"/>
      <path d="M449.34,13.63a27.8,27.8,0,1,0,0,55.59h0a27.8,27.8,0,1,0,0-55.59Zm20,10.54a14.24,14.24,0,0,1-3.82,3.68,19.77,19.77,0,0,1-3.5,1.89A37.43,37.43,0,0,0,457.75,21,36.85,36.85,0,0,0,453,15.24a26.22,26.22,0,0,1,15,7.5C468.49,23.2,468.94,23.68,469.36,24.17ZM450.74,67.82l-.75,0v-17a34.08,34.08,0,0,1,10.76,1.8,35.76,35.76,0,0,1-4.14,8.43A33,33,0,0,1,450.74,67.82ZM437.88,52.61a33,33,0,0,1,10.76-1.79v17l-.74,0A35.6,35.6,0,0,1,437.88,52.61Zm10-37.59.74,0V32a34,34,0,0,1-10.75-1.79A36.05,36.05,0,0,1,442,21.79,32.61,32.61,0,0,1,447.92,15Zm12.85,15.22A34,34,0,0,1,450,32V15l.75,0A35.62,35.62,0,0,1,460.77,30.24ZM450,33.38a34.71,34.71,0,0,0,11.18-1.82,35.44,35.44,0,0,1,1.4,9.19H450Zm-1.36,0v7.36H436.07a35,35,0,0,1,1.41-9.18A34.9,34.9,0,0,0,448.65,33.38Zm-13.94,7.35H422.9a26.21,26.21,0,0,1,5.52-15.49,17.83,17.83,0,0,0,7.79,5.81A36.39,36.39,0,0,0,434.71,40.73Zm0,1.36a36.08,36.08,0,0,0,1.49,9.69,17.88,17.88,0,0,0-7.8,5.8,26.21,26.21,0,0,1-5.5-15.49Zm1.36,0h12.58v7.36a34.62,34.62,0,0,0-11.17,1.83A34.62,34.62,0,0,1,436.07,42.09ZM450,49.46V42.1h12.57a35.1,35.1,0,0,1-1.4,9.19A34.66,34.66,0,0,0,450,49.46ZM464,42.11h11.81a26.25,26.25,0,0,1-5.52,15.48,18.05,18.05,0,0,0-7.79-5.81A36.39,36.39,0,0,0,464,42.11Zm0-1.36a36.41,36.41,0,0,0-1.49-9.68,18,18,0,0,0,7.8-5.8,26.19,26.19,0,0,1,5.5,15.49Zm-33.31-18a26.25,26.25,0,0,1,15-7.48A36.2,36.2,0,0,0,440.93,21a37.42,37.42,0,0,0-4.3,8.74,20.67,20.67,0,0,1-3.49-1.89,14.06,14.06,0,0,1-3.82-3.7C429.74,23.65,430.18,23.18,430.64,22.72Zm-1.34,36a16.48,16.48,0,0,1,7.32-5.58,37,37,0,0,0,4.29,8.74,36.42,36.42,0,0,0,4.72,5.76,26.33,26.33,0,0,1-15-7.49C430.16,59.64,429.72,59.17,429.3,58.68ZM468,60.13a26.25,26.25,0,0,1-15,7.48,38,38,0,0,0,4.73-5.76,37.41,37.41,0,0,0,4.3-8.74,20.4,20.4,0,0,1,3.49,1.9,14.23,14.23,0,0,1,3.82,3.69C468.92,59.19,468.47,59.67,468,60.13Z" fill="#fff"/>
    </g>
    <polygon points="437 270.79 795.11 270.79 795.11 276.58 806.5 270 795.11 263.42 795.11 269.21 437 269.21 437 270.79" fill="#1d81c4"/>
    <polygon points="806.5 371.08 12.27 371.08 12.27 365.3 0.88 371.88 12.27 378.45 12.27 372.67 806.5 372.67 806.5 371.08" fill="#1d81c4"/>
    <path d="M.83,393.12v39.59c0,.09,0,.25.1.21h29.8v5.78l11.39-6.58-11.39-6.57v5.78H2.5c-.12,0-.07-.09-.08-.16V393.12Z" fill="#ff774a"/>
    <text transform="translate(0.63 187.57)" font-size="14" fill="#0071bc" font-family="Courier, Courier">?param=http://f268dgd9fje...<tspan x="0" y="16.8">...few9.burpcollaborator.net/</tspan></text>
    <text transform="translate(437.63 242.57)" font-size="14" fill="#0071bc" font-family="Courier, Courier">GET http://f268dgd9fje...<tspan x="0" y="16.8">...few9.burpcollaborator.net/</tspan></text>
    <text transform="translate(55.61 435.52)" font-size="13" fill="#4c5054" font-family="Verdana, Verdana"><tspan letter-spacing="-0.02em">R</tspan><tspan x="8.72" y="0">eport external service inte</tspan><tspan x="180.79" y="0" letter-spacing="-0.02em">r</tspan><tspan x="186.11" y="0">action</tspan></text>
    <text transform="translate(362.1 132.57)" font-size="13" fill="#159c80" font-family="Verdana-Bold, Verdana" font-weight="700">Application</text>
    <rect x="247.5" y="307.5" width="310" height="26" fill="#fff" stroke="#0071bc" stroke-miterlimit="10"/>
    <text transform="translate(261.93 322.76)" font-size="12" fill="#0071bc" font-family="Verdana, Verdana">Did <tspan x="24.23" y="0" letter-spacing="-0.01em">y</tspan><tspan x="31.23" y="0">ou recei</tspan><tspan x="79.29" y="0" letter-spacing="-0.01em">v</tspan><tspan x="86.29" y="0">e an inte</tspan><tspan x="139.44" y="0" letter-spacing="-0.02em">r</tspan><tspan x="144.35" y="0">action for </tspan><tspan x="205.76" y="0" letter-spacing="-0.01em">m</tspan><tspan x="217.32" y="0">y p</tspan><tspan x="236.12" y="0" letter-spacing="-0.01em">a</tspan><tspan x="243.23" y="0">yload?</tspan></text>
    <rect x="380.5" y="358.5" width="44" height="26" fill="#fff" stroke="#0071bc" stroke-miterlimit="10"/>
    <text transform="translate(392.8 375.76)" font-size="12" fill="#0071bc" font-family="Verdana, Verdana"><tspan letter-spacing="-0.06em">Y</tspan><tspan x="6.62" y="0">es</tspan></text>
  </g>
</svg>
