<svg xmlns="http://www.w3.org/2000/svg" width="807" height="390" viewBox="0 0 807 390">
  <title>collaborator-1</title>
  <g>
    <g>
      <g>
        <polygon points="64.85 90.8 39.72 85.92 39.72 47.71 64.85 42.79 64.85 90.8" fill="#404041"/>
        <polygon points="66.02 90.8 91.18 85.92 91.18 47.71 66.02 42.79 66.02 90.8" fill="#f63"/>
        <path d="M77.94,48.59c.87.19,1.28.27,2.15.42V55.6c-2.53,2.48-3.77,3.82-6.3,6.72l6.3.26V69.1l8.6-.26a105.09,105.09,0,0,0-8.6,9.91V83.9c-.87.19-1.28.27-2.15.42v-6c2.53-3.2,3.77-4.73,6.26-7.51-2.53.15-3.77.19-6.3.34V64.45l-8.6-.19a110.94,110.94,0,0,1,8.6-9.65V51.87C77.94,50.57,77.94,49.92,77.94,48.59Z" fill="#fff"/>
      </g>
      <g>
        <path d="M1.49,129.57c-.95,0-1.35-.41-1.35-1.36V106.47c0-1,.4-1.35,1.35-1.35H8.68c2.38,0,5.06,2.12,5.06,6A6.5,6.5,0,0,1,11.61,116c1.94,1.58,2.93,3,2.93,6.35,0,4.8-3.44,7.22-6.34,7.22Zm1.32-14.88H8.46c1.46,0,2.6-1.29,2.6-3.56s-1-3.34-2.6-3.34H2.81Zm0,12.2H8.46c1.57,0,3.52-1.28,3.52-4.54a4.69,4.69,0,0,0-1.07-3.52,2.87,2.87,0,0,0-2.45-1.47H2.81Z" fill="#f63"/>
        <path d="M31,122.49a7.32,7.32,0,0,1-14.63,0V106.58A1.48,1.48,0,0,1,17.73,105a1.47,1.47,0,0,1,1.32,1.57v16A4.92,4.92,0,0,0,21,126.12a3.63,3.63,0,0,0,2.71.88,3.75,3.75,0,0,0,2.75-.88,4.89,4.89,0,0,0,1.9-3.52v-16A1.45,1.45,0,0,1,29.64,105,1.5,1.5,0,0,1,31,106.58Z" fill="#f63"/>
        <path d="M41.59,105.12c4.29,0,6.93,2.75,6.93,7.22,0,2.49-.48,4.36-1.69,5.61a5.85,5.85,0,0,1-3.41,1.72l4.29,7.73a1.38,1.38,0,0,1-.84,2.17c-.59,0-1.06,0-1.47-.74l-5-9.05H36.2v8.43c0,.95-.36,1.36-1.32,1.36s-1.35-.41-1.35-1.36V106.47c0-1,.4-1.35,1.35-1.35Zm-5.39,2.67v9.31h6.2a2.39,2.39,0,0,0,2.42-1.1,5.24,5.24,0,0,0,1-3.66c0-3.26-1.94-4.55-3.52-4.55Z" fill="#f63"/>
        <path d="M59.15,105.12c4.29,0,6.92,2.75,6.92,7.22,0,3.48-.91,5.46-3.18,6.71a6.65,6.65,0,0,1-3.63.73h-5.5v8.43c0,.95-.37,1.36-1.32,1.36s-1.36-.41-1.36-1.36V106.47c0-1,.41-1.35,1.36-1.35Zm-5.39,2.67v9.31H60a2.37,2.37,0,0,0,2.42-1.1,5.2,5.2,0,0,0,1-3.66c0-3.26-1.94-4.55-3.52-4.55Z" fill="#f63"/>
        <path d="M78.54,118.42a6.08,6.08,0,0,1,2.89,5.36c0,2.67-2.78,5.93-7.62,5.93a16.74,16.74,0,0,1-3.92-.62c-2.57-.73-3-.55-3-2,0-.44.33-1.13,1.61-1.13.66,0,2.49,1.1,5.2,1.1,3.12,0,5-1.87,5-3.7a3.27,3.27,0,0,0-1.62-2.57l-7.36-5A5.66,5.66,0,0,1,67,111.17c0-3.71,2.93-6.31,7.14-6.31a5.17,5.17,0,0,1,1.51.15c3.11.84,4.95,1.28,4.95,2.71A1.29,1.29,0,0,1,79.16,109c-.84,0-2.38-1.46-4.91-1.46-3,0-4.55,1.68-4.55,3.41a3.37,3.37,0,0,0,1.51,2.6Z" fill="#404042"/>
        <path d="M97.81,122.49a7.31,7.31,0,0,1-14.62,0V106.58a1.36,1.36,0,1,1,2.68,0v16a4.94,4.94,0,0,0,1.9,3.52,3.66,3.66,0,0,0,2.71.88,3.72,3.72,0,0,0,2.75-.88,4.87,4.87,0,0,0,1.91-3.52v-16A1.45,1.45,0,0,1,96.46,105a1.49,1.49,0,0,1,1.35,1.57Z" fill="#404042"/>
        <path d="M100.34,106.47c0-1,.41-1.35,1.36-1.35s1.32.4,1.32,1.35v21.74c0,.95-.37,1.36-1.32,1.36s-1.36-.41-1.36-1.36Z" fill="#404042"/>
        <path d="M112.77,107.79v20.42c0,.95-.41,1.36-1.36,1.36s-1.32-.41-1.32-1.36V107.79h-4.58a1.17,1.17,0,0,1-1.28-1.32,1.19,1.19,0,0,1,1.28-1.35h11.84a1.19,1.19,0,0,1,1.28,1.35,1.17,1.17,0,0,1-1.28,1.32Z" fill="#404042"/>
        <path d="M122.52,126.89h8.06a1.17,1.17,0,0,1,1.28,1.32,1.2,1.2,0,0,1-1.28,1.36H121.2c-1,0-1.36-.41-1.36-1.36V106.47c0-1,.4-1.35,1.36-1.35h9.38a1.19,1.19,0,0,1,1.28,1.35,1.17,1.17,0,0,1-1.28,1.32h-8.06v7.12h5.71c.81,0,1.25.47,1.25,1.35s-.44,1.32-1.25,1.32h-5.71Z" fill="#404042"/>
      </g>
    </g>
    <polygon points="136.5 81.04 659.61 81.04 659.61 86.83 671 80.25 659.61 73.67 659.61 79.46 136.5 79.46 136.5 81.04" fill="#1d81c4"/>
    <polygon points="327.95 323.85 75.31 148.35 78.61 143.6 65.5 142.5 71.1 154.4 74.4 149.65 327.05 325.15 327.95 323.85" fill="#1d81c4"/>
    <rect x="352.06" y="56.99" width="101" height="47" fill="#fff" stroke="#0071bc" stroke-miterlimit="10"/>
    <text transform="translate(366.24 75.63)" font-size="12" fill="#0071bc" font-family="Verdana, Verdana">Ou<tspan x="17.04" y="0" letter-spacing="-0.02em">t</tspan><tspan x="21.53" y="0">-o</tspan><tspan x="34.27" y="0" letter-spacing="-0.02em">f</tspan><tspan x="38.19" y="0">-band </tspan><tspan x="10.1" y="14.4">p</tspan><tspan x="17.57" y="14.4" letter-spacing="-0.01em">a</tspan><tspan x="24.69" y="14.4">yloads</tspan></text>
    <rect x="142.5" y="209.5" width="100" height="45" fill="#fff" stroke="#0071bc" stroke-miterlimit="10"/>
    <text transform="translate(161.32 226.62)" font-size="12" fill="#0071bc" font-family="Verdana, Verdana">Monitor &amp; <tspan x="8.4" y="14.4">control</tspan></text>
    <g>
      <path d="M324.44,366.53c-.57,0-.82-.24-.82-.81V352.65c0-.57.25-.82.82-.82h4.32c1.43,0,3,1.28,3,3.62a3.92,3.92,0,0,1-1.28,2.93,4.14,4.14,0,0,1,1.77,3.81,4,4,0,0,1-3.82,4.34Zm.79-8.94h3.4c.88,0,1.56-.78,1.56-2.14s-.59-2-1.56-2h-3.4Zm0,7.34h3.4c.95,0,2.11-.78,2.11-2.74a2.81,2.81,0,0,0-.64-2.11,1.71,1.71,0,0,0-1.47-.89h-3.4Z" fill="#ea5c2c"/>
      <path d="M342.18,362.28a4.4,4.4,0,0,1-8.79,0v-9.57a.81.81,0,1,1,1.61,0v9.64a3,3,0,0,0,1.14,2.11,2.19,2.19,0,0,0,1.63.53,2.25,2.25,0,0,0,1.66-.53,2.92,2.92,0,0,0,1.14-2.11v-9.64a.87.87,0,0,1,.8-.94.9.9,0,0,1,.81.94Z" fill="#ea5c2c"/>
      <path d="M348.55,351.83c2.58,0,4.17,1.66,4.17,4.35a4.65,4.65,0,0,1-1,3.37,3.45,3.45,0,0,1-2.05,1l2.58,4.65a.82.82,0,0,1-.51,1.3c-.35,0-.63,0-.88-.44l-3-5.44h-2.51v5.07c0,.57-.22.81-.79.81s-.82-.24-.82-.81V352.65c0-.57.24-.82.82-.82Zm-3.24,1.61V359H349a1.43,1.43,0,0,0,1.45-.66,3.14,3.14,0,0,0,.62-2.2c0-2-1.17-2.74-2.12-2.74Z" fill="#ea5c2c"/>
      <path d="M359.11,351.83c2.58,0,4.16,1.66,4.16,4.35,0,2.09-.55,3.28-1.91,4a4,4,0,0,1-2.19.44h-3.3v5.07c0,.57-.22.81-.8.81s-.81-.24-.81-.81V352.65c0-.57.24-.82.81-.82Zm-3.24,1.61V359h3.72a1.44,1.44,0,0,0,1.46-.66,3.18,3.18,0,0,0,.61-2.2c0-2-1.16-2.74-2.11-2.74Z" fill="#ea5c2c"/>
      <path d="M370.24,364.93a.7.7,0,0,1,.77.79.72.72,0,0,1-.77.81h-2.65a4,4,0,0,1-3.81-4.34v-6a4,4,0,0,1,3.81-4.35h2.65a.72.72,0,0,1,.77.82.69.69,0,0,1-.77.79H368a2.27,2.27,0,0,0-1.48.38,3,3,0,0,0-1.12,2.29v6.17a2.89,2.89,0,0,0,1.12,2.27,2.3,2.3,0,0,0,1.48.38Z" fill="#404042"/>
      <path d="M380.59,362.19a4.47,4.47,0,0,1-8.94,0v-6.08a4.47,4.47,0,0,1,8.94,0Zm-7.33.09a2.68,2.68,0,0,0,.57,1.61,2.45,2.45,0,0,0,2.29,1.1,2.24,2.24,0,0,0,1.72-.53,2.94,2.94,0,0,0,1.15-2.18V356a2.84,2.84,0,0,0-.58-1.54,2.45,2.45,0,0,0-2.29-1.1,2.22,2.22,0,0,0-1.72.52,2.94,2.94,0,0,0-1.14,2.12Z" fill="#404042"/>
      <path d="M383.72,364.93H389a.7.7,0,0,1,.77.79.71.71,0,0,1-.77.81h-6.06c-.57,0-.81-.24-.81-.81V352.65c0-.57.24-.82.81-.82s.79.25.79.82Z" fill="#404042"/>
      <path d="M392,364.93h5.27a.7.7,0,0,1,.77.79.72.72,0,0,1-.77.81h-6.06c-.58,0-.82-.24-.82-.81V352.65c0-.57.24-.82.82-.82s.79.25.79.82Z" fill="#404042"/>
      <path d="M400.16,363.12l-.92,2.91c-.09.26-.29.5-.51.5-.75,0-1.08-.3-1.08-.66a.9.9,0,0,1,.05-.37l4.14-12.9c.18-.55.35-.77.88-.77s.71.22.88.77l4.15,12.9a1.11,1.11,0,0,1,0,.37c0,.36-.33.66-1.08.66-.22,0-.42-.24-.51-.5l-.92-2.91Zm.58-1.61h4l-2-6.06Z" fill="#404042"/>
      <path d="M409.55,366.53c-.57,0-.81-.24-.81-.81V352.65c0-.57.24-.82.81-.82h4.32a3.31,3.31,0,0,1,3.05,3.62,3.92,3.92,0,0,1-1.28,2.93,4.13,4.13,0,0,1,1.76,3.81,4,4,0,0,1-3.81,4.34Zm.8-8.94h3.39c.88,0,1.57-.78,1.57-2.14s-.6-2-1.57-2h-3.39Zm0,7.34h3.39c.95,0,2.12-.78,2.12-2.74a2.85,2.85,0,0,0-.64-2.11,1.74,1.74,0,0,0-1.48-.89h-3.39Z" fill="#404042"/>
      <path d="M427.45,362.19a4.48,4.48,0,0,1-8.95,0v-6.08a4.48,4.48,0,0,1,8.95,0Zm-7.34.09a2.75,2.75,0,0,0,.57,1.61A2.45,2.45,0,0,0,423,365a2.21,2.21,0,0,0,1.71-.53,2.9,2.9,0,0,0,1.15-2.18V356a2.91,2.91,0,0,0-.57-1.54,2.45,2.45,0,0,0-2.29-1.1,2.21,2.21,0,0,0-1.72.52,3,3,0,0,0-1.15,2.12Z" fill="#404042"/>
      <path d="M433.82,351.83c2.58,0,4.16,1.66,4.16,4.35a4.65,4.65,0,0,1-1,3.37,3.48,3.48,0,0,1-2.05,1l2.58,4.65a.85.85,0,0,1,.15.58.83.83,0,0,1-.66.72c-.35,0-.64,0-.88-.44l-3-5.44h-2.51v5.07c0,.57-.22.81-.8.81s-.81-.24-.81-.81V352.65c0-.57.24-.82.81-.82Zm-3.24,1.61V359h3.72a1.44,1.44,0,0,0,1.46-.66,3.18,3.18,0,0,0,.61-2.2c0-2-1.16-2.74-2.11-2.74Z" fill="#404042"/>
      <path d="M441,363.12l-.92,2.91c-.09.26-.29.5-.51.5-.75,0-1.08-.3-1.08-.66a1.11,1.11,0,0,1,0-.37l4.15-12.9c.17-.55.35-.77.88-.77s.7.22.88.77l4.14,12.9a.9.9,0,0,1,.05.37c0,.36-.33.66-1.08.66-.22,0-.42-.24-.51-.5l-.92-2.91Zm.58-1.61h4l-2-6.06Z" fill="#404042"/>
      <path d="M453.45,353.44v12.28c0,.57-.24.81-.81.81s-.79-.24-.79-.81V353.44h-2.76a.7.7,0,0,1-.77-.79.72.72,0,0,1,.77-.82h7.12a.72.72,0,0,1,.77.82.7.7,0,0,1-.77.79Z" fill="#404042"/>
      <path d="M466.22,362.19a4.48,4.48,0,0,1-9,0v-6.08a4.48,4.48,0,0,1,9,0Zm-7.34.09a2.68,2.68,0,0,0,.57,1.61,2.45,2.45,0,0,0,2.29,1.1,2.23,2.23,0,0,0,1.72-.53,2.9,2.9,0,0,0,1.15-2.18V356a2.84,2.84,0,0,0-.58-1.54,2.45,2.45,0,0,0-2.29-1.1,2.22,2.22,0,0,0-1.72.52,2.94,2.94,0,0,0-1.14,2.12Z" fill="#404042"/>
      <path d="M472.58,351.83c2.58,0,4.17,1.66,4.17,4.35a4.69,4.69,0,0,1-1,3.37,3.51,3.51,0,0,1-2.05,1l2.58,4.65a.91.91,0,0,1,.15.58.84.84,0,0,1-.66.72c-.35,0-.64,0-.88-.44l-3-5.44h-2.52v5.07c0,.57-.22.81-.79.81s-.81-.24-.81-.81V352.65c0-.57.24-.82.81-.82Zm-3.24,1.61V359h3.73a1.42,1.42,0,0,0,1.45-.66,3.14,3.14,0,0,0,.62-2.2c0-2-1.17-2.74-2.11-2.74Z" fill="#404042"/>
    </g>
    <g>
      <path d="M348.47,310.4a4.59,4.59,0,0,1-.25,1.51,2.87,2.87,0,0,1-.69,1.08,2.82,2.82,0,0,1-1.1.65,4.47,4.47,0,0,1-1.47.2h-1.8l.06-6.82h2a4.06,4.06,0,0,1,1.35.23,2.67,2.67,0,0,1,1.68,1.7A4.29,4.29,0,0,1,348.47,310.4Zm-1.47,0a3.56,3.56,0,0,0-.1-1,2,2,0,0,0-.33-.69,1.23,1.23,0,0,0-.53-.4,1.81,1.81,0,0,0-.72-.14h-.67l0,4.45h.53a1.67,1.67,0,0,0,1.38-.55A2.57,2.57,0,0,0,347,310.42Z" fill="#4c5054"/>
      <path d="M355.62,313.94l-1.84,0-2.64-5.19h0c0,.24,0,.48,0,.72s0,.41,0,.64v.6l0,3.21h-1.3l.06-6.83,1.83,0,2.63,5.13h0l0-.7c0-.1,0-.2,0-.3s0-.21,0-.32v-.56l0-3.23h1.3Z" fill="#4c5054"/>
      <path d="M361.09,312.09a2,2,0,0,1-.16.82,1.76,1.76,0,0,1-.46.62,2.09,2.09,0,0,1-.74.39,3.42,3.42,0,0,1-1,.14,4.34,4.34,0,0,1-1-.12,3.45,3.45,0,0,1-.85-.31v-1.34l.45.21c.16.06.31.13.47.18a3.62,3.62,0,0,0,.47.13,2.42,2.42,0,0,0,.47.05,1.28,1.28,0,0,0,.41-.05.59.59,0,0,0,.27-.15.69.69,0,0,0,.16-.22.93.93,0,0,0,.05-.29.71.71,0,0,0-.08-.34,1,1,0,0,0-.23-.28,1.66,1.66,0,0,0-.35-.25c-.14-.09-.29-.17-.46-.26l-.48-.28a2.66,2.66,0,0,1-.5-.4,2.39,2.39,0,0,1-.39-.57,1.94,1.94,0,0,1-.15-.8,2.1,2.1,0,0,1,.16-.82,1.68,1.68,0,0,1,.44-.61,1.86,1.86,0,0,1,.68-.37,2.77,2.77,0,0,1,.89-.13l.49,0a3.78,3.78,0,0,1,.46.1,4.26,4.26,0,0,1,.47.15l.48.21-.48,1.12-.39-.17a1.74,1.74,0,0,0-.36-.13,1.32,1.32,0,0,0-.33-.08,1.87,1.87,0,0,0-.34,0,.76.76,0,0,0-.56.19.69.69,0,0,0-.19.51.62.62,0,0,0,.05.31.72.72,0,0,0,.19.25,1.57,1.57,0,0,0,.33.24l.49.28c.23.13.44.25.64.39a2.63,2.63,0,0,1,.5.43,1.64,1.64,0,0,1,.32.54A1.69,1.69,0,0,1,361.09,312.09Z" fill="#4c5054"/>
    </g>
    <g>
      <path d="M367.21,340.17a2.18,2.18,0,0,1-.17.82,1.65,1.65,0,0,1-.46.62,2.09,2.09,0,0,1-.74.39,3.11,3.11,0,0,1-1,.13,4.35,4.35,0,0,1-1-.11,3.45,3.45,0,0,1-.85-.31l0-1.35a4.71,4.71,0,0,0,.45.22l.46.18a4.12,4.12,0,0,0,.47.13,2.5,2.5,0,0,0,.47.05,1.64,1.64,0,0,0,.41-.05.7.7,0,0,0,.27-.15.57.57,0,0,0,.16-.22.94.94,0,0,0,.05-.3.66.66,0,0,0-.08-.34,1.09,1.09,0,0,0-.22-.27,2.8,2.8,0,0,0-.36-.26l-.46-.26-.48-.27a3,3,0,0,1-.5-.4,2.1,2.1,0,0,1-.38-.57,1.81,1.81,0,0,1-.16-.8,2.3,2.3,0,0,1,.16-.82,1.8,1.8,0,0,1,.44-.61,1.86,1.86,0,0,1,.68-.37,2.84,2.84,0,0,1,.9-.13,3.88,3.88,0,0,1,.48,0,2.63,2.63,0,0,1,.47.1l.46.15.48.21-.48,1.12-.39-.18-.35-.12a1.51,1.51,0,0,0-.34-.08,1.84,1.84,0,0,0-.33,0,.71.71,0,0,0-.56.19.68.68,0,0,0-.2.51,1,1,0,0,0,.05.31.72.72,0,0,0,.19.25,1.57,1.57,0,0,0,.33.24l.49.28c.23.12.44.25.64.38a2.67,2.67,0,0,1,.5.44,1.82,1.82,0,0,1,.33.53A2.16,2.16,0,0,1,367.21,340.17Z" fill="#4c5054"/>
      <path d="M371.2,342.1l-1.45-5.37h0c0,.28,0,.56,0,.83,0,.11,0,.23,0,.35s0,.25,0,.36,0,.24,0,.34v.3l0,3.17h-1.29l.06-6.82h2l1.43,5.24h0l1.61-5.21,2,0-.06,6.82h-1.35l0-3.23v-.28c0-.1,0-.21,0-.32s0-.23,0-.35,0-.24,0-.35,0-.53,0-.81h0l-1.67,5.33Z" fill="#4c5054"/>
      <path d="M379.68,342.17h-1.45l0-5.62-1.71,0v-1.2l4.86,0v1.2h-1.71Z" fill="#4c5054"/>
      <path d="M386.9,337.53a2.72,2.72,0,0,1-.14.86,1.82,1.82,0,0,1-.45.72,2.13,2.13,0,0,1-.82.49,3.82,3.82,0,0,1-1.26.18h-.33l0,2.42h-1.45l.06-6.82h1.9a4.1,4.1,0,0,1,1.13.16,2.07,2.07,0,0,1,.79.43,1.65,1.65,0,0,1,.45.67A2.28,2.28,0,0,1,386.9,337.53Zm-3,1.06h.29a1.44,1.44,0,0,0,.92-.23,1.15,1.15,0,0,0,.05-1.54,1.33,1.33,0,0,0-.87-.25h-.37Z" fill="#4c5054"/>
    </g>
    <path d="M409.15,288.8a21.91,21.91,0,1,1,0,43.81" fill="#f63" stroke="#f63" stroke-miterlimit="10" stroke-width="2"/>
    <polygon points="419.56 308.21 415.88 308.21 419.56 304.25 419.56 297.35 418.01 297.35 418.01 303.71 411.84 309.77 418.01 309.77 418.01 314.75 421.47 314.68 418.01 318.32 418.01 325.29 419.56 325.29 419.56 318.86 425.16 312.87 419.56 312.87 419.56 308.21" fill="#fff"/>
    <line x1="380.19" y1="310.7" x2="408.84" y2="310.7" fill="none" stroke="#4c5054" stroke-miterlimit="10" stroke-width="2"/>
    <path d="M408.84,332.61a21.91,21.91,0,1,1,0-43.81Z" fill="none" stroke="#4c5054" stroke-miterlimit="10" stroke-width="2"/>
    <path d="M409.53,332.61c-6.6,0-11.95-9.81-11.95-21.9s5.35-21.91,11.95-21.91" fill="none" stroke="#4c5054" stroke-miterlimit="10" stroke-width="2"/>
    <path d="M408.84,301.06c-5.85,0-19.09-.35-23.07-13.89" fill="none" stroke="#4c5054" stroke-miterlimit="10" stroke-width="2"/>
    <path d="M408.84,319.83c-5.85,0-19.09.35-23.07,13.89" fill="none" stroke="#4c5054" stroke-miterlimit="10" stroke-width="2"/>
    <g>
      <path d="M371.52,285.67h-1.44v-2.95h-2.32v2.95h-1.45v-6.83h1.45v2.68h2.32v-2.68h1.44Z" fill="#4c5054"/>
      <path d="M375.73,285.67h-1.44v-5.62h-1.71v-1.21h4.86v1.21h-1.71Z" fill="#4c5054"/>
      <path d="M381.07,285.67h-1.44v-5.62h-1.71v-1.21h4.86v1.21h-1.71Z" fill="#4c5054"/>
      <path d="M388.26,281a2.71,2.71,0,0,1-.13.86,1.79,1.79,0,0,1-.45.73,2.27,2.27,0,0,1-.82.49,3.46,3.46,0,0,1-1.25.19h-.33v2.43h-1.45v-6.83h1.9a3.77,3.77,0,0,1,1.13.15,2.12,2.12,0,0,1,.79.42,1.64,1.64,0,0,1,.46.67A2.48,2.48,0,0,1,388.26,281Zm-3,1.09h.28a1.52,1.52,0,0,0,.93-.25,1,1,0,0,0,.31-.79,1,1,0,0,0-.28-.75,1.33,1.33,0,0,0-.87-.24h-.37Z" fill="#4c5054"/>
    </g>
    <g>
      <rect x="691.05" y="35.27" width="38.84" height="82.55" fill="#159c80" stroke="#159c80" stroke-miterlimit="10" stroke-width="0.5"/>
      <line x1="691.06" y1="62.28" x2="729.9" y2="62.3" fill="none" stroke="#fff" stroke-miterlimit="10" stroke-width="0.5"/>
      <line x1="691.06" y1="70.67" x2="729.9" y2="70.69" fill="none" stroke="#fff" stroke-miterlimit="10" stroke-width="0.5"/>
      <line x1="691.06" y1="53.64" x2="729.91" y2="53.66" fill="none" stroke="#fff" stroke-miterlimit="10" stroke-width="0.5"/>
      <line x1="691.04" y1="96.69" x2="729.88" y2="96.72" fill="none" stroke="#fff" stroke-miterlimit="10" stroke-width="0.5"/>
      <line x1="691.04" y1="104.94" x2="729.88" y2="104.96" fill="none" stroke="#fff" stroke-miterlimit="10" stroke-width="0.5"/>
      <line x1="691.05" y1="79.39" x2="729.89" y2="79.41" fill="none" stroke="#fff" stroke-miterlimit="10" stroke-width="0.5"/>
      <line x1="691.05" y1="88.2" x2="729.89" y2="88.22" fill="none" stroke="#fff" stroke-miterlimit="10" stroke-width="0.5"/>
      <circle cx="695.19" cy="101.13" r="1.18" fill="#fff"/>
      <circle cx="699.54" cy="101.13" r="1.18" fill="#fff"/>
      <circle cx="703.9" cy="101.13" r="1.18" fill="#fff"/>
      <circle cx="708.25" cy="101.14" r="1.18" fill="#fff"/>
      <circle cx="712.6" cy="101.14" r="1.18" fill="#fff"/>
      <circle cx="716.95" cy="101.14" r="1.18" fill="#fff"/>
      <circle cx="721.3" cy="101.14" r="1.18" fill="#fff"/>
      <circle cx="725.65" cy="101.15" r="1.18" fill="#fff"/>
      <circle cx="695.2" cy="92.43" r="1.18" fill="#fff"/>
      <circle cx="699.55" cy="92.43" r="1.18" fill="#fff"/>
      <circle cx="703.9" cy="92.43" r="1.18" fill="#fff"/>
      <circle cx="708.25" cy="92.43" r="1.18" fill="#fff"/>
      <circle cx="712.6" cy="92.44" r="1.18" fill="#fff"/>
      <circle cx="716.96" cy="92.44" r="1.18" fill="#fff"/>
      <circle cx="721.31" cy="92.44" r="1.18" fill="#fff"/>
      <circle cx="725.66" cy="92.44" r="1.18" fill="#fff"/>
      <circle cx="695.2" cy="83.72" r="1.18" fill="#fff"/>
      <circle cx="699.55" cy="83.73" r="1.18" fill="#fff"/>
      <circle cx="703.91" cy="83.73" r="1.18" fill="#fff"/>
      <circle cx="708.26" cy="83.73" r="1.18" fill="#fff"/>
      <circle cx="712.61" cy="83.73" r="1.18" fill="#fff"/>
      <circle cx="716.96" cy="83.74" r="1.18" fill="#fff"/>
      <circle cx="721.31" cy="83.74" r="1.18" fill="#fff"/>
      <circle cx="725.66" cy="83.74" r="1.18" fill="#fff"/>
      <circle cx="695.21" cy="75.02" r="1.18" fill="#fff"/>
      <circle cx="699.56" cy="75.02" r="1.18" fill="#fff"/>
      <circle cx="703.91" cy="75.02" r="1.18" fill="#fff"/>
      <circle cx="708.26" cy="75.03" r="1.18" fill="#fff"/>
      <circle cx="712.61" cy="75.03" r="1.18" fill="#fff"/>
      <circle cx="716.97" cy="75.03" r="1.18" fill="#fff"/>
      <circle cx="721.32" cy="75.03" r="1.18" fill="#fff"/>
      <circle cx="725.67" cy="75.04" r="1.18" fill="#fff"/>
      <circle cx="695.21" cy="66.32" r="1.18" fill="#fff"/>
      <circle cx="699.56" cy="66.32" r="1.18" fill="#fff"/>
      <circle cx="703.92" cy="66.32" r="1.18" fill="#fff"/>
      <circle cx="708.27" cy="66.32" r="1.18" fill="#fff"/>
      <circle cx="712.62" cy="66.33" r="1.18" fill="#fff"/>
      <circle cx="716.97" cy="66.33" r="1.18" fill="#fff"/>
      <circle cx="721.32" cy="66.33" r="1.18" fill="#fff"/>
      <circle cx="725.67" cy="66.33" r="1.18" fill="#fff"/>
      <circle cx="695.22" cy="57.61" r="1.18" fill="#fff"/>
      <circle cx="699.57" cy="57.62" r="1.18" fill="#fff"/>
      <circle cx="703.92" cy="57.62" r="1.18" fill="#fff"/>
      <circle cx="708.27" cy="57.62" r="1.18" fill="#fff"/>
      <circle cx="712.62" cy="57.62" r="1.18" fill="#fff"/>
      <circle cx="716.97" cy="57.63" r="1.18" fill="#fff"/>
      <circle cx="721.33" cy="57.63" r="1.18" fill="#fff"/>
      <circle cx="725.68" cy="57.63" r="1.18" fill="#fff"/>
      <circle cx="695.22" cy="48.91" r="1.18" fill="#fff"/>
      <circle cx="699.57" cy="48.91" r="1.18" fill="#fff"/>
      <circle cx="703.92" cy="48.92" r="1.18" fill="#fff"/>
      <circle cx="708.28" cy="48.92" r="1.18" fill="#fff"/>
      <circle cx="712.63" cy="48.92" r="1.18" fill="#fff"/>
      <circle cx="716.98" cy="48.92" r="1.18" fill="#fff"/>
      <circle cx="721.33" cy="48.92" r="1.18" fill="#fff"/>
      <circle cx="725.68" cy="48.93" r="1.18" fill="#fff"/>
      <line x1="691.07" y1="44.1" x2="729.91" y2="44.12" fill="none" stroke="#fff" stroke-miterlimit="10" stroke-width="0.5"/>
      <rect x="733.75" y="35.29" width="38.84" height="82.55" fill="#159c80" stroke="#159c80" stroke-miterlimit="10" stroke-width="0.5"/>
      <line x1="733.76" y1="62.3" x2="772.6" y2="62.33" fill="none" stroke="#fff" stroke-miterlimit="10" stroke-width="0.5"/>
      <line x1="733.76" y1="70.69" x2="772.6" y2="70.71" fill="none" stroke="#fff" stroke-miterlimit="10" stroke-width="0.5"/>
      <line x1="733.77" y1="53.66" x2="772.61" y2="53.68" fill="none" stroke="#fff" stroke-miterlimit="10" stroke-width="0.5"/>
      <line x1="733.74" y1="96.72" x2="772.58" y2="96.74" fill="none" stroke="#fff" stroke-miterlimit="10" stroke-width="0.5"/>
      <line x1="733.74" y1="104.96" x2="772.58" y2="104.98" fill="none" stroke="#fff" stroke-miterlimit="10" stroke-width="0.5"/>
      <line x1="733.75" y1="79.41" x2="772.59" y2="79.44" fill="none" stroke="#fff" stroke-miterlimit="10" stroke-width="0.5"/>
      <line x1="733.75" y1="88.22" x2="772.59" y2="88.24" fill="none" stroke="#fff" stroke-miterlimit="10" stroke-width="0.5"/>
      <circle cx="737.89" cy="101.15" r="1.18" fill="#fff"/>
      <circle cx="742.25" cy="101.16" r="1.18" fill="#fff"/>
      <circle cx="746.6" cy="101.16" r="1.18" fill="#fff"/>
      <circle cx="750.95" cy="101.16" r="1.18" fill="#fff"/>
      <circle cx="755.3" cy="101.16" r="1.18" fill="#fff"/>
      <circle cx="759.65" cy="101.17" r="1.18" fill="#fff"/>
      <circle cx="764" cy="101.17" r="1.18" fill="#fff"/>
      <circle cx="768.36" cy="101.17" r="1.18" fill="#fff"/>
      <circle cx="737.9" cy="92.45" r="1.18" fill="#fff"/>
      <circle cx="742.25" cy="92.45" r="1.18" fill="#fff"/>
      <circle cx="746.6" cy="92.46" r="1.18" fill="#fff"/>
      <circle cx="750.95" cy="92.46" r="1.18" fill="#fff"/>
      <circle cx="755.31" cy="92.46" r="1.18" fill="#fff"/>
      <circle cx="759.66" cy="92.46" r="1.18" fill="#fff"/>
      <circle cx="764.01" cy="92.46" r="1.18" fill="#fff"/>
      <circle cx="768.36" cy="92.47" r="1.18" fill="#fff"/>
      <circle cx="737.9" cy="83.75" r="1.18" fill="#fff"/>
      <circle cx="742.26" cy="83.75" r="1.18" fill="#fff"/>
      <circle cx="746.61" cy="83.75" r="1.18" fill="#fff"/>
      <circle cx="750.96" cy="83.75" r="1.18" fill="#fff"/>
      <circle cx="755.31" cy="83.76" r="1.18" fill="#fff"/>
      <circle cx="759.66" cy="83.76" r="1.18" fill="#fff"/>
      <circle cx="764.01" cy="83.76" r="1.18" fill="#fff"/>
      <circle cx="768.37" cy="83.76" r="1.18" fill="#fff"/>
      <circle cx="737.91" cy="75.04" r="1.18" fill="#fff"/>
      <circle cx="742.26" cy="75.05" r="1.18" fill="#fff"/>
      <circle cx="746.61" cy="75.05" r="1.18" fill="#fff"/>
      <circle cx="750.96" cy="75.05" r="1.18" fill="#fff"/>
      <circle cx="755.32" cy="75.05" r="1.18" fill="#fff"/>
      <circle cx="759.67" cy="75.06" r="1.18" fill="#fff"/>
      <circle cx="764.02" cy="75.06" r="1.18" fill="#fff"/>
      <circle cx="768.37" cy="75.06" r="1.18" fill="#fff"/>
      <circle cx="737.91" cy="66.34" r="1.18" fill="#fff"/>
      <circle cx="742.27" cy="66.34" r="1.18" fill="#fff"/>
      <circle cx="746.62" cy="66.35" r="1.18" fill="#fff"/>
      <circle cx="750.97" cy="66.35" r="1.18" fill="#fff"/>
      <circle cx="755.32" cy="66.35" r="1.18" fill="#fff"/>
      <circle cx="759.67" cy="66.35" r="1.18" fill="#fff"/>
      <circle cx="764.02" cy="66.36" r="1.18" fill="#fff"/>
      <circle cx="768.38" cy="66.36" r="1.18" fill="#fff"/>
      <circle cx="737.92" cy="57.64" r="1.18" fill="#fff"/>
      <circle cx="742.27" cy="57.64" r="1.18" fill="#fff"/>
      <circle cx="746.62" cy="57.64" r="1.18" fill="#fff"/>
      <circle cx="750.97" cy="57.64" r="1.18" fill="#fff"/>
      <circle cx="755.33" cy="57.65" r="1.18" fill="#fff"/>
      <circle cx="759.68" cy="57.65" r="1.18" fill="#fff"/>
      <circle cx="764.03" cy="57.65" r="1.18" fill="#fff"/>
      <circle cx="768.38" cy="57.65" r="1.18" fill="#fff"/>
      <circle cx="737.92" cy="48.93" r="1.18" fill="#fff"/>
      <circle cx="742.28" cy="48.94" r="1.18" fill="#fff"/>
      <circle cx="746.63" cy="48.94" r="1.18" fill="#fff"/>
      <circle cx="750.98" cy="48.94" r="1.18" fill="#fff"/>
      <circle cx="755.33" cy="48.94" r="1.18" fill="#fff"/>
      <circle cx="759.68" cy="48.95" r="1.18" fill="#fff"/>
      <circle cx="764.03" cy="48.95" r="1.18" fill="#fff"/>
      <circle cx="768.38" cy="48.95" r="1.18" fill="#fff"/>
      <line x1="733.77" y1="44.13" x2="772.61" y2="44.15" fill="none" stroke="#fff" stroke-miterlimit="10" stroke-width="0.5"/>
      <circle cx="777.93" cy="44.19" r="26.68" fill="#479aad"/>
      <path d="M778.09,16.25a27.8,27.8,0,1,0,0,55.59h0a27.8,27.8,0,1,0,0-55.59Zm20,10.54a14.23,14.23,0,0,1-3.82,3.69,20.44,20.44,0,0,1-3.5,1.89,37,37,0,0,0-4.29-8.74,35.91,35.91,0,0,0-4.73-5.76,26.27,26.27,0,0,1,15,7.49C797.24,25.83,797.69,26.3,798.11,26.79ZM779.49,70.45l-.75,0v-17a34,34,0,0,1,10.76,1.79,36,36,0,0,1-4.14,8.44A33,33,0,0,1,779.49,70.45ZM766.63,55.23a33,33,0,0,1,10.76-1.78v17c-.25,0-.5,0-.74,0A35.6,35.6,0,0,1,766.63,55.23Zm10-37.58.74,0v17a33.67,33.67,0,0,1-10.75-1.79,35.77,35.77,0,0,1,4.13-8.43A32.61,32.61,0,0,1,776.67,17.65Zm12.85,15.21a34,34,0,0,1-10.76,1.79v-17l.75,0A35.62,35.62,0,0,1,789.52,32.86ZM778.76,36a34.69,34.69,0,0,0,11.18-1.83,35.44,35.44,0,0,1,1.4,9.19H778.76Zm-1.36,0v7.36H764.82a35.09,35.09,0,0,1,1.41-9.19A34.59,34.59,0,0,0,777.4,36Zm-13.94,7.35H751.65a26.18,26.18,0,0,1,5.52-15.48A18,18,0,0,0,765,33.68,36.39,36.39,0,0,0,763.46,43.36Zm0,1.36A36,36,0,0,0,765,54.4a18,18,0,0,0-7.8,5.8,26.19,26.19,0,0,1-5.5-15.49Zm1.36,0H777.4v7.36a34.38,34.38,0,0,0-11.17,1.82A34.61,34.61,0,0,1,764.82,44.72Zm13.93,7.37V44.73h12.57a35,35,0,0,1-1.4,9.19A34.69,34.69,0,0,0,778.75,52.09Zm14-7.35h11.81A26.28,26.28,0,0,1,799,60.23a17.9,17.9,0,0,0-7.79-5.81A36.39,36.39,0,0,0,792.7,44.74Zm0-1.37a36.41,36.41,0,0,0-1.49-9.68,18,18,0,0,0,7.8-5.8,26.21,26.21,0,0,1,5.5,15.49Zm-33.31-18a26.31,26.31,0,0,1,15-7.48,36.37,36.37,0,0,0-4.73,5.76,37,37,0,0,0-4.3,8.74,20,20,0,0,1-3.49-1.9,14.07,14.07,0,0,1-3.82-3.69C758.49,26.28,758.93,25.8,759.39,25.34Zm-1.34,36a16.42,16.42,0,0,1,7.32-5.57,37.43,37.43,0,0,0,4.29,8.74,36.9,36.9,0,0,0,4.72,5.76,26.28,26.28,0,0,1-15-7.5C758.91,62.27,758.47,61.79,758.05,61.3Zm38.71,1.45a26.25,26.25,0,0,1-15,7.48,37.47,37.47,0,0,0,9-14.49,20.35,20.35,0,0,1,3.49,1.89,14.37,14.37,0,0,1,3.82,3.7C797.67,61.81,797.22,62.29,796.76,62.75Z" fill="#fff"/>
    </g>
    <text transform="translate(693.41 135.96)" font-size="14" fill="#159c80" font-family="DroidSans-Bold, Droid Sans" font-weight="700">Application</text>
    <polygon points="692.03 144.86 457 320.06 453.55 315.42 448.34 327.5 461.41 325.96 457.95 321.33 692.97 146.14 692.03 144.86" fill="#1d81c4"/>
    <rect x="540.5" y="201.5" width="100" height="45" fill="#fff" stroke="#0071bc" stroke-miterlimit="10"/>
    <text transform="translate(565.61 219.21)" font-size="12" fill="#0071bc" font-family="Verdana, Verdana">External <tspan x="-10.25" y="14.4">inte</tspan><tspan x="12.51" y="14.4" letter-spacing="-0.02em">r</tspan><tspan x="17.42" y="14.4">actions</tspan></text>
    <polygon points="330.5 326.5 324.89 314.6 317.39 325.4 330.5 326.5" fill="#1d81c4"/>
  </g>
</svg>
