<svg xmlns="http://www.w3.org/2000/svg" width="807" height="385" viewBox="0 0 807 385">
  <title>infiltrator-1</title>
  <g>
    <g>
      <g>
        <polygon points="65.85 90.93 40.72 86.05 40.72 47.84 65.85 42.92 65.85 90.93" fill="#404041"/>
        <polygon points="67.02 90.93 92.18 86.05 92.18 47.84 67.02 42.92 67.02 90.93" fill="#f63"/>
        <path d="M78.94,48.71c.87.19,1.28.27,2.15.42v6.6c-2.53,2.48-3.77,3.81-6.3,6.71,2.53.12,3.77.15,6.3.27v6.52c3.47-.12,5.2-.15,8.6-.27a106.49,106.49,0,0,0-8.6,9.92V84c-.87.19-1.28.27-2.15.42v-6c2.53-3.21,3.77-4.73,6.26-7.52-2.53.16-3.77.2-6.3.35V64.58l-8.6-.19a109.5,109.5,0,0,1,8.6-9.65V52C78.94,50.7,78.94,50.05,78.94,48.71Z" fill="#fff"/>
      </g>
      <g>
        <path d="M2.49,129.69c-1,0-1.35-.4-1.35-1.35V106.6c0-.95.4-1.36,1.35-1.36H9.68c2.38,0,5.06,2.13,5.06,6a6.51,6.51,0,0,1-2.13,4.88c1.94,1.58,2.93,3,2.93,6.34,0,4.8-3.44,7.22-6.34,7.22Zm1.32-14.88H9.46c1.46,0,2.6-1.28,2.6-3.56s-1-3.33-2.6-3.33H3.81Zm0,12.21H9.46C11,127,13,125.73,13,122.47A4.71,4.71,0,0,0,11.91,119a2.88,2.88,0,0,0-2.45-1.46H3.81Z" fill="#f63"/>
        <path d="M32,122.62a7.32,7.32,0,0,1-14.63,0V106.71a1.48,1.48,0,0,1,1.36-1.58,1.48,1.48,0,0,1,1.32,1.58v16A5,5,0,0,0,22,126.25a3.67,3.67,0,0,0,2.71.88,3.79,3.79,0,0,0,2.75-.88,4.91,4.91,0,0,0,1.9-3.52v-16a1.46,1.46,0,0,1,1.32-1.58A1.5,1.5,0,0,1,32,106.71Z" fill="#f63"/>
        <path d="M42.59,105.24c4.29,0,6.93,2.75,6.93,7.22,0,2.5-.48,4.37-1.69,5.61a5.87,5.87,0,0,1-3.41,1.73l4.29,7.73a1.37,1.37,0,0,1,.26.95,1.41,1.41,0,0,1-1.1,1.21c-.59,0-1.06,0-1.47-.73l-5-9.05H37.2v8.43c0,.95-.36,1.35-1.32,1.35s-1.35-.4-1.35-1.35V106.6c0-.95.4-1.36,1.35-1.36Zm-5.39,2.68v9.31h6.2a2.39,2.39,0,0,0,2.42-1.1,5.28,5.28,0,0,0,1-3.67c0-3.26-1.94-4.54-3.52-4.54Z" fill="#f63"/>
        <path d="M60.15,105.24c4.29,0,6.92,2.75,6.92,7.22,0,3.49-.91,5.47-3.18,6.71a6.57,6.57,0,0,1-3.63.74h-5.5v8.43c0,.95-.37,1.35-1.32,1.35s-1.36-.4-1.36-1.35V106.6c0-.95.41-1.36,1.36-1.36Zm-5.39,2.68v9.31H61a2.37,2.37,0,0,0,2.42-1.1,5.24,5.24,0,0,0,1-3.67c0-3.26-1.94-4.54-3.52-4.54Z" fill="#f63"/>
        <path d="M79.54,118.55a6.07,6.07,0,0,1,2.89,5.35c0,2.68-2.78,5.94-7.62,5.94a16.74,16.74,0,0,1-3.92-.62c-2.57-.74-3-.55-3-2,0-.44.33-1.14,1.61-1.14.66,0,2.49,1.1,5.2,1.1,3.12,0,5-1.87,5-3.7a3.28,3.28,0,0,0-1.62-2.57L70.78,116A5.69,5.69,0,0,1,68,111.29c0-3.7,2.93-6.3,7.14-6.3a5.52,5.52,0,0,1,1.51.14c3.11.85,4.95,1.29,4.95,2.72a1.29,1.29,0,0,1-1.47,1.28c-.84,0-2.38-1.47-4.91-1.47-3,0-4.55,1.69-4.55,3.41a3.35,3.35,0,0,0,1.51,2.6Z" fill="#404042"/>
        <path d="M98.81,122.62a7.31,7.31,0,0,1-14.62,0V106.71a1.36,1.36,0,1,1,2.68,0v16a5,5,0,0,0,1.9,3.52,3.7,3.7,0,0,0,2.71.88,3.76,3.76,0,0,0,2.75-.88,4.89,4.89,0,0,0,1.91-3.52v-16a1.45,1.45,0,0,1,1.32-1.58,1.5,1.5,0,0,1,1.35,1.58Z" fill="#404042"/>
        <path d="M101.34,106.6c0-.95.41-1.36,1.36-1.36s1.32.41,1.32,1.36v21.74c0,.95-.37,1.35-1.32,1.35s-1.36-.4-1.36-1.35Z" fill="#404042"/>
        <path d="M113.77,107.92v20.42c0,.95-.41,1.35-1.36,1.35s-1.32-.4-1.32-1.35V107.92h-4.58a1.17,1.17,0,0,1-1.28-1.32,1.2,1.2,0,0,1,1.28-1.36h11.84a1.2,1.2,0,0,1,1.28,1.36,1.17,1.17,0,0,1-1.28,1.32Z" fill="#404042"/>
        <path d="M123.52,127h8.06a1.17,1.17,0,0,1,1.28,1.32,1.19,1.19,0,0,1-1.28,1.35H122.2c-1,0-1.36-.4-1.36-1.35V106.6c0-.95.4-1.36,1.36-1.36h9.38a1.2,1.2,0,0,1,1.28,1.36,1.17,1.17,0,0,1-1.28,1.32h-8.06V115h5.71c.81,0,1.25.48,1.25,1.36s-.44,1.32-1.25,1.32h-5.71Z" fill="#404042"/>
      </g>
    </g>
    <polygon points="119.5 81.17 467.61 81.17 467.61 86.95 479 80.38 467.61 73.8 467.61 79.58 119.5 79.58 119.5 81.17" fill="#1d81c4"/>
    <rect x="254" y="57" width="101" height="47" fill="#fff" stroke="#0071bc" stroke-miterlimit="10"/>
    <text transform="translate(265.12 76.4)" font-size="13" fill="#0071bc" font-family="Verdana, Verdana">Ou<tspan x="18.46" y="0" letter-spacing="-0.02em">t</tspan><tspan x="23.33" y="0">-o</tspan><tspan x="37.12" y="0" letter-spacing="-0.02em">f</tspan><tspan x="41.37" y="0">-band </tspan><tspan x="10.94" y="15.6">p</tspan><tspan x="19.04" y="15.6" letter-spacing="-0.01em">a</tspan><tspan x="26.74" y="15.6">yloads</tspan></text>
    <g>
      <path d="M234.44,366.66c-.57,0-.82-.24-.82-.82V352.77c0-.57.25-.81.82-.81h4.32a3.31,3.31,0,0,1,3,3.61,3.89,3.89,0,0,1-1.28,2.93,4.16,4.16,0,0,1,1.77,3.82,4,4,0,0,1-3.82,4.34Zm.79-9h3.4c.88,0,1.56-.77,1.56-2.14s-.59-2-1.56-2h-3.4Zm0,7.34h3.4c1,0,2.11-.77,2.11-2.73a2.83,2.83,0,0,0-.64-2.12,1.72,1.72,0,0,0-1.47-.88h-3.4Z" fill="#ea5c2c"/>
      <path d="M252.18,362.41a4.4,4.4,0,0,1-8.79,0v-9.57a.82.82,0,1,1,1.61,0v9.63a3,3,0,0,0,1.14,2.12,2.24,2.24,0,0,0,1.63.53,2.29,2.29,0,0,0,1.66-.53,2.94,2.94,0,0,0,1.14-2.12v-9.63a.88.88,0,0,1,.8-.95.91.91,0,0,1,.81.95Z" fill="#ea5c2c"/>
      <path d="M258.55,352c2.58,0,4.17,1.65,4.17,4.34a4.63,4.63,0,0,1-1,3.37,3.52,3.52,0,0,1-2.05,1l2.58,4.65a.81.81,0,0,1,.16.57.85.85,0,0,1-.67.73c-.35,0-.63,0-.88-.44l-3-5.45h-2.51v5.07c0,.58-.22.82-.79.82s-.82-.24-.82-.82V352.77c0-.57.24-.81.82-.81Zm-3.24,1.61v5.6H259a1.42,1.42,0,0,0,1.45-.67,3.12,3.12,0,0,0,.62-2.2c0-2-1.17-2.73-2.12-2.73Z" fill="#ea5c2c"/>
      <path d="M269.11,352c2.58,0,4.16,1.65,4.16,4.34,0,2.09-.55,3.28-1.91,4a4,4,0,0,1-2.19.44h-3.3v5.07c0,.58-.22.82-.8.82s-.81-.24-.81-.82V352.77c0-.57.24-.81.81-.81Zm-3.24,1.61v5.6h3.72a1.43,1.43,0,0,0,1.46-.67,3.16,3.16,0,0,0,.61-2.2c0-2-1.16-2.73-2.11-2.73Z" fill="#ea5c2c"/>
      <path d="M280.24,365.05a.7.7,0,0,1,.77.79.72.72,0,0,1-.77.82h-2.65a4,4,0,0,1-3.81-4.34v-6a4,4,0,0,1,3.81-4.34h2.65a.71.71,0,0,1,.77.81.7.7,0,0,1-.77.8H278a2.32,2.32,0,0,0-1.48.37,3,3,0,0,0-1.12,2.29v6.18a2.92,2.92,0,0,0,1.12,2.27,2.35,2.35,0,0,0,1.48.37Z" fill="#404042"/>
      <path d="M290.59,362.32a4.47,4.47,0,0,1-8.94,0v-6.09a4.47,4.47,0,0,1,8.94,0Zm-7.33.09a2.65,2.65,0,0,0,.57,1.6,2.46,2.46,0,0,0,2.29,1.11,2.24,2.24,0,0,0,1.72-.53,2.94,2.94,0,0,0,1.15-2.18v-6.26a2.85,2.85,0,0,0-.58-1.55,2.47,2.47,0,0,0-2.29-1.1,2.24,2.24,0,0,0-1.72.53,2.93,2.93,0,0,0-1.14,2.12Z" fill="#404042"/>
      <path d="M293.72,365.05H299a.7.7,0,0,1,.77.79.72.72,0,0,1-.77.82h-6.06c-.57,0-.81-.24-.81-.82V352.77c0-.57.24-.81.81-.81s.79.24.79.81Z" fill="#404042"/>
      <path d="M302,365.05h5.27a.7.7,0,0,1,.77.79.72.72,0,0,1-.77.82h-6.06c-.58,0-.82-.24-.82-.82V352.77c0-.57.24-.81.82-.81s.79.24.79.81Z" fill="#404042"/>
      <path d="M310.16,363.24l-.92,2.91c-.09.27-.29.51-.51.51-.75,0-1.08-.31-1.08-.66a1,1,0,0,1,.05-.38l4.14-12.89c.18-.55.35-.77.88-.77s.71.22.88.77l4.15,12.89a1.17,1.17,0,0,1,0,.38c0,.35-.33.66-1.08.66-.22,0-.42-.24-.51-.51l-.92-2.91Zm.58-1.61h4l-2-6.06Z" fill="#404042"/>
      <path d="M319.55,366.66c-.57,0-.81-.24-.81-.82V352.77c0-.57.24-.81.81-.81h4.32a3.31,3.31,0,0,1,3.05,3.61,3.89,3.89,0,0,1-1.28,2.93,4.15,4.15,0,0,1,1.76,3.82,4,4,0,0,1-3.81,4.34Zm.8-9h3.39c.88,0,1.57-.77,1.57-2.14s-.6-2-1.57-2h-3.39Zm0,7.34h3.39c.95,0,2.12-.77,2.12-2.73a2.87,2.87,0,0,0-.64-2.12,1.75,1.75,0,0,0-1.48-.88h-3.39Z" fill="#404042"/>
      <path d="M337.45,362.32a4.48,4.48,0,0,1-8.95,0v-6.09a4.48,4.48,0,0,1,8.95,0Zm-7.34.09a2.72,2.72,0,0,0,.57,1.6,2.46,2.46,0,0,0,2.3,1.11,2.21,2.21,0,0,0,1.71-.53,2.9,2.9,0,0,0,1.15-2.18v-6.26a2.92,2.92,0,0,0-.57-1.55,2.47,2.47,0,0,0-2.29-1.1,2.23,2.23,0,0,0-1.72.53,2.94,2.94,0,0,0-1.15,2.12Z" fill="#404042"/>
      <path d="M343.82,352c2.58,0,4.16,1.65,4.16,4.34a4.63,4.63,0,0,1-1,3.37,3.55,3.55,0,0,1-2.05,1l2.58,4.65a.82.82,0,0,1,.15.57.84.84,0,0,1-.66.73c-.35,0-.64,0-.88-.44l-3-5.45h-2.51v5.07c0,.58-.22.82-.8.82s-.81-.24-.81-.82V352.77c0-.57.24-.81.81-.81Zm-3.24,1.61v5.6h3.72a1.43,1.43,0,0,0,1.46-.67,3.16,3.16,0,0,0,.61-2.2c0-2-1.16-2.73-2.11-2.73Z" fill="#404042"/>
      <path d="M351,363.24l-.92,2.91c-.09.27-.29.51-.51.51-.75,0-1.08-.31-1.08-.66a1.17,1.17,0,0,1,0-.38l4.15-12.89c.17-.55.35-.77.88-.77s.7.22.88.77l4.14,12.89a1,1,0,0,1,.05.38c0,.35-.33.66-1.08.66-.22,0-.42-.24-.51-.51l-.92-2.91Zm.58-1.61h4l-2-6.06Z" fill="#404042"/>
      <path d="M363.45,353.57v12.27c0,.58-.24.82-.81.82s-.79-.24-.79-.82V353.57h-2.76a.71.71,0,0,1-.77-.8.72.72,0,0,1,.77-.81h7.12a.72.72,0,0,1,.77.81.71.71,0,0,1-.77.8Z" fill="#404042"/>
      <path d="M376.22,362.32a4.48,4.48,0,0,1-9,0v-6.09a4.48,4.48,0,0,1,9,0Zm-7.34.09a2.65,2.65,0,0,0,.57,1.6,2.46,2.46,0,0,0,2.29,1.11,2.23,2.23,0,0,0,1.72-.53,2.9,2.9,0,0,0,1.15-2.18v-6.26a2.85,2.85,0,0,0-.58-1.55,2.47,2.47,0,0,0-2.29-1.1A2.24,2.24,0,0,0,370,354a2.93,2.93,0,0,0-1.14,2.12Z" fill="#404042"/>
      <path d="M382.58,352c2.58,0,4.17,1.65,4.17,4.34a4.68,4.68,0,0,1-1,3.37,3.58,3.58,0,0,1-2.05,1l2.58,4.65a.88.88,0,0,1,.15.57.86.86,0,0,1-.66.73c-.35,0-.64,0-.88-.44l-3-5.45h-2.52v5.07c0,.58-.22.82-.79.82s-.81-.24-.81-.82V352.77c0-.57.24-.81.81-.81Zm-3.24,1.61v5.6h3.73a1.41,1.41,0,0,0,1.45-.67,3.12,3.12,0,0,0,.62-2.2c0-2-1.17-2.73-2.11-2.73Z" fill="#404042"/>
    </g>
    <g>
      <path d="M276.47,310.52a4.54,4.54,0,0,1-.25,1.51,2.83,2.83,0,0,1-.69,1.09,2.93,2.93,0,0,1-1.1.64A4.46,4.46,0,0,1,273,314l-1.8,0,.06-6.82,2,0a4.06,4.06,0,0,1,1.35.22,3,3,0,0,1,1,.65,2.79,2.79,0,0,1,.65,1.05A4.29,4.29,0,0,1,276.47,310.52Zm-1.47,0a3.68,3.68,0,0,0-.1-1,2.05,2.05,0,0,0-.33-.68,1.33,1.33,0,0,0-.53-.41,2,2,0,0,0-.72-.14h-.67l0,4.44h.53a1.7,1.7,0,0,0,1.38-.55A2.57,2.57,0,0,0,275,310.55Z" fill="#4c5054"/>
      <path d="M283.62,314.06l-1.84,0-2.64-5.18h0c0,.24,0,.48,0,.71l0,.64v.6l0,3.21h-1.3l.06-6.82h1.83l2.63,5.14h0l0-.7c0-.1,0-.2,0-.31s0-.21,0-.31v-.56l0-3.23h1.3Z" fill="#4c5054"/>
      <path d="M289.09,312.21a1.94,1.94,0,0,1-.16.82,1.71,1.71,0,0,1-.46.63,2.09,2.09,0,0,1-.74.39,3.44,3.44,0,0,1-1,.13,4.33,4.33,0,0,1-1-.11,3.47,3.47,0,0,1-.85-.32v-1.34l.45.21.47.19.47.13a3.56,3.56,0,0,0,.47.05,1.64,1.64,0,0,0,.41-.05.87.87,0,0,0,.27-.15.63.63,0,0,0,.16-.23.88.88,0,0,0,.05-.29.74.74,0,0,0-.08-.34,1,1,0,0,0-.23-.28,2.12,2.12,0,0,0-.35-.25l-.46-.26-.48-.27a2.66,2.66,0,0,1-.5-.4,2.26,2.26,0,0,1-.39-.58,1.94,1.94,0,0,1-.15-.8,2.14,2.14,0,0,1,.16-.82,1.56,1.56,0,0,1,.44-.6,1.88,1.88,0,0,1,.68-.38,3.09,3.09,0,0,1,.89-.12,2.63,2.63,0,0,1,.49,0,3.73,3.73,0,0,1,.46.09,4.34,4.34,0,0,1,.47.16l.48.21-.48,1.12-.39-.18-.36-.13-.33-.08a1.87,1.87,0,0,0-.34,0,.76.76,0,0,0-.56.19.69.69,0,0,0-.19.52.6.6,0,0,0,.05.3.64.64,0,0,0,.19.25,1.57,1.57,0,0,0,.33.24,4,4,0,0,0,.49.28c.23.13.44.26.64.39a3,3,0,0,1,.5.43,1.64,1.64,0,0,1,.32.54A1.69,1.69,0,0,1,289.09,312.21Z" fill="#4c5054"/>
    </g>
    <g>
      <path d="M277.21,340.29a2.1,2.1,0,0,1-.17.82,1.58,1.58,0,0,1-.46.62,2,2,0,0,1-.74.4,3.41,3.41,0,0,1-1,.13,4.35,4.35,0,0,1-1-.11,3.47,3.47,0,0,1-.85-.32l0-1.34.45.21a3.66,3.66,0,0,0,.46.18,2.75,2.75,0,0,0,.47.13,1.88,1.88,0,0,0,.47.05,1.05,1.05,0,0,0,.41-.05.69.69,0,0,0,.27-.14.6.6,0,0,0,.16-.23.93.93,0,0,0,.05-.29.63.63,0,0,0-.08-.34,1.13,1.13,0,0,0-.22-.28,2.8,2.8,0,0,0-.36-.25l-.46-.26-.48-.28a3,3,0,0,1-.5-.39,2,2,0,0,1-.38-.58,1.78,1.78,0,0,1-.16-.8,2.35,2.35,0,0,1,.16-.82,1.67,1.67,0,0,1,.44-.6,1.88,1.88,0,0,1,.68-.38,2.84,2.84,0,0,1,.9-.12l.48,0,.47.1a3.16,3.16,0,0,1,.46.16l.48.2-.48,1.13-.39-.18-.35-.13-.34-.08a1.84,1.84,0,0,0-.33,0,.75.75,0,0,0-.56.19.69.69,0,0,0-.2.51,1,1,0,0,0,.05.31.72.72,0,0,0,.19.25,1.57,1.57,0,0,0,.33.24,5,5,0,0,0,.49.28c.23.13.44.26.64.39a2.63,2.63,0,0,1,.5.43,1.87,1.87,0,0,1,.33.54A2.1,2.1,0,0,1,277.21,340.29Z" fill="#4c5054"/>
      <path d="M281.2,342.22l-1.45-5.37h0c0,.29,0,.57,0,.83s0,.24,0,.36,0,.24,0,.36,0,.23,0,.34V339l0,3.18h-1.29l.06-6.83,2,0,1.43,5.23h0l1.61-5.2h2l-.06,6.83h-1.35l0-3.23v-.28c0-.1,0-.21,0-.33s0-.23,0-.35,0-.23,0-.34c0-.26,0-.54,0-.82h0l-1.67,5.33Z" fill="#4c5054"/>
      <path d="M289.68,342.29h-1.45l0-5.62h-1.71v-1.21l4.86,0v1.21l-1.71,0Z" fill="#4c5054"/>
      <path d="M296.9,337.66a2.77,2.77,0,0,1-.14.86,1.82,1.82,0,0,1-.45.72,2.27,2.27,0,0,1-.82.49,3.59,3.59,0,0,1-1.26.17h-.33l0,2.43h-1.45l.06-6.83,1.9,0a3.46,3.46,0,0,1,1.13.16,2.2,2.2,0,0,1,.79.42,1.8,1.8,0,0,1,.45.67A2.36,2.36,0,0,1,296.9,337.66Zm-3,1.06h.29a1.51,1.51,0,0,0,.92-.24,1,1,0,0,0,.32-.78,1,1,0,0,0-.27-.76,1.39,1.39,0,0,0-.87-.25h-.37Z" fill="#4c5054"/>
    </g>
    <path d="M319.15,288.92a21.91,21.91,0,1,1,0,43.82" fill="#f63" stroke="#f63" stroke-miterlimit="10" stroke-width="2"/>
    <polygon points="329.56 308.34 325.88 308.34 329.56 304.38 329.56 297.47 328.01 297.47 328.01 303.84 321.84 309.89 328.01 309.89 328.01 314.87 331.47 314.81 328.01 318.45 328.01 325.41 329.56 325.41 329.56 318.98 335.16 313 329.56 313 329.56 308.34" fill="#fff"/>
    <line x1="290.19" y1="310.82" x2="318.84" y2="310.82" fill="none" stroke="#4c5054" stroke-miterlimit="10" stroke-width="2"/>
    <path d="M318.84,332.74a21.91,21.91,0,1,1,0-43.82Z" fill="none" stroke="#4c5054" stroke-miterlimit="10" stroke-width="2"/>
    <path d="M319.53,332.74c-6.6,0-11.95-9.81-11.95-21.91s5.35-21.91,11.95-21.91" fill="none" stroke="#4c5054" stroke-miterlimit="10" stroke-width="2"/>
    <path d="M318.84,301.18c-5.85,0-19.09-.35-23.07-13.89" fill="none" stroke="#4c5054" stroke-miterlimit="10" stroke-width="2"/>
    <path d="M318.84,320c-5.85,0-19.09.35-23.07,13.89" fill="none" stroke="#4c5054" stroke-miterlimit="10" stroke-width="2"/>
    <g>
      <path d="M281.52,285.79h-1.44v-2.94h-2.32v2.94h-1.45V279h1.45v2.67h2.32V279h1.44Z" fill="#4c5054"/>
      <path d="M285.73,285.79h-1.44v-5.62h-1.71V279h4.86v1.2h-1.71Z" fill="#4c5054"/>
      <path d="M291.07,285.79h-1.44v-5.62h-1.71V279h4.86v1.2h-1.71Z" fill="#4c5054"/>
      <path d="M298.26,281.1a2.76,2.76,0,0,1-.13.86,1.82,1.82,0,0,1-.45.72,2.15,2.15,0,0,1-.82.5,3.69,3.69,0,0,1-1.25.19h-.33v2.42h-1.45V279h1.9a3.77,3.77,0,0,1,1.13.15,1.87,1.87,0,0,1,.79.42,1.61,1.61,0,0,1,.46.66A2.54,2.54,0,0,1,298.26,281.1Zm-3,1.08h.28a1.52,1.52,0,0,0,.93-.24,1.15,1.15,0,0,0,0-1.54,1.33,1.33,0,0,0-.87-.24h-.37Z" fill="#4c5054"/>
    </g>
    <rect x="489.05" y="54" width="30.09" height="63.95" fill="#159c80" stroke="#159c80" stroke-miterlimit="10" stroke-width="0.5"/>
    <line x1="489.05" y1="74.93" x2="519.14" y2="74.94" fill="none" stroke="#fff" stroke-miterlimit="10" stroke-width="0.5"/>
    <line x1="489.05" y1="81.42" x2="519.14" y2="81.44" fill="none" stroke="#fff" stroke-miterlimit="10" stroke-width="0.5"/>
    <line x1="489.06" y1="68.23" x2="519.15" y2="68.25" fill="none" stroke="#fff" stroke-miterlimit="10" stroke-width="0.5"/>
    <line x1="489.04" y1="101.59" x2="519.13" y2="101.6" fill="none" stroke="#fff" stroke-miterlimit="10" stroke-width="0.5"/>
    <line x1="489.03" y1="107.97" x2="519.12" y2="107.99" fill="none" stroke="#fff" stroke-miterlimit="10" stroke-width="0.5"/>
    <line x1="489.05" y1="88.18" x2="519.14" y2="88.2" fill="none" stroke="#fff" stroke-miterlimit="10" stroke-width="0.5"/>
    <line x1="489.04" y1="95" x2="519.13" y2="95.02" fill="none" stroke="#fff" stroke-miterlimit="10" stroke-width="0.5"/>
    <circle cx="459.25" cy="105.02" r="0.91" fill="#fff"/>
    <circle cx="462.63" cy="105.02" r="0.91" fill="#fff"/>
    <circle cx="499" cy="105.03" r="0.91" fill="#fff"/>
    <circle cx="502.37" cy="105.03" r="0.91" fill="#fff"/>
    <circle cx="505.74" cy="105.03" r="0.91" fill="#fff"/>
    <circle cx="509.11" cy="105.03" r="0.91" fill="#fff"/>
    <circle cx="512.48" cy="105.03" r="0.91" fill="#fff"/>
    <circle cx="515.85" cy="105.04" r="0.91" fill="#fff"/>
    <circle cx="459.26" cy="98.28" r="0.91" fill="#fff"/>
    <circle cx="462.63" cy="98.28" r="0.91" fill="#fff"/>
    <circle cx="499" cy="98.28" r="0.91" fill="#fff"/>
    <circle cx="502.37" cy="98.29" r="0.91" fill="#fff"/>
    <circle cx="505.74" cy="98.29" r="0.91" fill="#fff"/>
    <circle cx="509.11" cy="98.29" r="0.91" fill="#fff"/>
    <circle cx="512.49" cy="98.29" r="0.91" fill="#fff"/>
    <circle cx="515.86" cy="98.29" r="0.91" fill="#fff"/>
    <circle cx="459.26" cy="91.54" r="0.91" fill="#fff"/>
    <circle cx="462.63" cy="91.54" r="0.91" fill="#fff"/>
    <circle cx="499" cy="91.54" r="0.91" fill="#fff"/>
    <circle cx="502.38" cy="91.54" r="0.91" fill="#fff"/>
    <circle cx="505.75" cy="91.55" r="0.91" fill="#fff"/>
    <circle cx="509.12" cy="91.55" r="0.91" fill="#fff"/>
    <circle cx="512.49" cy="91.55" r="0.91" fill="#fff"/>
    <circle cx="515.86" cy="91.55" r="0.91" fill="#fff"/>
    <circle cx="459.27" cy="84.8" r="0.91" fill="#fff"/>
    <circle cx="462.64" cy="84.8" r="0.91" fill="#fff"/>
    <circle cx="499.01" cy="84.8" r="0.91" fill="#fff"/>
    <circle cx="502.38" cy="84.8" r="0.91" fill="#fff"/>
    <circle cx="505.75" cy="84.8" r="0.91" fill="#fff"/>
    <circle cx="509.12" cy="84.81" r="0.91" fill="#fff"/>
    <circle cx="512.49" cy="84.81" r="0.91" fill="#fff"/>
    <circle cx="515.86" cy="84.81" r="0.91" fill="#fff"/>
    <circle cx="459.27" cy="78.05" r="0.91" fill="#fff"/>
    <circle cx="462.64" cy="78.06" r="0.91" fill="#fff"/>
    <circle cx="499.01" cy="78.06" r="0.91" fill="#fff"/>
    <circle cx="502.38" cy="78.06" r="0.91" fill="#fff"/>
    <circle cx="505.75" cy="78.06" r="0.91" fill="#fff"/>
    <circle cx="509.13" cy="78.06" r="0.91" fill="#fff"/>
    <circle cx="512.5" cy="78.06" r="0.91" fill="#fff"/>
    <circle cx="515.87" cy="78.07" r="0.91" fill="#fff"/>
    <circle cx="459.27" cy="71.31" r="0.91" fill="#fff"/>
    <circle cx="462.64" cy="71.31" r="0.91" fill="#fff"/>
    <circle cx="499.02" cy="71.31" r="0.91" fill="#fff"/>
    <circle cx="502.39" cy="71.32" r="0.91" fill="#fff"/>
    <circle cx="505.76" cy="71.32" r="0.91" fill="#fff"/>
    <circle cx="509.13" cy="71.32" r="0.91" fill="#fff"/>
    <circle cx="512.5" cy="71.32" r="0.91" fill="#fff"/>
    <circle cx="515.87" cy="71.32" r="0.91" fill="#fff"/>
    <circle cx="459.28" cy="64.57" r="0.91" fill="#fff"/>
    <circle cx="462.65" cy="64.57" r="0.91" fill="#fff"/>
    <circle cx="499.02" cy="64.57" r="0.91" fill="#fff"/>
    <circle cx="502.39" cy="64.57" r="0.91" fill="#fff"/>
    <circle cx="505.76" cy="64.58" r="0.91" fill="#fff"/>
    <circle cx="509.13" cy="64.58" r="0.91" fill="#fff"/>
    <circle cx="512.5" cy="64.58" r="0.91" fill="#fff"/>
    <circle cx="515.88" cy="64.58" r="0.91" fill="#fff"/>
    <line x1="489.06" y1="60.84" x2="519.15" y2="60.86" fill="none" stroke="#fff" stroke-miterlimit="10" stroke-width="0.5"/>
    <rect x="522.13" y="54.02" width="30.09" height="63.95" fill="#159c80" stroke="#159c80" stroke-miterlimit="10" stroke-width="0.5"/>
    <line x1="522.13" y1="74.94" x2="552.22" y2="74.96" fill="none" stroke="#fff" stroke-miterlimit="10" stroke-width="0.5"/>
    <line x1="522.13" y1="81.44" x2="552.22" y2="81.46" fill="none" stroke="#fff" stroke-miterlimit="10" stroke-width="0.5"/>
    <line x1="522.14" y1="68.25" x2="552.23" y2="68.27" fill="none" stroke="#fff" stroke-miterlimit="10" stroke-width="0.5"/>
    <line x1="522.12" y1="101.61" x2="552.21" y2="101.62" fill="none" stroke="#fff" stroke-miterlimit="10" stroke-width="0.5"/>
    <line x1="522.12" y1="107.99" x2="552.21" y2="108.01" fill="none" stroke="#fff" stroke-miterlimit="10" stroke-width="0.5"/>
    <line x1="522.13" y1="88.2" x2="552.22" y2="88.22" fill="none" stroke="#fff" stroke-miterlimit="10" stroke-width="0.5"/>
    <line x1="522.12" y1="95.02" x2="552.21" y2="95.04" fill="none" stroke="#fff" stroke-miterlimit="10" stroke-width="0.5"/>
    <circle cx="525.34" cy="105.04" r="0.91" fill="#fff"/>
    <circle cx="528.71" cy="105.04" r="0.91" fill="#fff"/>
    <circle cx="532.08" cy="105.04" r="0.91" fill="#fff"/>
    <circle cx="535.45" cy="105.05" r="0.91" fill="#fff"/>
    <circle cx="538.82" cy="105.05" r="0.91" fill="#fff"/>
    <circle cx="542.19" cy="105.05" r="0.91" fill="#fff"/>
    <circle cx="545.56" cy="105.05" r="0.91" fill="#fff"/>
    <circle cx="548.93" cy="105.05" r="0.91" fill="#fff"/>
    <circle cx="525.34" cy="98.3" r="0.91" fill="#fff"/>
    <circle cx="528.71" cy="98.3" r="0.91" fill="#fff"/>
    <circle cx="532.08" cy="98.3" r="0.91" fill="#fff"/>
    <circle cx="535.45" cy="98.3" r="0.91" fill="#fff"/>
    <circle cx="538.82" cy="98.31" r="0.91" fill="#fff"/>
    <circle cx="542.2" cy="98.31" r="0.91" fill="#fff"/>
    <circle cx="545.57" cy="98.31" r="0.91" fill="#fff"/>
    <circle cx="548.94" cy="98.31" r="0.91" fill="#fff"/>
    <circle cx="525.34" cy="91.56" r="0.91" fill="#fff"/>
    <circle cx="528.71" cy="91.56" r="0.91" fill="#fff"/>
    <circle cx="532.09" cy="91.56" r="0.91" fill="#fff"/>
    <circle cx="535.46" cy="91.56" r="0.91" fill="#fff"/>
    <circle cx="538.83" cy="91.56" r="0.91" fill="#fff"/>
    <circle cx="542.2" cy="91.57" r="0.91" fill="#fff"/>
    <circle cx="545.57" cy="91.57" r="0.91" fill="#fff"/>
    <circle cx="548.94" cy="91.57" r="0.91" fill="#fff"/>
    <circle cx="525.35" cy="84.81" r="0.91" fill="#fff"/>
    <circle cx="528.72" cy="84.82" r="0.91" fill="#fff"/>
    <circle cx="532.09" cy="84.82" r="0.91" fill="#fff"/>
    <circle cx="535.46" cy="84.82" r="0.91" fill="#fff"/>
    <circle cx="538.83" cy="84.82" r="0.91" fill="#fff"/>
    <circle cx="542.2" cy="84.82" r="0.91" fill="#fff"/>
    <circle cx="545.57" cy="84.83" r="0.91" fill="#fff"/>
    <circle cx="548.95" cy="84.83" r="0.91" fill="#fff"/>
    <circle cx="525.35" cy="78.07" r="0.91" fill="#fff"/>
    <circle cx="528.72" cy="78.07" r="0.91" fill="#fff"/>
    <circle cx="532.09" cy="78.08" r="0.91" fill="#fff"/>
    <circle cx="535.46" cy="78.08" r="0.91" fill="#fff"/>
    <circle cx="538.84" cy="78.08" r="0.91" fill="#fff"/>
    <circle cx="542.21" cy="78.08" r="0.91" fill="#fff"/>
    <circle cx="545.58" cy="78.08" r="0.91" fill="#fff"/>
    <circle cx="548.95" cy="78.08" r="0.91" fill="#fff"/>
    <circle cx="525.35" cy="71.33" r="0.91" fill="#fff"/>
    <circle cx="528.73" cy="71.33" r="0.91" fill="#fff"/>
    <circle cx="532.1" cy="71.33" r="0.91" fill="#fff"/>
    <circle cx="535.47" cy="71.33" r="0.91" fill="#fff"/>
    <circle cx="538.84" cy="71.34" r="0.91" fill="#fff"/>
    <circle cx="542.21" cy="71.34" r="0.91" fill="#fff"/>
    <circle cx="545.58" cy="71.34" r="0.91" fill="#fff"/>
    <circle cx="548.95" cy="71.34" r="0.91" fill="#fff"/>
    <circle cx="525.36" cy="64.59" r="0.91" fill="#fff"/>
    <circle cx="528.73" cy="64.59" r="0.91" fill="#fff"/>
    <circle cx="532.1" cy="64.59" r="0.91" fill="#fff"/>
    <circle cx="535.47" cy="64.59" r="0.91" fill="#fff"/>
    <circle cx="538.84" cy="64.59" r="0.91" fill="#fff"/>
    <circle cx="542.21" cy="64.6" r="0.91" fill="#fff"/>
    <circle cx="545.59" cy="64.6" r="0.91" fill="#fff"/>
    <circle cx="548.96" cy="64.6" r="0.91" fill="#fff"/>
    <line x1="522.14" y1="60.86" x2="552.23" y2="60.88" fill="none" stroke="#fff" stroke-miterlimit="10" stroke-width="0.5"/>
    <text transform="translate(479.85 135.32)" font-size="13" fill="#159c80" font-family="Verdana-Bold, Verdana" font-weight="700">Application</text>
    <polygon points="529.92 143.46 369.72 314.15 365.5 310.19 362.5 323 375.09 319.19 370.88 315.24 531.08 144.54 529.92 143.46" fill="#1d81c4"/>
    <rect x="362.5" y="207" width="184" height="45" fill="#fff" stroke="#0071bc" stroke-miterlimit="10"/>
    <text transform="translate(367.77 225.47)" font-size="13" fill="#0071bc" font-family="Verdana, Verdana">Inte<tspan x="26.56" y="0" letter-spacing="-0.02em">r</tspan><tspan x="31.88" y="0">actions with details of </tspan><tspan x="35.64" y="15.6">unsafe API calls</tspan></text>
    <g>
      <g>
        <path d="M684.46,50.77c0-.67.28-1,1-1s.93.29.93,1v15.4c0,.68-.26,1-.93,1s-1-.28-1-1Z" fill="#404042"/>
        <path d="M691.29,54.49V66.17c0,.68-.26,1-.94,1s-1-.28-1-1V50.77c0-.67.29-1,1-1s.73.26,1.12,1L698,62.46V50.77c0-.67.26-1,.93-1s1,.29,1,1v15.4c0,.68-.28,1-1,1s-.72-.26-1.11-1Z" fill="#404042"/>
        <path d="M704.84,58.64v7.53c0,.68-.26,1-.93,1s-1-.28-1-1V50.77c0-.67.28-1,1-1h6.65a.85.85,0,0,1,.91,1,.84.84,0,0,1-.91.94h-5.72v5h4.06c.57,0,.88.34.88,1s-.31.93-.88.93Z" fill="#404042"/>
        <path d="M713.44,50.77c0-.67.29-1,1-1s.94.29.94,1v15.4c0,.68-.26,1-.94,1s-1-.28-1-1Z" fill="#404042"/>
        <path d="M720.27,65.24h6.21a.83.83,0,0,1,.91.93.85.85,0,0,1-.91,1h-7.14c-.68,0-1-.28-1-1V50.77c0-.67.28-1,1-1s.93.29.93,1Z" fill="#404042"/>
        <path d="M733.42,51.71V66.17c0,.68-.29,1-1,1s-.93-.28-.93-1V51.71h-3.25a.84.84,0,0,1-.91-.94.85.85,0,0,1,.91-1h8.39a.85.85,0,0,1,.91,1,.84.84,0,0,1-.91.94Z" fill="#404042"/>
        <path d="M744.84,49.81c3,0,4.91,1.95,4.91,5.12a5.46,5.46,0,0,1-1.19,4,4.2,4.2,0,0,1-2.42,1.22l3,5.48a1,1,0,0,1,.18.68,1,1,0,0,1-.78.85c-.41,0-.75,0-1-.52L744,60.2h-3v6c0,.68-.26,1-.94,1s-1-.28-1-1V50.77c0-.67.29-1,1-1ZM741,51.71V58.3h4.39a1.68,1.68,0,0,0,1.71-.78,3.69,3.69,0,0,0,.73-2.59c0-2.31-1.38-3.22-2.5-3.22Z" fill="#404042"/>
        <path d="M754,63.11l-1.09,3.43c-.1.31-.34.59-.6.59-.88,0-1.27-.36-1.27-.78a1.27,1.27,0,0,1,.05-.44L756,50.72c.2-.65.41-.91,1-.91s.83.26,1,.91L763,65.91a1.27,1.27,0,0,1,0,.44c0,.42-.39.78-1.27.78-.26,0-.5-.28-.6-.59L760,63.11Zm.68-1.9h4.67L757,54.07Z" fill="#404042"/>
        <path d="M769.39,51.71V66.17c0,.68-.29,1-1,1s-.94-.28-.94-1V51.71h-3.24a.84.84,0,0,1-.91-.94.85.85,0,0,1,.91-1h8.39a.85.85,0,0,1,.91,1,.84.84,0,0,1-.91.94Z" fill="#404042"/>
        <path d="M785.13,62a5.28,5.28,0,0,1-10.55,0V54.85a5.28,5.28,0,0,1,10.55,0Zm-8.65.1a3.21,3.21,0,0,0,.68,1.9,2.91,2.91,0,0,0,2.7,1.3,2.62,2.62,0,0,0,2-.63,3.44,3.44,0,0,0,1.35-2.57V54.75a3.33,3.33,0,0,0-.67-1.82,2.89,2.89,0,0,0-2.7-1.3,2.62,2.62,0,0,0-2,.62,3.49,3.49,0,0,0-1.35,2.5Z" fill="#404042"/>
        <path d="M793.34,49.81c3,0,4.91,1.95,4.91,5.12a5.46,5.46,0,0,1-1.2,4,4.2,4.2,0,0,1-2.41,1.22l3,5.48a1.05,1.05,0,0,1,.18.68,1,1,0,0,1-.78.85c-.42,0-.76,0-1-.52l-3.56-6.41h-3v6c0,.68-.26,1-.94,1s-1-.28-1-1V50.77c0-.67.29-1,1-1Zm-3.82,1.9V58.3h4.39a1.67,1.67,0,0,0,1.71-.78,3.69,3.69,0,0,0,.73-2.59c0-2.31-1.38-3.22-2.49-3.22Z" fill="#404042"/>
      </g>
      <g>
        <polygon points="620.48 68.5 610.02 66.47 610.02 50.55 620.48 48.5 620.48 68.5" fill="#404041"/>
        <polygon points="620.97 68.5 631.45 66.47 631.45 50.55 620.97 48.5 620.97 68.5" fill="#f63"/>
        <path d="M625.94,50.91c.36.08.53.12.89.18v2.75c-1.05,1-1.57,1.59-2.62,2.79l2.62.11v2.72l3.59-.11a42.65,42.65,0,0,0-3.59,4.13v2.14c-.36.08-.53.12-.89.18V63.31c1-1.34,1.57-2,2.61-3.13l-2.63.14v-2.8l-3.58-.08a46.94,46.94,0,0,1,3.58-4V52.28C625.94,51.74,625.94,51.47,625.94,50.91Z" fill="#fff"/>
      </g>
      <g>
        <path d="M636.6,67.31c-.68,0-1-.29-1-1V50.69c0-.68.29-1,1-1h5.17c1.72,0,3.64,1.53,3.64,4.32a4.68,4.68,0,0,1-1.53,3.51A5,5,0,0,1,646,62.11c0,3.46-2.48,5.2-4.56,5.2Zm.95-10.71h4.06c1.06,0,1.88-.92,1.88-2.56s-.72-2.4-1.88-2.4h-4.06Zm0,8.78h4.06c1.14,0,2.54-.92,2.54-3.27a3.43,3.43,0,0,0-.77-2.53,2.09,2.09,0,0,0-1.77-1h-4.06Z" fill="#f63"/>
        <path d="M657.83,62.22a5.26,5.26,0,0,1-10.52,0V50.77a1,1,0,1,1,1.93,0V62.3a3.52,3.52,0,0,0,1.37,2.53,2.63,2.63,0,0,0,1.95.63,2.7,2.7,0,0,0,2-.63,3.52,3.52,0,0,0,1.37-2.53V50.77a1,1,0,0,1,1-1.13,1.07,1.07,0,0,1,1,1.13Z" fill="#f63"/>
        <path d="M665.46,49.72c3.08,0,5,2,5,5.19a5.58,5.58,0,0,1-1.21,4,4.24,4.24,0,0,1-2.46,1.24l3.09,5.56a1,1,0,0,1,.19.69,1,1,0,0,1-.8.87c-.42,0-.76,0-1-.53l-3.61-6.51h-3v6.06c0,.69-.27,1-1,1s-1-.29-1-1V50.69c0-.68.29-1,1-1Zm-3.88,1.92v6.7H666a1.72,1.72,0,0,0,1.74-.79,3.77,3.77,0,0,0,.74-2.64c0-2.34-1.4-3.27-2.54-3.27Z" fill="#f63"/>
        <path d="M678.09,49.72c3.09,0,5,2,5,5.19,0,2.51-.65,3.93-2.29,4.83a4.73,4.73,0,0,1-2.61.53h-4v6.06c0,.69-.26,1-1,1s-1-.29-1-1V50.69c0-.68.29-1,1-1Zm-3.88,1.92v6.7h4.46a1.71,1.71,0,0,0,1.74-.79,3.77,3.77,0,0,0,.74-2.64c0-2.34-1.4-3.27-2.53-3.27Z" fill="#f63"/>
      </g>
    </g>
    <line x1="601.5" y1="76" x2="548.5" y2="105" fill="none" stroke="#dce3e5" stroke-miterlimit="10"/>
    <line x1="548.5" y1="105" x2="805.5" y2="76" fill="none" stroke="#dce3e5" stroke-miterlimit="10"/>
    <line x1="601.5" y1="44" x2="548.5" y2="105" fill="none" stroke="#dce3e5" stroke-miterlimit="10"/>
    <circle cx="556.35" cy="54.91" r="20.67" fill="#479aad"/>
    <path d="M556.48,33.27a21.53,21.53,0,1,0,0,43.06h0a21.53,21.53,0,1,0,0-43.06ZM572,41.43a10.88,10.88,0,0,1-3,2.86,15.71,15.71,0,0,1-2.7,1.46A29,29,0,0,0,563,39a27.91,27.91,0,0,0-3.66-4.46A20.34,20.34,0,0,1,571,40.33C571.31,40.68,571.66,41.05,572,41.43ZM557.56,75.25l-.58,0V62.08a26.39,26.39,0,0,1,8.33,1.39,28.05,28.05,0,0,1-3.2,6.54A25.46,25.46,0,0,1,557.56,75.25Zm-10-11.78a25.26,25.26,0,0,1,8.33-1.39V75.27l-.58,0A27.6,27.6,0,0,1,547.6,63.47Zm7.77-29.12.58,0V47.52a26.39,26.39,0,0,1-8.33-1.39,28.05,28.05,0,0,1,3.2-6.54A25.77,25.77,0,0,1,555.37,34.35Zm10,11.79A26.36,26.36,0,0,1,557,47.52V34.33l.58,0A27.67,27.67,0,0,1,565.33,46.14ZM557,48.57a26.91,26.91,0,0,0,8.65-1.41,26.85,26.85,0,0,1,1.09,7.12H557Zm-1.06,0v5.7H546.2a27,27,0,0,1,1.09-7.12A26.61,26.61,0,0,0,555.94,48.57Zm-10.8,5.7H536a20.32,20.32,0,0,1,4.28-12,13.88,13.88,0,0,0,6,4.5A27.9,27.9,0,0,0,545.14,54.27Zm0,1a28.31,28.31,0,0,0,1.15,7.5,13.92,13.92,0,0,0-6,4.5,20.35,20.35,0,0,1-4.26-12Zm1.06,0h9.74V61a26.93,26.93,0,0,0-8.66,1.41A26.46,26.46,0,0,1,546.2,55.32ZM557,61v-5.7h9.75a27.4,27.4,0,0,1-1.1,7.12A26.61,26.61,0,0,0,557,61Zm10.8-5.7h9.15a20.31,20.31,0,0,1-4.27,12,14,14,0,0,0-6-4.5A27.9,27.9,0,0,0,567.79,55.33Zm0-1a28.44,28.44,0,0,0-1.15-7.5,14,14,0,0,0,6-4.49,20.33,20.33,0,0,1,4.26,12Zm-25.8-14a20.34,20.34,0,0,1,11.63-5.79,29.06,29.06,0,0,0-7,11.22,16.12,16.12,0,0,1-2.71-1.46,11.18,11.18,0,0,1-3-2.87C541.29,41,541.63,40.67,542,40.31Zm-1,27.86a12.78,12.78,0,0,1,5.67-4.32,29.23,29.23,0,0,0,3.32,6.77,27.91,27.91,0,0,0,3.66,4.46A20.28,20.28,0,0,1,542,69.27C541.62,68.92,541.28,68.55,541,68.17Zm30,1.12a20.33,20.33,0,0,1-11.63,5.8A28.87,28.87,0,0,0,563,70.63a29.41,29.41,0,0,0,3.34-6.77,15.76,15.76,0,0,1,2.7,1.47,10.88,10.88,0,0,1,3,2.86C571.64,68.57,571.3,68.93,570.94,69.29Z" fill="#fff"/>
    <rect x="601.5" y="44" width="204" height="32" fill="none" stroke="#dce3e5" stroke-miterlimit="10"/>
    <g>
      <polygon points="536.74 115.93 525 113.65 525 95.8 536.74 93.5 536.74 115.93" fill="#404041"/>
      <polygon points="537.28 115.93 549.04 113.65 549.04 95.8 537.28 93.5 537.28 115.93" fill="#f63"/>
      <path d="M542.85,96.21c.41.09.6.12,1,.19v3.09c-1.18,1.15-1.77,1.78-3,3.13l3,.12v3.05l4-.12a50.4,50.4,0,0,0-4,4.63v2.4c-.41.09-.6.13-1,.2v-2.8c1.18-1.49,1.76-2.21,2.93-3.51l-2.95.16v-3.13l-4-.09a52.07,52.07,0,0,1,4-4.51V97.74C542.85,97.13,542.85,96.83,542.85,96.21Z" fill="#fff"/>
    </g>
    <g>
      <polygon points="250.54 314.92 75.34 149.86 79.3 145.65 66.5 142.63 70.28 155.22 74.25 151.01 249.46 316.08 250.54 314.92" fill="#1d81c4"/>
      <polygon points="69.64 146.89 245.66 312.76 241.7 316.97 254.5 320 250.72 307.4 246.75 311.61 70.73 145.74 69.64 146.89" fill="#1d81c4"/>
    </g>
    <rect x="93.5" y="210" width="133" height="45" fill="#fff" stroke="#0071bc" stroke-miterlimit="10"/>
    <text transform="translate(101.47 227.88)" font-size="13" fill="#0071bc" font-family="Verdana, Verdana"><tspan letter-spacing="-0.02em">R</tspan><tspan x="8.72" y="0">etrie</tspan><tspan x="38.45" y="0" letter-spacing="-0.01em">v</tspan><tspan x="46.03" y="0">e details of </tspan><tspan x="7.44" y="15.6">unsafe API calls </tspan></text>
  </g>
</svg>
